<?xml version="1.0" encoding="UTF-8" standalone="no"?>
<!DOCTYPE svg PUBLIC "-//W3C//DTD SVG 1.1//EN" "http://www.w3.org/Graphics/SVG/1.1/DTD/svg11.dtd">
<svg xmlns:xlink="http://www.w3.org/1999/xlink" height="35.63055555555555mm" version="1.1" viewBox="0 0 101 101" width="35.63055555555555mm" x="0mm" y="0mm" xmlns="http://www.w3.org/2000/svg">
  <g transform="matrix(1 0 0 -1 50.5 50.5)">
    <path d="M0.0,50.0 C27.5957512247,50.0 50.0,27.5957512247 50.0,0.0 C50.0,-27.5957512247 27.5957512247,-50.0 0.0,-50.0 C-27.5957512247,-50.0 -50.0,-27.5957512247 -50.0,0.0 C-50.0,27.5957512247 -27.5957512247,50.0 0.0,50.0 Z" style="fill:none;stroke:rgb(0,0,0);stroke-miterlimit:10;"/>
    <path d="M0.0,50.0 C27.5957512247,50.0 50.0,27.5957512247 50.0,0.0 C50.0,-27.5957512247 27.5957512247,-50.0 0.0,-50.0 C-27.5957512247,-50.0 -50.0,-27.5957512247 -50.0,0.0 C-50.0,27.5957512247 -27.5957512247,50.0 0.0,50.0 Z" style="fill:rgb(0,0,139);stroke:none;"/>
    <path d="M0.0,30.0 C16.557450734819998,30.0 30.0,16.557450734819998 30.0,0.0 C30.0,-16.557450734819998 16.557450734819998,-30.0 0.0,-30.0 C-16.557450734819998,-30.0 -30.0,-16.557450734819998 -30.0,0.0 C-30.0,16.557450734819998 -16.557450734819998,30.0 0.0,30.0 Z" style="fill:none;stroke:rgb(0,0,0);stroke-miterlimit:10;"/>
    <path d="M0.0,30.0 C16.557450734819998,30.0 30.0,16.557450734819998 30.0,0.0 C30.0,-16.557450734819998 16.557450734819998,-30.0 0.0,-30.0 C-16.557450734819998,-30.0 -30.0,-16.557450734819998 -30.0,0.0 C-30.0,16.557450734819998 -16.557450734819998,30.0 0.0,30.0 Z" style="fill:rgb(255,255,255);stroke:none;"/>
    <path d="M0.0,20.0 C11.03830048988,20.0 20.0,11.03830048988 20.0,0.0 C20.0,-11.03830048988 11.03830048988,-20.0 0.0,-20.0 C-11.03830048988,-20.0 -20.0,-11.03830048988 -20.0,0.0 C-20.0,11.03830048988 -11.03830048988,20.0 0.0,20.0 Z" style="fill:none;stroke:rgb(0,0,0);stroke-miterlimit:10;"/>
    <path d="M0.0,20.0 C11.03830048988,20.0 20.0,11.03830048988 20.0,0.0 C20.0,-11.03830048988 11.03830048988,-20.0 0.0,-20.0 C-11.03830048988,-20.0 -20.0,-11.03830048988 -20.0,0.0 C-20.0,11.03830048988 -11.03830048988,20.0 0.0,20.0 Z" style="fill:rgb(100,149,237);stroke:none;"/>
    <path d="M0.0,10.0 C5.51915024494,10.0 10.0,5.51915024494 10.0,0.0 C10.0,-5.51915024494 5.51915024494,-10.0 0.0,-10.0 C-5.51915024494,-10.0 -10.0,-5.51915024494 -10.0,0.0 C-10.0,5.51915024494 -5.51915024494,10.0 0.0,10.0 Z" style="fill:none;stroke:rgb(0,0,0);stroke-miterlimit:10;"/>
    <path d="M0.0,10.0 C5.51915024494,10.0 10.0,5.51915024494 10.0,0.0 C10.0,-5.51915024494 5.51915024494,-10.0 0.0,-10.0 C-5.51915024494,-10.0 -10.0,-5.51915024494 -10.0,0.0 C-10.0,5.51915024494 -5.51915024494,10.0 0.0,10.0 Z" style="fill:rgb(0,0,0);stroke:none;"/>
  </g>
</svg>
