<?xml version="1.0" encoding="UTF-8" standalone="no"?>
<!DOCTYPE svg PUBLIC "-//W3C//DTD SVG 1.1//EN" "http://www.w3.org/Graphics/SVG/1.1/DTD/svg11.dtd">
<svg xmlns:xlink="http://www.w3.org/1999/xlink" height="28.574999999999996mm" version="1.1" viewBox="0 0 162 81" width="57.14999999999999mm" x="0mm" y="0mm" xmlns="http://www.w3.org/2000/svg">
  <g transform="matrix(1 0 0 -1 81 40.5)">
    <path d="M0.0,40.0 C22.07660097976,40.0 40.0,22.07660097976 40.0,0.0 C40.0,-22.07660097976 22.07660097976,-40.0 0.0,-40.0 C-22.07660097976,-40.0 -40.0,-22.07660097976 -40.0,0.0 C-40.0,22.07660097976 -22.07660097976,40.0 0.0,40.0 Z" style="fill:none;stroke:rgb(0,0,0);stroke-miterlimit:10;"/>
    <path d="M0.0,40.0 C22.07660097976,40.0 40.0,22.07660097976 40.0,0.0 C40.0,-22.07660097976 22.07660097976,-40.0 0.0,-40.0 C-22.07660097976,-40.0 -40.0,-22.07660097976 -40.0,0.0 C-40.0,22.07660097976 -22.07660097976,40.0 0.0,40.0 Z" style="fill:rgb(0,128,0);fill-opacity:0.5019607843137255;stroke:none;"/>
    <path d="M-40.5,40.0 C-18.42339902024,40.0 -0.5,22.07660097976 -0.5,0.0 C-0.5,-22.07660097976 -18.42339902024,-40.0 -40.5,-40.0 C-62.57660097976,-40.0 -80.5,-22.07660097976 -80.5,0.0 C-80.5,22.07660097976 -62.57660097976,40.0 -40.5,40.0 Z" style="fill:none;stroke:rgb(0,0,0);stroke-miterlimit:10;"/>
    <path d="M-40.5,40.0 C-18.42339902024,40.0 -0.5,22.07660097976 -0.5,0.0 C-0.5,-22.07660097976 -18.42339902024,-40.0 -40.5,-40.0 C-62.57660097976,-40.0 -80.5,-22.07660097976 -80.5,0.0 C-80.5,22.07660097976 -62.57660097976,40.0 -40.5,40.0 Z" style="fill:rgb(255,0,0);fill-opacity:0.5019607843137255;stroke:none;"/>
    <path d="M40.5,40.0 C62.57660097976,40.0 80.5,22.07660097976 80.5,0.0 C80.5,-22.07660097976 62.57660097976,-40.0 40.5,-40.0 C18.42339902024,-40.0 0.5,-22.07660097976 0.5,0.0 C0.5,22.07660097976 18.42339902024,40.0 40.5,40.0 Z" style="fill:none;stroke:rgb(0,0,0);stroke-miterlimit:10;"/>
    <path d="M40.5,40.0 C62.57660097976,40.0 80.5,22.07660097976 80.5,0.0 C80.5,-22.07660097976 62.57660097976,-40.0 40.5,-40.0 C18.42339902024,-40.0 0.5,-22.07660097976 0.5,0.0 C0.5,22.07660097976 18.42339902024,40.0 40.5,40.0 Z" style="fill:rgb(0,0,255);fill-opacity:0.5019607843137255;stroke:none;"/>
  </g>
</svg>
