<?xml version="1.0" encoding="UTF-8" standalone="no"?>
<!DOCTYPE svg PUBLIC "-//W3C//DTD SVG 1.1//EN" "http://www.w3.org/Graphics/SVG/1.1/DTD/svg11.dtd">
<svg xmlns:xlink="http://www.w3.org/1999/xlink" height="7.408333333333332mm" version="1.1" viewBox="0 0 231 21" width="81.49166666666666mm" x="0mm" y="0mm" xmlns="http://www.w3.org/2000/svg">
  <g transform="matrix(1 0 0 -1 115.5 10.5)">
    <path d="M-115.0,10.0 L-95.0,10.0 L-95.0,-10.0 L-115.0,-10.0 L-115.0,10.0 Z" style="fill:none;stroke:rgb(0,0,0);stroke-miterlimit:10;"/>
    <path d="M-115.0,10.0 L-95.0,10.0 L-95.0,-10.0 L-115.0,-10.0 L-115.0,10.0 Z" style="fill:rgb(128,128,128);stroke:none;"/>
    <path d="M-94.0,10.0 L-74.0,10.0 L-74.0,-10.0 L-94.0,-10.0 L-94.0,10.0 Z" style="fill:none;stroke:rgb(0,0,0);stroke-miterlimit:10;"/>
    <path d="M-94.0,10.0 L-74.0,10.0 L-74.0,-10.0 L-94.0,-10.0 L-94.0,10.0 Z" style="fill:rgb(115,140,140);stroke:none;"/>
    <path d="M-73.0,10.0 L-53.0,10.0 L-53.0,-10.0 L-73.0,-10.0 L-73.0,10.0 Z" style="fill:none;stroke:rgb(0,0,0);stroke-miterlimit:10;"/>
    <path d="M-73.0,10.0 L-53.0,10.0 L-53.0,-10.0 L-73.0,-10.0 L-73.0,10.0 Z" style="fill:rgb(102,153,153);stroke:none;"/>
    <path d="M-52.0,10.0 L-32.0,10.0 L-32.0,-10.0 L-52.0,-10.0 L-52.0,10.0 Z" style="fill:none;stroke:rgb(0,0,0);stroke-miterlimit:10;"/>
    <path d="M-52.0,10.0 L-32.0,10.0 L-32.0,-10.0 L-52.0,-10.0 L-52.0,10.0 Z" style="fill:rgb(89,166,166);stroke:none;"/>
    <path d="M-31.0,10.0 L-11.0,10.0 L-11.0,-10.0 L-31.0,-10.0 L-31.0,10.0 Z" style="fill:none;stroke:rgb(0,0,0);stroke-miterlimit:10;"/>
    <path d="M-31.0,10.0 L-11.0,10.0 L-11.0,-10.0 L-31.0,-10.0 L-31.0,10.0 Z" style="fill:rgb(77,178,179);stroke:none;"/>
    <path d="M-10.0,10.0 L10.0,10.0 L10.0,-10.0 L-10.0,-10.0 L-10.0,10.0 Z" style="fill:none;stroke:rgb(0,0,0);stroke-miterlimit:10;"/>
    <path d="M-10.0,10.0 L10.0,10.0 L10.0,-10.0 L-10.0,-10.0 L-10.0,10.0 Z" style="fill:rgb(64,191,191);stroke:none;"/>
    <path d="M11.0,10.0 L31.0,10.0 L31.0,-10.0 L11.0,-10.0 L11.0,10.0 Z" style="fill:none;stroke:rgb(0,0,0);stroke-miterlimit:10;"/>
    <path d="M11.0,10.0 L31.0,10.0 L31.0,-10.0 L11.0,-10.0 L11.0,10.0 Z" style="fill:rgb(51,204,204);stroke:none;"/>
    <path d="M32.0,10.0 L52.0,10.0 L52.0,-10.0 L32.0,-10.0 L32.0,10.0 Z" style="fill:none;stroke:rgb(0,0,0);stroke-miterlimit:10;"/>
    <path d="M32.0,10.0 L52.0,10.0 L52.0,-10.0 L32.0,-10.0 L32.0,10.0 Z" style="fill:rgb(38,217,217);stroke:none;"/>
    <path d="M53.0,10.0 L73.0,10.0 L73.0,-10.0 L53.0,-10.0 L53.0,10.0 Z" style="fill:none;stroke:rgb(0,0,0);stroke-miterlimit:10;"/>
    <path d="M53.0,10.0 L73.0,10.0 L73.0,-10.0 L53.0,-10.0 L53.0,10.0 Z" style="fill:rgb(26,229,229);stroke:none;"/>
    <path d="M74.0,10.0 L94.0,10.0 L94.0,-10.0 L74.0,-10.0 L74.0,10.0 Z" style="fill:none;stroke:rgb(0,0,0);stroke-miterlimit:10;"/>
    <path d="M74.0,10.0 L94.0,10.0 L94.0,-10.0 L74.0,-10.0 L74.0,10.0 Z" style="fill:rgb(13,242,242);stroke:none;"/>
    <path d="M95.0,10.0 L115.0,10.0 L115.0,-10.0 L95.0,-10.0 L95.0,10.0 Z" style="fill:none;stroke:rgb(0,0,0);stroke-miterlimit:10;"/>
    <path d="M95.0,10.0 L115.0,10.0 L115.0,-10.0 L95.0,-10.0 L95.0,10.0 Z" style="fill:rgb(0,255,255);stroke:none;"/>
  </g>
</svg>
