<?xml version="1.0" encoding="UTF-8" standalone="no"?>
<!DOCTYPE svg PUBLIC "-//W3C//DTD SVG 1.1//EN" "http://www.w3.org/Graphics/SVG/1.1/DTD/svg11.dtd">
<svg xmlns:xlink="http://www.w3.org/1999/xlink" height="28.927777777777774mm" version="1.1" viewBox="0 0 123 82" width="43.391666666666666mm" x="0mm" y="0mm" xmlns="http://www.w3.org/2000/svg">
  <g transform="matrix(1 0 0 -1 61.5 41)">
    <path d="M-41.0,40.5 C-29.96169951012,40.5 -21.0,31.53830048988 -21.0,20.5 C-21.0,9.46169951012 -29.96169951012,0.5 -41.0,0.5 C-52.03830048988,0.5 -61.0,9.46169951012 -61.0,20.5 C-61.0,31.53830048988 -52.03830048988,40.5 -41.0,40.5 Z" style="fill:none;stroke:rgb(0,0,0);stroke-miterlimit:10;"/>
    <path d="M-41.0,40.5 C-29.96169951012,40.5 -21.0,31.53830048988 -21.0,20.5 C-21.0,9.46169951012 -29.96169951012,0.5 -41.0,0.5 C-52.03830048988,0.5 -61.0,9.46169951012 -61.0,20.5 C-61.0,31.53830048988 -52.03830048988,40.5 -41.0,40.5 Z" style="fill:rgb(153,0,0);stroke:none;"/>
    <path d="M0.0,40.5 C11.03830048988,40.5 20.0,31.53830048988 20.0,20.5 C20.0,9.46169951012 11.03830048988,0.5 0.0,0.5 C-11.03830048988,0.5 -20.0,9.46169951012 -20.0,20.5 C-20.0,31.53830048988 -11.03830048988,40.5 0.0,40.5 Z" style="fill:none;stroke:rgb(0,0,0);stroke-miterlimit:10;"/>
    <path d="M0.0,40.5 C11.03830048988,40.5 20.0,31.53830048988 20.0,20.5 C20.0,9.46169951012 11.03830048988,0.5 0.0,0.5 C-11.03830048988,0.5 -20.0,9.46169951012 -20.0,20.5 C-20.0,31.53830048988 -11.03830048988,40.5 0.0,40.5 Z" style="fill:rgb(255,0,0);stroke:none;"/>
    <path d="M41.0,40.5 C52.03830048988,40.5 61.0,31.53830048988 61.0,20.5 C61.0,9.46169951012 52.03830048988,0.5 41.0,0.5 C29.96169951012,0.5 21.0,9.46169951012 21.0,20.5 C21.0,31.53830048988 29.96169951012,40.5 41.0,40.5 Z" style="fill:none;stroke:rgb(0,0,0);stroke-miterlimit:10;"/>
    <path d="M41.0,40.5 C52.03830048988,40.5 61.0,31.53830048988 61.0,20.5 C61.0,9.46169951012 52.03830048988,0.5 41.0,0.5 C29.96169951012,0.5 21.0,9.46169951012 21.0,20.5 C21.0,31.53830048988 29.96169951012,40.5 41.0,40.5 Z" style="fill:rgb(255,102,102);stroke:none;"/>
    <path d="M-61.0,-0.5 L-21.0,-0.5 L-21.0,-40.5 L-61.0,-40.5 L-61.0,-0.5 Z" style="fill:none;stroke:rgb(0,0,0);stroke-miterlimit:10;"/>
    <path d="M-61.0,-0.5 L-21.0,-0.5 L-21.0,-40.5 L-61.0,-40.5 L-61.0,-0.5 Z" style="fill:rgb(179,77,77);stroke:none;"/>
    <path d="M-20.0,-0.5 L20.0,-0.5 L20.0,-40.5 L-20.0,-40.5 L-20.0,-0.5 Z" style="fill:none;stroke:rgb(0,0,0);stroke-miterlimit:10;"/>
    <path d="M-20.0,-0.5 L20.0,-0.5 L20.0,-40.5 L-20.0,-40.5 L-20.0,-0.5 Z" style="fill:rgb(217,38,38);stroke:none;"/>
    <path d="M21.0,-0.5 L61.0,-0.5 L61.0,-40.5 L21.0,-40.5 L21.0,-0.5 Z" style="fill:none;stroke:rgb(0,0,0);stroke-miterlimit:10;"/>
    <path d="M21.0,-0.5 L61.0,-0.5 L61.0,-40.5 L21.0,-40.5 L21.0,-0.5 Z" style="fill:rgb(255,0,0);stroke:none;"/>
  </g>
</svg>
