<?xml version="1.0" encoding="UTF-8" standalone="no"?>
<!DOCTYPE svg PUBLIC "-//W3C//DTD SVG 1.1//EN" "http://www.w3.org/Graphics/SVG/1.1/DTD/svg11.dtd">
<svg xmlns:xlink="http://www.w3.org/1999/xlink" height="40.21666666666666mm" version="1.1" viewBox="0 0 80 114" width="28.222222222222218mm" x="0mm" y="0mm" xmlns="http://www.w3.org/2000/svg">
  <g transform="matrix(1 0 0 -1 40 57)">
    <path d="M0.0,56.5 C16.557450734819998,56.5 30.0,43.057450734819994 30.0,26.5 C30.0,9.942549265180002 16.557450734819998,-3.5 0.0,-3.5 C-16.557450734819998,-3.5 -30.0,9.942549265180002 -30.0,26.5 C-30.0,43.057450734819994 -16.557450734819998,56.5 0.0,56.5 Z" style="fill:none;stroke:rgb(0,0,0);stroke-miterlimit:10;"/>
    <path d="M0.0,56.5 C16.557450734819998,56.5 30.0,43.057450734819994 30.0,26.5 C30.0,9.942549265180002 16.557450734819998,-3.5 0.0,-3.5 C-16.557450734819998,-3.5 -30.0,9.942549265180002 -30.0,26.5 C-30.0,43.057450734819994 -16.557450734819998,56.5 0.0,56.5 Z" style="fill:rgb(255,0,0);stroke:none;"/>
    <path d="M0.0,46.5 C11.03830048988,46.5 20.0,37.53830048988 20.0,26.5 C20.0,15.46169951012 11.03830048988,6.5 0.0,6.5 C-11.03830048988,6.5 -20.0,15.46169951012 -20.0,26.5 C-20.0,37.53830048988 -11.03830048988,46.5 0.0,46.5 Z" style="fill:none;stroke:rgb(0,0,0);stroke-miterlimit:10;"/>
    <path d="M0.0,46.5 C11.03830048988,46.5 20.0,37.53830048988 20.0,26.5 C20.0,15.46169951012 11.03830048988,6.5 0.0,6.5 C-11.03830048988,6.5 -20.0,15.46169951012 -20.0,26.5 C-20.0,37.53830048988 -11.03830048988,46.5 0.0,46.5 Z" style="fill:rgb(255,255,255);stroke:none;"/>
    <path d="M0.0,36.5 C5.51915024494,36.5 10.0,32.01915024494 10.0,26.5 C10.0,20.98084975506 5.51915024494,16.5 0.0,16.5 C-5.51915024494,16.5 -10.0,20.98084975506 -10.0,26.5 C-10.0,32.01915024494 -5.51915024494,36.5 0.0,36.5 Z" style="fill:none;stroke:rgb(0,0,0);stroke-miterlimit:10;"/>
    <path d="M0.0,36.5 C5.51915024494,36.5 10.0,32.01915024494 10.0,26.5 C10.0,20.98084975506 5.51915024494,16.5 0.0,16.5 C-5.51915024494,16.5 -10.0,20.98084975506 -10.0,26.5 C-10.0,32.01915024494 -5.51915024494,36.5 0.0,36.5 Z" style="fill:rgb(255,0,0);stroke:none;"/>
    <path d="M-3.0,-4.5 L3.0,-4.5 L3.0,-24.5 L-3.0,-24.5 L-3.0,-4.5 Z" style="fill:none;stroke:rgb(0,0,0);stroke-miterlimit:10;"/>
    <path d="M-10.0,-25.5 L10.0,-25.5 L10.0,-31.5 L-10.0,-31.5 L-10.0,-25.5 Z" style="fill:none;stroke:rgb(0,0,0);stroke-miterlimit:10;"/>
    <path d="M-10.0,-25.5 L10.0,-25.5 L10.0,-31.5 L-10.0,-31.5 L-10.0,-25.5 Z" style="fill:rgb(165,42,42);stroke:none;"/>
    <path d="M-40.0,-32.0 L40.0,-32.0 L40.0,-57.0 L-40.0,-57.0 L-40.0,-32.0 Z" style="fill:rgb(0,128,0);stroke:none;"/>
  </g>
</svg>
