<?xml version="1.0" encoding="UTF-8" standalone="no"?>
<!DOCTYPE svg PUBLIC "-//W3C//DTD SVG 1.1//EN" "http://www.w3.org/Graphics/SVG/1.1/DTD/svg11.dtd">
<svg xmlns:xlink="http://www.w3.org/1999/xlink" height="72.31944444444444mm" version="1.1" viewBox="0 0 615 205" width="216.95833333333331mm" x="0mm" y="0mm" xmlns="http://www.w3.org/2000/svg">
  <g transform="matrix(1 0 0 -1 307.5 102.5)">
    <path d="M-205.0,100.0 C-149.8084975506,100.0 -105.0,55.1915024494 -105.0,0.0 C-105.0,-55.1915024494 -149.8084975506,-100.0 -205.0,-100.0 C-260.1915024494,-100.0 -305.0,-55.1915024494 -305.0,0.0 C-305.0,55.1915024494 -260.1915024494,100.0 -205.0,100.0 Z" style="fill:none;stroke:rgb(0,0,0);stroke-width:5;stroke-miterlimit:10;"/>
    <path d="M-205.0,100.0 C-149.8084975506,100.0 -105.0,55.1915024494 -105.0,0.0 C-105.0,-55.1915024494 -149.8084975506,-100.0 -205.0,-100.0 C-260.1915024494,-100.0 -305.0,-55.1915024494 -305.0,0.0 C-305.0,55.1915024494 -260.1915024494,100.0 -205.0,100.0 Z" style="fill:rgb(255,0,0);stroke:none;"/>
    <path d="M0.0,100.0 C55.1915024494,100.0 100.0,55.1915024494 100.0,0.0 C100.0,-55.1915024494 55.1915024494,-100.0 0.0,-100.0 C-55.1915024494,-100.0 -100.0,-55.1915024494 -100.0,0.0 C-100.0,55.1915024494 -55.1915024494,100.0 0.0,100.0 Z" style="fill:none;stroke:rgb(0,0,0);stroke-width:5;stroke-miterlimit:10;"/>
    <path d="M0.0,100.0 C55.1915024494,100.0 100.0,55.1915024494 100.0,0.0 C100.0,-55.1915024494 55.1915024494,-100.0 0.0,-100.0 C-55.1915024494,-100.0 -100.0,-55.1915024494 -100.0,0.0 C-100.0,55.1915024494 -55.1915024494,100.0 0.0,100.0 Z" style="fill:rgb(255,64,0);stroke:none;"/>
    <path d="M205.0,100.0 C260.1915024494,100.0 305.0,55.1915024494 305.0,0.0 C305.0,-55.1915024494 260.1915024494,-100.0 205.0,-100.0 C149.8084975506,-100.0 105.0,-55.1915024494 105.0,0.0 C105.0,55.1915024494 149.8084975506,100.0 205.0,100.0 Z" style="fill:none;stroke:rgb(0,0,0);stroke-width:5;stroke-miterlimit:10;"/>
    <path d="M205.0,100.0 C260.1915024494,100.0 305.0,55.1915024494 305.0,0.0 C305.0,-55.1915024494 260.1915024494,-100.0 205.0,-100.0 C149.8084975506,-100.0 105.0,-55.1915024494 105.0,0.0 C105.0,55.1915024494 149.8084975506,100.0 205.0,100.0 Z" style="fill:rgb(255,128,0);stroke:none;"/>
  </g>
</svg>
