<?xml version="1.0" encoding="UTF-8" standalone="no"?>
<!DOCTYPE svg PUBLIC "-//W3C//DTD SVG 1.1//EN" "http://www.w3.org/Graphics/SVG/1.1/DTD/svg11.dtd">
<svg xmlns:xlink="http://www.w3.org/1999/xlink" height="42.68611111111111mm" version="1.1" viewBox="0 0 123 121" width="43.391666666666666mm" x="0mm" y="0mm" xmlns="http://www.w3.org/2000/svg">
  <g transform="matrix(1 0 0 -1 61.5 60.5)">
    <path d="M0.0,60.0 C33.114901469639996,60.0 60.0,33.114901469639996 60.0,0.0 C60.0,-33.114901469639996 33.114901469639996,-60.0 0.0,-60.0 C-33.114901469639996,-60.0 -60.0,-33.114901469639996 -60.0,0.0 C-60.0,33.114901469639996 -33.114901469639996,60.0 0.0,60.0 Z" style="fill:none;stroke:rgb(0,0,0);stroke-miterlimit:10;"/>
    <path d="M-41.0,20.0 C-29.96169951012,20.0 -21.0,11.03830048988 -21.0,0.0 C-21.0,-11.03830048988 -29.96169951012,-20.0 -41.0,-20.0 C-52.03830048988,-20.0 -61.0,-11.03830048988 -61.0,0.0 C-61.0,11.03830048988 -52.03830048988,20.0 -41.0,20.0 Z" style="fill:none;stroke:rgb(0,0,0);stroke-miterlimit:10;"/>
    <path d="M0.0,20.0 C11.03830048988,20.0 20.0,11.03830048988 20.0,0.0 C20.0,-11.03830048988 11.03830048988,-20.0 0.0,-20.0 C-11.03830048988,-20.0 -20.0,-11.03830048988 -20.0,0.0 C-20.0,11.03830048988 -11.03830048988,20.0 0.0,20.0 Z" style="fill:none;stroke:rgb(0,0,0);stroke-miterlimit:10;"/>
    <path d="M41.0,20.0 C52.03830048988,20.0 61.0,11.03830048988 61.0,0.0 C61.0,-11.03830048988 52.03830048988,-20.0 41.0,-20.0 C29.96169951012,-20.0 21.0,-11.03830048988 21.0,0.0 C21.0,11.03830048988 29.96169951012,20.0 41.0,20.0 Z" style="fill:none;stroke:rgb(0,0,0);stroke-miterlimit:10;"/>
  </g>
</svg>
