<?xml version="1.0" encoding="UTF-8" standalone="no"?>
<!DOCTYPE svg PUBLIC "-//W3C//DTD SVG 1.1//EN" "http://www.w3.org/Graphics/SVG/1.1/DTD/svg11.dtd">
<svg xmlns:xlink="http://www.w3.org/1999/xlink" height="105.73464476900224mm" version="1.1" viewBox="0 0 298.44596495258526 299.72025288851034" width="105.28510430271757mm" x="0mm" y="0mm" xmlns="http://www.w3.org/2000/svg">
  <g transform="matrix(1 0 0 -1 147.94596495258526 149.86012644425514)">
    <path d="M150.0,0.0 L150.0,-3.6739403974420595E-14 L139.87083441065337,-54.186249928072954 L110.85133758309888,-101.05434654698357 L66.86075336648078,-134.27449370325934 L13.84025391949523,-149.3601264442552 L-41.04944851081247,-144.27384647592285 L-90.39519545688847,-119.70258409203592 L-127.53257035944212,-78.96482443160338 L-147.44596495258526,-27.56242767248552 L-147.44596495258526,27.562427672485555 L-127.53257035944213,78.96482443160336 L-90.39519545688844,119.70258409203593 L-41.04944851081243,144.27384647592285 L13.840253919495302,149.36012644425517 L66.86075336648075,134.27449370325934 L110.85133758309887,101.05434654698358 L139.87083441065337,54.18624992807294 Z" style="fill:none;stroke:rgb(0,0,0);stroke-miterlimit:10;"/>
    <path d="M150.0,0.0 L150.0,-3.6739403974420595E-14 L139.87083441065337,-54.186249928072954 L110.85133758309888,-101.05434654698357 L66.86075336648078,-134.27449370325934 L13.84025391949523,-149.3601264442552 L-41.04944851081247,-144.27384647592285 L-90.39519545688847,-119.70258409203592 L-127.53257035944212,-78.96482443160338 L-147.44596495258526,-27.56242767248552 L-147.44596495258526,27.562427672485555 L-127.53257035944213,78.96482443160336 L-90.39519545688844,119.70258409203593 L-41.04944851081243,144.27384647592285 L13.840253919495302,149.36012644425517 L66.86075336648075,134.27449370325934 L110.85133758309887,101.05434654698358 L139.87083441065337,54.18624992807294 Z" style="fill:rgb(179,232,125);stroke:none;"/>
    <path d="M140.0,0.0 L140.0,-3.429011037612589E-14 L129.3431345515801,-53.57568053111265 L98.99494936611663,-98.99494936611667 L53.5756805311126,-129.34313455158014 L-2.5717582782094416E-14,-140.0 L-53.575680531112646,-129.3431345515801 L-98.99494936611667,-98.99494936611664 L-129.34313455158016,-53.57568053111255 L-140.0,1.7145055188062946E-14 L-129.34313455158014,53.57568053111258 L-98.99494936611664,98.99494936611666 L-53.57568053111256,129.34313455158014 L8.572527594031473E-15,140.0 L53.575680531112575,129.34313455158014 L98.99494936611666,98.99494936611664 L129.34313455158014,53.57568053111257 Z" style="fill:none;stroke:rgb(0,0,0);stroke-miterlimit:10;"/>
    <path d="M140.0,0.0 L140.0,-3.429011037612589E-14 L129.3431345515801,-53.57568053111265 L98.99494936611663,-98.99494936611667 L53.5756805311126,-129.34313455158014 L-2.5717582782094416E-14,-140.0 L-53.575680531112646,-129.3431345515801 L-98.99494936611667,-98.99494936611664 L-129.34313455158016,-53.57568053111255 L-140.0,1.7145055188062946E-14 L-129.34313455158014,53.57568053111258 L-98.99494936611664,98.99494936611666 L-53.57568053111256,129.34313455158014 L8.572527594031473E-15,140.0 L53.575680531112575,129.34313455158014 L98.99494936611666,98.99494936611664 L129.34313455158014,53.57568053111257 Z" style="fill:rgb(232,232,125);stroke:none;"/>
    <path d="M130.0,0.0 L130.0,-3.184081677783118E-14 L118.76090949353807,-52.87576359985412 L86.98697882665151,-96.6088273120613 L40.17220926874314,-123.63734711836997 L-13.588700224795051,-129.28784639787554 L-65.00000000000006,-112.58330249197701 L-105.17220926874317,-76.41208279802149 L-127.15918809539474,-27.02851980630868 L-127.15918809539473,27.028519806308765 L-105.17220926874316,76.41208279802152 L-64.99999999999997,112.58330249197704 L-13.588700224794934,129.28784639787554 L40.17220926874317,123.63734711836996 L86.98697882665157,96.60882731206125 L118.76090949353811,52.87576359985402 Z" style="fill:none;stroke:rgb(0,0,0);stroke-miterlimit:10;"/>
    <path d="M130.0,0.0 L130.0,-3.184081677783118E-14 L118.76090949353807,-52.87576359985412 L86.98697882665151,-96.6088273120613 L40.17220926874314,-123.63734711836997 L-13.588700224795051,-129.28784639787554 L-65.00000000000006,-112.58330249197701 L-105.17220926874317,-76.41208279802149 L-127.15918809539474,-27.02851980630868 L-127.15918809539473,27.028519806308765 L-105.17220926874316,76.41208279802152 L-64.99999999999997,112.58330249197704 L-13.588700224794934,129.28784639787554 L40.17220926874317,123.63734711836996 L86.98697882665157,96.60882731206125 L118.76090949353811,52.87576359985402 Z" style="fill:rgb(232,178,125);stroke:none;"/>
    <path d="M120.0,0.0 L120.0,-2.939152317953648E-14 L108.11626414829028,-52.066048694107 L74.818776223048,-93.81977789616359 L26.702512074757706,-116.99134946181883 L-26.70251207475775,-116.99134946181883 L-74.81877622304805,-93.81977789616356 L-108.1162641482903,-52.06604869410696 L-120.0,1.469576158976824E-14 L-108.11626414829028,52.06604869410699 L-74.81877622304802,93.81977789616359 L-26.70251207475772,116.99134946181883 L26.702512074757735,116.99134946181883 L74.81877622304803,93.81977789616357 L108.1162641482903,52.066048694106975 Z" style="fill:none;stroke:rgb(0,0,0);stroke-miterlimit:10;"/>
    <path d="M120.0,0.0 L120.0,-2.939152317953648E-14 L108.11626414829028,-52.066048694107 L74.818776223048,-93.81977789616359 L26.702512074757706,-116.99134946181883 L-26.70251207475775,-116.99134946181883 L-74.81877622304805,-93.81977789616356 L-108.1162641482903,-52.06604869410696 L-120.0,1.469576158976824E-14 L-108.11626414829028,52.06604869410699 L-74.81877622304802,93.81977789616359 L-26.70251207475772,116.99134946181883 L26.702512074757735,116.99134946181883 L74.81877622304803,93.81977789616357 L108.1162641482903,52.066048694106975 Z" style="fill:rgb(232,125,125);stroke:none;"/>
    <path d="M110.0,0.0 L110.0,-2.694222958124177E-14 L97.40016282185306,-51.11954892481461 L62.48712214042712,-90.52822524830222 L13.259034828085456,-109.19797615078595 L-39.00653757467895,-102.85178669539562 L-82.33618229882114,-72.94349240648745 L-106.80359991686574,-26.32472307163132 L-106.8035999168657,26.32472307163139 L-82.3361822988211,72.94349240648751 L-39.0065375746789,102.85178669539563 L13.259034828085555,109.19797615078593 L62.487122140427154,90.52822524830219 L97.40016282185309,51.11954892481454 Z" style="fill:none;stroke:rgb(0,0,0);stroke-miterlimit:10;"/>
    <path d="M110.0,0.0 L110.0,-2.694222958124177E-14 L97.40016282185306,-51.11954892481461 L62.48712214042712,-90.52822524830222 L13.259034828085456,-109.19797615078595 L-39.00653757467895,-102.85178669539562 L-82.33618229882114,-72.94349240648745 L-106.80359991686574,-26.32472307163132 L-106.8035999168657,26.32472307163139 L-82.3361822988211,72.94349240648751 L-39.0065375746789,102.85178669539563 L13.259034828085555,109.19797615078593 L62.487122140427154,90.52822524830219 L97.40016282185309,51.11954892481454 Z" style="fill:rgb(232,125,179);stroke:none;"/>
    <path d="M100.0,0.0 L100.0,-2.4492935982947064E-14 L86.60254037844383,-50.00000000000004 L49.999999999999936,-86.6025403784439 L-1.8369701987210297E-14,-100.0 L-50.00000000000004,-86.60254037844385 L-86.60254037844388,-49.99999999999997 L-100.0,1.2246467991473532E-14 L-86.60254037844385,50.000000000000036 L-49.99999999999998,86.60254037844388 L6.123233995736766E-15,100.0 L50.000000000000014,86.60254037844386 L86.60254037844388,49.99999999999999 Z" style="fill:none;stroke:rgb(0,0,0);stroke-miterlimit:10;"/>
    <path d="M100.0,0.0 L100.0,-2.4492935982947064E-14 L86.60254037844383,-50.00000000000004 L49.999999999999936,-86.6025403784439 L-1.8369701987210297E-14,-100.0 L-50.00000000000004,-86.60254037844385 L-86.60254037844388,-49.99999999999997 L-100.0,1.2246467991473532E-14 L-86.60254037844385,50.000000000000036 L-49.99999999999998,86.60254037844388 L6.123233995736766E-15,100.0 L50.000000000000014,86.60254037844386 L86.60254037844388,49.99999999999999 Z" style="fill:rgb(232,125,232);stroke:none;"/>
    <path d="M90.0,0.0 L90.0,-2.2043642384652358E-14 L75.71281795480631,-48.65767357100377 L37.387351170169744,-81.86687958190667 L-12.80833544459567,-89.08392976928394 L-58.93746605507567,-68.01746169188323 L-86.35436762530477,-25.355930115728647 L-86.35436762530476,25.355930115728672 L-58.937466055075646,68.01746169188326 L-12.80833544459565,89.08392976928396 L37.38735117016978,81.86687958190664 L75.71281795480631,48.65767357100378 Z" style="fill:none;stroke:rgb(0,0,0);stroke-miterlimit:10;"/>
    <path d="M90.0,0.0 L90.0,-2.2043642384652358E-14 L75.71281795480631,-48.65767357100377 L37.387351170169744,-81.86687958190667 L-12.80833544459567,-89.08392976928394 L-58.93746605507567,-68.01746169188323 L-86.35436762530477,-25.355930115728647 L-86.35436762530476,25.355930115728672 L-58.937466055075646,68.01746169188326 L-12.80833544459565,89.08392976928396 L37.38735117016978,81.86687958190664 L75.71281795480631,48.65767357100378 Z" style="fill:rgb(178,125,232);stroke:none;"/>
    <path d="M80.0,0.0 L80.0,-1.9594348786357652E-14 L64.72135954999578,-47.02282018339787 L24.72135954999578,-76.08452130361229 L-24.721359549995803,-76.08452130361228 L-64.7213595499958,-47.02282018339784 L-80.0,9.797174393178826E-15 L-64.72135954999578,47.02282018339786 L-24.72135954999579,76.08452130361229 L24.721359549995796,76.08452130361228 L64.7213595499958,47.022820183397855 Z" style="fill:none;stroke:rgb(0,0,0);stroke-miterlimit:10;"/>
    <path d="M80.0,0.0 L80.0,-1.9594348786357652E-14 L64.72135954999578,-47.02282018339787 L24.72135954999578,-76.08452130361229 L-24.721359549995803,-76.08452130361228 L-64.7213595499958,-47.02282018339784 L-80.0,9.797174393178826E-15 L-64.72135954999578,47.02282018339786 L-24.72135954999579,76.08452130361229 L24.721359549995796,76.08452130361228 L64.7213595499958,47.022820183397855 Z" style="fill:rgb(125,125,232);stroke:none;"/>
    <path d="M70.0,0.0 L70.0,-1.7145055188062946E-14 L53.623111018328444,-44.99513267805777 L12.155372436685099,-68.93654271085457 L-35.00000000000003,-60.621778264910695 L-65.77848345501359,-23.941410032796806 L-65.77848345501359,23.94141003279682 L-34.999999999999986,60.62177826491071 L12.155372436685129,68.93654271085457 L53.62311101832846,44.99513267805775 Z" style="fill:none;stroke:rgb(0,0,0);stroke-miterlimit:10;"/>
    <path d="M70.0,0.0 L70.0,-1.7145055188062946E-14 L53.623111018328444,-44.99513267805777 L12.155372436685099,-68.93654271085457 L-35.00000000000003,-60.621778264910695 L-65.77848345501359,-23.941410032796806 L-65.77848345501359,23.94141003279682 L-34.999999999999986,60.62177826491071 L12.155372436685129,68.93654271085457 L53.62311101832846,44.99513267805775 Z" style="fill:rgb(125,179,232);stroke:none;"/>
    <path d="M60.0,0.0 L60.0,-1.469576158976824E-14 L42.42640687119284,-42.42640687119286 L-1.1021821192326178E-14,-60.0 L-42.42640687119286,-42.426406871192846 L-60.0,7.34788079488412E-15 L-42.426406871192846,42.42640687119285 L3.67394039744206E-15,60.0 L42.42640687119285,42.426406871192846 Z" style="fill:none;stroke:rgb(0,0,0);stroke-miterlimit:10;"/>
    <path d="M60.0,0.0 L60.0,-1.469576158976824E-14 L42.42640687119284,-42.42640687119286 L-1.1021821192326178E-14,-60.0 L-42.42640687119286,-42.426406871192846 L-60.0,7.34788079488412E-15 L-42.426406871192846,42.42640687119285 L3.67394039744206E-15,60.0 L42.42640687119285,42.426406871192846 Z" style="fill:rgb(125,232,232);stroke:none;"/>
    <path d="M50.0,0.0 L50.0,-1.2246467991473532E-14 L31.17449009293667,-39.09157412340149 L-11.12604669781573,-48.74639560909118 L-45.048443395120955,-21.6941869558779 L-45.048443395120955,21.69418695587791 L-11.126046697815717,48.74639560909118 L31.17449009293668,39.09157412340149 Z" style="fill:none;stroke:rgb(0,0,0);stroke-miterlimit:10;"/>
    <path d="M50.0,0.0 L50.0,-1.2246467991473532E-14 L31.17449009293667,-39.09157412340149 L-11.12604669781573,-48.74639560909118 L-45.048443395120955,-21.6941869558779 L-45.048443395120955,21.69418695587791 L-11.126046697815717,48.74639560909118 L31.17449009293668,39.09157412340149 Z" style="fill:rgb(125,232,179);stroke:none;"/>
    <path d="M40.0,0.0 L40.0,-9.797174393178826E-15 L19.99999999999997,-34.64101615137756 L-20.000000000000018,-34.64101615137754 L-40.0,4.898587196589413E-15 L-19.999999999999993,34.64101615137755 L20.000000000000004,34.64101615137754 Z" style="fill:none;stroke:rgb(0,0,0);stroke-miterlimit:10;"/>
    <path d="M40.0,0.0 L40.0,-9.797174393178826E-15 L19.99999999999997,-34.64101615137756 L-20.000000000000018,-34.64101615137754 L-40.0,4.898587196589413E-15 L-19.999999999999993,34.64101615137755 L20.000000000000004,34.64101615137754 Z" style="fill:rgb(125,232,125);stroke:none;"/>
    <path d="M30.0,0.0 L30.0,-7.34788079488412E-15 L9.270509831248416,-28.53169548885461 L-24.270509831248425,-17.63355756877419 L-24.27050983124842,17.633557568774197 L9.270509831248424,28.531695488854606 Z" style="fill:none;stroke:rgb(0,0,0);stroke-miterlimit:10;"/>
    <path d="M30.0,0.0 L30.0,-7.34788079488412E-15 L9.270509831248416,-28.53169548885461 L-24.270509831248425,-17.63355756877419 L-24.27050983124842,17.633557568774197 L9.270509831248424,28.531695488854606 Z" style="fill:rgb(179,232,125);stroke:none;"/>
    <path d="M20.0,0.0 L20.0,-4.898587196589413E-15 L-3.673940397442059E-15,-20.0 L-20.0,2.4492935982947065E-15 L1.2246467991473533E-15,20.0 Z" style="fill:none;stroke:rgb(0,0,0);stroke-miterlimit:10;"/>
    <path d="M20.0,0.0 L20.0,-4.898587196589413E-15 L-3.673940397442059E-15,-20.0 L-20.0,2.4492935982947065E-15 L1.2246467991473533E-15,20.0 Z" style="fill:rgb(232,232,125);stroke:none;"/>
    <path d="M10.0,0.0 L10.0,-2.4492935982947065E-15 L-5.000000000000004,-8.660254037844386 L-4.999999999999998,8.660254037844387 Z" style="fill:none;stroke:rgb(0,0,0);stroke-miterlimit:10;"/>
    <path d="M10.0,0.0 L10.0,-2.4492935982947065E-15 L-5.000000000000004,-8.660254037844386 L-4.999999999999998,8.660254037844387 Z" style="fill:rgb(232,179,125);stroke:none;"/>
  </g>
</svg>
