<?xml version="1.0" encoding="UTF-8" standalone="no"?>
<!DOCTYPE svg PUBLIC "-//W3C//DTD SVG 1.1//EN" "http://www.w3.org/Graphics/SVG/1.1/DTD/svg11.dtd">
<svg xmlns:xlink="http://www.w3.org/1999/xlink" height="43.92880641852749mm" version="1.1" viewBox="0 0 377.31673979694534 124.52260087141653" width="133.10896098392237mm" x="0mm" y="0mm" xmlns="http://www.w3.org/2000/svg">
  <g transform="matrix(1 0 0 -1 188.65836989847267 62.261300435708264)">
    <path d="M-76.96951385444433,0.0 C-94.60883407944644,23.51141009169892 -108.42849419194746,57.06339097770921 -151.96951385444433,43.30127018922194 C-163.51133216014836,16.269465723032017 -185.65836989847267,-12.474701449065517 -151.96951385444436,-43.301270189221924 C-122.78837532373821,-39.78087581473093 -86.82167747291285,-44.58868952864368 -76.96951385444433,-1.2246467991473532E-14 Z" style="fill:none;stroke:rgb(175,238,238);stroke-width:6;stroke-miterlimit:10;"/>
    <path d="M-76.96951385444433,0.0 C-94.60883407944644,23.51141009169892 -108.42849419194746,57.06339097770921 -151.96951385444433,43.30127018922194 C-163.51133216014836,16.269465723032017 -185.65836989847267,-12.474701449065517 -151.96951385444436,-43.301270189221924 C-122.78837532373821,-39.78087581473093 -86.82167747291285,-44.58868952864368 -76.96951385444433,-1.2246467991473532E-14 Z" style="fill:rgb(64,224,208);stroke:none;"/>
    <path d="M33.64712564059131,35.35533905932737 C10.652466356261833,38.04226065180614 -11.094281321149914,59.261300435708264 -37.063552478063436,35.35533905932738 C-39.750474070542204,12.3606797749979 -60.96951385444433,-9.386067902413844 -37.06355247806345,-35.35533905932737 C-14.068893193733967,-38.04226065180614 7.677854483677775,-59.261300435708264 33.647125640591305,-35.355339059327385 C36.33404723307007,-12.360679774997905 57.5530870169722,9.386067902413837 33.64712564059132,35.35533905932737 Z" style="fill:none;stroke:rgb(175,238,238);stroke-width:6;stroke-miterlimit:10;"/>
    <path d="M33.64712564059131,35.35533905932737 C10.652466356261833,38.04226065180614 -11.094281321149914,59.261300435708264 -37.063552478063436,35.35533905932738 C-39.750474070542204,12.3606797749979 -60.96951385444433,-9.386067902413844 -37.06355247806345,-35.35533905932737 C-14.068893193733967,-38.04226065180614 7.677854483677775,-59.261300435708264 33.647125640591305,-35.355339059327385 C36.33404723307007,-12.360679774997905 57.5530870169722,9.386067902413837 33.64712564059132,35.35533905932737 Z" style="fill:rgb(64,224,208);stroke:none;"/>
    <path d="M148.53081881458823,47.552825814757675 C130.56834831466833,39.921069137130864 107.53321160193649,54.289623147961166 92.62911937709349,29.38926261462366 C94.33664265069561,9.947595486594192 73.55308701697217,-7.519994013858257 92.62911937709347,-29.38926261462365 C111.64689729668098,-33.77311702008059 121.83709022069738,-58.93723504372132 148.5308188145882,-47.55282581475768 C158.57692868578843,-30.820529711031583 185.65836989847267,-28.90522044610292 183.07996909584085,-1.2246467991473532E-14 C170.27102853137092,14.724982107387095 176.81808674112554,41.07282635572132 148.53081881458823,47.552825814757675 Z" style="fill:none;stroke:rgb(175,238,238);stroke-width:6;stroke-miterlimit:10;"/>
    <path d="M148.53081881458823,47.552825814757675 C130.56834831466833,39.921069137130864 107.53321160193649,54.289623147961166 92.62911937709349,29.38926261462366 C94.33664265069561,9.947595486594192 73.55308701697217,-7.519994013858257 92.62911937709347,-29.38926261462365 C111.64689729668098,-33.77311702008059 121.83709022069738,-58.93723504372132 148.5308188145882,-47.55282581475768 C158.57692868578843,-30.820529711031583 185.65836989847267,-28.90522044610292 183.07996909584085,-1.2246467991473532E-14 C170.27102853137092,14.724982107387095 176.81808674112554,41.07282635572132 148.53081881458823,47.552825814757675 Z" style="fill:rgb(64,224,208);stroke:none;"/>
  </g>
</svg>
