<?xml version="1.0" encoding="UTF-8" standalone="no"?>
<!DOCTYPE svg PUBLIC "-//W3C//DTD SVG 1.1//EN" "http://www.w3.org/Graphics/SVG/1.1/DTD/svg11.dtd">
<svg xmlns:xlink="http://www.w3.org/1999/xlink" height="39.511111111111106mm" version="1.1" viewBox="0 0 714.8564453125 112" width="252.18546820746525mm" x="0mm" y="0mm" xmlns="http://www.w3.org/2000/svg">
  <g transform="matrix(1 0 0 -1 357.42822265625 56)">
    <path d="M-281.42822265625,30.0 C-264.87077192143,30.0 -251.42822265625,16.557450734819998 -251.42822265625,0.0 C-251.42822265625,-16.557450734819998 -264.87077192143,-30.0 -281.42822265625,-30.0 C-297.98567339107,-30.0 -311.42822265625,-16.557450734819998 -311.42822265625,0.0 C-311.42822265625,16.557450734819998 -297.98567339107,30.0 -281.42822265625,30.0 Z" style="fill:none;stroke:rgb(0,0,0);stroke-miterlimit:10;"/>
    <path d="M-281.42822265625,30.0 C-264.87077192143,30.0 -251.42822265625,16.557450734819998 -251.42822265625,0.0 C-251.42822265625,-16.557450734819998 -264.87077192143,-30.0 -281.42822265625,-30.0 C-297.98567339107,-30.0 -311.42822265625,-16.557450734819998 -311.42822265625,0.0 C-311.42822265625,16.557450734819998 -297.98567339107,30.0 -281.42822265625,30.0 Z" style="fill:rgb(0,0,0);stroke:none;"/>
    <path d="M-243.42822265625,50.0 C-236.80080565828047,50.0 -231.42822265625,44.62741699796952 -231.42822265625,38.0 L-231.42822265625,-38.0 C-231.42822265625,-44.62741699796952 -236.80080565828047,-50.0 -243.42822265625,-50.0 L-319.42822265625,-50.0 C-326.05563965421953,-50.0 -331.42822265625,-44.62741699796952 -331.42822265625,-38.0 L-331.42822265625,38.0 C-331.42822265625,44.62741699796952 -326.05563965421953,50.0 -319.42822265625,50.0 L-243.42822265625,50.0 Z" style="fill:none;stroke:rgb(0,0,0);stroke-width:12;stroke-miterlimit:10;"/>
  </g>
  <g transform="translate(152 74.3837890625)">
    <text style="fill:rgb(0,0,0);stroke:none;font-family:&quot;Lucida Grande&quot;;font-size:50px;" x="0" y="0">map</text>
  </g>
  <g transform="matrix(1 0 0 -1 357.42822265625 56)">
    <path d="M-55.97802734375,30.0 C-39.420576608930006,30.0 -25.97802734375,16.557450734819998 -25.97802734375,0.0 C-25.97802734375,-16.557450734819998 -39.420576608930006,-30.0 -55.97802734375,-30.0 C-72.53547807857,-30.0 -85.97802734375,-16.557450734819998 -85.97802734375,0.0 C-85.97802734375,16.557450734819998 -72.53547807857,30.0 -55.97802734375,30.0 Z" style="fill:none;stroke:rgb(0,0,0);stroke-miterlimit:10;"/>
    <path d="M-55.97802734375,30.0 C-39.420576608930006,30.0 -25.97802734375,16.557450734819998 -25.97802734375,0.0 C-25.97802734375,-16.557450734819998 -39.420576608930006,-30.0 -55.97802734375,-30.0 C-72.53547807857,-30.0 -85.97802734375,-16.557450734819998 -85.97802734375,0.0 C-85.97802734375,16.557450734819998 -72.53547807857,30.0 -55.97802734375,30.0 Z" style="fill:rgb(0,0,0);stroke:none;"/>
    <path d="M95.02197265625,0.0 L45.02197265625,50.0 L45.02197265625,20.0 L-4.97802734375,20.0 L-4.97802734375,-20.0 L45.02197265625,-20.0 L45.02197265625,-50.0 L95.02197265625,0.0 Z" style="fill:none;stroke:rgb(0,0,0);stroke-miterlimit:10;"/>
    <path d="M95.02197265625,0.0 L45.02197265625,50.0 L45.02197265625,20.0 L-4.97802734375,20.0 L-4.97802734375,-20.0 L45.02197265625,-20.0 L45.02197265625,-50.0 L95.02197265625,0.0 Z" style="fill:rgb(0,0,0);stroke:none;"/>
    <path d="M116.02197265625,-30.0 L146.02197265625,30.0 L176.02197265625,-30.0 L116.02197265625,-30.0 Z" style="fill:none;stroke:rgb(0,0,0);stroke-miterlimit:10;"/>
    <path d="M116.02197265625,-30.0 L146.02197265625,30.0 L176.02197265625,-30.0 L116.02197265625,-30.0 Z" style="fill:rgb(0,0,0);stroke:none;"/>
  </g>
  <g transform="translate(553.9501953125 62.3232421875)">
    <text style="fill:rgb(0,0,0);stroke:none;font-family:&quot;Lucida Grande&quot;;font-size:50px;" x="0" y="0">=</text>
  </g>
  <g transform="matrix(1 0 0 -1 357.42822265625 56)">
    <path d="M271.42822265625,-30.0 L301.42822265625,30.0 L331.42822265625,-30.0 L271.42822265625,-30.0 Z" style="fill:none;stroke:rgb(0,0,0);stroke-miterlimit:10;"/>
    <path d="M271.42822265625,-30.0 L301.42822265625,30.0 L331.42822265625,-30.0 L271.42822265625,-30.0 Z" style="fill:rgb(0,0,0);stroke:none;"/>
    <path d="M339.42822265625,50.0 C346.05563965421953,50.0 351.42822265625,44.62741699796952 351.42822265625,38.0 L351.42822265625,-38.0 C351.42822265625,-44.62741699796952 346.05563965421953,-50.0 339.42822265625,-50.0 L263.42822265625,-50.0 C256.80080565828047,-50.0 251.42822265625,-44.62741699796952 251.42822265625,-38.0 L251.42822265625,38.0 C251.42822265625,44.62741699796952 256.80080565828047,50.0 263.42822265625,50.0 L339.42822265625,50.0 Z" style="fill:none;stroke:rgb(0,0,0);stroke-width:12;stroke-miterlimit:10;"/>
  </g>
</svg>
