<?xml version="1.0" encoding="UTF-8" standalone="no"?>
<!DOCTYPE svg PUBLIC "-//W3C//DTD SVG 1.1//EN" "http://www.w3.org/Graphics/SVG/1.1/DTD/svg11.dtd">
<svg xmlns:xlink="http://www.w3.org/1999/xlink" height="35.66782710263458mm" version="1.1" viewBox="0 0 274.16152783740216 101.10565162951536" width="96.71809454263908mm" x="0mm" y="0mm" xmlns="http://www.w3.org/2000/svg">
  <g transform="matrix(1 0 0 -1 137.08076391870108 50.55282581475768)">
    <path d="M-59.08076391870105,0.0 L-134.08076391870105,43.30127018922194 L-134.08076391870108,-43.301270189221924 Z" style="fill:none;stroke:rgb(175,238,238);stroke-width:6;stroke-miterlimit:10;"/>
    <path d="M-59.08076391870105,0.0 L-134.08076391870105,43.30127018922194 L-134.08076391870108,-43.301270189221924 Z" style="fill:rgb(64,224,208);stroke:none;"/>
    <path d="M27.62991419995371,35.35533905932737 L-43.08076391870104,35.35533905932738 L-43.08076391870105,-35.35533905932737 L27.629914199953703,-35.355339059327385 Z" style="fill:none;stroke:rgb(175,238,238);stroke-width:6;stroke-miterlimit:10;"/>
    <path d="M27.62991419995371,35.35533905932737 L-43.08076391870104,35.35533905932738 L-43.08076391870105,-35.35533905932737 L27.629914199953703,-35.355339059327385 Z" style="fill:rgb(64,224,208);stroke:none;"/>
    <path d="M99.53161363744846,47.552825814757675 L43.62991419995372,29.38926261462366 L43.62991419995371,-29.38926261462365 L99.53161363744844,-47.55282581475768 L134.08076391870108,-1.2246467991473532E-14 Z" style="fill:none;stroke:rgb(175,238,238);stroke-width:6;stroke-miterlimit:10;"/>
    <path d="M99.53161363744846,47.552825814757675 L43.62991419995372,29.38926261462366 L43.62991419995371,-29.38926261462365 L99.53161363744844,-47.55282581475768 L134.08076391870108,-1.2246467991473532E-14 Z" style="fill:rgb(64,224,208);stroke:none;"/>
  </g>
</svg>
