<?xml version="1.0" encoding="UTF-8" standalone="no"?>
<!DOCTYPE svg PUBLIC "-//W3C//DTD SVG 1.1//EN" "http://www.w3.org/Graphics/SVG/1.1/DTD/svg11.dtd">
<svg xmlns:xlink="http://www.w3.org/1999/xlink" height="124.17777777777776mm" version="1.1" viewBox="0 0 352 352" width="124.17777777777776mm" x="0mm" y="0mm" xmlns="http://www.w3.org/2000/svg">
  <g transform="matrix(1 0 0 -1 176 176)">
    <path d="M-5.0,165.5 L0.0,175.5 L5.0,165.5 L-5.0,165.5 Z" style="fill:none;stroke:rgb(255,0,255);stroke-miterlimit:10;"/>
    <path d="M-10.5,154.5 L-5.5,164.5 L-0.5,154.5 L-10.5,154.5 Z" style="fill:none;stroke:rgb(255,0,255);stroke-miterlimit:10;"/>
    <path d="M0.5,154.5 L5.5,164.5 L10.5,154.5 L0.5,154.5 Z" style="fill:none;stroke:rgb(255,0,255);stroke-miterlimit:10;"/>
    <path d="M-16.0,143.5 L-11.0,153.5 L-6.0,143.5 L-16.0,143.5 Z" style="fill:none;stroke:rgb(255,0,255);stroke-miterlimit:10;"/>
    <path d="M-21.5,132.5 L-16.5,142.5 L-11.5,132.5 L-21.5,132.5 Z" style="fill:none;stroke:rgb(255,0,255);stroke-miterlimit:10;"/>
    <path d="M-10.5,132.5 L-5.5,142.5 L-0.5,132.5 L-10.5,132.5 Z" style="fill:none;stroke:rgb(255,0,255);stroke-miterlimit:10;"/>
    <path d="M6.0,143.5 L11.0,153.5 L16.0,143.5 L6.0,143.5 Z" style="fill:none;stroke:rgb(255,0,255);stroke-miterlimit:10;"/>
    <path d="M0.5,132.5 L5.5,142.5 L10.5,132.5 L0.5,132.5 Z" style="fill:none;stroke:rgb(255,0,255);stroke-miterlimit:10;"/>
    <path d="M11.5,132.5 L16.5,142.5 L21.5,132.5 L11.5,132.5 Z" style="fill:none;stroke:rgb(255,0,255);stroke-miterlimit:10;"/>
    <path d="M-27.0,121.5 L-22.0,131.5 L-17.0,121.5 L-27.0,121.5 Z" style="fill:none;stroke:rgb(255,0,255);stroke-miterlimit:10;"/>
    <path d="M-32.5,110.5 L-27.5,120.5 L-22.5,110.5 L-32.5,110.5 Z" style="fill:none;stroke:rgb(255,0,255);stroke-miterlimit:10;"/>
    <path d="M-21.5,110.5 L-16.5,120.5 L-11.5,110.5 L-21.5,110.5 Z" style="fill:none;stroke:rgb(255,0,255);stroke-miterlimit:10;"/>
    <path d="M-38.0,99.5 L-33.0,109.5 L-28.0,99.5 L-38.0,99.5 Z" style="fill:none;stroke:rgb(255,0,255);stroke-miterlimit:10;"/>
    <path d="M-43.5,88.5 L-38.5,98.5 L-33.5,88.5 L-43.5,88.5 Z" style="fill:none;stroke:rgb(255,0,255);stroke-miterlimit:10;"/>
    <path d="M-32.5,88.5 L-27.5,98.5 L-22.5,88.5 L-32.5,88.5 Z" style="fill:none;stroke:rgb(255,0,255);stroke-miterlimit:10;"/>
    <path d="M-16.0,99.5 L-11.0,109.5 L-6.0,99.5 L-16.0,99.5 Z" style="fill:none;stroke:rgb(255,0,255);stroke-miterlimit:10;"/>
    <path d="M-21.5,88.5 L-16.5,98.5 L-11.5,88.5 L-21.5,88.5 Z" style="fill:none;stroke:rgb(255,0,255);stroke-miterlimit:10;"/>
    <path d="M-10.5,88.5 L-5.5,98.5 L-0.5,88.5 L-10.5,88.5 Z" style="fill:none;stroke:rgb(255,0,255);stroke-miterlimit:10;"/>
    <path d="M17.0,121.5 L22.0,131.5 L27.0,121.5 L17.0,121.5 Z" style="fill:none;stroke:rgb(255,0,255);stroke-miterlimit:10;"/>
    <path d="M11.5,110.5 L16.5,120.5 L21.5,110.5 L11.5,110.5 Z" style="fill:none;stroke:rgb(255,0,255);stroke-miterlimit:10;"/>
    <path d="M22.5,110.5 L27.5,120.5 L32.5,110.5 L22.5,110.5 Z" style="fill:none;stroke:rgb(255,0,255);stroke-miterlimit:10;"/>
    <path d="M6.0,99.5 L11.0,109.5 L16.0,99.5 L6.0,99.5 Z" style="fill:none;stroke:rgb(255,0,255);stroke-miterlimit:10;"/>
    <path d="M0.5,88.5 L5.5,98.5 L10.5,88.5 L0.5,88.5 Z" style="fill:none;stroke:rgb(255,0,255);stroke-miterlimit:10;"/>
    <path d="M11.5,88.5 L16.5,98.5 L21.5,88.5 L11.5,88.5 Z" style="fill:none;stroke:rgb(255,0,255);stroke-miterlimit:10;"/>
    <path d="M28.0,99.5 L33.0,109.5 L38.0,99.5 L28.0,99.5 Z" style="fill:none;stroke:rgb(255,0,255);stroke-miterlimit:10;"/>
    <path d="M22.5,88.5 L27.5,98.5 L32.5,88.5 L22.5,88.5 Z" style="fill:none;stroke:rgb(255,0,255);stroke-miterlimit:10;"/>
    <path d="M33.5,88.5 L38.5,98.5 L43.5,88.5 L33.5,88.5 Z" style="fill:none;stroke:rgb(255,0,255);stroke-miterlimit:10;"/>
    <path d="M-49.0,77.5 L-44.0,87.5 L-39.0,77.5 L-49.0,77.5 Z" style="fill:none;stroke:rgb(255,0,255);stroke-miterlimit:10;"/>
    <path d="M-54.5,66.5 L-49.5,76.5 L-44.5,66.5 L-54.5,66.5 Z" style="fill:none;stroke:rgb(255,0,255);stroke-miterlimit:10;"/>
    <path d="M-43.5,66.5 L-38.5,76.5 L-33.5,66.5 L-43.5,66.5 Z" style="fill:none;stroke:rgb(255,0,255);stroke-miterlimit:10;"/>
    <path d="M-60.0,55.5 L-55.0,65.5 L-50.0,55.5 L-60.0,55.5 Z" style="fill:none;stroke:rgb(255,0,255);stroke-miterlimit:10;"/>
    <path d="M-65.5,44.5 L-60.5,54.5 L-55.5,44.5 L-65.5,44.5 Z" style="fill:none;stroke:rgb(255,0,255);stroke-miterlimit:10;"/>
    <path d="M-54.5,44.5 L-49.5,54.5 L-44.5,44.5 L-54.5,44.5 Z" style="fill:none;stroke:rgb(255,0,255);stroke-miterlimit:10;"/>
    <path d="M-38.0,55.5 L-33.0,65.5 L-28.0,55.5 L-38.0,55.5 Z" style="fill:none;stroke:rgb(255,0,255);stroke-miterlimit:10;"/>
    <path d="M-43.5,44.5 L-38.5,54.5 L-33.5,44.5 L-43.5,44.5 Z" style="fill:none;stroke:rgb(255,0,255);stroke-miterlimit:10;"/>
    <path d="M-32.5,44.5 L-27.5,54.5 L-22.5,44.5 L-32.5,44.5 Z" style="fill:none;stroke:rgb(255,0,255);stroke-miterlimit:10;"/>
    <path d="M-71.0,33.5 L-66.0,43.5 L-61.0,33.5 L-71.0,33.5 Z" style="fill:none;stroke:rgb(255,0,255);stroke-miterlimit:10;"/>
    <path d="M-76.5,22.5 L-71.5,32.5 L-66.5,22.5 L-76.5,22.5 Z" style="fill:none;stroke:rgb(255,0,255);stroke-miterlimit:10;"/>
    <path d="M-65.5,22.5 L-60.5,32.5 L-55.5,22.5 L-65.5,22.5 Z" style="fill:none;stroke:rgb(255,0,255);stroke-miterlimit:10;"/>
    <path d="M-82.0,11.5 L-77.0,21.5 L-72.0,11.5 L-82.0,11.5 Z" style="fill:none;stroke:rgb(255,0,255);stroke-miterlimit:10;"/>
    <path d="M-87.5,0.5 L-82.5,10.5 L-77.5,0.5 L-87.5,0.5 Z" style="fill:none;stroke:rgb(255,0,255);stroke-miterlimit:10;"/>
    <path d="M-76.5,0.5 L-71.5,10.5 L-66.5,0.5 L-76.5,0.5 Z" style="fill:none;stroke:rgb(255,0,255);stroke-miterlimit:10;"/>
    <path d="M-60.0,11.5 L-55.0,21.5 L-50.0,11.5 L-60.0,11.5 Z" style="fill:none;stroke:rgb(255,0,255);stroke-miterlimit:10;"/>
    <path d="M-65.5,0.5 L-60.5,10.5 L-55.5,0.5 L-65.5,0.5 Z" style="fill:none;stroke:rgb(255,0,255);stroke-miterlimit:10;"/>
    <path d="M-54.5,0.5 L-49.5,10.5 L-44.5,0.5 L-54.5,0.5 Z" style="fill:none;stroke:rgb(255,0,255);stroke-miterlimit:10;"/>
    <path d="M-27.0,33.5 L-22.0,43.5 L-17.0,33.5 L-27.0,33.5 Z" style="fill:none;stroke:rgb(255,0,255);stroke-miterlimit:10;"/>
    <path d="M-32.5,22.5 L-27.5,32.5 L-22.5,22.5 L-32.5,22.5 Z" style="fill:none;stroke:rgb(255,0,255);stroke-miterlimit:10;"/>
    <path d="M-21.5,22.5 L-16.5,32.5 L-11.5,22.5 L-21.5,22.5 Z" style="fill:none;stroke:rgb(255,0,255);stroke-miterlimit:10;"/>
    <path d="M-38.0,11.5 L-33.0,21.5 L-28.0,11.5 L-38.0,11.5 Z" style="fill:none;stroke:rgb(255,0,255);stroke-miterlimit:10;"/>
    <path d="M-43.5,0.5 L-38.5,10.5 L-33.5,0.5 L-43.5,0.5 Z" style="fill:none;stroke:rgb(255,0,255);stroke-miterlimit:10;"/>
    <path d="M-32.5,0.5 L-27.5,10.5 L-22.5,0.5 L-32.5,0.5 Z" style="fill:none;stroke:rgb(255,0,255);stroke-miterlimit:10;"/>
    <path d="M-16.0,11.5 L-11.0,21.5 L-6.0,11.5 L-16.0,11.5 Z" style="fill:none;stroke:rgb(255,0,255);stroke-miterlimit:10;"/>
    <path d="M-21.5,0.5 L-16.5,10.5 L-11.5,0.5 L-21.5,0.5 Z" style="fill:none;stroke:rgb(255,0,255);stroke-miterlimit:10;"/>
    <path d="M-10.5,0.5 L-5.5,10.5 L-0.5,0.5 L-10.5,0.5 Z" style="fill:none;stroke:rgb(255,0,255);stroke-miterlimit:10;"/>
    <path d="M39.0,77.5 L44.0,87.5 L49.0,77.5 L39.0,77.5 Z" style="fill:none;stroke:rgb(255,0,255);stroke-miterlimit:10;"/>
    <path d="M33.5,66.5 L38.5,76.5 L43.5,66.5 L33.5,66.5 Z" style="fill:none;stroke:rgb(255,0,255);stroke-miterlimit:10;"/>
    <path d="M44.5,66.5 L49.5,76.5 L54.5,66.5 L44.5,66.5 Z" style="fill:none;stroke:rgb(255,0,255);stroke-miterlimit:10;"/>
    <path d="M28.0,55.5 L33.0,65.5 L38.0,55.5 L28.0,55.5 Z" style="fill:none;stroke:rgb(255,0,255);stroke-miterlimit:10;"/>
    <path d="M22.5,44.5 L27.5,54.5 L32.5,44.5 L22.5,44.5 Z" style="fill:none;stroke:rgb(255,0,255);stroke-miterlimit:10;"/>
    <path d="M33.5,44.5 L38.5,54.5 L43.5,44.5 L33.5,44.5 Z" style="fill:none;stroke:rgb(255,0,255);stroke-miterlimit:10;"/>
    <path d="M50.0,55.5 L55.0,65.5 L60.0,55.5 L50.0,55.5 Z" style="fill:none;stroke:rgb(255,0,255);stroke-miterlimit:10;"/>
    <path d="M44.5,44.5 L49.5,54.5 L54.5,44.5 L44.5,44.5 Z" style="fill:none;stroke:rgb(255,0,255);stroke-miterlimit:10;"/>
    <path d="M55.5,44.5 L60.5,54.5 L65.5,44.5 L55.5,44.5 Z" style="fill:none;stroke:rgb(255,0,255);stroke-miterlimit:10;"/>
    <path d="M17.0,33.5 L22.0,43.5 L27.0,33.5 L17.0,33.5 Z" style="fill:none;stroke:rgb(255,0,255);stroke-miterlimit:10;"/>
    <path d="M11.5,22.5 L16.5,32.5 L21.5,22.5 L11.5,22.5 Z" style="fill:none;stroke:rgb(255,0,255);stroke-miterlimit:10;"/>
    <path d="M22.5,22.5 L27.5,32.5 L32.5,22.5 L22.5,22.5 Z" style="fill:none;stroke:rgb(255,0,255);stroke-miterlimit:10;"/>
    <path d="M6.0,11.5 L11.0,21.5 L16.0,11.5 L6.0,11.5 Z" style="fill:none;stroke:rgb(255,0,255);stroke-miterlimit:10;"/>
    <path d="M0.5,0.5 L5.5,10.5 L10.5,0.5 L0.5,0.5 Z" style="fill:none;stroke:rgb(255,0,255);stroke-miterlimit:10;"/>
    <path d="M11.5,0.5 L16.5,10.5 L21.5,0.5 L11.5,0.5 Z" style="fill:none;stroke:rgb(255,0,255);stroke-miterlimit:10;"/>
    <path d="M28.0,11.5 L33.0,21.5 L38.0,11.5 L28.0,11.5 Z" style="fill:none;stroke:rgb(255,0,255);stroke-miterlimit:10;"/>
    <path d="M22.5,0.5 L27.5,10.5 L32.5,0.5 L22.5,0.5 Z" style="fill:none;stroke:rgb(255,0,255);stroke-miterlimit:10;"/>
    <path d="M33.5,0.5 L38.5,10.5 L43.5,0.5 L33.5,0.5 Z" style="fill:none;stroke:rgb(255,0,255);stroke-miterlimit:10;"/>
    <path d="M61.0,33.5 L66.0,43.5 L71.0,33.5 L61.0,33.5 Z" style="fill:none;stroke:rgb(255,0,255);stroke-miterlimit:10;"/>
    <path d="M55.5,22.5 L60.5,32.5 L65.5,22.5 L55.5,22.5 Z" style="fill:none;stroke:rgb(255,0,255);stroke-miterlimit:10;"/>
    <path d="M66.5,22.5 L71.5,32.5 L76.5,22.5 L66.5,22.5 Z" style="fill:none;stroke:rgb(255,0,255);stroke-miterlimit:10;"/>
    <path d="M50.0,11.5 L55.0,21.5 L60.0,11.5 L50.0,11.5 Z" style="fill:none;stroke:rgb(255,0,255);stroke-miterlimit:10;"/>
    <path d="M44.5,0.5 L49.5,10.5 L54.5,0.5 L44.5,0.5 Z" style="fill:none;stroke:rgb(255,0,255);stroke-miterlimit:10;"/>
    <path d="M55.5,0.5 L60.5,10.5 L65.5,0.5 L55.5,0.5 Z" style="fill:none;stroke:rgb(255,0,255);stroke-miterlimit:10;"/>
    <path d="M72.0,11.5 L77.0,21.5 L82.0,11.5 L72.0,11.5 Z" style="fill:none;stroke:rgb(255,0,255);stroke-miterlimit:10;"/>
    <path d="M66.5,0.5 L71.5,10.5 L76.5,0.5 L66.5,0.5 Z" style="fill:none;stroke:rgb(255,0,255);stroke-miterlimit:10;"/>
    <path d="M77.5,0.5 L82.5,10.5 L87.5,0.5 L77.5,0.5 Z" style="fill:none;stroke:rgb(255,0,255);stroke-miterlimit:10;"/>
    <path d="M-93.0,-10.5 L-88.0,-0.5 L-83.0,-10.5 L-93.0,-10.5 Z" style="fill:none;stroke:rgb(255,0,255);stroke-miterlimit:10;"/>
    <path d="M-98.5,-21.5 L-93.5,-11.5 L-88.5,-21.5 L-98.5,-21.5 Z" style="fill:none;stroke:rgb(255,0,255);stroke-miterlimit:10;"/>
    <path d="M-87.5,-21.5 L-82.5,-11.5 L-77.5,-21.5 L-87.5,-21.5 Z" style="fill:none;stroke:rgb(255,0,255);stroke-miterlimit:10;"/>
    <path d="M-104.0,-32.5 L-99.0,-22.5 L-94.0,-32.5 L-104.0,-32.5 Z" style="fill:none;stroke:rgb(255,0,255);stroke-miterlimit:10;"/>
    <path d="M-109.5,-43.5 L-104.5,-33.5 L-99.5,-43.5 L-109.5,-43.5 Z" style="fill:none;stroke:rgb(255,0,255);stroke-miterlimit:10;"/>
    <path d="M-98.5,-43.5 L-93.5,-33.5 L-88.5,-43.5 L-98.5,-43.5 Z" style="fill:none;stroke:rgb(255,0,255);stroke-miterlimit:10;"/>
    <path d="M-82.0,-32.5 L-77.0,-22.5 L-72.0,-32.5 L-82.0,-32.5 Z" style="fill:none;stroke:rgb(255,0,255);stroke-miterlimit:10;"/>
    <path d="M-87.5,-43.5 L-82.5,-33.5 L-77.5,-43.5 L-87.5,-43.5 Z" style="fill:none;stroke:rgb(255,0,255);stroke-miterlimit:10;"/>
    <path d="M-76.5,-43.5 L-71.5,-33.5 L-66.5,-43.5 L-76.5,-43.5 Z" style="fill:none;stroke:rgb(255,0,255);stroke-miterlimit:10;"/>
    <path d="M-115.0,-54.5 L-110.0,-44.5 L-105.0,-54.5 L-115.0,-54.5 Z" style="fill:none;stroke:rgb(255,0,255);stroke-miterlimit:10;"/>
    <path d="M-120.5,-65.5 L-115.5,-55.5 L-110.5,-65.5 L-120.5,-65.5 Z" style="fill:none;stroke:rgb(255,0,255);stroke-miterlimit:10;"/>
    <path d="M-109.5,-65.5 L-104.5,-55.5 L-99.5,-65.5 L-109.5,-65.5 Z" style="fill:none;stroke:rgb(255,0,255);stroke-miterlimit:10;"/>
    <path d="M-126.0,-76.5 L-121.0,-66.5 L-116.0,-76.5 L-126.0,-76.5 Z" style="fill:none;stroke:rgb(255,0,255);stroke-miterlimit:10;"/>
    <path d="M-131.5,-87.5 L-126.5,-77.5 L-121.5,-87.5 L-131.5,-87.5 Z" style="fill:none;stroke:rgb(255,0,255);stroke-miterlimit:10;"/>
    <path d="M-120.5,-87.5 L-115.5,-77.5 L-110.5,-87.5 L-120.5,-87.5 Z" style="fill:none;stroke:rgb(255,0,255);stroke-miterlimit:10;"/>
    <path d="M-104.0,-76.5 L-99.0,-66.5 L-94.0,-76.5 L-104.0,-76.5 Z" style="fill:none;stroke:rgb(255,0,255);stroke-miterlimit:10;"/>
    <path d="M-109.5,-87.5 L-104.5,-77.5 L-99.5,-87.5 L-109.5,-87.5 Z" style="fill:none;stroke:rgb(255,0,255);stroke-miterlimit:10;"/>
    <path d="M-98.5,-87.5 L-93.5,-77.5 L-88.5,-87.5 L-98.5,-87.5 Z" style="fill:none;stroke:rgb(255,0,255);stroke-miterlimit:10;"/>
    <path d="M-71.0,-54.5 L-66.0,-44.5 L-61.0,-54.5 L-71.0,-54.5 Z" style="fill:none;stroke:rgb(255,0,255);stroke-miterlimit:10;"/>
    <path d="M-76.5,-65.5 L-71.5,-55.5 L-66.5,-65.5 L-76.5,-65.5 Z" style="fill:none;stroke:rgb(255,0,255);stroke-miterlimit:10;"/>
    <path d="M-65.5,-65.5 L-60.5,-55.5 L-55.5,-65.5 L-65.5,-65.5 Z" style="fill:none;stroke:rgb(255,0,255);stroke-miterlimit:10;"/>
    <path d="M-82.0,-76.5 L-77.0,-66.5 L-72.0,-76.5 L-82.0,-76.5 Z" style="fill:none;stroke:rgb(255,0,255);stroke-miterlimit:10;"/>
    <path d="M-87.5,-87.5 L-82.5,-77.5 L-77.5,-87.5 L-87.5,-87.5 Z" style="fill:none;stroke:rgb(255,0,255);stroke-miterlimit:10;"/>
    <path d="M-76.5,-87.5 L-71.5,-77.5 L-66.5,-87.5 L-76.5,-87.5 Z" style="fill:none;stroke:rgb(255,0,255);stroke-miterlimit:10;"/>
    <path d="M-60.0,-76.5 L-55.0,-66.5 L-50.0,-76.5 L-60.0,-76.5 Z" style="fill:none;stroke:rgb(255,0,255);stroke-miterlimit:10;"/>
    <path d="M-65.5,-87.5 L-60.5,-77.5 L-55.5,-87.5 L-65.5,-87.5 Z" style="fill:none;stroke:rgb(255,0,255);stroke-miterlimit:10;"/>
    <path d="M-54.5,-87.5 L-49.5,-77.5 L-44.5,-87.5 L-54.5,-87.5 Z" style="fill:none;stroke:rgb(255,0,255);stroke-miterlimit:10;"/>
    <path d="M-137.0,-98.5 L-132.0,-88.5 L-127.0,-98.5 L-137.0,-98.5 Z" style="fill:none;stroke:rgb(255,0,255);stroke-miterlimit:10;"/>
    <path d="M-142.5,-109.5 L-137.5,-99.5 L-132.5,-109.5 L-142.5,-109.5 Z" style="fill:none;stroke:rgb(255,0,255);stroke-miterlimit:10;"/>
    <path d="M-131.5,-109.5 L-126.5,-99.5 L-121.5,-109.5 L-131.5,-109.5 Z" style="fill:none;stroke:rgb(255,0,255);stroke-miterlimit:10;"/>
    <path d="M-148.0,-120.5 L-143.0,-110.5 L-138.0,-120.5 L-148.0,-120.5 Z" style="fill:none;stroke:rgb(255,0,255);stroke-miterlimit:10;"/>
    <path d="M-153.5,-131.5 L-148.5,-121.5 L-143.5,-131.5 L-153.5,-131.5 Z" style="fill:none;stroke:rgb(255,0,255);stroke-miterlimit:10;"/>
    <path d="M-142.5,-131.5 L-137.5,-121.5 L-132.5,-131.5 L-142.5,-131.5 Z" style="fill:none;stroke:rgb(255,0,255);stroke-miterlimit:10;"/>
    <path d="M-126.0,-120.5 L-121.0,-110.5 L-116.0,-120.5 L-126.0,-120.5 Z" style="fill:none;stroke:rgb(255,0,255);stroke-miterlimit:10;"/>
    <path d="M-131.5,-131.5 L-126.5,-121.5 L-121.5,-131.5 L-131.5,-131.5 Z" style="fill:none;stroke:rgb(255,0,255);stroke-miterlimit:10;"/>
    <path d="M-120.5,-131.5 L-115.5,-121.5 L-110.5,-131.5 L-120.5,-131.5 Z" style="fill:none;stroke:rgb(255,0,255);stroke-miterlimit:10;"/>
    <path d="M-159.0,-142.5 L-154.0,-132.5 L-149.0,-142.5 L-159.0,-142.5 Z" style="fill:none;stroke:rgb(255,0,255);stroke-miterlimit:10;"/>
    <path d="M-164.5,-153.5 L-159.5,-143.5 L-154.5,-153.5 L-164.5,-153.5 Z" style="fill:none;stroke:rgb(255,0,255);stroke-miterlimit:10;"/>
    <path d="M-153.5,-153.5 L-148.5,-143.5 L-143.5,-153.5 L-153.5,-153.5 Z" style="fill:none;stroke:rgb(255,0,255);stroke-miterlimit:10;"/>
    <path d="M-170.0,-164.5 L-165.0,-154.5 L-160.0,-164.5 L-170.0,-164.5 Z" style="fill:none;stroke:rgb(255,0,255);stroke-miterlimit:10;"/>
    <path d="M-175.5,-175.5 L-170.5,-165.5 L-165.5,-175.5 L-175.5,-175.5 Z" style="fill:none;stroke:rgb(255,0,255);stroke-miterlimit:10;"/>
    <path d="M-164.5,-175.5 L-159.5,-165.5 L-154.5,-175.5 L-164.5,-175.5 Z" style="fill:none;stroke:rgb(255,0,255);stroke-miterlimit:10;"/>
    <path d="M-148.0,-164.5 L-143.0,-154.5 L-138.0,-164.5 L-148.0,-164.5 Z" style="fill:none;stroke:rgb(255,0,255);stroke-miterlimit:10;"/>
    <path d="M-153.5,-175.5 L-148.5,-165.5 L-143.5,-175.5 L-153.5,-175.5 Z" style="fill:none;stroke:rgb(255,0,255);stroke-miterlimit:10;"/>
    <path d="M-142.5,-175.5 L-137.5,-165.5 L-132.5,-175.5 L-142.5,-175.5 Z" style="fill:none;stroke:rgb(255,0,255);stroke-miterlimit:10;"/>
    <path d="M-115.0,-142.5 L-110.0,-132.5 L-105.0,-142.5 L-115.0,-142.5 Z" style="fill:none;stroke:rgb(255,0,255);stroke-miterlimit:10;"/>
    <path d="M-120.5,-153.5 L-115.5,-143.5 L-110.5,-153.5 L-120.5,-153.5 Z" style="fill:none;stroke:rgb(255,0,255);stroke-miterlimit:10;"/>
    <path d="M-109.5,-153.5 L-104.5,-143.5 L-99.5,-153.5 L-109.5,-153.5 Z" style="fill:none;stroke:rgb(255,0,255);stroke-miterlimit:10;"/>
    <path d="M-126.0,-164.5 L-121.0,-154.5 L-116.0,-164.5 L-126.0,-164.5 Z" style="fill:none;stroke:rgb(255,0,255);stroke-miterlimit:10;"/>
    <path d="M-131.5,-175.5 L-126.5,-165.5 L-121.5,-175.5 L-131.5,-175.5 Z" style="fill:none;stroke:rgb(255,0,255);stroke-miterlimit:10;"/>
    <path d="M-120.5,-175.5 L-115.5,-165.5 L-110.5,-175.5 L-120.5,-175.5 Z" style="fill:none;stroke:rgb(255,0,255);stroke-miterlimit:10;"/>
    <path d="M-104.0,-164.5 L-99.0,-154.5 L-94.0,-164.5 L-104.0,-164.5 Z" style="fill:none;stroke:rgb(255,0,255);stroke-miterlimit:10;"/>
    <path d="M-109.5,-175.5 L-104.5,-165.5 L-99.5,-175.5 L-109.5,-175.5 Z" style="fill:none;stroke:rgb(255,0,255);stroke-miterlimit:10;"/>
    <path d="M-98.5,-175.5 L-93.5,-165.5 L-88.5,-175.5 L-98.5,-175.5 Z" style="fill:none;stroke:rgb(255,0,255);stroke-miterlimit:10;"/>
    <path d="M-49.0,-98.5 L-44.0,-88.5 L-39.0,-98.5 L-49.0,-98.5 Z" style="fill:none;stroke:rgb(255,0,255);stroke-miterlimit:10;"/>
    <path d="M-54.5,-109.5 L-49.5,-99.5 L-44.5,-109.5 L-54.5,-109.5 Z" style="fill:none;stroke:rgb(255,0,255);stroke-miterlimit:10;"/>
    <path d="M-43.5,-109.5 L-38.5,-99.5 L-33.5,-109.5 L-43.5,-109.5 Z" style="fill:none;stroke:rgb(255,0,255);stroke-miterlimit:10;"/>
    <path d="M-60.0,-120.5 L-55.0,-110.5 L-50.0,-120.5 L-60.0,-120.5 Z" style="fill:none;stroke:rgb(255,0,255);stroke-miterlimit:10;"/>
    <path d="M-65.5,-131.5 L-60.5,-121.5 L-55.5,-131.5 L-65.5,-131.5 Z" style="fill:none;stroke:rgb(255,0,255);stroke-miterlimit:10;"/>
    <path d="M-54.5,-131.5 L-49.5,-121.5 L-44.5,-131.5 L-54.5,-131.5 Z" style="fill:none;stroke:rgb(255,0,255);stroke-miterlimit:10;"/>
    <path d="M-38.0,-120.5 L-33.0,-110.5 L-28.0,-120.5 L-38.0,-120.5 Z" style="fill:none;stroke:rgb(255,0,255);stroke-miterlimit:10;"/>
    <path d="M-43.5,-131.5 L-38.5,-121.5 L-33.5,-131.5 L-43.5,-131.5 Z" style="fill:none;stroke:rgb(255,0,255);stroke-miterlimit:10;"/>
    <path d="M-32.5,-131.5 L-27.5,-121.5 L-22.5,-131.5 L-32.5,-131.5 Z" style="fill:none;stroke:rgb(255,0,255);stroke-miterlimit:10;"/>
    <path d="M-71.0,-142.5 L-66.0,-132.5 L-61.0,-142.5 L-71.0,-142.5 Z" style="fill:none;stroke:rgb(255,0,255);stroke-miterlimit:10;"/>
    <path d="M-76.5,-153.5 L-71.5,-143.5 L-66.5,-153.5 L-76.5,-153.5 Z" style="fill:none;stroke:rgb(255,0,255);stroke-miterlimit:10;"/>
    <path d="M-65.5,-153.5 L-60.5,-143.5 L-55.5,-153.5 L-65.5,-153.5 Z" style="fill:none;stroke:rgb(255,0,255);stroke-miterlimit:10;"/>
    <path d="M-82.0,-164.5 L-77.0,-154.5 L-72.0,-164.5 L-82.0,-164.5 Z" style="fill:none;stroke:rgb(255,0,255);stroke-miterlimit:10;"/>
    <path d="M-87.5,-175.5 L-82.5,-165.5 L-77.5,-175.5 L-87.5,-175.5 Z" style="fill:none;stroke:rgb(255,0,255);stroke-miterlimit:10;"/>
    <path d="M-76.5,-175.5 L-71.5,-165.5 L-66.5,-175.5 L-76.5,-175.5 Z" style="fill:none;stroke:rgb(255,0,255);stroke-miterlimit:10;"/>
    <path d="M-60.0,-164.5 L-55.0,-154.5 L-50.0,-164.5 L-60.0,-164.5 Z" style="fill:none;stroke:rgb(255,0,255);stroke-miterlimit:10;"/>
    <path d="M-65.5,-175.5 L-60.5,-165.5 L-55.5,-175.5 L-65.5,-175.5 Z" style="fill:none;stroke:rgb(255,0,255);stroke-miterlimit:10;"/>
    <path d="M-54.5,-175.5 L-49.5,-165.5 L-44.5,-175.5 L-54.5,-175.5 Z" style="fill:none;stroke:rgb(255,0,255);stroke-miterlimit:10;"/>
    <path d="M-27.0,-142.5 L-22.0,-132.5 L-17.0,-142.5 L-27.0,-142.5 Z" style="fill:none;stroke:rgb(255,0,255);stroke-miterlimit:10;"/>
    <path d="M-32.5,-153.5 L-27.5,-143.5 L-22.5,-153.5 L-32.5,-153.5 Z" style="fill:none;stroke:rgb(255,0,255);stroke-miterlimit:10;"/>
    <path d="M-21.5,-153.5 L-16.5,-143.5 L-11.5,-153.5 L-21.5,-153.5 Z" style="fill:none;stroke:rgb(255,0,255);stroke-miterlimit:10;"/>
    <path d="M-38.0,-164.5 L-33.0,-154.5 L-28.0,-164.5 L-38.0,-164.5 Z" style="fill:none;stroke:rgb(255,0,255);stroke-miterlimit:10;"/>
    <path d="M-43.5,-175.5 L-38.5,-165.5 L-33.5,-175.5 L-43.5,-175.5 Z" style="fill:none;stroke:rgb(255,0,255);stroke-miterlimit:10;"/>
    <path d="M-32.5,-175.5 L-27.5,-165.5 L-22.5,-175.5 L-32.5,-175.5 Z" style="fill:none;stroke:rgb(255,0,255);stroke-miterlimit:10;"/>
    <path d="M-16.0,-164.5 L-11.0,-154.5 L-6.0,-164.5 L-16.0,-164.5 Z" style="fill:none;stroke:rgb(255,0,255);stroke-miterlimit:10;"/>
    <path d="M-21.5,-175.5 L-16.5,-165.5 L-11.5,-175.5 L-21.5,-175.5 Z" style="fill:none;stroke:rgb(255,0,255);stroke-miterlimit:10;"/>
    <path d="M-10.5,-175.5 L-5.5,-165.5 L-0.5,-175.5 L-10.5,-175.5 Z" style="fill:none;stroke:rgb(255,0,255);stroke-miterlimit:10;"/>
    <path d="M83.0,-10.5 L88.0,-0.5 L93.0,-10.5 L83.0,-10.5 Z" style="fill:none;stroke:rgb(255,0,255);stroke-miterlimit:10;"/>
    <path d="M77.5,-21.5 L82.5,-11.5 L87.5,-21.5 L77.5,-21.5 Z" style="fill:none;stroke:rgb(255,0,255);stroke-miterlimit:10;"/>
    <path d="M88.5,-21.5 L93.5,-11.5 L98.5,-21.5 L88.5,-21.5 Z" style="fill:none;stroke:rgb(255,0,255);stroke-miterlimit:10;"/>
    <path d="M72.0,-32.5 L77.0,-22.5 L82.0,-32.5 L72.0,-32.5 Z" style="fill:none;stroke:rgb(255,0,255);stroke-miterlimit:10;"/>
    <path d="M66.5,-43.5 L71.5,-33.5 L76.5,-43.5 L66.5,-43.5 Z" style="fill:none;stroke:rgb(255,0,255);stroke-miterlimit:10;"/>
    <path d="M77.5,-43.5 L82.5,-33.5 L87.5,-43.5 L77.5,-43.5 Z" style="fill:none;stroke:rgb(255,0,255);stroke-miterlimit:10;"/>
    <path d="M94.0,-32.5 L99.0,-22.5 L104.0,-32.5 L94.0,-32.5 Z" style="fill:none;stroke:rgb(255,0,255);stroke-miterlimit:10;"/>
    <path d="M88.5,-43.5 L93.5,-33.5 L98.5,-43.5 L88.5,-43.5 Z" style="fill:none;stroke:rgb(255,0,255);stroke-miterlimit:10;"/>
    <path d="M99.5,-43.5 L104.5,-33.5 L109.5,-43.5 L99.5,-43.5 Z" style="fill:none;stroke:rgb(255,0,255);stroke-miterlimit:10;"/>
    <path d="M61.0,-54.5 L66.0,-44.5 L71.0,-54.5 L61.0,-54.5 Z" style="fill:none;stroke:rgb(255,0,255);stroke-miterlimit:10;"/>
    <path d="M55.5,-65.5 L60.5,-55.5 L65.5,-65.5 L55.5,-65.5 Z" style="fill:none;stroke:rgb(255,0,255);stroke-miterlimit:10;"/>
    <path d="M66.5,-65.5 L71.5,-55.5 L76.5,-65.5 L66.5,-65.5 Z" style="fill:none;stroke:rgb(255,0,255);stroke-miterlimit:10;"/>
    <path d="M50.0,-76.5 L55.0,-66.5 L60.0,-76.5 L50.0,-76.5 Z" style="fill:none;stroke:rgb(255,0,255);stroke-miterlimit:10;"/>
    <path d="M44.5,-87.5 L49.5,-77.5 L54.5,-87.5 L44.5,-87.5 Z" style="fill:none;stroke:rgb(255,0,255);stroke-miterlimit:10;"/>
    <path d="M55.5,-87.5 L60.5,-77.5 L65.5,-87.5 L55.5,-87.5 Z" style="fill:none;stroke:rgb(255,0,255);stroke-miterlimit:10;"/>
    <path d="M72.0,-76.5 L77.0,-66.5 L82.0,-76.5 L72.0,-76.5 Z" style="fill:none;stroke:rgb(255,0,255);stroke-miterlimit:10;"/>
    <path d="M66.5,-87.5 L71.5,-77.5 L76.5,-87.5 L66.5,-87.5 Z" style="fill:none;stroke:rgb(255,0,255);stroke-miterlimit:10;"/>
    <path d="M77.5,-87.5 L82.5,-77.5 L87.5,-87.5 L77.5,-87.5 Z" style="fill:none;stroke:rgb(255,0,255);stroke-miterlimit:10;"/>
    <path d="M105.0,-54.5 L110.0,-44.5 L115.0,-54.5 L105.0,-54.5 Z" style="fill:none;stroke:rgb(255,0,255);stroke-miterlimit:10;"/>
    <path d="M99.5,-65.5 L104.5,-55.5 L109.5,-65.5 L99.5,-65.5 Z" style="fill:none;stroke:rgb(255,0,255);stroke-miterlimit:10;"/>
    <path d="M110.5,-65.5 L115.5,-55.5 L120.5,-65.5 L110.5,-65.5 Z" style="fill:none;stroke:rgb(255,0,255);stroke-miterlimit:10;"/>
    <path d="M94.0,-76.5 L99.0,-66.5 L104.0,-76.5 L94.0,-76.5 Z" style="fill:none;stroke:rgb(255,0,255);stroke-miterlimit:10;"/>
    <path d="M88.5,-87.5 L93.5,-77.5 L98.5,-87.5 L88.5,-87.5 Z" style="fill:none;stroke:rgb(255,0,255);stroke-miterlimit:10;"/>
    <path d="M99.5,-87.5 L104.5,-77.5 L109.5,-87.5 L99.5,-87.5 Z" style="fill:none;stroke:rgb(255,0,255);stroke-miterlimit:10;"/>
    <path d="M116.0,-76.5 L121.0,-66.5 L126.0,-76.5 L116.0,-76.5 Z" style="fill:none;stroke:rgb(255,0,255);stroke-miterlimit:10;"/>
    <path d="M110.5,-87.5 L115.5,-77.5 L120.5,-87.5 L110.5,-87.5 Z" style="fill:none;stroke:rgb(255,0,255);stroke-miterlimit:10;"/>
    <path d="M121.5,-87.5 L126.5,-77.5 L131.5,-87.5 L121.5,-87.5 Z" style="fill:none;stroke:rgb(255,0,255);stroke-miterlimit:10;"/>
    <path d="M39.0,-98.5 L44.0,-88.5 L49.0,-98.5 L39.0,-98.5 Z" style="fill:none;stroke:rgb(255,0,255);stroke-miterlimit:10;"/>
    <path d="M33.5,-109.5 L38.5,-99.5 L43.5,-109.5 L33.5,-109.5 Z" style="fill:none;stroke:rgb(255,0,255);stroke-miterlimit:10;"/>
    <path d="M44.5,-109.5 L49.5,-99.5 L54.5,-109.5 L44.5,-109.5 Z" style="fill:none;stroke:rgb(255,0,255);stroke-miterlimit:10;"/>
    <path d="M28.0,-120.5 L33.0,-110.5 L38.0,-120.5 L28.0,-120.5 Z" style="fill:none;stroke:rgb(255,0,255);stroke-miterlimit:10;"/>
    <path d="M22.5,-131.5 L27.5,-121.5 L32.5,-131.5 L22.5,-131.5 Z" style="fill:none;stroke:rgb(255,0,255);stroke-miterlimit:10;"/>
    <path d="M33.5,-131.5 L38.5,-121.5 L43.5,-131.5 L33.5,-131.5 Z" style="fill:none;stroke:rgb(255,0,255);stroke-miterlimit:10;"/>
    <path d="M50.0,-120.5 L55.0,-110.5 L60.0,-120.5 L50.0,-120.5 Z" style="fill:none;stroke:rgb(255,0,255);stroke-miterlimit:10;"/>
    <path d="M44.5,-131.5 L49.5,-121.5 L54.5,-131.5 L44.5,-131.5 Z" style="fill:none;stroke:rgb(255,0,255);stroke-miterlimit:10;"/>
    <path d="M55.5,-131.5 L60.5,-121.5 L65.5,-131.5 L55.5,-131.5 Z" style="fill:none;stroke:rgb(255,0,255);stroke-miterlimit:10;"/>
    <path d="M17.0,-142.5 L22.0,-132.5 L27.0,-142.5 L17.0,-142.5 Z" style="fill:none;stroke:rgb(255,0,255);stroke-miterlimit:10;"/>
    <path d="M11.5,-153.5 L16.5,-143.5 L21.5,-153.5 L11.5,-153.5 Z" style="fill:none;stroke:rgb(255,0,255);stroke-miterlimit:10;"/>
    <path d="M22.5,-153.5 L27.5,-143.5 L32.5,-153.5 L22.5,-153.5 Z" style="fill:none;stroke:rgb(255,0,255);stroke-miterlimit:10;"/>
    <path d="M6.0,-164.5 L11.0,-154.5 L16.0,-164.5 L6.0,-164.5 Z" style="fill:none;stroke:rgb(255,0,255);stroke-miterlimit:10;"/>
    <path d="M0.5,-175.5 L5.5,-165.5 L10.5,-175.5 L0.5,-175.5 Z" style="fill:none;stroke:rgb(255,0,255);stroke-miterlimit:10;"/>
    <path d="M11.5,-175.5 L16.5,-165.5 L21.5,-175.5 L11.5,-175.5 Z" style="fill:none;stroke:rgb(255,0,255);stroke-miterlimit:10;"/>
    <path d="M28.0,-164.5 L33.0,-154.5 L38.0,-164.5 L28.0,-164.5 Z" style="fill:none;stroke:rgb(255,0,255);stroke-miterlimit:10;"/>
    <path d="M22.5,-175.5 L27.5,-165.5 L32.5,-175.5 L22.5,-175.5 Z" style="fill:none;stroke:rgb(255,0,255);stroke-miterlimit:10;"/>
    <path d="M33.5,-175.5 L38.5,-165.5 L43.5,-175.5 L33.5,-175.5 Z" style="fill:none;stroke:rgb(255,0,255);stroke-miterlimit:10;"/>
    <path d="M61.0,-142.5 L66.0,-132.5 L71.0,-142.5 L61.0,-142.5 Z" style="fill:none;stroke:rgb(255,0,255);stroke-miterlimit:10;"/>
    <path d="M55.5,-153.5 L60.5,-143.5 L65.5,-153.5 L55.5,-153.5 Z" style="fill:none;stroke:rgb(255,0,255);stroke-miterlimit:10;"/>
    <path d="M66.5,-153.5 L71.5,-143.5 L76.5,-153.5 L66.5,-153.5 Z" style="fill:none;stroke:rgb(255,0,255);stroke-miterlimit:10;"/>
    <path d="M50.0,-164.5 L55.0,-154.5 L60.0,-164.5 L50.0,-164.5 Z" style="fill:none;stroke:rgb(255,0,255);stroke-miterlimit:10;"/>
    <path d="M44.5,-175.5 L49.5,-165.5 L54.5,-175.5 L44.5,-175.5 Z" style="fill:none;stroke:rgb(255,0,255);stroke-miterlimit:10;"/>
    <path d="M55.5,-175.5 L60.5,-165.5 L65.5,-175.5 L55.5,-175.5 Z" style="fill:none;stroke:rgb(255,0,255);stroke-miterlimit:10;"/>
    <path d="M72.0,-164.5 L77.0,-154.5 L82.0,-164.5 L72.0,-164.5 Z" style="fill:none;stroke:rgb(255,0,255);stroke-miterlimit:10;"/>
    <path d="M66.5,-175.5 L71.5,-165.5 L76.5,-175.5 L66.5,-175.5 Z" style="fill:none;stroke:rgb(255,0,255);stroke-miterlimit:10;"/>
    <path d="M77.5,-175.5 L82.5,-165.5 L87.5,-175.5 L77.5,-175.5 Z" style="fill:none;stroke:rgb(255,0,255);stroke-miterlimit:10;"/>
    <path d="M127.0,-98.5 L132.0,-88.5 L137.0,-98.5 L127.0,-98.5 Z" style="fill:none;stroke:rgb(255,0,255);stroke-miterlimit:10;"/>
    <path d="M121.5,-109.5 L126.5,-99.5 L131.5,-109.5 L121.5,-109.5 Z" style="fill:none;stroke:rgb(255,0,255);stroke-miterlimit:10;"/>
    <path d="M132.5,-109.5 L137.5,-99.5 L142.5,-109.5 L132.5,-109.5 Z" style="fill:none;stroke:rgb(255,0,255);stroke-miterlimit:10;"/>
    <path d="M116.0,-120.5 L121.0,-110.5 L126.0,-120.5 L116.0,-120.5 Z" style="fill:none;stroke:rgb(255,0,255);stroke-miterlimit:10;"/>
    <path d="M110.5,-131.5 L115.5,-121.5 L120.5,-131.5 L110.5,-131.5 Z" style="fill:none;stroke:rgb(255,0,255);stroke-miterlimit:10;"/>
    <path d="M121.5,-131.5 L126.5,-121.5 L131.5,-131.5 L121.5,-131.5 Z" style="fill:none;stroke:rgb(255,0,255);stroke-miterlimit:10;"/>
    <path d="M138.0,-120.5 L143.0,-110.5 L148.0,-120.5 L138.0,-120.5 Z" style="fill:none;stroke:rgb(255,0,255);stroke-miterlimit:10;"/>
    <path d="M132.5,-131.5 L137.5,-121.5 L142.5,-131.5 L132.5,-131.5 Z" style="fill:none;stroke:rgb(255,0,255);stroke-miterlimit:10;"/>
    <path d="M143.5,-131.5 L148.5,-121.5 L153.5,-131.5 L143.5,-131.5 Z" style="fill:none;stroke:rgb(255,0,255);stroke-miterlimit:10;"/>
    <path d="M105.0,-142.5 L110.0,-132.5 L115.0,-142.5 L105.0,-142.5 Z" style="fill:none;stroke:rgb(255,0,255);stroke-miterlimit:10;"/>
    <path d="M99.5,-153.5 L104.5,-143.5 L109.5,-153.5 L99.5,-153.5 Z" style="fill:none;stroke:rgb(255,0,255);stroke-miterlimit:10;"/>
    <path d="M110.5,-153.5 L115.5,-143.5 L120.5,-153.5 L110.5,-153.5 Z" style="fill:none;stroke:rgb(255,0,255);stroke-miterlimit:10;"/>
    <path d="M94.0,-164.5 L99.0,-154.5 L104.0,-164.5 L94.0,-164.5 Z" style="fill:none;stroke:rgb(255,0,255);stroke-miterlimit:10;"/>
    <path d="M88.5,-175.5 L93.5,-165.5 L98.5,-175.5 L88.5,-175.5 Z" style="fill:none;stroke:rgb(255,0,255);stroke-miterlimit:10;"/>
    <path d="M99.5,-175.5 L104.5,-165.5 L109.5,-175.5 L99.5,-175.5 Z" style="fill:none;stroke:rgb(255,0,255);stroke-miterlimit:10;"/>
    <path d="M116.0,-164.5 L121.0,-154.5 L126.0,-164.5 L116.0,-164.5 Z" style="fill:none;stroke:rgb(255,0,255);stroke-miterlimit:10;"/>
    <path d="M110.5,-175.5 L115.5,-165.5 L120.5,-175.5 L110.5,-175.5 Z" style="fill:none;stroke:rgb(255,0,255);stroke-miterlimit:10;"/>
    <path d="M121.5,-175.5 L126.5,-165.5 L131.5,-175.5 L121.5,-175.5 Z" style="fill:none;stroke:rgb(255,0,255);stroke-miterlimit:10;"/>
    <path d="M149.0,-142.5 L154.0,-132.5 L159.0,-142.5 L149.0,-142.5 Z" style="fill:none;stroke:rgb(255,0,255);stroke-miterlimit:10;"/>
    <path d="M143.5,-153.5 L148.5,-143.5 L153.5,-153.5 L143.5,-153.5 Z" style="fill:none;stroke:rgb(255,0,255);stroke-miterlimit:10;"/>
    <path d="M154.5,-153.5 L159.5,-143.5 L164.5,-153.5 L154.5,-153.5 Z" style="fill:none;stroke:rgb(255,0,255);stroke-miterlimit:10;"/>
    <path d="M138.0,-164.5 L143.0,-154.5 L148.0,-164.5 L138.0,-164.5 Z" style="fill:none;stroke:rgb(255,0,255);stroke-miterlimit:10;"/>
    <path d="M132.5,-175.5 L137.5,-165.5 L142.5,-175.5 L132.5,-175.5 Z" style="fill:none;stroke:rgb(255,0,255);stroke-miterlimit:10;"/>
    <path d="M143.5,-175.5 L148.5,-165.5 L153.5,-175.5 L143.5,-175.5 Z" style="fill:none;stroke:rgb(255,0,255);stroke-miterlimit:10;"/>
    <path d="M160.0,-164.5 L165.0,-154.5 L170.0,-164.5 L160.0,-164.5 Z" style="fill:none;stroke:rgb(255,0,255);stroke-miterlimit:10;"/>
    <path d="M154.5,-175.5 L159.5,-165.5 L164.5,-175.5 L154.5,-175.5 Z" style="fill:none;stroke:rgb(255,0,255);stroke-miterlimit:10;"/>
    <path d="M165.5,-175.5 L170.5,-165.5 L175.5,-175.5 L165.5,-175.5 Z" style="fill:none;stroke:rgb(255,0,255);stroke-miterlimit:10;"/>
  </g>
</svg>
