<?xml version="1.0" encoding="UTF-8" standalone="no"?>
<!DOCTYPE svg PUBLIC "-//W3C//DTD SVG 1.1//EN" "http://www.w3.org/Graphics/SVG/1.1/DTD/svg11.dtd">
<svg xmlns:xlink="http://www.w3.org/1999/xlink" height="162.31975900394127mm" version="1.1" viewBox="0 0 454.91119897713213 460.1190019009359" width="160.48256186137715mm" x="0mm" y="0mm" xmlns="http://www.w3.org/2000/svg">
  <path d="M224.85900240667607,233.67085504715328 L226.85900240667607,233.67085504715328 L226.89390854866957,229.6710073548966 L220.8948223777312,229.5662929162729 L220.68540679126824,237.56355151607735 L230.6793150614592,237.91254648310237 L231.2027477098432,225.92396782412007 L217.22193422327916,225.19126443671888 L216.24515759072148,241.16142121146873 L234.20131049539833,242.41703773886297 L235.77049240995518,222.4786910642004 L213.85420905193678,220.56126472375198 L211.55391099145143,244.45077348456428 L237.41148027102656,247.1685135295232 L240.58117025652786,219.34850157057875 L210.8047857072882,215.69242126842443 L206.62794755624665,247.41865683238638 L240.29706189346007,252.15054226502846 L245.61820069412587,216.54597118399943 L208.0860437515106,210.60146151247085 L201.48413951708372,250.05288557396014 L242.84606514359652,257.3461090359709 L250.86442826525087,214.08289310315695 L205.7095778266583,205.30567931583602 L196.13991697463302,252.34206513763587 L245.04729701132334,262.7376496785236 L256.30215693610444,211.97025730828705 L203.68617343770168,199.82290037371862 L190.6132330617713,254.2756159159886 L246.89038518577917,268.30708586076895 L261.91318542904526,210.21822743808238 L202.0257841991229,194.17144664172653 L184.92252813011493,255.84379564707854 L248.36580006204414,274.03586113099993 L267.6788435019103,208.83611915996266 L200.7375105844976,188.37009982937172 L179.08669302019064,257.03772028324425 L249.46487522603223,279.9049778669896 L273.58002911281847,207.83238007131823 L199.82958021607146,182.43806402366084 L173.12503147737067,257.8493833110354 L250.1798263818155,285.89503506373933 L279.59724640760976,207.21457116687353 L199.30932972885023,176.3949275059782 L167.05722177711203,258.27167348839635 L250.50376868812265,291.98626689582903 L285.7106444657121,206.98934990479114 L199.18318824118344,170.26062382679763 L160.90327762435743,258.29839096776846 L250.43073247333098,298.15858198919994 L291.90005673895854,207.16245490154728 L199.45666246122227,164.0553922039916 L154.68350839315457,257.9242617763747 L249.95567730086344,304.3916033360226 L298.14504111672926,207.73869228300717 L200.13432345601245,157.79973731164984 L148.4184787736807,257.14495062760653 L249.07450435959373,310.6647087852068 L304.42492054971785,208.721923716424 L201.21979510727482,151.5143885273459 L142.12896789484765,255.95707204012754 L247.78406715654228,316.9570720401395 L310.71882416368237,210.11505614539783 L202.71574427522444,145.22025870671735 L135.83592799156844,254.35819974403228 L246.0821804918942,323.2477040943643 L317.0057287936912,211.92003324707377 L204.62387268901557,138.93840255504296 L129.56044268655756,252.34687435616587 L243.9676276991405,329.5154950351479 L323.26450086863707,214.13782862807943 L206.94491057961483,132.68997466621002 L123.32368495721771,249.92260930950442 L241.4401661359435,335.7392561442283 L329.47393857516573,216.76844077289763 L209.6786120680904,126.49618730006574 L117.1468748587392,247.08589502431383 L238.50053091415361,341.89776222449177 L335.6128142296498,219.81088975553715 L212.82375231947154,120.3782679696343 L111.0512370749998,243.83820131164515 L235.15043686024865,347.969794080895 L341.65991678643024,223.2632157225168 L216.37812646947827,114.35741691006018 L105.05795836920278,240.18197800258457 L231.39257870033208,353.93418108362124 L347.5940944102556,227.12247915230733 L220.33855032854706,108.45476450140352 L99.18814500641815,236.12065379953935 L227.23062946667164,359.76984374126823 L353.39429704067123,231.38476289354148 L224.7008628647451,102.69132871756432 L93.46278022035108,231.65863334871185 L222.66923712570008,365.4558362117246 L359.0396188760329,236.04517598132279 L229.45993046418147,97.08797267365864 L87.90268179661686,226.80129253584272 L217.71401943021334,370.971388678477 L364.50934070487665,241.09785922821376 L234.60965296477673,91.66536234408704 L82.52845984475366,221.55497201010402 L212.37155700141565,376.2959495201535 L369.7829720125254,246.5359925835077 L240.14297145627606,86.4439245233578 L77.36047483096107,215.92696894396644 L206.64938464933408,381.40922720138997 L374.8402927910868,252.3518042515554 L246.0518778365616,81.44380510142483 L72.41879594323376,209.92552703970253 L200.55598094298205,386.291231813449 L379.6613949813792,258.53658155705193 L252.3274261114554,76.68482772488983 L67.72315986011895,203.55982479604518 L194.10075604450188,390.92231619348854 L384.2267234758192,265.08068354234376 L258.9597454223661,72.18645291489423 L63.29292999377557,196.8399620513557 L187.29403782434534,395.2832165519595 L388.5171166119103,271.97355527899424 L265.93805478331444,67.96773771189325 L59.14705627735097,189.77694482246676 L180.14705627735714,399.35509253829736 L392.5138460866882,279.20374387304355 L273.25067950607973,64.04729591675746 L55.3040355659185,182.38266846115172 L172.67192626240438,403.11956667587646 L396.19865622330843,286.7589161406329 L280.88506928944656,60.44325899679606 L51.7818727193376,174.669899152926 L164.88162859094047,406.55876309810094 L399.5538025218933,294.62587792792124 L288.827817945805,57.17323772433065 L48.59804243440999,166.65225378560484 L156.7899894926021,409.6553455185237 L402.56208942780165,302.7905950465263 L297.06468473566406,54.254284614381675 L45.76945189260897,158.34417821772206 L148.41165848860717,412.39255436900635 L405.2069072516299,311.2382157930596 L305.5806172779934,51.702857226854064 L43.31240428845905,149.76092397955045 L139.76208470634563,414.75424304115916 L407.4722681765064,319.9530950187177 L314.3597760017065,49.534782397331355 L41.24256330233973,140.91852344205358 L130.85749167113283,416.72491316762915 L409.34284128959587,328.9188197123204 L323.38556010104753,47.76522145920745 L39.57491858008203,131.83376349163504 L121.71485061361706,418.28974888123423 L410.803986576184,338.118236057685 L332.64063495514773,46.40863651840647 L38.32375228022309,122.52415775103455 L112.35185233380223,419.4346499914693 L411.84178781626645,347.53347792376667 L342.1069609695815,45.478757840363755 L37.50260674818222,113.0079173891417 L102.78687766505158,420.14626401953694 L412.44308432521416,357.1459967436066 L351.76582379537376,44.98855240726874 L37.124253374927235,103.30392056485829 L93.03896658378437,420.41201703477066 L412.59550148182916,366.93659273580226 L361.59786587860185,44.95019370180515 L37.200662695910324,93.4316805524328 L83.12778601284134,420.22014323713563 L412.2874799889316,376.8854474199658 L371.5831192914963,45.37503277177851 L37.74297578417651,83.41131259791453 L73.07359636876615,419.55971323237804 L411.5083038135948,386.9721573753757 L381.7010397937661,46.273570628010106 L38.761476989580586,73.2634995585218 L62.89721690518445,418.42066094841147 L410.2481267559856,397.17576919014124 L391.9305420708117,47.65543202604789 L40.26556807400422,63.00945637879326 L52.61998990684023,416.79380914354795 L408.4979975981346,407.4748155457908 L402.25003609342923,49.5293406798055 L42.2637437903289,52.67089345938163 L42.26374379049406,414.67089345938166 L406.24988378585385,417.8473523806209 L412.6374645417271,51.90309595337868 L44.763568950717456,42.26997897625756 L31.850755170972008,412.0445849733293 L403.49669359943107,428.2709970730506 L423.0703412341047,54.78355107483017 L47.77165702747098,31.829300209915147 L21.40370995238655,408.9085112081424 L400.23229677099084,438.7229675845247 L433.5257905003938,58.17659291346018 L51.293650327377264,21.371823945900474 L10.945663506273121,405.25727555807606 L396.4515435088134,449.18012249980995 L443.9805874366033,62.0871233596676 L55.33420177804041,10.92085600962892 L0.5,401.08647509383934 L392.1502818913533,459.6190019009359 L454.41119897713213,66.51904234403418 L59.89695836219997,0.5" style="fill:none;stroke:rgb(0,0,0);stroke-miterlimit:10;"/>
</svg>
