<?xml version="1.0" encoding="UTF-8" standalone="no"?>
<!DOCTYPE svg PUBLIC "-//W3C//DTD SVG 1.1//EN" "http://www.w3.org/Graphics/SVG/1.1/DTD/svg11.dtd">
<svg xmlns:xlink="http://www.w3.org/1999/xlink" height="39.511111111111106mm" version="1.1" viewBox="0 0 112 112" width="39.511111111111106mm" x="0mm" y="0mm" xmlns="http://www.w3.org/2000/svg">
  <g transform="matrix(1 0 0 -1 56 56)">
    <path d="M0.0,30.0 C16.557450734819998,30.0 30.0,16.557450734819998 30.0,0.0 C30.0,-16.557450734819998 16.557450734819998,-30.0 0.0,-30.0 C-16.557450734819998,-30.0 -30.0,-16.557450734819998 -30.0,0.0 C-30.0,16.557450734819998 -16.557450734819998,30.0 0.0,30.0 Z" style="fill:none;stroke:rgb(0,0,0);stroke-miterlimit:10;"/>
    <path d="M0.0,30.0 C16.557450734819998,30.0 30.0,16.557450734819998 30.0,0.0 C30.0,-16.557450734819998 16.557450734819998,-30.0 0.0,-30.0 C-16.557450734819998,-30.0 -30.0,-16.557450734819998 -30.0,0.0 C-30.0,16.557450734819998 -16.557450734819998,30.0 0.0,30.0 Z" style="fill:rgb(0,0,0);stroke:none;"/>
    <path d="M38.0,50.0 C44.62741699796952,50.0 50.0,44.62741699796952 50.0,38.0 L50.0,-38.0 C50.0,-44.62741699796952 44.62741699796952,-50.0 38.0,-50.0 L-38.0,-50.0 C-44.62741699796952,-50.0 -50.0,-44.62741699796952 -50.0,-38.0 L-50.0,38.0 C-50.0,44.62741699796952 -44.62741699796952,50.0 -38.0,50.0 L38.0,50.0 Z" style="fill:none;stroke:rgb(0,0,0);stroke-width:12;stroke-miterlimit:10;"/>
  </g>
</svg>
