<?xml version="1.0" encoding="UTF-8" standalone="no"?>
<!DOCTYPE svg PUBLIC "-//W3C//DTD SVG 1.1//EN" "http://www.w3.org/Graphics/SVG/1.1/DTD/svg11.dtd">
<svg xmlns:xlink="http://www.w3.org/1999/xlink" height="70.54295728826581mm" version="1.1" viewBox="0 0 989.7464868072486 199.96428837618657" width="349.1605661792238mm" x="0mm" y="0mm" xmlns="http://www.w3.org/2000/svg">
  <g transform="matrix(1 0 0 -1 494.8732434036243 99.98214418809329)">
    <path d="M-297.9239460421746,0.0 L-313.7985927590565,54.064081745559754 L-356.3824447419859,90.96319953545184 L-412.15542986950305,98.98214418809329 L-463.41001943670307,75.57495743542584 L-493.8732434036243,28.173255684142966 L-493.8732434036243,-28.17325568414294 L-463.4100194367031,-75.57495743542582 L-412.1554298695031,-98.98214418809327 L-356.382444741986,-90.96319953545185 L-313.7985927590565,-54.06408174555975 Z" style="fill:none;stroke:rgb(0,0,0);stroke-width:2;stroke-miterlimit:10;"/>
    <path d="M-99.9746486807249,0.0 L-158.43314738053624,90.96319953545184 L-265.4607220752534,75.57495743542584 L-295.92394604217463,-28.17325568414294 L-214.20613250805343,-98.98214418809327 L-115.84929539760678,-54.06408174555975 L-115.84929539760674,54.06408174555971 L-214.20613250805337,98.98214418809329 L-295.92394604217463,28.17325568414299 L-265.46072207525344,-75.57495743542577 L-158.43314738053624,-90.96319953545184 Z" style="fill:none;stroke:rgb(0,0,0);stroke-width:2;stroke-miterlimit:10;"/>
    <path d="M97.9746486807248,0.0 L-16.256835146603702,98.98214418809329 L-97.97464868072495,-28.17325568414294 L39.516149980913404,-90.96319953545185 L82.10000196384296,54.06408174555971 L-67.51142471380359,75.57495743542594 L-67.51142471380378,-75.57495743542577 L82.10000196384291,-54.06408174555977 L39.516149980913546,90.96319953545179 L-97.97464868072488,28.173255684143182 L-16.25683514660404,-98.98214418809323 Z" style="fill:none;stroke:rgb(0,0,0);stroke-width:2;stroke-miterlimit:10;"/>
    <path d="M295.92394604217463,0.0 L130.43787264764615,75.57495743542584 L181.6924622148461,-98.98214418809327 L280.0492993252928,54.06408174555971 L99.9746486807249,28.17325568414299 L237.4654473423633,-90.96319953545184 L237.46544734236338,90.96319953545179 L99.97464868072487,-28.173255684142894 L280.04929932529274,-54.06408174555979 L181.6924622148463,98.9821441880933 L130.43787264764615,-75.57495743542584 Z" style="fill:none;stroke:rgb(0,0,0);stroke-width:2;stroke-miterlimit:10;"/>
    <path d="M493.8732434036243,0.0 L297.9239460421746,28.173255684142966 L477.9985966867424,-54.06408174555975 L328.3871700090958,75.57495743542582 L435.41474470381297,-90.96319953545184 L379.6417595762958,98.98214418809327 L379.64175957629584,-98.98214418809329 L435.4147447038131,90.96319953545178 L328.3871700090958,-75.57495743542584 L477.9985966867423,54.064081745559946 L297.9239460421746,-28.173255684143015 Z" style="fill:none;stroke:rgb(0,0,0);stroke-width:2;stroke-miterlimit:10;"/>
  </g>
</svg>
