<svg xmlns="http://www.w3.org/2000/svg" width="363.54101966249686" height="107.06339097770922" viewBox="-181.77050983124843 -53.53169548885461 363.54101966249686 107.06339097770922" style=""><g><defs></defs><g><g><circle transform="matrix(1.0,0.0,0.0,-1.0,-129.27050983124843,0.0)" style="stroke-width: 5.0px; stroke: hsla(-60.0, 47.28682170542637%, 74.70588235294117%, 1.0); stroke-linecap: butt; stroke-linejoin: miter;  fill: none;" r="12.0"></circle><circle transform="matrix(1.0,0.0,0.0,-1.0,-129.27050983124843,0.0)" style="stroke-width: 5.0px; stroke: hsla(240.0, 63.503649635036496%, 26.862745098039216%, 1.0); stroke-linecap: butt; stroke-linejoin: miter;  fill: none;" r="30.0"></circle></g><g><g><path transform="matrix(1.0,0.0,0.0,-1.0,-67.5,0.0)" style="stroke-width: 5.0px; stroke: hsla(225.0, 72.72727272727272%, 56.86274509803921%, 1.0); stroke-linecap: butt; stroke-linejoin: miter;  fill: none;" d="M 0,0 M 0,0 M 12,0 L 5.663118960624632,4.114496766047312 L 3.7082039324993694,11.412678195541842 L -2.1631189606246313,6.6573956140660755 L -9.708203932499368,7.0534230275096785 L -7,8.572527594031472E-16 L -9.708203932499371,-7.053423027509677 L -2.163118960624633,-6.657395614066075 L 3.7082039324993668,-11.412678195541844 L 5.663118960624631,-4.1144967660473135 L 12,-2.9391523179536475E-15 Z"></path><path transform="matrix(1.0,0.0,0.0,-1.0,-67.5,0.0)" style="stroke-width: 5.0px; stroke: hsla(180.0, 100.0%, 25.098039215686274%, 1.0); stroke-linecap: butt; stroke-linejoin: miter;  fill: none;" d="M 0,0 M 0,0 M 30,0 L 12.135254915624213,8.816778784387097 L 9.270509831248424,28.531695488854606 L -4.63525491562421,14.265847744427305 L -24.27050983124842,17.633557568774197 L -15,1.83697019872103E-15 L -24.270509831248425,-17.63355756877419 L -4.6352549156242135,-14.265847744427303 L 9.270509831248416,-28.53169548885461 L 12.13525491562421,-8.8167787843871 L 30,-7.34788079488412E-15 Z"></path></g><g><g><circle transform="matrix(1.0,0.0,0.0,-1.0,0.0,0.0)" style="stroke-width: 5.0px; stroke: hsla(-60.0, 47.28682170542637%, 74.70588235294117%, 1.0); stroke-linecap: butt; stroke-linejoin: miter;  fill: none;" r="12.0"></circle><circle transform="matrix(1.0,0.0,0.0,-1.0,0.0,0.0)" style="stroke-width: 5.0px; stroke: hsla(240.0, 63.503649635036496%, 26.862745098039216%, 1.0); stroke-linecap: butt; stroke-linejoin: miter;  fill: none;" r="30.0"></circle></g><g><g><path transform="matrix(1.0,0.0,0.0,-1.0,61.770509831248425,0.0)" style="stroke-width: 5.0px; stroke: hsla(225.0, 72.72727272727272%, 56.86274509803921%, 1.0); stroke-linecap: butt; stroke-linejoin: miter;  fill: none;" d="M 0,0 M 0,0 M 12,0 L 5.663118960624632,4.114496766047312 L 3.7082039324993694,11.412678195541842 L -2.1631189606246313,6.6573956140660755 L -9.708203932499368,7.0534230275096785 L -7,8.572527594031472E-16 L -9.708203932499371,-7.053423027509677 L -2.163118960624633,-6.657395614066075 L 3.7082039324993668,-11.412678195541844 L 5.663118960624631,-4.1144967660473135 L 12,-2.9391523179536475E-15 Z"></path><path transform="matrix(1.0,0.0,0.0,-1.0,61.770509831248425,0.0)" style="stroke-width: 5.0px; stroke: hsla(180.0, 100.0%, 25.098039215686274%, 1.0); stroke-linecap: butt; stroke-linejoin: miter;  fill: none;" d="M 0,0 M 0,0 M 30,0 L 12.135254915624213,8.816778784387097 L 9.270509831248424,28.531695488854606 L -4.63525491562421,14.265847744427305 L -24.27050983124842,17.633557568774197 L -15,1.83697019872103E-15 L -24.270509831248425,-17.63355756877419 L -4.6352549156242135,-14.265847744427303 L 9.270509831248416,-28.53169548885461 L 12.13525491562421,-8.8167787843871 L 30,-7.34788079488412E-15 Z"></path></g><g><g><circle transform="matrix(1.0,0.0,0.0,-1.0,129.27050983124843,0.0)" style="stroke-width: 5.0px; stroke: hsla(-60.0, 47.28682170542637%, 74.70588235294117%, 1.0); stroke-linecap: butt; stroke-linejoin: miter;  fill: none;" r="12.0"></circle><circle transform="matrix(1.0,0.0,0.0,-1.0,129.27050983124843,0.0)" style="stroke-width: 5.0px; stroke: hsla(240.0, 63.503649635036496%, 26.862745098039216%, 1.0); stroke-linecap: butt; stroke-linejoin: miter;  fill: none;" r="30.0"></circle></g><g></g></g></g></g></g></g></g></svg>