<?xml version="1.0" encoding="UTF-8" standalone="no"?>
<!DOCTYPE svg PUBLIC "-//W3C//DTD SVG 1.1//EN" "http://www.w3.org/Graphics/SVG/1.1/DTD/svg11.dtd">
<svg xmlns:xlink="http://www.w3.org/1999/xlink" height="135.11388888888888mm" version="1.1" viewBox="0 0 383 383" width="135.11388888888888mm" x="0mm" y="0mm" xmlns="http://www.w3.org/2000/svg">
  <g transform="matrix(1 0 0 -1 191.5 191.5)">
    <path d="M0.0,50.0 C27.5957512247,50.0 50.0,27.5957512247 50.0,0.0 C50.0,-27.5957512247 27.5957512247,-50.0 0.0,-50.0 C-27.5957512247,-50.0 -50.0,-27.5957512247 -50.0,0.0 C-50.0,27.5957512247 -27.5957512247,50.0 0.0,50.0 Z" style="fill:none;stroke:rgb(65,105,225);stroke-width:3;stroke-miterlimit:10;"/>
    <path d="M0.0,57.0 C31.459156396158,57.0 57.0,31.459156396158 57.0,0.0 C57.0,-31.459156396158 31.459156396158,-57.0 0.0,-57.0 C-31.459156396158,-57.0 -57.0,-31.459156396158 -57.0,0.0 C-57.0,31.459156396158 -31.459156396158,57.0 0.0,57.0 Z" style="fill:none;stroke:rgb(65,105,225);stroke-width:3;stroke-miterlimit:10;"/>
    <path d="M0.0,64.0 C35.322561567616,64.0 64.0,35.322561567616 64.0,0.0 C64.0,-35.322561567616 35.322561567616,-64.0 0.0,-64.0 C-35.322561567616,-64.0 -64.0,-35.322561567616 -64.0,0.0 C-64.0,35.322561567616 -35.322561567616,64.0 0.0,64.0 Z" style="fill:none;stroke:rgb(65,105,225);stroke-width:3;stroke-miterlimit:10;"/>
    <path d="M0.0,71.0 C39.185966739074,71.0 71.0,39.185966739074 71.0,0.0 C71.0,-39.185966739074 39.185966739074,-71.0 0.0,-71.0 C-39.185966739074,-71.0 -71.0,-39.185966739074 -71.0,0.0 C-71.0,39.185966739074 -39.185966739074,71.0 0.0,71.0 Z" style="fill:none;stroke:rgb(65,105,225);stroke-width:3;stroke-miterlimit:10;"/>
    <path d="M0.0,78.0 C43.049371910531995,78.0 78.0,43.049371910531995 78.0,0.0 C78.0,-43.049371910531995 43.049371910531995,-78.0 0.0,-78.0 C-43.049371910531995,-78.0 -78.0,-43.049371910531995 -78.0,0.0 C-78.0,43.049371910531995 -43.049371910531995,78.0 0.0,78.0 Z" style="fill:none;stroke:rgb(65,105,225);stroke-width:3;stroke-miterlimit:10;"/>
    <path d="M0.0,85.0 C46.91277708199,85.0 85.0,46.91277708199 85.0,0.0 C85.0,-46.91277708199 46.91277708199,-85.0 0.0,-85.0 C-46.91277708199,-85.0 -85.0,-46.91277708199 -85.0,0.0 C-85.0,46.91277708199 -46.91277708199,85.0 0.0,85.0 Z" style="fill:none;stroke:rgb(65,105,225);stroke-width:3;stroke-miterlimit:10;"/>
    <path d="M0.0,92.0 C50.776182253448,92.0 92.0,50.776182253448 92.0,0.0 C92.0,-50.776182253448 50.776182253448,-92.0 0.0,-92.0 C-50.776182253448,-92.0 -92.0,-50.776182253448 -92.0,0.0 C-92.0,50.776182253448 -50.776182253448,92.0 0.0,92.0 Z" style="fill:none;stroke:rgb(65,105,225);stroke-width:3;stroke-miterlimit:10;"/>
    <path d="M0.0,99.0 C54.639587424906,99.0 99.0,54.639587424906 99.0,0.0 C99.0,-54.639587424906 54.639587424906,-99.0 0.0,-99.0 C-54.639587424906,-99.0 -99.0,-54.639587424906 -99.0,0.0 C-99.0,54.639587424906 -54.639587424906,99.0 0.0,99.0 Z" style="fill:none;stroke:rgb(65,105,225);stroke-width:3;stroke-miterlimit:10;"/>
    <path d="M0.0,106.0 C58.502992596363995,106.0 106.0,58.502992596363995 106.0,0.0 C106.0,-58.502992596363995 58.502992596363995,-106.0 0.0,-106.0 C-58.502992596363995,-106.0 -106.0,-58.502992596363995 -106.0,0.0 C-106.0,58.502992596363995 -58.502992596363995,106.0 0.0,106.0 Z" style="fill:none;stroke:rgb(65,105,225);stroke-width:3;stroke-miterlimit:10;"/>
    <path d="M0.0,113.0 C62.366397767822,113.0 113.0,62.366397767822 113.0,0.0 C113.0,-62.366397767822 62.366397767822,-113.0 0.0,-113.0 C-62.366397767822,-113.0 -113.0,-62.366397767822 -113.0,0.0 C-113.0,62.366397767822 -62.366397767822,113.0 0.0,113.0 Z" style="fill:none;stroke:rgb(65,105,225);stroke-width:3;stroke-miterlimit:10;"/>
    <path d="M0.0,120.0 C66.22980293927999,120.0 120.0,66.22980293927999 120.0,0.0 C120.0,-66.22980293927999 66.22980293927999,-120.0 0.0,-120.0 C-66.22980293927999,-120.0 -120.0,-66.22980293927999 -120.0,0.0 C-120.0,66.22980293927999 -66.22980293927999,120.0 0.0,120.0 Z" style="fill:none;stroke:rgb(65,105,225);stroke-width:3;stroke-miterlimit:10;"/>
    <path d="M0.0,127.0 C70.093208110738,127.0 127.0,70.093208110738 127.0,0.0 C127.0,-70.093208110738 70.093208110738,-127.0 0.0,-127.0 C-70.093208110738,-127.0 -127.0,-70.093208110738 -127.0,0.0 C-127.0,70.093208110738 -70.093208110738,127.0 0.0,127.0 Z" style="fill:none;stroke:rgb(65,105,225);stroke-width:3;stroke-miterlimit:10;"/>
    <path d="M0.0,134.0 C73.956613282196,134.0 134.0,73.956613282196 134.0,0.0 C134.0,-73.956613282196 73.956613282196,-134.0 0.0,-134.0 C-73.956613282196,-134.0 -134.0,-73.956613282196 -134.0,0.0 C-134.0,73.956613282196 -73.956613282196,134.0 0.0,134.0 Z" style="fill:none;stroke:rgb(65,105,225);stroke-width:3;stroke-miterlimit:10;"/>
    <path d="M0.0,141.0 C77.820018453654,141.0 141.0,77.820018453654 141.0,0.0 C141.0,-77.820018453654 77.820018453654,-141.0 0.0,-141.0 C-77.820018453654,-141.0 -141.0,-77.820018453654 -141.0,0.0 C-141.0,77.820018453654 -77.820018453654,141.0 0.0,141.0 Z" style="fill:none;stroke:rgb(65,105,225);stroke-width:3;stroke-miterlimit:10;"/>
    <path d="M0.0,148.0 C81.683423625112,148.0 148.0,81.683423625112 148.0,0.0 C148.0,-81.683423625112 81.683423625112,-148.0 0.0,-148.0 C-81.683423625112,-148.0 -148.0,-81.683423625112 -148.0,0.0 C-148.0,81.683423625112 -81.683423625112,148.0 0.0,148.0 Z" style="fill:none;stroke:rgb(65,105,225);stroke-width:3;stroke-miterlimit:10;"/>
    <path d="M0.0,155.0 C85.54682879657,155.0 155.0,85.54682879657 155.0,0.0 C155.0,-85.54682879657 85.54682879657,-155.0 0.0,-155.0 C-85.54682879657,-155.0 -155.0,-85.54682879657 -155.0,0.0 C-155.0,85.54682879657 -85.54682879657,155.0 0.0,155.0 Z" style="fill:none;stroke:rgb(65,105,225);stroke-width:3;stroke-miterlimit:10;"/>
    <path d="M0.0,162.0 C89.410233968028,162.0 162.0,89.410233968028 162.0,0.0 C162.0,-89.410233968028 89.410233968028,-162.0 0.0,-162.0 C-89.410233968028,-162.0 -162.0,-89.410233968028 -162.0,0.0 C-162.0,89.410233968028 -89.410233968028,162.0 0.0,162.0 Z" style="fill:none;stroke:rgb(65,105,225);stroke-width:3;stroke-miterlimit:10;"/>
    <path d="M0.0,169.0 C93.273639139486,169.0 169.0,93.273639139486 169.0,0.0 C169.0,-93.273639139486 93.273639139486,-169.0 0.0,-169.0 C-93.273639139486,-169.0 -169.0,-93.273639139486 -169.0,0.0 C-169.0,93.273639139486 -93.273639139486,169.0 0.0,169.0 Z" style="fill:none;stroke:rgb(65,105,225);stroke-width:3;stroke-miterlimit:10;"/>
    <path d="M0.0,176.0 C97.13704431094399,176.0 176.0,97.13704431094399 176.0,0.0 C176.0,-97.13704431094399 97.13704431094399,-176.0 0.0,-176.0 C-97.13704431094399,-176.0 -176.0,-97.13704431094399 -176.0,0.0 C-176.0,97.13704431094399 -97.13704431094399,176.0 0.0,176.0 Z" style="fill:none;stroke:rgb(65,105,225);stroke-width:3;stroke-miterlimit:10;"/>
    <path d="M0.0,183.0 C101.00044948240199,183.0 183.0,101.00044948240199 183.0,0.0 C183.0,-101.00044948240199 101.00044948240199,-183.0 0.0,-183.0 C-101.00044948240199,-183.0 -183.0,-101.00044948240199 -183.0,0.0 C-183.0,101.00044948240199 -101.00044948240199,183.0 0.0,183.0 Z" style="fill:none;stroke:rgb(65,105,225);stroke-width:3;stroke-miterlimit:10;"/>
    <path d="M0.0,190.0 C104.86385465386,190.0 190.0,104.86385465386 190.0,0.0 C190.0,-104.86385465386 104.86385465386,-190.0 0.0,-190.0 C-104.86385465386,-190.0 -190.0,-104.86385465386 -190.0,0.0 C-190.0,104.86385465386 -104.86385465386,190.0 0.0,190.0 Z" style="fill:none;stroke:rgb(65,105,225);stroke-width:3;stroke-miterlimit:10;"/>
  </g>
</svg>
