<svg xmlns="http://www.w3.org/2000/svg" width="395.14533018536287" height="151.49279121818236" viewBox="-197.57266509268143 -75.74639560909118 395.14533018536287 151.49279121818236" style=""><g><defs></defs><g><path transform="matrix(1.0,0.0,0.0,-1.0,-125.52422169756048,0.0)" style="stroke-width: 7.0px; stroke: hsla(41.235294117647065, 100.0%, 50.0%, 1.0); stroke-linecap: butt; stroke-linejoin: miter;  fill: none;" d="M 0,0 M 50,0 L 31.53391037658467,15.185930869114534 L 31.17449009293668,39.09157412340149 L 7.788232688471005,34.122476926363824 L -11.126046697815717,48.74639560909118 L -21.822143065055673,27.364101886381047 L -45.048443395120955,21.69418695587791 L -35,4.2862637970157365E-15 L -45.048443395120955,-21.6941869558779 L -21.82214306505568,-27.36410188638104 L -11.12604669781573,-48.74639560909118 L 7.788232688470998,-34.122476926363824 L 31.17449009293667,-39.09157412340149 L 31.533910376584664,-15.185930869114541 L 50,-1.2246467991473532E-14 Z"></path><g><path transform="matrix(1.0,0.0,0.0,-1.0,-25.485466981463702,0.0)" style="stroke-width: 7.0px; stroke: hsla(36.23529411764706, 100.0%, 50.0%, 1.0); stroke-linecap: butt; stroke-linejoin: miter;  fill: none;" d="M 0,0 M 40,0 L 25.227128301267737,12.148744695291628 L 24.939592074349342,31.273259298721193 L 6.230586150776805,27.297981541091062 L -8.900837358252573,38.99711648727295 L -17.457714452044538,21.891281509104836 L -36.03875471609676,17.35534956470233 L -28,3.429011037612589E-15 L -36.03875471609677,-17.35534956470232 L -17.457714452044545,-21.891281509104832 L -8.900837358252584,-38.99711648727295 L 6.230586150776798,-27.297981541091062 L 24.939592074349335,-31.273259298721197 L 25.227128301267733,-12.148744695291633 L 40,-9.797174393178826E-15 Z"></path><g><path transform="matrix(1.0,0.0,0.0,-1.0,55.54359905560887,0.0)" style="stroke-width: 7.0px; stroke: hsla(31.235294117647058, 100.0%, 50.0%, 1.0); stroke-linecap: butt; stroke-linejoin: miter;  fill: none;" d="M 0,0 M 30,0 L 18.9203462259508,9.111558521468721 L 18.70469405576201,23.454944474040893 L 4.672939613082604,20.473486155818296 L -6.67562801868943,29.247837365454707 L -13.093285839033403,16.41846113182863 L -27.02906603707257,13.016512173526747 L -21,2.5717582782094417E-15 L -27.029066037072575,-13.01651217352674 L -13.093285839033408,-16.418461131828625 L -6.675628018689437,-29.247837365454707 L 4.672939613082598,-20.473486155818296 L 18.704694055762,-23.454944474040897 L 18.9203462259508,-9.111558521468725 L 30,-7.34788079488412E-15 Z"></path><g><path transform="matrix(1.0,0.0,0.0,-1.0,117.56297641365722,0.0)" style="stroke-width: 7.0px; stroke: hsla(26.23529411764706, 100.0%, 50.0%, 1.0); stroke-linecap: butt; stroke-linejoin: miter;  fill: none;" d="M 0,0 M 20,0 L 12.613564150633868,6.074372347645814 L 12.469796037174671,15.636629649360597 L 3.1152930753884025,13.648990770545531 L -4.450418679126287,19.498558243636474 L -8.728857226022269,10.945640754552418 L -18.01937735804838,8.677674782351165 L -14,1.7145055188062944E-15 L -18.019377358048384,-8.67767478235116 L -8.728857226022273,-10.945640754552416 L -4.450418679126292,-19.498558243636474 L 3.115293075388399,-13.648990770545531 L 12.469796037174667,-15.636629649360598 L 12.613564150633866,-6.0743723476458165 L 20,-4.898587196589413E-15 Z"></path><g><path transform="matrix(1.0,0.0,0.0,-1.0,160.5726650926814,0.0)" style="stroke-width: 7.0px; stroke: hsla(21.235294117647058, 100.0%, 50.0%, 1.0); stroke-linecap: butt; stroke-linejoin: miter;  fill: none;" d="M 0,0 M 10,0 L 6.306782075316934,3.037186173822907 L 6.2348980185873355,7.818314824680298 L 1.5576465376942012,6.8244953852727654 L -2.2252093395631434,9.749279121818237 L -4.3644286130111345,5.472820377276209 L -9.00968867902419,4.338837391175582 L -7,8.572527594031472E-16 L -9.009688679024192,-4.33883739117558 L -4.364428613011136,-5.472820377276208 L -2.225209339563146,-9.749279121818237 L 1.5576465376941995,-6.8244953852727654 L 6.234898018587334,-7.818314824680299 L 6.306782075316933,-3.0371861738229082 L 10,-2.4492935982947065E-15 Z"></path><g></g></g></g></g></g></g></g></svg>