<?xml version="1.0" encoding="UTF-8" standalone="no"?>
<!DOCTYPE svg PUBLIC "-//W3C//DTD SVG 1.1//EN" "http://www.w3.org/Graphics/SVG/1.1/DTD/svg11.dtd">
<svg xmlns:xlink="http://www.w3.org/1999/xlink" height="19.402777777777775mm" version="1.1" viewBox="0 0 175 55" width="61.73611111111111mm" x="0mm" y="0mm" xmlns="http://www.w3.org/2000/svg">
  <g transform="matrix(1 0 0 -1 87.5 27.5)">
    <path d="M-85.0,5.0 L-75.0,5.0 L-75.0,-5.0 L-85.0,-5.0 L-85.0,5.0 Z" style="fill:none;stroke:rgb(105,65,225);stroke-width:5;stroke-miterlimit:10;"/>
    <path d="M-85.0,5.0 L-75.0,5.0 L-75.0,-5.0 L-85.0,-5.0 L-85.0,5.0 Z" style="fill:rgb(65,105,225);stroke:none;"/>
    <path d="M-70.0,10.0 L-50.0,10.0 L-50.0,-10.0 L-70.0,-10.0 L-70.0,10.0 Z" style="fill:none;stroke:rgb(105,65,225);stroke-width:5;stroke-miterlimit:10;"/>
    <path d="M-70.0,10.0 L-50.0,10.0 L-50.0,-10.0 L-70.0,-10.0 L-70.0,10.0 Z" style="fill:rgb(65,105,225);stroke:none;"/>
    <path d="M-45.0,15.0 L-15.0,15.0 L-15.0,-15.0 L-45.0,-15.0 L-45.0,15.0 Z" style="fill:none;stroke:rgb(105,65,225);stroke-width:5;stroke-miterlimit:10;"/>
    <path d="M-45.0,15.0 L-15.0,15.0 L-15.0,-15.0 L-45.0,-15.0 L-45.0,15.0 Z" style="fill:rgb(65,105,225);stroke:none;"/>
    <path d="M-10.0,20.0 L30.0,20.0 L30.0,-20.0 L-10.0,-20.0 L-10.0,20.0 Z" style="fill:none;stroke:rgb(105,65,225);stroke-width:5;stroke-miterlimit:10;"/>
    <path d="M-10.0,20.0 L30.0,20.0 L30.0,-20.0 L-10.0,-20.0 L-10.0,20.0 Z" style="fill:rgb(65,105,225);stroke:none;"/>
    <path d="M35.0,25.0 L85.0,25.0 L85.0,-25.0 L35.0,-25.0 L35.0,25.0 Z" style="fill:none;stroke:rgb(105,65,225);stroke-width:5;stroke-miterlimit:10;"/>
    <path d="M35.0,25.0 L85.0,25.0 L85.0,-25.0 L35.0,-25.0 L35.0,25.0 Z" style="fill:rgb(65,105,225);stroke:none;"/>
  </g>
</svg>
