<svg xmlns="http://www.w3.org/2000/svg" width="445.0" height="120.0" viewBox="-222.5 -60.0 445.0 120.0" style=""><g><defs></defs><g><g><g><g><g><path transform="matrix(1.0,0.0,0.0,-1.0,-147.5,-25.0)" style="stroke: none; fill: hsla(0.0, 59.420289855072475%, 40.588235294117645%, 1.0);" d="M -25,-15 L 0,15 L 25,-15 Z"></path><g><rect transform="matrix(1.0,0.0,0.0,-1.0,-147.5,-2.5)" style="stroke: none; fill: hsla(0.0, 100.0%, 50.0%, 1.0);" x="-25.0" y="-7.5" width="50.0" height="15.0"></rect><g><rect transform="matrix(1.0,0.0,0.0,-1.0,-147.5,17.5)" style="stroke: none; fill: hsla(0.0, 100.0%, 50.0%, 1.0);" x="-25.0" y="-12.5" width="50.0" height="25.0"></rect><rect transform="matrix(1.0,0.0,0.0,-1.0,-147.5,17.5)" style="stroke: none; fill: hsla(0.0, 0.0%, 0.0%, 1.0);" x="-5.0" y="-12.5" width="10.0" height="25.0"></rect></g></g></g><g><circle transform="matrix(1.0,0.0,0.0,-1.0,-110.0,-15.0)" style="stroke: none; fill: hsla(120.0, 100.0%, 25.098039215686274%, 1.0);" r="12.5"></circle><rect transform="matrix(1.0,0.0,0.0,-1.0,-110.0,7.5)" style="stroke: none; fill: hsla(0.0, 59.420289855072475%, 40.588235294117645%, 1.0);" x="-5.0" y="-10.0" width="10.0" height="20.0"></rect></g></g><g><g><g><g><rect transform="matrix(1.0,0.0,0.0,-1.0,-187.5,31.5)" style="stroke: none; fill: hsla(60.0, 100.0%, 50.0%, 1.0);" x="-15.0" y="-1.5" width="30.0" height="3.0"></rect><rect transform="matrix(1.0,0.0,0.0,-1.0,-165.0,31.5)" style="stroke: none; fill: hsla(0.0, 0.0%, 0.0%, 1.0);" x="-7.5" y="-1.5" width="15.0" height="3.0"></rect></g><rect transform="matrix(1.0,0.0,0.0,-1.0,-180.0,36.5)" style="stroke: none; fill: hsla(0.0, 0.0%, 0.0%, 1.0);" x="-22.5" y="-3.5" width="45.0" height="7.0"></rect></g><g><g><rect transform="matrix(1.0,0.0,0.0,-1.0,-142.5,31.5)" style="stroke: none; fill: hsla(60.0, 100.0%, 50.0%, 1.0);" x="-15.0" y="-1.5" width="30.0" height="3.0"></rect><rect transform="matrix(1.0,0.0,0.0,-1.0,-120.0,31.5)" style="stroke: none; fill: hsla(0.0, 0.0%, 0.0%, 1.0);" x="-7.5" y="-1.5" width="15.0" height="3.0"></rect></g><rect transform="matrix(1.0,0.0,0.0,-1.0,-135.0,36.5)" style="stroke: none; fill: hsla(0.0, 0.0%, 0.0%, 1.0);" x="-22.5" y="-3.5" width="45.0" height="7.0"></rect></g></g><g><g><rect transform="matrix(1.0,0.0,0.0,-1.0,-97.5,31.5)" style="stroke: none; fill: hsla(60.0, 100.0%, 50.0%, 1.0);" x="-15.0" y="-1.5" width="30.0" height="3.0"></rect><rect transform="matrix(1.0,0.0,0.0,-1.0,-75.0,31.5)" style="stroke: none; fill: hsla(0.0, 0.0%, 0.0%, 1.0);" x="-7.5" y="-1.5" width="15.0" height="3.0"></rect></g><rect transform="matrix(1.0,0.0,0.0,-1.0,-90.0,36.5)" style="stroke: none; fill: hsla(0.0, 0.0%, 0.0%, 1.0);" x="-22.5" y="-3.5" width="45.0" height="7.0"></rect></g></g></g><g><g><g><path transform="matrix(1.0,0.0,0.0,-1.0,-12.5,-25.0)" style="stroke: none; fill: hsla(0.0, 59.420289855072475%, 40.588235294117645%, 1.0);" d="M -25,-15 L 0,15 L 25,-15 Z"></path><g><rect transform="matrix(1.0,0.0,0.0,-1.0,-12.5,-2.5)" style="stroke: none; fill: hsla(0.0, 100.0%, 50.0%, 1.0);" x="-25.0" y="-7.5" width="50.0" height="15.0"></rect><g><rect transform="matrix(1.0,0.0,0.0,-1.0,-12.5,17.5)" style="stroke: none; fill: hsla(0.0, 100.0%, 50.0%, 1.0);" x="-25.0" y="-12.5" width="50.0" height="25.0"></rect><rect transform="matrix(1.0,0.0,0.0,-1.0,-12.5,17.5)" style="stroke: none; fill: hsla(0.0, 0.0%, 0.0%, 1.0);" x="-5.0" y="-12.5" width="10.0" height="25.0"></rect></g></g></g><g><circle transform="matrix(1.0,0.0,0.0,-1.0,25.0,-15.0)" style="stroke: none; fill: hsla(120.0, 100.0%, 25.098039215686274%, 1.0);" r="12.5"></circle><rect transform="matrix(1.0,0.0,0.0,-1.0,25.0,7.5)" style="stroke: none; fill: hsla(0.0, 59.420289855072475%, 40.588235294117645%, 1.0);" x="-5.0" y="-10.0" width="10.0" height="20.0"></rect></g></g><g><g><g><g><rect transform="matrix(1.0,0.0,0.0,-1.0,-52.5,31.5)" style="stroke: none; fill: hsla(60.0, 100.0%, 50.0%, 1.0);" x="-15.0" y="-1.5" width="30.0" height="3.0"></rect><rect transform="matrix(1.0,0.0,0.0,-1.0,-30.0,31.5)" style="stroke: none; fill: hsla(0.0, 0.0%, 0.0%, 1.0);" x="-7.5" y="-1.5" width="15.0" height="3.0"></rect></g><rect transform="matrix(1.0,0.0,0.0,-1.0,-45.0,36.5)" style="stroke: none; fill: hsla(0.0, 0.0%, 0.0%, 1.0);" x="-22.5" y="-3.5" width="45.0" height="7.0"></rect></g><g><g><rect transform="matrix(1.0,0.0,0.0,-1.0,-7.5,31.5)" style="stroke: none; fill: hsla(60.0, 100.0%, 50.0%, 1.0);" x="-15.0" y="-1.5" width="30.0" height="3.0"></rect><rect transform="matrix(1.0,0.0,0.0,-1.0,15.0,31.5)" style="stroke: none; fill: hsla(0.0, 0.0%, 0.0%, 1.0);" x="-7.5" y="-1.5" width="15.0" height="3.0"></rect></g><rect transform="matrix(1.0,0.0,0.0,-1.0,0.0,36.5)" style="stroke: none; fill: hsla(0.0, 0.0%, 0.0%, 1.0);" x="-22.5" y="-3.5" width="45.0" height="7.0"></rect></g></g><g><g><rect transform="matrix(1.0,0.0,0.0,-1.0,37.5,31.5)" style="stroke: none; fill: hsla(60.0, 100.0%, 50.0%, 1.0);" x="-15.0" y="-1.5" width="30.0" height="3.0"></rect><rect transform="matrix(1.0,0.0,0.0,-1.0,60.0,31.5)" style="stroke: none; fill: hsla(0.0, 0.0%, 0.0%, 1.0);" x="-7.5" y="-1.5" width="15.0" height="3.0"></rect></g><rect transform="matrix(1.0,0.0,0.0,-1.0,45.0,36.5)" style="stroke: none; fill: hsla(0.0, 0.0%, 0.0%, 1.0);" x="-22.5" y="-3.5" width="45.0" height="7.0"></rect></g></g></g></g><g><g><g><path transform="matrix(1.0,0.0,0.0,-1.0,122.5,-25.0)" style="stroke: none; fill: hsla(0.0, 59.420289855072475%, 40.588235294117645%, 1.0);" d="M -25,-15 L 0,15 L 25,-15 Z"></path><g><rect transform="matrix(1.0,0.0,0.0,-1.0,122.5,-2.5)" style="stroke: none; fill: hsla(0.0, 100.0%, 50.0%, 1.0);" x="-25.0" y="-7.5" width="50.0" height="15.0"></rect><g><rect transform="matrix(1.0,0.0,0.0,-1.0,122.5,17.5)" style="stroke: none; fill: hsla(0.0, 100.0%, 50.0%, 1.0);" x="-25.0" y="-12.5" width="50.0" height="25.0"></rect><rect transform="matrix(1.0,0.0,0.0,-1.0,122.5,17.5)" style="stroke: none; fill: hsla(0.0, 0.0%, 0.0%, 1.0);" x="-5.0" y="-12.5" width="10.0" height="25.0"></rect></g></g></g><g><circle transform="matrix(1.0,0.0,0.0,-1.0,160.0,-15.0)" style="stroke: none; fill: hsla(120.0, 100.0%, 25.098039215686274%, 1.0);" r="12.5"></circle><rect transform="matrix(1.0,0.0,0.0,-1.0,160.0,7.5)" style="stroke: none; fill: hsla(0.0, 59.420289855072475%, 40.588235294117645%, 1.0);" x="-5.0" y="-10.0" width="10.0" height="20.0"></rect></g></g><g><g><g><g><rect transform="matrix(1.0,0.0,0.0,-1.0,82.5,31.5)" style="stroke: none; fill: hsla(60.0, 100.0%, 50.0%, 1.0);" x="-15.0" y="-1.5" width="30.0" height="3.0"></rect><rect transform="matrix(1.0,0.0,0.0,-1.0,105.0,31.5)" style="stroke: none; fill: hsla(0.0, 0.0%, 0.0%, 1.0);" x="-7.5" y="-1.5" width="15.0" height="3.0"></rect></g><rect transform="matrix(1.0,0.0,0.0,-1.0,90.0,36.5)" style="stroke: none; fill: hsla(0.0, 0.0%, 0.0%, 1.0);" x="-22.5" y="-3.5" width="45.0" height="7.0"></rect></g><g><g><rect transform="matrix(1.0,0.0,0.0,-1.0,127.5,31.5)" style="stroke: none; fill: hsla(60.0, 100.0%, 50.0%, 1.0);" x="-15.0" y="-1.5" width="30.0" height="3.0"></rect><rect transform="matrix(1.0,0.0,0.0,-1.0,150.0,31.5)" style="stroke: none; fill: hsla(0.0, 0.0%, 0.0%, 1.0);" x="-7.5" y="-1.5" width="15.0" height="3.0"></rect></g><rect transform="matrix(1.0,0.0,0.0,-1.0,135.0,36.5)" style="stroke: none; fill: hsla(0.0, 0.0%, 0.0%, 1.0);" x="-22.5" y="-3.5" width="45.0" height="7.0"></rect></g></g><g><g><rect transform="matrix(1.0,0.0,0.0,-1.0,172.5,31.5)" style="stroke: none; fill: hsla(60.0, 100.0%, 50.0%, 1.0);" x="-15.0" y="-1.5" width="30.0" height="3.0"></rect><rect transform="matrix(1.0,0.0,0.0,-1.0,195.0,31.5)" style="stroke: none; fill: hsla(0.0, 0.0%, 0.0%, 1.0);" x="-7.5" y="-1.5" width="15.0" height="3.0"></rect></g><rect transform="matrix(1.0,0.0,0.0,-1.0,180.0,36.5)" style="stroke: none; fill: hsla(0.0, 0.0%, 0.0%, 1.0);" x="-22.5" y="-3.5" width="45.0" height="7.0"></rect></g></g></g></g></g></svg>