<?xml version="1.0" encoding="UTF-8" standalone="no"?>
<!DOCTYPE svg PUBLIC "-//W3C//DTD SVG 1.1//EN" "http://www.w3.org/Graphics/SVG/1.1/DTD/svg11.dtd">
<svg xmlns:xlink="http://www.w3.org/1999/xlink" height="61.03055555555555mm" version="1.1" viewBox="0 0 173 173" width="61.03055555555555mm" x="0mm" y="0mm" xmlns="http://www.w3.org/2000/svg">
  <g transform="matrix(1 0 0 -1 86.5 86.5)">
    <path d="M0.0,50.0 C27.5957512247,50.0 50.0,27.5957512247 50.0,0.0 C50.0,-27.5957512247 27.5957512247,-50.0 0.0,-50.0 C-27.5957512247,-50.0 -50.0,-27.5957512247 -50.0,0.0 C-50.0,27.5957512247 -27.5957512247,50.0 0.0,50.0 Z" style="fill:none;stroke:rgb(65,105,225);stroke-width:3;stroke-miterlimit:10;"/>
    <path d="M0.0,57.0 C31.459156396158,57.0 57.0,31.459156396158 57.0,0.0 C57.0,-31.459156396158 31.459156396158,-57.0 0.0,-57.0 C-31.459156396158,-57.0 -57.0,-31.459156396158 -57.0,0.0 C-57.0,31.459156396158 -31.459156396158,57.0 0.0,57.0 Z" style="fill:none;stroke:rgb(65,65,225);stroke-width:3;stroke-miterlimit:10;"/>
    <path d="M0.0,64.0 C35.322561567616,64.0 64.0,35.322561567616 64.0,0.0 C64.0,-35.322561567616 35.322561567616,-64.0 0.0,-64.0 C-35.322561567616,-64.0 -64.0,-35.322561567616 -64.0,0.0 C-64.0,35.322561567616 -35.322561567616,64.0 0.0,64.0 Z" style="fill:none;stroke:rgb(105,65,225);stroke-width:3;stroke-miterlimit:10;"/>
    <path d="M0.0,71.0 C39.185966739074,71.0 71.0,39.185966739074 71.0,0.0 C71.0,-39.185966739074 39.185966739074,-71.0 0.0,-71.0 C-39.185966739074,-71.0 -71.0,-39.185966739074 -71.0,0.0 C-71.0,39.185966739074 -39.185966739074,71.0 0.0,71.0 Z" style="fill:none;stroke:rgb(145,65,225);stroke-width:3;stroke-miterlimit:10;"/>
    <path d="M0.0,78.0 C43.049371910531995,78.0 78.0,43.049371910531995 78.0,0.0 C78.0,-43.049371910531995 43.049371910531995,-78.0 0.0,-78.0 C-43.049371910531995,-78.0 -78.0,-43.049371910531995 -78.0,0.0 C-78.0,43.049371910531995 -43.049371910531995,78.0 0.0,78.0 Z" style="fill:none;stroke:rgb(185,65,225);stroke-width:3;stroke-miterlimit:10;"/>
    <path d="M0.0,85.0 C46.91277708199,85.0 85.0,46.91277708199 85.0,0.0 C85.0,-46.91277708199 46.91277708199,-85.0 0.0,-85.0 C-46.91277708199,-85.0 -85.0,-46.91277708199 -85.0,0.0 C-85.0,46.91277708199 -46.91277708199,85.0 0.0,85.0 Z" style="fill:none;stroke:rgb(225,65,225);stroke-width:3;stroke-miterlimit:10;"/>
  </g>
</svg>
