<?xml version="1.0" encoding="UTF-8" standalone="no"?>
<!DOCTYPE svg PUBLIC "-//W3C//DTD SVG 1.1//EN" "http://www.w3.org/Graphics/SVG/1.1/DTD/svg11.dtd">
<svg xmlns:xlink="http://www.w3.org/1999/xlink" height="28.222222222222218mm" version="1.1" viewBox="0 0 405 80" width="142.87499999999997mm" x="0mm" y="0mm" xmlns="http://www.w3.org/2000/svg">
  <g transform="matrix(1 0 0 -1 202.5 40)">
    <path d="M-185.0,10.0 L-160.0,40.0 L-135.0,10.0 L-185.0,10.0 Z" style="fill:rgb(165,42,42);stroke:none;"/>
    <path d="M-185.0,10.0 L-135.0,10.0 L-135.0,-5.0 L-185.0,-5.0 L-185.0,10.0 Z" style="fill:rgb(255,0,0);stroke:none;"/>
    <path d="M-185.0,-5.0 L-135.0,-5.0 L-135.0,-30.0 L-185.0,-30.0 L-185.0,-5.0 Z" style="fill:rgb(255,0,0);stroke:none;"/>
    <path d="M-165.0,-5.0 L-155.0,-5.0 L-155.0,-30.0 L-165.0,-30.0 L-165.0,-5.0 Z" style="fill:rgb(0,0,0);stroke:none;"/>
    <path d="M-110.0,40.0 C-96.20212438765,40.0 -85.0,28.797875612349998 -85.0,15.0 C-85.0,1.2021243876500005 -96.20212438765,-10.0 -110.0,-10.0 C-123.79787561235,-10.0 -135.0,1.2021243876500005 -135.0,15.0 C-135.0,28.797875612349998 -123.79787561235,40.0 -110.0,40.0 Z" style="fill:rgb(0,128,0);stroke:none;"/>
    <path d="M-115.0,-10.0 L-105.0,-10.0 L-105.0,-30.0 L-115.0,-30.0 L-115.0,-10.0 Z" style="fill:rgb(165,42,42);stroke:none;"/>
    <path d="M-202.5,-30.0 L-172.5,-30.0 L-172.5,-33.0 L-202.5,-33.0 L-202.5,-30.0 Z" style="fill:rgb(255,255,0);stroke:none;"/>
    <path d="M-172.5,-30.0 L-157.5,-30.0 L-157.5,-33.0 L-172.5,-33.0 L-172.5,-30.0 Z" style="fill:rgb(0,0,0);stroke:none;"/>
    <path d="M-202.5,-33.0 L-157.5,-33.0 L-157.5,-40.0 L-202.5,-40.0 L-202.5,-33.0 Z" style="fill:rgb(0,0,0);stroke:none;"/>
    <path d="M-157.5,-30.0 L-127.5,-30.0 L-127.5,-33.0 L-157.5,-33.0 L-157.5,-30.0 Z" style="fill:rgb(255,255,0);stroke:none;"/>
    <path d="M-127.5,-30.0 L-112.5,-30.0 L-112.5,-33.0 L-127.5,-33.0 L-127.5,-30.0 Z" style="fill:rgb(0,0,0);stroke:none;"/>
    <path d="M-157.5,-33.0 L-112.5,-33.0 L-112.5,-40.0 L-157.5,-40.0 L-157.5,-33.0 Z" style="fill:rgb(0,0,0);stroke:none;"/>
    <path d="M-112.5,-30.0 L-82.5,-30.0 L-82.5,-33.0 L-112.5,-33.0 L-112.5,-30.0 Z" style="fill:rgb(255,255,0);stroke:none;"/>
    <path d="M-82.5,-30.0 L-67.5,-30.0 L-67.5,-33.0 L-82.5,-33.0 L-82.5,-30.0 Z" style="fill:rgb(0,0,0);stroke:none;"/>
    <path d="M-112.5,-33.0 L-67.5,-33.0 L-67.5,-40.0 L-112.5,-40.0 L-112.5,-33.0 Z" style="fill:rgb(0,0,0);stroke:none;"/>
    <path d="M-50.0,10.0 L-25.0,40.0 L0.0,10.0 L-50.0,10.0 Z" style="fill:rgb(165,42,42);stroke:none;"/>
    <path d="M-50.0,10.0 L0.0,10.0 L0.0,-5.0 L-50.0,-5.0 L-50.0,10.0 Z" style="fill:rgb(255,0,0);stroke:none;"/>
    <path d="M-50.0,-5.0 L0.0,-5.0 L0.0,-30.0 L-50.0,-30.0 L-50.0,-5.0 Z" style="fill:rgb(255,0,0);stroke:none;"/>
    <path d="M-30.0,-5.0 L-20.0,-5.0 L-20.0,-30.0 L-30.0,-30.0 L-30.0,-5.0 Z" style="fill:rgb(0,0,0);stroke:none;"/>
    <path d="M25.0,40.0 C38.79787561235,40.0 50.0,28.797875612349998 50.0,15.0 C50.0,1.2021243876500005 38.79787561235,-10.0 25.0,-10.0 C11.20212438765,-10.0 0.0,1.2021243876500005 0.0,15.0 C0.0,28.797875612349998 11.20212438765,40.0 25.0,40.0 Z" style="fill:rgb(0,128,0);stroke:none;"/>
    <path d="M20.0,-10.0 L30.0,-10.0 L30.0,-30.0 L20.0,-30.0 L20.0,-10.0 Z" style="fill:rgb(165,42,42);stroke:none;"/>
    <path d="M-67.5,-30.0 L-37.5,-30.0 L-37.5,-33.0 L-67.5,-33.0 L-67.5,-30.0 Z" style="fill:rgb(255,255,0);stroke:none;"/>
    <path d="M-37.5,-30.0 L-22.5,-30.0 L-22.5,-33.0 L-37.5,-33.0 L-37.5,-30.0 Z" style="fill:rgb(0,0,0);stroke:none;"/>
    <path d="M-67.5,-33.0 L-22.5,-33.0 L-22.5,-40.0 L-67.5,-40.0 L-67.5,-33.0 Z" style="fill:rgb(0,0,0);stroke:none;"/>
    <path d="M-22.5,-30.0 L7.5,-30.0 L7.5,-33.0 L-22.5,-33.0 L-22.5,-30.0 Z" style="fill:rgb(255,255,0);stroke:none;"/>
    <path d="M7.5,-30.0 L22.5,-30.0 L22.5,-33.0 L7.5,-33.0 L7.5,-30.0 Z" style="fill:rgb(0,0,0);stroke:none;"/>
    <path d="M-22.5,-33.0 L22.5,-33.0 L22.5,-40.0 L-22.5,-40.0 L-22.5,-33.0 Z" style="fill:rgb(0,0,0);stroke:none;"/>
    <path d="M22.5,-30.0 L52.5,-30.0 L52.5,-33.0 L22.5,-33.0 L22.5,-30.0 Z" style="fill:rgb(255,255,0);stroke:none;"/>
    <path d="M52.5,-30.0 L67.5,-30.0 L67.5,-33.0 L52.5,-33.0 L52.5,-30.0 Z" style="fill:rgb(0,0,0);stroke:none;"/>
    <path d="M22.5,-33.0 L67.5,-33.0 L67.5,-40.0 L22.5,-40.0 L22.5,-33.0 Z" style="fill:rgb(0,0,0);stroke:none;"/>
    <path d="M85.0,10.0 L110.0,40.0 L135.0,10.0 L85.0,10.0 Z" style="fill:rgb(165,42,42);stroke:none;"/>
    <path d="M85.0,10.0 L135.0,10.0 L135.0,-5.0 L85.0,-5.0 L85.0,10.0 Z" style="fill:rgb(255,0,0);stroke:none;"/>
    <path d="M85.0,-5.0 L135.0,-5.0 L135.0,-30.0 L85.0,-30.0 L85.0,-5.0 Z" style="fill:rgb(255,0,0);stroke:none;"/>
    <path d="M105.0,-5.0 L115.0,-5.0 L115.0,-30.0 L105.0,-30.0 L105.0,-5.0 Z" style="fill:rgb(0,0,0);stroke:none;"/>
    <path d="M160.0,40.0 C173.79787561235,40.0 185.0,28.797875612349998 185.0,15.0 C185.0,1.2021243876500005 173.79787561235,-10.0 160.0,-10.0 C146.20212438765,-10.0 135.0,1.2021243876500005 135.0,15.0 C135.0,28.797875612349998 146.20212438765,40.0 160.0,40.0 Z" style="fill:rgb(0,128,0);stroke:none;"/>
    <path d="M155.0,-10.0 L165.0,-10.0 L165.0,-30.0 L155.0,-30.0 L155.0,-10.0 Z" style="fill:rgb(165,42,42);stroke:none;"/>
    <path d="M67.5,-30.0 L97.5,-30.0 L97.5,-33.0 L67.5,-33.0 L67.5,-30.0 Z" style="fill:rgb(255,255,0);stroke:none;"/>
    <path d="M97.5,-30.0 L112.5,-30.0 L112.5,-33.0 L97.5,-33.0 L97.5,-30.0 Z" style="fill:rgb(0,0,0);stroke:none;"/>
    <path d="M67.5,-33.0 L112.5,-33.0 L112.5,-40.0 L67.5,-40.0 L67.5,-33.0 Z" style="fill:rgb(0,0,0);stroke:none;"/>
    <path d="M112.5,-30.0 L142.5,-30.0 L142.5,-33.0 L112.5,-33.0 L112.5,-30.0 Z" style="fill:rgb(255,255,0);stroke:none;"/>
    <path d="M142.5,-30.0 L157.5,-30.0 L157.5,-33.0 L142.5,-33.0 L142.5,-30.0 Z" style="fill:rgb(0,0,0);stroke:none;"/>
    <path d="M112.5,-33.0 L157.5,-33.0 L157.5,-40.0 L112.5,-40.0 L112.5,-33.0 Z" style="fill:rgb(0,0,0);stroke:none;"/>
    <path d="M157.5,-30.0 L187.5,-30.0 L187.5,-33.0 L157.5,-33.0 L157.5,-30.0 Z" style="fill:rgb(255,255,0);stroke:none;"/>
    <path d="M187.5,-30.0 L202.5,-30.0 L202.5,-33.0 L187.5,-33.0 L187.5,-30.0 Z" style="fill:rgb(0,0,0);stroke:none;"/>
    <path d="M157.5,-33.0 L202.5,-33.0 L202.5,-40.0 L157.5,-40.0 L157.5,-33.0 Z" style="fill:rgb(0,0,0);stroke:none;"/>
  </g>
</svg>
