<?xml version="1.0" encoding="UTF-8" standalone="no"?>
<!DOCTYPE svg PUBLIC "-//W3C//DTD SVG 1.1//EN" "http://www.w3.org/Graphics/SVG/1.1/DTD/svg11.dtd">
<svg xmlns:xlink="http://www.w3.org/1999/xlink" height="85.52086733927307mm" version="1.1" viewBox="0 0 522.2792206135786 242.4213562373095" width="184.24850282756796mm" x="0mm" y="0mm" xmlns="http://www.w3.org/2000/svg">
  <path d="M0.5,121.21067811865476 L10.5,121.21067811865476" style="fill:none;stroke:rgb(0,0,0);stroke-miterlimit:10;"/>
  <path d="M11.5,121.21067811865476 L21.5,121.21067811865476 L31.5,121.21067811865476 L38.571067811865476,114.13961030678928 M31.5,121.21067811865476 L38.571067811865476,128.28174593052023 M31.5,121.21067811865476" style="fill:none;stroke:rgb(0,0,0);stroke-miterlimit:10;"/>
  <path d="M39.571067811865476,121.21067811865476 L49.571067811865476,121.21067811865476 L59.571067811865476,121.21067811865476 L69.57106781186548,121.21067811865476 L79.57106781186548,121.21067811865476 L86.64213562373095,114.13961030678928 L93.71320343559643,107.0685424949238 L93.71320343559643,97.0685424949238 M93.71320343559643,107.0685424949238 L103.71320343559643,107.0685424949238 M79.57106781186548,121.21067811865476 L86.64213562373095,128.28174593052023 L93.71320343559643,135.3528137423857 L103.71320343559643,135.3528137423857 M93.71320343559643,135.3528137423857 L93.71320343559643,145.3528137423857 M79.57106781186548,121.21067811865476" style="fill:none;stroke:rgb(0,0,0);stroke-miterlimit:10;"/>
  <path d="M104.71320343559643,121.21067811865476 L114.71320343559643,121.21067811865476 L124.71320343559643,121.21067811865476 L134.71320343559643,121.21067811865476 L144.71320343559643,121.21067811865476 L154.71320343559643,121.21067811865476 L164.71320343559643,121.21067811865476 L174.71320343559643,121.21067811865476 L184.71320343559643,121.21067811865476 L191.7842712474619,114.13961030678928 L198.85533905932738,107.0685424949238 L205.92640687119285,99.99747468305833 L212.99747468305833,92.92640687119285 L212.99747468305833,82.92640687119285 L212.99747468305833,72.92640687119285 L205.92640687119285,65.85533905932738 M212.99747468305833,72.92640687119285 L220.0685424949238,65.85533905932738 M212.99747468305833,92.92640687119285 L222.99747468305833,92.92640687119285 L232.99747468305833,92.92640687119285 L240.0685424949238,85.85533905932738 M232.99747468305833,92.92640687119285 L240.0685424949238,99.99747468305833 M184.71320343559643,121.21067811865476 L191.7842712474619,128.28174593052023 L198.85533905932738,135.3528137423857 L205.92640687119285,142.42388155425118 L212.99747468305833,149.49494936611666 L222.99747468305833,149.49494936611666 L232.99747468305833,149.49494936611666 L240.0685424949238,142.42388155425118 M232.99747468305833,149.49494936611666 L240.0685424949238,156.56601717798213 M212.99747468305833,149.49494936611666 L212.99747468305833,159.49494936611666 L212.99747468305833,169.49494936611666 L220.0685424949238,176.56601717798213 M212.99747468305833,169.49494936611666 L205.92640687119285,176.56601717798213 M184.71320343559643,121.21067811865476" style="fill:none;stroke:rgb(0,0,0);stroke-miterlimit:10;"/>
  <path d="M241.0685424949238,121.21067811865476 L251.0685424949238,121.21067811865476 L261.0685424949238,121.21067811865476 L271.0685424949238,121.21067811865476 L281.0685424949238,121.21067811865476 L291.0685424949238,121.21067811865476 L301.0685424949238,121.21067811865476 L311.0685424949238,121.21067811865476 L321.0685424949238,121.21067811865476 L331.0685424949238,121.21067811865476 L341.0685424949238,121.21067811865476 L351.0685424949238,121.21067811865476 L361.0685424949238,121.21067811865476 L371.0685424949238,121.21067811865476 L381.0685424949238,121.21067811865476 L391.0685424949238,121.21067811865476 L401.0685424949238,121.21067811865476 L408.1396103067893,114.13961030678928 L415.21067811865476,107.0685424949238 L422.28174593052023,99.99747468305833 L429.3528137423857,92.92640687119285 L436.4238815542512,85.85533905932738 L443.49494936611666,78.7842712474619 L450.56601717798213,71.71320343559643 L457.6370849898476,64.64213562373095 L457.6370849898476,54.64213562373095 L457.6370849898476,44.64213562373095 L457.6370849898476,34.64213562373095 L457.6370849898476,24.64213562373095 L450.56601717798213,17.571067811865476 L443.49494936611666,10.5 L433.49494936611666,10.5 M443.49494936611666,10.5 L443.49494936611666,0.5 M457.6370849898476,24.64213562373095 L464.7081528017131,17.571067811865476 L471.77922061357856,10.5 L471.77922061357856,0.5 M471.77922061357856,10.5 L481.77922061357856,10.5 M457.6370849898476,64.64213562373095 L467.6370849898476,64.64213562373095 L477.6370849898476,64.64213562373095 L487.6370849898476,64.64213562373095 L497.6370849898476,64.64213562373095 L504.7081528017131,57.57106781186548 L511.77922061357856,50.500000000000014 L511.77922061357856,40.500000000000014 M511.77922061357856,50.500000000000014 L521.7792206135786,50.500000000000014 M497.6370849898476,64.64213562373095 L504.7081528017131,71.71320343559643 L511.77922061357856,78.7842712474619 L521.7792206135786,78.7842712474619 M511.77922061357856,78.7842712474619 L511.77922061357856,88.7842712474619 M401.0685424949238,121.21067811865476 L408.1396103067893,128.28174593052023 L415.21067811865476,135.3528137423857 L422.28174593052023,142.42388155425118 L429.3528137423857,149.49494936611666 L436.4238815542512,156.56601717798213 L443.49494936611666,163.6370849898476 L450.56601717798213,170.70815280171308 L457.6370849898476,177.77922061357856 L467.6370849898476,177.77922061357856 L477.6370849898476,177.77922061357856 L487.6370849898476,177.77922061357856 L497.6370849898476,177.77922061357856 L504.7081528017131,170.70815280171308 L511.77922061357856,163.6370849898476 L511.77922061357856,153.6370849898476 M511.77922061357856,163.6370849898476 L521.7792206135786,163.6370849898476 M497.6370849898476,177.77922061357856 L504.7081528017131,184.85028842544403 L511.77922061357856,191.9213562373095 L521.7792206135786,191.9213562373095 M511.77922061357856,191.9213562373095 L511.77922061357856,201.9213562373095 M457.6370849898476,177.77922061357856 L457.6370849898476,187.77922061357856 L457.6370849898476,197.77922061357856 L457.6370849898476,207.77922061357856 L457.6370849898476,217.77922061357856 L464.7081528017131,224.85028842544403 L471.77922061357856,231.9213562373095 L481.77922061357856,231.9213562373095 M471.77922061357856,231.9213562373095 L471.77922061357856,241.9213562373095 M457.6370849898476,217.77922061357856 L450.56601717798213,224.85028842544403 L443.49494936611666,231.9213562373095 L443.49494936611666,241.9213562373095 M443.49494936611666,231.9213562373095 L433.49494936611666,231.9213562373095 M401.0685424949238,121.21067811865476" style="fill:none;stroke:rgb(0,0,0);stroke-miterlimit:10;"/>
</svg>
