<?xml version="1.0" encoding="UTF-8" standalone="no"?>
<!DOCTYPE svg PUBLIC "-//W3C//DTD SVG 1.1//EN" "http://www.w3.org/Graphics/SVG/1.1/DTD/svg11.dtd">
<svg xmlns:xlink="http://www.w3.org/1999/xlink" height="87.48888888888888mm" version="1.1" viewBox="0 0 494 248" width="174.2722222222222mm" x="0mm" y="0mm" xmlns="http://www.w3.org/2000/svg">
  <g transform="matrix(1 0 0 -1 247 124)">
    <path d="M-246.5,30.5 L-216.5,30.5 L-216.5,0.5 L-246.5,0.5 L-246.5,30.5 Z" style="fill:none;stroke:rgb(0,0,0);stroke-miterlimit:10;"/>
    <path d="M-246.5,30.5 L-216.5,30.5 L-216.5,0.5 L-246.5,0.5 L-246.5,30.5 Z" style="fill:rgb(255,0,0);stroke:none;"/>
    <path d="M-215.5,30.5 L-185.5,30.5 L-185.5,0.5 L-215.5,0.5 L-215.5,30.5 Z" style="fill:none;stroke:rgb(0,0,0);stroke-miterlimit:10;"/>
    <path d="M-215.5,30.5 L-185.5,30.5 L-185.5,0.5 L-215.5,0.5 L-215.5,30.5 Z" style="fill:rgb(0,0,0);stroke:none;"/>
    <path d="M-246.5,-0.5 L-216.5,-0.5 L-216.5,-30.5 L-246.5,-30.5 L-246.5,-0.5 Z" style="fill:none;stroke:rgb(0,0,0);stroke-miterlimit:10;"/>
    <path d="M-246.5,-0.5 L-216.5,-0.5 L-216.5,-30.5 L-246.5,-30.5 L-246.5,-0.5 Z" style="fill:rgb(0,0,0);stroke:none;"/>
    <path d="M-215.5,-0.5 L-185.5,-0.5 L-185.5,-30.5 L-215.5,-30.5 L-215.5,-0.5 Z" style="fill:none;stroke:rgb(0,0,0);stroke-miterlimit:10;"/>
    <path d="M-215.5,-0.5 L-185.5,-0.5 L-185.5,-30.5 L-215.5,-30.5 L-215.5,-0.5 Z" style="fill:rgb(255,0,0);stroke:none;"/>
    <path d="M-154.5,61.5 L-124.5,61.5 L-124.5,31.5 L-154.5,31.5 L-154.5,61.5 Z" style="fill:none;stroke:rgb(0,0,0);stroke-miterlimit:10;"/>
    <path d="M-154.5,61.5 L-124.5,61.5 L-124.5,31.5 L-154.5,31.5 L-154.5,61.5 Z" style="fill:rgb(255,0,0);stroke:none;"/>
    <path d="M-123.5,61.5 L-93.5,61.5 L-93.5,31.5 L-123.5,31.5 L-123.5,61.5 Z" style="fill:none;stroke:rgb(0,0,0);stroke-miterlimit:10;"/>
    <path d="M-123.5,61.5 L-93.5,61.5 L-93.5,31.5 L-123.5,31.5 L-123.5,61.5 Z" style="fill:rgb(0,0,0);stroke:none;"/>
    <path d="M-154.5,30.5 L-124.5,30.5 L-124.5,0.5 L-154.5,0.5 L-154.5,30.5 Z" style="fill:none;stroke:rgb(0,0,0);stroke-miterlimit:10;"/>
    <path d="M-154.5,30.5 L-124.5,30.5 L-124.5,0.5 L-154.5,0.5 L-154.5,30.5 Z" style="fill:rgb(0,0,0);stroke:none;"/>
    <path d="M-123.5,30.5 L-93.5,30.5 L-93.5,0.5 L-123.5,0.5 L-123.5,30.5 Z" style="fill:none;stroke:rgb(0,0,0);stroke-miterlimit:10;"/>
    <path d="M-123.5,30.5 L-93.5,30.5 L-93.5,0.5 L-123.5,0.5 L-123.5,30.5 Z" style="fill:rgb(255,0,0);stroke:none;"/>
    <path d="M-92.5,61.5 L-62.5,61.5 L-62.5,31.5 L-92.5,31.5 L-92.5,61.5 Z" style="fill:none;stroke:rgb(0,0,0);stroke-miterlimit:10;"/>
    <path d="M-92.5,61.5 L-62.5,61.5 L-62.5,31.5 L-92.5,31.5 L-92.5,61.5 Z" style="fill:rgb(255,0,0);stroke:none;"/>
    <path d="M-61.5,61.5 L-31.5,61.5 L-31.5,31.5 L-61.5,31.5 L-61.5,61.5 Z" style="fill:none;stroke:rgb(0,0,0);stroke-miterlimit:10;"/>
    <path d="M-61.5,61.5 L-31.5,61.5 L-31.5,31.5 L-61.5,31.5 L-61.5,61.5 Z" style="fill:rgb(0,0,0);stroke:none;"/>
    <path d="M-92.5,30.5 L-62.5,30.5 L-62.5,0.5 L-92.5,0.5 L-92.5,30.5 Z" style="fill:none;stroke:rgb(0,0,0);stroke-miterlimit:10;"/>
    <path d="M-92.5,30.5 L-62.5,30.5 L-62.5,0.5 L-92.5,0.5 L-92.5,30.5 Z" style="fill:rgb(0,0,0);stroke:none;"/>
    <path d="M-61.5,30.5 L-31.5,30.5 L-31.5,0.5 L-61.5,0.5 L-61.5,30.5 Z" style="fill:none;stroke:rgb(0,0,0);stroke-miterlimit:10;"/>
    <path d="M-61.5,30.5 L-31.5,30.5 L-31.5,0.5 L-61.5,0.5 L-61.5,30.5 Z" style="fill:rgb(255,0,0);stroke:none;"/>
    <path d="M-154.5,-0.5 L-124.5,-0.5 L-124.5,-30.5 L-154.5,-30.5 L-154.5,-0.5 Z" style="fill:none;stroke:rgb(0,0,0);stroke-miterlimit:10;"/>
    <path d="M-154.5,-0.5 L-124.5,-0.5 L-124.5,-30.5 L-154.5,-30.5 L-154.5,-0.5 Z" style="fill:rgb(255,0,0);stroke:none;"/>
    <path d="M-123.5,-0.5 L-93.5,-0.5 L-93.5,-30.5 L-123.5,-30.5 L-123.5,-0.5 Z" style="fill:none;stroke:rgb(0,0,0);stroke-miterlimit:10;"/>
    <path d="M-123.5,-0.5 L-93.5,-0.5 L-93.5,-30.5 L-123.5,-30.5 L-123.5,-0.5 Z" style="fill:rgb(0,0,0);stroke:none;"/>
    <path d="M-154.5,-31.5 L-124.5,-31.5 L-124.5,-61.5 L-154.5,-61.5 L-154.5,-31.5 Z" style="fill:none;stroke:rgb(0,0,0);stroke-miterlimit:10;"/>
    <path d="M-154.5,-31.5 L-124.5,-31.5 L-124.5,-61.5 L-154.5,-61.5 L-154.5,-31.5 Z" style="fill:rgb(0,0,0);stroke:none;"/>
    <path d="M-123.5,-31.5 L-93.5,-31.5 L-93.5,-61.5 L-123.5,-61.5 L-123.5,-31.5 Z" style="fill:none;stroke:rgb(0,0,0);stroke-miterlimit:10;"/>
    <path d="M-123.5,-31.5 L-93.5,-31.5 L-93.5,-61.5 L-123.5,-61.5 L-123.5,-31.5 Z" style="fill:rgb(255,0,0);stroke:none;"/>
    <path d="M-92.5,-0.5 L-62.5,-0.5 L-62.5,-30.5 L-92.5,-30.5 L-92.5,-0.5 Z" style="fill:none;stroke:rgb(0,0,0);stroke-miterlimit:10;"/>
    <path d="M-92.5,-0.5 L-62.5,-0.5 L-62.5,-30.5 L-92.5,-30.5 L-92.5,-0.5 Z" style="fill:rgb(255,0,0);stroke:none;"/>
    <path d="M-61.5,-0.5 L-31.5,-0.5 L-31.5,-30.5 L-61.5,-30.5 L-61.5,-0.5 Z" style="fill:none;stroke:rgb(0,0,0);stroke-miterlimit:10;"/>
    <path d="M-61.5,-0.5 L-31.5,-0.5 L-31.5,-30.5 L-61.5,-30.5 L-61.5,-0.5 Z" style="fill:rgb(0,0,0);stroke:none;"/>
    <path d="M-92.5,-31.5 L-62.5,-31.5 L-62.5,-61.5 L-92.5,-61.5 L-92.5,-31.5 Z" style="fill:none;stroke:rgb(0,0,0);stroke-miterlimit:10;"/>
    <path d="M-92.5,-31.5 L-62.5,-31.5 L-62.5,-61.5 L-92.5,-61.5 L-92.5,-31.5 Z" style="fill:rgb(0,0,0);stroke:none;"/>
    <path d="M-61.5,-31.5 L-31.5,-31.5 L-31.5,-61.5 L-61.5,-61.5 L-61.5,-31.5 Z" style="fill:none;stroke:rgb(0,0,0);stroke-miterlimit:10;"/>
    <path d="M-61.5,-31.5 L-31.5,-31.5 L-31.5,-61.5 L-61.5,-61.5 L-61.5,-31.5 Z" style="fill:rgb(255,0,0);stroke:none;"/>
    <path d="M-0.5,123.5 L29.5,123.5 L29.5,93.5 L-0.5,93.5 L-0.5,123.5 Z" style="fill:none;stroke:rgb(0,0,0);stroke-miterlimit:10;"/>
    <path d="M-0.5,123.5 L29.5,123.5 L29.5,93.5 L-0.5,93.5 L-0.5,123.5 Z" style="fill:rgb(255,0,0);stroke:none;"/>
    <path d="M30.5,123.5 L60.5,123.5 L60.5,93.5 L30.5,93.5 L30.5,123.5 Z" style="fill:none;stroke:rgb(0,0,0);stroke-miterlimit:10;"/>
    <path d="M30.5,123.5 L60.5,123.5 L60.5,93.5 L30.5,93.5 L30.5,123.5 Z" style="fill:rgb(0,0,0);stroke:none;"/>
    <path d="M-0.5,92.5 L29.5,92.5 L29.5,62.5 L-0.5,62.5 L-0.5,92.5 Z" style="fill:none;stroke:rgb(0,0,0);stroke-miterlimit:10;"/>
    <path d="M-0.5,92.5 L29.5,92.5 L29.5,62.5 L-0.5,62.5 L-0.5,92.5 Z" style="fill:rgb(0,0,0);stroke:none;"/>
    <path d="M30.5,92.5 L60.5,92.5 L60.5,62.5 L30.5,62.5 L30.5,92.5 Z" style="fill:none;stroke:rgb(0,0,0);stroke-miterlimit:10;"/>
    <path d="M30.5,92.5 L60.5,92.5 L60.5,62.5 L30.5,62.5 L30.5,92.5 Z" style="fill:rgb(255,0,0);stroke:none;"/>
    <path d="M61.5,123.5 L91.5,123.5 L91.5,93.5 L61.5,93.5 L61.5,123.5 Z" style="fill:none;stroke:rgb(0,0,0);stroke-miterlimit:10;"/>
    <path d="M61.5,123.5 L91.5,123.5 L91.5,93.5 L61.5,93.5 L61.5,123.5 Z" style="fill:rgb(255,0,0);stroke:none;"/>
    <path d="M92.5,123.5 L122.5,123.5 L122.5,93.5 L92.5,93.5 L92.5,123.5 Z" style="fill:none;stroke:rgb(0,0,0);stroke-miterlimit:10;"/>
    <path d="M92.5,123.5 L122.5,123.5 L122.5,93.5 L92.5,93.5 L92.5,123.5 Z" style="fill:rgb(0,0,0);stroke:none;"/>
    <path d="M61.5,92.5 L91.5,92.5 L91.5,62.5 L61.5,62.5 L61.5,92.5 Z" style="fill:none;stroke:rgb(0,0,0);stroke-miterlimit:10;"/>
    <path d="M61.5,92.5 L91.5,92.5 L91.5,62.5 L61.5,62.5 L61.5,92.5 Z" style="fill:rgb(0,0,0);stroke:none;"/>
    <path d="M92.5,92.5 L122.5,92.5 L122.5,62.5 L92.5,62.5 L92.5,92.5 Z" style="fill:none;stroke:rgb(0,0,0);stroke-miterlimit:10;"/>
    <path d="M92.5,92.5 L122.5,92.5 L122.5,62.5 L92.5,62.5 L92.5,92.5 Z" style="fill:rgb(255,0,0);stroke:none;"/>
    <path d="M-0.5,61.5 L29.5,61.5 L29.5,31.5 L-0.5,31.5 L-0.5,61.5 Z" style="fill:none;stroke:rgb(0,0,0);stroke-miterlimit:10;"/>
    <path d="M-0.5,61.5 L29.5,61.5 L29.5,31.5 L-0.5,31.5 L-0.5,61.5 Z" style="fill:rgb(255,0,0);stroke:none;"/>
    <path d="M30.5,61.5 L60.5,61.5 L60.5,31.5 L30.5,31.5 L30.5,61.5 Z" style="fill:none;stroke:rgb(0,0,0);stroke-miterlimit:10;"/>
    <path d="M30.5,61.5 L60.5,61.5 L60.5,31.5 L30.5,31.5 L30.5,61.5 Z" style="fill:rgb(0,0,0);stroke:none;"/>
    <path d="M-0.5,30.5 L29.5,30.5 L29.5,0.5 L-0.5,0.5 L-0.5,30.5 Z" style="fill:none;stroke:rgb(0,0,0);stroke-miterlimit:10;"/>
    <path d="M-0.5,30.5 L29.5,30.5 L29.5,0.5 L-0.5,0.5 L-0.5,30.5 Z" style="fill:rgb(0,0,0);stroke:none;"/>
    <path d="M30.5,30.5 L60.5,30.5 L60.5,0.5 L30.5,0.5 L30.5,30.5 Z" style="fill:none;stroke:rgb(0,0,0);stroke-miterlimit:10;"/>
    <path d="M30.5,30.5 L60.5,30.5 L60.5,0.5 L30.5,0.5 L30.5,30.5 Z" style="fill:rgb(255,0,0);stroke:none;"/>
    <path d="M61.5,61.5 L91.5,61.5 L91.5,31.5 L61.5,31.5 L61.5,61.5 Z" style="fill:none;stroke:rgb(0,0,0);stroke-miterlimit:10;"/>
    <path d="M61.5,61.5 L91.5,61.5 L91.5,31.5 L61.5,31.5 L61.5,61.5 Z" style="fill:rgb(255,0,0);stroke:none;"/>
    <path d="M92.5,61.5 L122.5,61.5 L122.5,31.5 L92.5,31.5 L92.5,61.5 Z" style="fill:none;stroke:rgb(0,0,0);stroke-miterlimit:10;"/>
    <path d="M92.5,61.5 L122.5,61.5 L122.5,31.5 L92.5,31.5 L92.5,61.5 Z" style="fill:rgb(0,0,0);stroke:none;"/>
    <path d="M61.5,30.5 L91.5,30.5 L91.5,0.5 L61.5,0.5 L61.5,30.5 Z" style="fill:none;stroke:rgb(0,0,0);stroke-miterlimit:10;"/>
    <path d="M61.5,30.5 L91.5,30.5 L91.5,0.5 L61.5,0.5 L61.5,30.5 Z" style="fill:rgb(0,0,0);stroke:none;"/>
    <path d="M92.5,30.5 L122.5,30.5 L122.5,0.5 L92.5,0.5 L92.5,30.5 Z" style="fill:none;stroke:rgb(0,0,0);stroke-miterlimit:10;"/>
    <path d="M92.5,30.5 L122.5,30.5 L122.5,0.5 L92.5,0.5 L92.5,30.5 Z" style="fill:rgb(255,0,0);stroke:none;"/>
    <path d="M123.5,123.5 L153.5,123.5 L153.5,93.5 L123.5,93.5 L123.5,123.5 Z" style="fill:none;stroke:rgb(0,0,0);stroke-miterlimit:10;"/>
    <path d="M123.5,123.5 L153.5,123.5 L153.5,93.5 L123.5,93.5 L123.5,123.5 Z" style="fill:rgb(255,0,0);stroke:none;"/>
    <path d="M154.5,123.5 L184.5,123.5 L184.5,93.5 L154.5,93.5 L154.5,123.5 Z" style="fill:none;stroke:rgb(0,0,0);stroke-miterlimit:10;"/>
    <path d="M154.5,123.5 L184.5,123.5 L184.5,93.5 L154.5,93.5 L154.5,123.5 Z" style="fill:rgb(0,0,0);stroke:none;"/>
    <path d="M123.5,92.5 L153.5,92.5 L153.5,62.5 L123.5,62.5 L123.5,92.5 Z" style="fill:none;stroke:rgb(0,0,0);stroke-miterlimit:10;"/>
    <path d="M123.5,92.5 L153.5,92.5 L153.5,62.5 L123.5,62.5 L123.5,92.5 Z" style="fill:rgb(0,0,0);stroke:none;"/>
    <path d="M154.5,92.5 L184.5,92.5 L184.5,62.5 L154.5,62.5 L154.5,92.5 Z" style="fill:none;stroke:rgb(0,0,0);stroke-miterlimit:10;"/>
    <path d="M154.5,92.5 L184.5,92.5 L184.5,62.5 L154.5,62.5 L154.5,92.5 Z" style="fill:rgb(255,0,0);stroke:none;"/>
    <path d="M185.5,123.5 L215.5,123.5 L215.5,93.5 L185.5,93.5 L185.5,123.5 Z" style="fill:none;stroke:rgb(0,0,0);stroke-miterlimit:10;"/>
    <path d="M185.5,123.5 L215.5,123.5 L215.5,93.5 L185.5,93.5 L185.5,123.5 Z" style="fill:rgb(255,0,0);stroke:none;"/>
    <path d="M216.5,123.5 L246.5,123.5 L246.5,93.5 L216.5,93.5 L216.5,123.5 Z" style="fill:none;stroke:rgb(0,0,0);stroke-miterlimit:10;"/>
    <path d="M216.5,123.5 L246.5,123.5 L246.5,93.5 L216.5,93.5 L216.5,123.5 Z" style="fill:rgb(0,0,0);stroke:none;"/>
    <path d="M185.5,92.5 L215.5,92.5 L215.5,62.5 L185.5,62.5 L185.5,92.5 Z" style="fill:none;stroke:rgb(0,0,0);stroke-miterlimit:10;"/>
    <path d="M185.5,92.5 L215.5,92.5 L215.5,62.5 L185.5,62.5 L185.5,92.5 Z" style="fill:rgb(0,0,0);stroke:none;"/>
    <path d="M216.5,92.5 L246.5,92.5 L246.5,62.5 L216.5,62.5 L216.5,92.5 Z" style="fill:none;stroke:rgb(0,0,0);stroke-miterlimit:10;"/>
    <path d="M216.5,92.5 L246.5,92.5 L246.5,62.5 L216.5,62.5 L216.5,92.5 Z" style="fill:rgb(255,0,0);stroke:none;"/>
    <path d="M123.5,61.5 L153.5,61.5 L153.5,31.5 L123.5,31.5 L123.5,61.5 Z" style="fill:none;stroke:rgb(0,0,0);stroke-miterlimit:10;"/>
    <path d="M123.5,61.5 L153.5,61.5 L153.5,31.5 L123.5,31.5 L123.5,61.5 Z" style="fill:rgb(255,0,0);stroke:none;"/>
    <path d="M154.5,61.5 L184.5,61.5 L184.5,31.5 L154.5,31.5 L154.5,61.5 Z" style="fill:none;stroke:rgb(0,0,0);stroke-miterlimit:10;"/>
    <path d="M154.5,61.5 L184.5,61.5 L184.5,31.5 L154.5,31.5 L154.5,61.5 Z" style="fill:rgb(0,0,0);stroke:none;"/>
    <path d="M123.5,30.5 L153.5,30.5 L153.5,0.5 L123.5,0.5 L123.5,30.5 Z" style="fill:none;stroke:rgb(0,0,0);stroke-miterlimit:10;"/>
    <path d="M123.5,30.5 L153.5,30.5 L153.5,0.5 L123.5,0.5 L123.5,30.5 Z" style="fill:rgb(0,0,0);stroke:none;"/>
    <path d="M154.5,30.5 L184.5,30.5 L184.5,0.5 L154.5,0.5 L154.5,30.5 Z" style="fill:none;stroke:rgb(0,0,0);stroke-miterlimit:10;"/>
    <path d="M154.5,30.5 L184.5,30.5 L184.5,0.5 L154.5,0.5 L154.5,30.5 Z" style="fill:rgb(255,0,0);stroke:none;"/>
    <path d="M185.5,61.5 L215.5,61.5 L215.5,31.5 L185.5,31.5 L185.5,61.5 Z" style="fill:none;stroke:rgb(0,0,0);stroke-miterlimit:10;"/>
    <path d="M185.5,61.5 L215.5,61.5 L215.5,31.5 L185.5,31.5 L185.5,61.5 Z" style="fill:rgb(255,0,0);stroke:none;"/>
    <path d="M216.5,61.5 L246.5,61.5 L246.5,31.5 L216.5,31.5 L216.5,61.5 Z" style="fill:none;stroke:rgb(0,0,0);stroke-miterlimit:10;"/>
    <path d="M216.5,61.5 L246.5,61.5 L246.5,31.5 L216.5,31.5 L216.5,61.5 Z" style="fill:rgb(0,0,0);stroke:none;"/>
    <path d="M185.5,30.5 L215.5,30.5 L215.5,0.5 L185.5,0.5 L185.5,30.5 Z" style="fill:none;stroke:rgb(0,0,0);stroke-miterlimit:10;"/>
    <path d="M185.5,30.5 L215.5,30.5 L215.5,0.5 L185.5,0.5 L185.5,30.5 Z" style="fill:rgb(0,0,0);stroke:none;"/>
    <path d="M216.5,30.5 L246.5,30.5 L246.5,0.5 L216.5,0.5 L216.5,30.5 Z" style="fill:none;stroke:rgb(0,0,0);stroke-miterlimit:10;"/>
    <path d="M216.5,30.5 L246.5,30.5 L246.5,0.5 L216.5,0.5 L216.5,30.5 Z" style="fill:rgb(255,0,0);stroke:none;"/>
    <path d="M-0.5,-0.5 L29.5,-0.5 L29.5,-30.5 L-0.5,-30.5 L-0.5,-0.5 Z" style="fill:none;stroke:rgb(0,0,0);stroke-miterlimit:10;"/>
    <path d="M-0.5,-0.5 L29.5,-0.5 L29.5,-30.5 L-0.5,-30.5 L-0.5,-0.5 Z" style="fill:rgb(255,0,0);stroke:none;"/>
    <path d="M30.5,-0.5 L60.5,-0.5 L60.5,-30.5 L30.5,-30.5 L30.5,-0.5 Z" style="fill:none;stroke:rgb(0,0,0);stroke-miterlimit:10;"/>
    <path d="M30.5,-0.5 L60.5,-0.5 L60.5,-30.5 L30.5,-30.5 L30.5,-0.5 Z" style="fill:rgb(0,0,0);stroke:none;"/>
    <path d="M-0.5,-31.5 L29.5,-31.5 L29.5,-61.5 L-0.5,-61.5 L-0.5,-31.5 Z" style="fill:none;stroke:rgb(0,0,0);stroke-miterlimit:10;"/>
    <path d="M-0.5,-31.5 L29.5,-31.5 L29.5,-61.5 L-0.5,-61.5 L-0.5,-31.5 Z" style="fill:rgb(0,0,0);stroke:none;"/>
    <path d="M30.5,-31.5 L60.5,-31.5 L60.5,-61.5 L30.5,-61.5 L30.5,-31.5 Z" style="fill:none;stroke:rgb(0,0,0);stroke-miterlimit:10;"/>
    <path d="M30.5,-31.5 L60.5,-31.5 L60.5,-61.5 L30.5,-61.5 L30.5,-31.5 Z" style="fill:rgb(255,0,0);stroke:none;"/>
    <path d="M61.5,-0.5 L91.5,-0.5 L91.5,-30.5 L61.5,-30.5 L61.5,-0.5 Z" style="fill:none;stroke:rgb(0,0,0);stroke-miterlimit:10;"/>
    <path d="M61.5,-0.5 L91.5,-0.5 L91.5,-30.5 L61.5,-30.5 L61.5,-0.5 Z" style="fill:rgb(255,0,0);stroke:none;"/>
    <path d="M92.5,-0.5 L122.5,-0.5 L122.5,-30.5 L92.5,-30.5 L92.5,-0.5 Z" style="fill:none;stroke:rgb(0,0,0);stroke-miterlimit:10;"/>
    <path d="M92.5,-0.5 L122.5,-0.5 L122.5,-30.5 L92.5,-30.5 L92.5,-0.5 Z" style="fill:rgb(0,0,0);stroke:none;"/>
    <path d="M61.5,-31.5 L91.5,-31.5 L91.5,-61.5 L61.5,-61.5 L61.5,-31.5 Z" style="fill:none;stroke:rgb(0,0,0);stroke-miterlimit:10;"/>
    <path d="M61.5,-31.5 L91.5,-31.5 L91.5,-61.5 L61.5,-61.5 L61.5,-31.5 Z" style="fill:rgb(0,0,0);stroke:none;"/>
    <path d="M92.5,-31.5 L122.5,-31.5 L122.5,-61.5 L92.5,-61.5 L92.5,-31.5 Z" style="fill:none;stroke:rgb(0,0,0);stroke-miterlimit:10;"/>
    <path d="M92.5,-31.5 L122.5,-31.5 L122.5,-61.5 L92.5,-61.5 L92.5,-31.5 Z" style="fill:rgb(255,0,0);stroke:none;"/>
    <path d="M-0.5,-62.5 L29.5,-62.5 L29.5,-92.5 L-0.5,-92.5 L-0.5,-62.5 Z" style="fill:none;stroke:rgb(0,0,0);stroke-miterlimit:10;"/>
    <path d="M-0.5,-62.5 L29.5,-62.5 L29.5,-92.5 L-0.5,-92.5 L-0.5,-62.5 Z" style="fill:rgb(255,0,0);stroke:none;"/>
    <path d="M30.5,-62.5 L60.5,-62.5 L60.5,-92.5 L30.5,-92.5 L30.5,-62.5 Z" style="fill:none;stroke:rgb(0,0,0);stroke-miterlimit:10;"/>
    <path d="M30.5,-62.5 L60.5,-62.5 L60.5,-92.5 L30.5,-92.5 L30.5,-62.5 Z" style="fill:rgb(0,0,0);stroke:none;"/>
    <path d="M-0.5,-93.5 L29.5,-93.5 L29.5,-123.5 L-0.5,-123.5 L-0.5,-93.5 Z" style="fill:none;stroke:rgb(0,0,0);stroke-miterlimit:10;"/>
    <path d="M-0.5,-93.5 L29.5,-93.5 L29.5,-123.5 L-0.5,-123.5 L-0.5,-93.5 Z" style="fill:rgb(0,0,0);stroke:none;"/>
    <path d="M30.5,-93.5 L60.5,-93.5 L60.5,-123.5 L30.5,-123.5 L30.5,-93.5 Z" style="fill:none;stroke:rgb(0,0,0);stroke-miterlimit:10;"/>
    <path d="M30.5,-93.5 L60.5,-93.5 L60.5,-123.5 L30.5,-123.5 L30.5,-93.5 Z" style="fill:rgb(255,0,0);stroke:none;"/>
    <path d="M61.5,-62.5 L91.5,-62.5 L91.5,-92.5 L61.5,-92.5 L61.5,-62.5 Z" style="fill:none;stroke:rgb(0,0,0);stroke-miterlimit:10;"/>
    <path d="M61.5,-62.5 L91.5,-62.5 L91.5,-92.5 L61.5,-92.5 L61.5,-62.5 Z" style="fill:rgb(255,0,0);stroke:none;"/>
    <path d="M92.5,-62.5 L122.5,-62.5 L122.5,-92.5 L92.5,-92.5 L92.5,-62.5 Z" style="fill:none;stroke:rgb(0,0,0);stroke-miterlimit:10;"/>
    <path d="M92.5,-62.5 L122.5,-62.5 L122.5,-92.5 L92.5,-92.5 L92.5,-62.5 Z" style="fill:rgb(0,0,0);stroke:none;"/>
    <path d="M61.5,-93.5 L91.5,-93.5 L91.5,-123.5 L61.5,-123.5 L61.5,-93.5 Z" style="fill:none;stroke:rgb(0,0,0);stroke-miterlimit:10;"/>
    <path d="M61.5,-93.5 L91.5,-93.5 L91.5,-123.5 L61.5,-123.5 L61.5,-93.5 Z" style="fill:rgb(0,0,0);stroke:none;"/>
    <path d="M92.5,-93.5 L122.5,-93.5 L122.5,-123.5 L92.5,-123.5 L92.5,-93.5 Z" style="fill:none;stroke:rgb(0,0,0);stroke-miterlimit:10;"/>
    <path d="M92.5,-93.5 L122.5,-93.5 L122.5,-123.5 L92.5,-123.5 L92.5,-93.5 Z" style="fill:rgb(255,0,0);stroke:none;"/>
    <path d="M123.5,-0.5 L153.5,-0.5 L153.5,-30.5 L123.5,-30.5 L123.5,-0.5 Z" style="fill:none;stroke:rgb(0,0,0);stroke-miterlimit:10;"/>
    <path d="M123.5,-0.5 L153.5,-0.5 L153.5,-30.5 L123.5,-30.5 L123.5,-0.5 Z" style="fill:rgb(255,0,0);stroke:none;"/>
    <path d="M154.5,-0.5 L184.5,-0.5 L184.5,-30.5 L154.5,-30.5 L154.5,-0.5 Z" style="fill:none;stroke:rgb(0,0,0);stroke-miterlimit:10;"/>
    <path d="M154.5,-0.5 L184.5,-0.5 L184.5,-30.5 L154.5,-30.5 L154.5,-0.5 Z" style="fill:rgb(0,0,0);stroke:none;"/>
    <path d="M123.5,-31.5 L153.5,-31.5 L153.5,-61.5 L123.5,-61.5 L123.5,-31.5 Z" style="fill:none;stroke:rgb(0,0,0);stroke-miterlimit:10;"/>
    <path d="M123.5,-31.5 L153.5,-31.5 L153.5,-61.5 L123.5,-61.5 L123.5,-31.5 Z" style="fill:rgb(0,0,0);stroke:none;"/>
    <path d="M154.5,-31.5 L184.5,-31.5 L184.5,-61.5 L154.5,-61.5 L154.5,-31.5 Z" style="fill:none;stroke:rgb(0,0,0);stroke-miterlimit:10;"/>
    <path d="M154.5,-31.5 L184.5,-31.5 L184.5,-61.5 L154.5,-61.5 L154.5,-31.5 Z" style="fill:rgb(255,0,0);stroke:none;"/>
    <path d="M185.5,-0.5 L215.5,-0.5 L215.5,-30.5 L185.5,-30.5 L185.5,-0.5 Z" style="fill:none;stroke:rgb(0,0,0);stroke-miterlimit:10;"/>
    <path d="M185.5,-0.5 L215.5,-0.5 L215.5,-30.5 L185.5,-30.5 L185.5,-0.5 Z" style="fill:rgb(255,0,0);stroke:none;"/>
    <path d="M216.5,-0.5 L246.5,-0.5 L246.5,-30.5 L216.5,-30.5 L216.5,-0.5 Z" style="fill:none;stroke:rgb(0,0,0);stroke-miterlimit:10;"/>
    <path d="M216.5,-0.5 L246.5,-0.5 L246.5,-30.5 L216.5,-30.5 L216.5,-0.5 Z" style="fill:rgb(0,0,0);stroke:none;"/>
    <path d="M185.5,-31.5 L215.5,-31.5 L215.5,-61.5 L185.5,-61.5 L185.5,-31.5 Z" style="fill:none;stroke:rgb(0,0,0);stroke-miterlimit:10;"/>
    <path d="M185.5,-31.5 L215.5,-31.5 L215.5,-61.5 L185.5,-61.5 L185.5,-31.5 Z" style="fill:rgb(0,0,0);stroke:none;"/>
    <path d="M216.5,-31.5 L246.5,-31.5 L246.5,-61.5 L216.5,-61.5 L216.5,-31.5 Z" style="fill:none;stroke:rgb(0,0,0);stroke-miterlimit:10;"/>
    <path d="M216.5,-31.5 L246.5,-31.5 L246.5,-61.5 L216.5,-61.5 L216.5,-31.5 Z" style="fill:rgb(255,0,0);stroke:none;"/>
    <path d="M123.5,-62.5 L153.5,-62.5 L153.5,-92.5 L123.5,-92.5 L123.5,-62.5 Z" style="fill:none;stroke:rgb(0,0,0);stroke-miterlimit:10;"/>
    <path d="M123.5,-62.5 L153.5,-62.5 L153.5,-92.5 L123.5,-92.5 L123.5,-62.5 Z" style="fill:rgb(255,0,0);stroke:none;"/>
    <path d="M154.5,-62.5 L184.5,-62.5 L184.5,-92.5 L154.5,-92.5 L154.5,-62.5 Z" style="fill:none;stroke:rgb(0,0,0);stroke-miterlimit:10;"/>
    <path d="M154.5,-62.5 L184.5,-62.5 L184.5,-92.5 L154.5,-92.5 L154.5,-62.5 Z" style="fill:rgb(0,0,0);stroke:none;"/>
    <path d="M123.5,-93.5 L153.5,-93.5 L153.5,-123.5 L123.5,-123.5 L123.5,-93.5 Z" style="fill:none;stroke:rgb(0,0,0);stroke-miterlimit:10;"/>
    <path d="M123.5,-93.5 L153.5,-93.5 L153.5,-123.5 L123.5,-123.5 L123.5,-93.5 Z" style="fill:rgb(0,0,0);stroke:none;"/>
    <path d="M154.5,-93.5 L184.5,-93.5 L184.5,-123.5 L154.5,-123.5 L154.5,-93.5 Z" style="fill:none;stroke:rgb(0,0,0);stroke-miterlimit:10;"/>
    <path d="M154.5,-93.5 L184.5,-93.5 L184.5,-123.5 L154.5,-123.5 L154.5,-93.5 Z" style="fill:rgb(255,0,0);stroke:none;"/>
    <path d="M185.5,-62.5 L215.5,-62.5 L215.5,-92.5 L185.5,-92.5 L185.5,-62.5 Z" style="fill:none;stroke:rgb(0,0,0);stroke-miterlimit:10;"/>
    <path d="M185.5,-62.5 L215.5,-62.5 L215.5,-92.5 L185.5,-92.5 L185.5,-62.5 Z" style="fill:rgb(255,0,0);stroke:none;"/>
    <path d="M216.5,-62.5 L246.5,-62.5 L246.5,-92.5 L216.5,-92.5 L216.5,-62.5 Z" style="fill:none;stroke:rgb(0,0,0);stroke-miterlimit:10;"/>
    <path d="M216.5,-62.5 L246.5,-62.5 L246.5,-92.5 L216.5,-92.5 L216.5,-62.5 Z" style="fill:rgb(0,0,0);stroke:none;"/>
    <path d="M185.5,-93.5 L215.5,-93.5 L215.5,-123.5 L185.5,-123.5 L185.5,-93.5 Z" style="fill:none;stroke:rgb(0,0,0);stroke-miterlimit:10;"/>
    <path d="M185.5,-93.5 L215.5,-93.5 L215.5,-123.5 L185.5,-123.5 L185.5,-93.5 Z" style="fill:rgb(0,0,0);stroke:none;"/>
    <path d="M216.5,-93.5 L246.5,-93.5 L246.5,-123.5 L216.5,-123.5 L216.5,-93.5 Z" style="fill:none;stroke:rgb(0,0,0);stroke-miterlimit:10;"/>
    <path d="M216.5,-93.5 L246.5,-93.5 L246.5,-123.5 L216.5,-123.5 L216.5,-93.5 Z" style="fill:rgb(255,0,0);stroke:none;"/>
  </g>
</svg>
