<?xml version="1.0" encoding="UTF-8" standalone="no"?>
<!DOCTYPE svg PUBLIC "-//W3C//DTD SVG 1.1//EN" "http://www.w3.org/Graphics/SVG/1.1/DTD/svg11.dtd">
<svg xmlns:xlink="http://www.w3.org/1999/xlink" height="70.90833333333333mm" version="1.1" viewBox="0 0 402 201" width="141.81666666666666mm" x="0mm" y="0mm" xmlns="http://www.w3.org/2000/svg">
  <g transform="matrix(1 0 0 -1 201 100.5)">
    <path d="M-100.5,10.0 C-94.98084975506,10.0 -90.5,5.51915024494 -90.5,0.0 C-90.5,-5.51915024494 -94.98084975506,-10.0 -100.5,-10.0 C-106.01915024494,-10.0 -110.5,-5.51915024494 -110.5,0.0 C-110.5,5.51915024494 -106.01915024494,10.0 -100.5,10.0 Z" style="fill:none;stroke:rgb(0,0,0);stroke-miterlimit:10;"/>
    <path d="M-100.5,20.0 C-89.46169951012,20.0 -80.5,11.03830048988 -80.5,0.0 C-80.5,-11.03830048988 -89.46169951012,-20.0 -100.5,-20.0 C-111.53830048988,-20.0 -120.5,-11.03830048988 -120.5,0.0 C-120.5,11.03830048988 -111.53830048988,20.0 -100.5,20.0 Z" style="fill:none;stroke:rgb(0,0,0);stroke-miterlimit:10;"/>
    <path d="M-100.5,30.0 C-83.94254926518,30.0 -70.5,16.557450734819998 -70.5,0.0 C-70.5,-16.557450734819998 -83.94254926518,-30.0 -100.5,-30.0 C-117.05745073482,-30.0 -130.5,-16.557450734819998 -130.5,0.0 C-130.5,16.557450734819998 -117.05745073482,30.0 -100.5,30.0 Z" style="fill:none;stroke:rgb(0,0,0);stroke-miterlimit:10;"/>
    <path d="M-100.5,40.0 C-78.42339902024,40.0 -60.5,22.07660097976 -60.5,0.0 C-60.5,-22.07660097976 -78.42339902024,-40.0 -100.5,-40.0 C-122.57660097976,-40.0 -140.5,-22.07660097976 -140.5,0.0 C-140.5,22.07660097976 -122.57660097976,40.0 -100.5,40.0 Z" style="fill:none;stroke:rgb(0,0,0);stroke-miterlimit:10;"/>
    <path d="M-100.5,50.0 C-72.9042487753,50.0 -50.5,27.5957512247 -50.5,0.0 C-50.5,-27.5957512247 -72.9042487753,-50.0 -100.5,-50.0 C-128.0957512247,-50.0 -150.5,-27.5957512247 -150.5,0.0 C-150.5,27.5957512247 -128.0957512247,50.0 -100.5,50.0 Z" style="fill:none;stroke:rgb(0,0,0);stroke-miterlimit:10;"/>
    <path d="M-100.5,60.0 C-67.38509853036001,60.0 -40.5,33.114901469639996 -40.5,0.0 C-40.5,-33.114901469639996 -67.38509853036001,-60.0 -100.5,-60.0 C-133.61490146964,-60.0 -160.5,-33.114901469639996 -160.5,0.0 C-160.5,33.114901469639996 -133.61490146964,60.0 -100.5,60.0 Z" style="fill:none;stroke:rgb(0,0,0);stroke-miterlimit:10;"/>
    <path d="M-100.5,70.0 C-61.865948285420004,70.0 -30.5,38.634051714579996 -30.5,0.0 C-30.5,-38.634051714579996 -61.865948285420004,-70.0 -100.5,-70.0 C-139.13405171457998,-70.0 -170.5,-38.634051714579996 -170.5,0.0 C-170.5,38.634051714579996 -139.13405171457998,70.0 -100.5,70.0 Z" style="fill:none;stroke:rgb(0,0,0);stroke-miterlimit:10;"/>
    <path d="M-100.5,80.0 C-56.34679804048,80.0 -20.5,44.15320195952 -20.5,0.0 C-20.5,-44.15320195952 -56.34679804048,-80.0 -100.5,-80.0 C-144.65320195952,-80.0 -180.5,-44.15320195952 -180.5,0.0 C-180.5,44.15320195952 -144.65320195952,80.0 -100.5,80.0 Z" style="fill:none;stroke:rgb(0,0,0);stroke-miterlimit:10;"/>
    <path d="M-100.5,90.0 C-50.82764779554,90.0 -10.5,49.67235220446 -10.5,0.0 C-10.5,-49.67235220446 -50.82764779554,-90.0 -100.5,-90.0 C-150.17235220446,-90.0 -190.5,-49.67235220446 -190.5,0.0 C-190.5,49.67235220446 -150.17235220446,90.0 -100.5,90.0 Z" style="fill:none;stroke:rgb(0,0,0);stroke-miterlimit:10;"/>
    <path d="M-100.5,100.0 C-45.3084975506,100.0 -0.5,55.1915024494 -0.5,0.0 C-0.5,-55.1915024494 -45.3084975506,-100.0 -100.5,-100.0 C-155.6915024494,-100.0 -200.5,-55.1915024494 -200.5,0.0 C-200.5,55.1915024494 -155.6915024494,100.0 -100.5,100.0 Z" style="fill:none;stroke:rgb(0,0,0);stroke-miterlimit:10;"/>
    <path d="M100.5,10.0 C106.01915024494,10.0 110.5,5.51915024494 110.5,0.0 C110.5,-5.51915024494 106.01915024494,-10.0 100.5,-10.0 C94.98084975506,-10.0 90.5,-5.51915024494 90.5,0.0 C90.5,5.51915024494 94.98084975506,10.0 100.5,10.0 Z" style="fill:none;stroke:rgb(0,0,0);stroke-miterlimit:10;"/>
    <path d="M80.5,20.0 L120.5,20.0 L120.5,-20.0 L80.5,-20.0 L80.5,20.0 Z" style="fill:none;stroke:rgb(0,0,0);stroke-miterlimit:10;"/>
    <path d="M100.5,30.0 C117.05745073482,30.0 130.5,16.557450734819998 130.5,0.0 C130.5,-16.557450734819998 117.05745073482,-30.0 100.5,-30.0 C83.94254926518,-30.0 70.5,-16.557450734819998 70.5,0.0 C70.5,16.557450734819998 83.94254926518,30.0 100.5,30.0 Z" style="fill:none;stroke:rgb(0,0,0);stroke-miterlimit:10;"/>
    <path d="M60.5,40.0 L140.5,40.0 L140.5,-40.0 L60.5,-40.0 L60.5,40.0 Z" style="fill:none;stroke:rgb(0,0,0);stroke-miterlimit:10;"/>
    <path d="M100.5,50.0 C128.0957512247,50.0 150.5,27.5957512247 150.5,0.0 C150.5,-27.5957512247 128.0957512247,-50.0 100.5,-50.0 C72.9042487753,-50.0 50.5,-27.5957512247 50.5,0.0 C50.5,27.5957512247 72.9042487753,50.0 100.5,50.0 Z" style="fill:none;stroke:rgb(0,0,0);stroke-miterlimit:10;"/>
    <path d="M40.5,60.0 L160.5,60.0 L160.5,-60.0 L40.5,-60.0 L40.5,60.0 Z" style="fill:none;stroke:rgb(0,0,0);stroke-miterlimit:10;"/>
    <path d="M100.5,70.0 C139.13405171457998,70.0 170.5,38.634051714579996 170.5,0.0 C170.5,-38.634051714579996 139.13405171457998,-70.0 100.5,-70.0 C61.865948285420004,-70.0 30.5,-38.634051714579996 30.5,0.0 C30.5,38.634051714579996 61.865948285420004,70.0 100.5,70.0 Z" style="fill:none;stroke:rgb(0,0,0);stroke-miterlimit:10;"/>
    <path d="M20.5,80.0 L180.5,80.0 L180.5,-80.0 L20.5,-80.0 L20.5,80.0 Z" style="fill:none;stroke:rgb(0,0,0);stroke-miterlimit:10;"/>
    <path d="M100.5,90.0 C150.17235220446,90.0 190.5,49.67235220446 190.5,0.0 C190.5,-49.67235220446 150.17235220446,-90.0 100.5,-90.0 C50.82764779554,-90.0 10.5,-49.67235220446 10.5,0.0 C10.5,49.67235220446 50.82764779554,90.0 100.5,90.0 Z" style="fill:none;stroke:rgb(0,0,0);stroke-miterlimit:10;"/>
    <path d="M0.5,100.0 L200.5,100.0 L200.5,-100.0 L0.5,-100.0 L0.5,100.0 Z" style="fill:none;stroke:rgb(0,0,0);stroke-miterlimit:10;"/>
  </g>
</svg>
