<svg xmlns="http://www.w3.org/2000/svg" width="480.0" height="80.0" viewBox="-240.0 -40.0 480.0 80.0" style=""><g><defs></defs><g><g><g><g><g><g><g><g><g><g><rect transform="matrix(1.0,0.0,0.0,-1.0,-200.0,0.0)" style="stroke: none; fill: hsla(225.0, 0.0%, 56.86274509803921%, 1.0);" x="-20.0" y="-20.0" width="40.0" height="40.0"></rect><rect transform="matrix(1.0,0.0,0.0,-1.0,-160.0,0.0)" style="stroke: none; fill: hsla(225.0, 10.0%, 56.86274509803921%, 1.0);" x="-20.0" y="-20.0" width="40.0" height="40.0"></rect></g><rect transform="matrix(1.0,0.0,0.0,-1.0,-120.0,0.0)" style="stroke: none; fill: hsla(225.0, 20.0%, 56.86274509803921%, 1.0);" x="-20.0" y="-20.0" width="40.0" height="40.0"></rect></g><rect transform="matrix(1.0,0.0,0.0,-1.0,-80.0,0.0)" style="stroke: none; fill: hsla(225.0, 30.0%, 56.86274509803921%, 1.0);" x="-20.0" y="-20.0" width="40.0" height="40.0"></rect></g><rect transform="matrix(1.0,0.0,0.0,-1.0,-40.0,0.0)" style="stroke: none; fill: hsla(225.0, 40.0%, 56.86274509803921%, 1.0);" x="-20.0" y="-20.0" width="40.0" height="40.0"></rect></g><rect transform="matrix(1.0,0.0,0.0,-1.0,0.0,0.0)" style="stroke: none; fill: hsla(225.0, 50.0%, 56.86274509803921%, 1.0);" x="-20.0" y="-20.0" width="40.0" height="40.0"></rect></g><rect transform="matrix(1.0,0.0,0.0,-1.0,40.0,0.0)" style="stroke: none; fill: hsla(225.0, 60.0%, 56.86274509803921%, 1.0);" x="-20.0" y="-20.0" width="40.0" height="40.0"></rect></g><rect transform="matrix(1.0,0.0,0.0,-1.0,80.0,0.0)" style="stroke: none; fill: hsla(225.0, 70.0%, 56.86274509803921%, 1.0);" x="-20.0" y="-20.0" width="40.0" height="40.0"></rect></g><rect transform="matrix(1.0,0.0,0.0,-1.0,120.0,0.0)" style="stroke: none; fill: hsla(225.0, 80.0%, 56.86274509803921%, 1.0);" x="-20.0" y="-20.0" width="40.0" height="40.0"></rect></g><rect transform="matrix(1.0,0.0,0.0,-1.0,160.0,0.0)" style="stroke: none; fill: hsla(225.0, 90.0%, 56.86274509803921%, 1.0);" x="-20.0" y="-20.0" width="40.0" height="40.0"></rect></g><rect transform="matrix(1.0,0.0,0.0,-1.0,200.0,0.0)" style="stroke: none; fill: hsla(225.0, 100.0%, 56.86274509803921%, 1.0);" x="-20.0" y="-20.0" width="40.0" height="40.0"></rect></g></g></svg>