<?xml version="1.0" encoding="utf-8"?>
<!-- Generator: Adobe Illustrator 15.1.0, SVG Export Plug-In . SVG Version: 6.00 Build 0)  -->
<!DOCTYPE svg PUBLIC "-//W3C//DTD SVG 1.1//EN" "http://www.w3.org/Graphics/SVG/1.1/DTD/svg11.dtd">
<svg version="1.1" id="Layer_1" xmlns="http://www.w3.org/2000/svg" xmlns:xlink="http://www.w3.org/1999/xlink" x="0px" y="0px"
	 width="448px" height="448px" viewBox="0 0 448 448" enable-background="new 0 0 448 448" xml:space="preserve">
<polygon fill="#FFFFFF" stroke="#ED1C24" stroke-width="2" stroke-miterlimit="10" points="351.652,224 263.446,345.404 
	120.727,299.032 120.727,148.968 263.446,102.595 "/>
<g>
	<g>
		<line fill="none" stroke="#6D6E71" stroke-miterlimit="10" x1="31.405" y1="224" x2="37.405" y2="224"/>
		
			<line fill="none" stroke="#6D6E71" stroke-miterlimit="10" stroke-dasharray="11.8282,11.8282" x1="49.233" y1="224" x2="398.166" y2="224"/>
		<line fill="none" stroke="#6D6E71" stroke-miterlimit="10" x1="404.08" y1="224" x2="410.08" y2="224"/>
		<g>
			<path fill="#6D6E71" d="M416.115,224c-2.84,1.054-6.363,2.852-8.547,4.756l1.72-4.756l-1.72-4.755
				C409.752,221.149,413.275,222.947,416.115,224z"/>
		</g>
	</g>
</g>
<g>
	<g>
		<line fill="none" stroke="#6D6E71" stroke-miterlimit="10" x1="223.76" y1="37.68" x2="223.76" y2="43.68"/>
		
			<line fill="none" stroke="#6D6E71" stroke-miterlimit="10" stroke-dasharray="11.8282,11.8282" x1="223.76" y1="55.508" x2="223.76" y2="404.441"/>
		<line fill="none" stroke="#6D6E71" stroke-miterlimit="10" x1="223.76" y1="410.355" x2="223.76" y2="416.355"/>
		<g>
			<path fill="#6D6E71" d="M223.76,31.645c-1.054,2.84-2.852,6.363-4.756,8.547l4.756-1.72l4.755,1.72
				C226.61,38.008,224.812,34.485,223.76,31.645z"/>
		</g>
	</g>
</g>
<text transform="matrix(1 0 0 1 217.9702 24)" fill="#6D6E71" font-family="'MyriadPro-Bold'" font-size="20">Y</text>
<text transform="matrix(1 0 0 1 425.8701 231)" fill="#6D6E71" font-family="'MyriadPro-Bold'" font-size="20">X</text>
<g>
	<line fill="none" stroke="#000000" stroke-miterlimit="10" x1="267.57" y1="98.595" x2="259.57" y2="106.595"/>
	<line fill="none" stroke="#000000" stroke-miterlimit="10" x1="259.57" y1="98.595" x2="267.57" y2="106.595"/>
</g>
<g>
	<line fill="none" stroke="#000000" stroke-miterlimit="10" x1="267.57" y1="98.595" x2="259.57" y2="106.595"/>
	<line fill="none" stroke="#000000" stroke-miterlimit="10" x1="259.57" y1="98.595" x2="267.57" y2="106.595"/>
</g>
<text transform="matrix(1 0 0 1 278.6973 240)" font-family="'MyriadPro-Regular'" font-size="14">Vec.polar(0.degrees, 100)</text>
<text transform="matrix(1 0 0 1 264 96)" font-family="'MyriadPro-Regular'" font-size="14">Vec.polar(72.degrees, 100)</text>
<text transform="matrix(1 0 0 1 39.5156 136)" font-family="'MyriadPro-Regular'" font-size="14">Vec.polar(144.degrees, 100)</text>
<text transform="matrix(1 0 0 1 39.5156 320)" font-family="'MyriadPro-Regular'" font-size="14">Vec.polar(216.degrees, 100)</text>
<text transform="matrix(1 0 0 1 183.5156 367.999)" font-family="'MyriadPro-Regular'" font-size="14">Vec.polar(288.degrees, 100)</text>
<g>
	<line fill="none" stroke="#000000" stroke-width="2" stroke-miterlimit="10" x1="356" y1="220" x2="348" y2="228"/>
	<line fill="none" stroke="#000000" stroke-width="2" stroke-miterlimit="10" x1="348" y1="220" x2="356" y2="228"/>
</g>
<g>
	<line fill="none" stroke="#000000" stroke-width="2" stroke-miterlimit="10" x1="267.57" y1="98.595" x2="259.57" y2="106.595"/>
	<line fill="none" stroke="#000000" stroke-width="2" stroke-miterlimit="10" x1="259.57" y1="98.595" x2="267.57" y2="106.595"/>
</g>
<g>
	
		<line fill="none" stroke="#000000" stroke-width="2" stroke-miterlimit="10" x1="124.727" y1="144.667" x2="116.727" y2="152.667"/>
	
		<line fill="none" stroke="#000000" stroke-width="2" stroke-miterlimit="10" x1="116.727" y1="144.667" x2="124.727" y2="152.667"/>
</g>
<g>
	
		<line fill="none" stroke="#000000" stroke-width="2" stroke-miterlimit="10" x1="124.727" y1="294.667" x2="116.727" y2="302.667"/>
	
		<line fill="none" stroke="#000000" stroke-width="2" stroke-miterlimit="10" x1="116.727" y1="294.667" x2="124.727" y2="302.667"/>
</g>
<g>
	<line fill="none" stroke="#000000" stroke-width="2" stroke-miterlimit="10" x1="268" y1="341.404" x2="260" y2="349.404"/>
	<line fill="none" stroke="#000000" stroke-width="2" stroke-miterlimit="10" x1="260" y1="341.404" x2="268" y2="349.404"/>
</g>
<g>
	<g>
		<line fill="none" stroke="#000000" stroke-width="2" stroke-miterlimit="10" x1="224" y1="224" x2="226" y2="224"/>
		
			<line fill="none" stroke="#000000" stroke-width="2" stroke-miterlimit="10" stroke-dasharray="3.9888,3.9888" x1="229.989" y1="224" x2="347.658" y2="224"/>
		<line fill="none" stroke="#000000" stroke-width="2" stroke-miterlimit="10" x1="349.652" y1="224" x2="351.652" y2="224"/>
	</g>
</g>
<g>
	<g>
		<line fill="none" stroke="#000000" stroke-width="2" stroke-miterlimit="10" x1="224" y1="224" x2="224.618" y2="222.098"/>
		
			<line fill="none" stroke="#000000" stroke-width="2" stroke-miterlimit="10" stroke-dasharray="3.9888,3.9888" x1="225.851" y1="218.304" x2="262.212" y2="106.394"/>
		
			<line fill="none" stroke="#000000" stroke-width="2" stroke-miterlimit="10" x1="262.828" y1="104.498" x2="263.446" y2="102.595"/>
	</g>
</g>
<g>
	<g>
		<line fill="none" stroke="#000000" stroke-width="2" stroke-miterlimit="10" x1="224" y1="224" x2="222.382" y2="222.824"/>
		
			<line fill="none" stroke="#000000" stroke-width="2" stroke-miterlimit="10" stroke-dasharray="3.9888,3.9888" x1="219.155" y1="220.48" x2="123.958" y2="151.315"/>
		
			<line fill="none" stroke="#000000" stroke-width="2" stroke-miterlimit="10" x1="122.345" y1="150.144" x2="120.727" y2="148.968"/>
	</g>
</g>
<g>
	<g>
		<line fill="none" stroke="#000000" stroke-width="2" stroke-miterlimit="10" x1="224" y1="224" x2="222.382" y2="225.176"/>
		
			<line fill="none" stroke="#000000" stroke-width="2" stroke-miterlimit="10" stroke-dasharray="3.9888,3.9888" x1="219.155" y1="227.521" x2="123.958" y2="296.685"/>
		
			<line fill="none" stroke="#000000" stroke-width="2" stroke-miterlimit="10" x1="122.345" y1="297.856" x2="120.727" y2="299.032"/>
	</g>
</g>
<g>
	<g>
		<line fill="none" stroke="#000000" stroke-width="2" stroke-miterlimit="10" x1="224" y1="224" x2="224.618" y2="225.902"/>
		
			<line fill="none" stroke="#000000" stroke-width="2" stroke-miterlimit="10" stroke-dasharray="3.9888,3.9888" x1="225.851" y1="229.695" x2="262.212" y2="341.605"/>
		
			<line fill="none" stroke="#000000" stroke-width="2" stroke-miterlimit="10" x1="262.828" y1="343.502" x2="263.446" y2="345.404"/>
	</g>
</g>
</svg>
