<?xml version="1.0" encoding="UTF-8" standalone="no"?>
<!DOCTYPE svg PUBLIC "-//W3C//DTD SVG 1.1//EN" "http://www.w3.org/Graphics/SVG/1.1/DTD/svg11.dtd">
<svg xmlns:xlink="http://www.w3.org/1999/xlink" height="70.90833333333333mm" version="1.1" viewBox="0 0 201 201" width="70.90833333333333mm" x="0mm" y="0mm" xmlns="http://www.w3.org/2000/svg">
  <g transform="matrix(1 0 0 -1 100.5 100.5)">
    <path d="M0.0,10.0 C5.51915024494,10.0 10.0,5.51915024494 10.0,0.0 C10.0,-5.51915024494 5.51915024494,-10.0 0.0,-10.0 C-5.51915024494,-10.0 -10.0,-5.51915024494 -10.0,0.0 C-10.0,5.51915024494 -5.51915024494,10.0 0.0,10.0 Z" style="fill:none;stroke:rgb(0,0,0);stroke-miterlimit:10;"/>
    <path d="M0.0,20.0 C11.03830048988,20.0 20.0,11.03830048988 20.0,0.0 C20.0,-11.03830048988 11.03830048988,-20.0 0.0,-20.0 C-11.03830048988,-20.0 -20.0,-11.03830048988 -20.0,0.0 C-20.0,11.03830048988 -11.03830048988,20.0 0.0,20.0 Z" style="fill:none;stroke:rgb(0,0,0);stroke-miterlimit:10;"/>
    <path d="M0.0,30.0 C16.557450734819998,30.0 30.0,16.557450734819998 30.0,0.0 C30.0,-16.557450734819998 16.557450734819998,-30.0 0.0,-30.0 C-16.557450734819998,-30.0 -30.0,-16.557450734819998 -30.0,0.0 C-30.0,16.557450734819998 -16.557450734819998,30.0 0.0,30.0 Z" style="fill:none;stroke:rgb(0,0,0);stroke-miterlimit:10;"/>
    <path d="M0.0,40.0 C22.07660097976,40.0 40.0,22.07660097976 40.0,0.0 C40.0,-22.07660097976 22.07660097976,-40.0 0.0,-40.0 C-22.07660097976,-40.0 -40.0,-22.07660097976 -40.0,0.0 C-40.0,22.07660097976 -22.07660097976,40.0 0.0,40.0 Z" style="fill:none;stroke:rgb(0,0,0);stroke-miterlimit:10;"/>
    <path d="M0.0,50.0 C27.5957512247,50.0 50.0,27.5957512247 50.0,0.0 C50.0,-27.5957512247 27.5957512247,-50.0 0.0,-50.0 C-27.5957512247,-50.0 -50.0,-27.5957512247 -50.0,0.0 C-50.0,27.5957512247 -27.5957512247,50.0 0.0,50.0 Z" style="fill:none;stroke:rgb(0,0,0);stroke-miterlimit:10;"/>
    <path d="M0.0,60.0 C33.114901469639996,60.0 60.0,33.114901469639996 60.0,0.0 C60.0,-33.114901469639996 33.114901469639996,-60.0 0.0,-60.0 C-33.114901469639996,-60.0 -60.0,-33.114901469639996 -60.0,0.0 C-60.0,33.114901469639996 -33.114901469639996,60.0 0.0,60.0 Z" style="fill:none;stroke:rgb(0,0,0);stroke-miterlimit:10;"/>
    <path d="M0.0,70.0 C38.634051714579996,70.0 70.0,38.634051714579996 70.0,0.0 C70.0,-38.634051714579996 38.634051714579996,-70.0 0.0,-70.0 C-38.634051714579996,-70.0 -70.0,-38.634051714579996 -70.0,0.0 C-70.0,38.634051714579996 -38.634051714579996,70.0 0.0,70.0 Z" style="fill:none;stroke:rgb(0,0,0);stroke-miterlimit:10;"/>
    <path d="M0.0,80.0 C44.15320195952,80.0 80.0,44.15320195952 80.0,0.0 C80.0,-44.15320195952 44.15320195952,-80.0 0.0,-80.0 C-44.15320195952,-80.0 -80.0,-44.15320195952 -80.0,0.0 C-80.0,44.15320195952 -44.15320195952,80.0 0.0,80.0 Z" style="fill:none;stroke:rgb(0,0,0);stroke-miterlimit:10;"/>
    <path d="M0.0,90.0 C49.67235220446,90.0 90.0,49.67235220446 90.0,0.0 C90.0,-49.67235220446 49.67235220446,-90.0 0.0,-90.0 C-49.67235220446,-90.0 -90.0,-49.67235220446 -90.0,0.0 C-90.0,49.67235220446 -49.67235220446,90.0 0.0,90.0 Z" style="fill:none;stroke:rgb(0,0,0);stroke-miterlimit:10;"/>
    <path d="M0.0,100.0 C55.1915024494,100.0 100.0,55.1915024494 100.0,0.0 C100.0,-55.1915024494 55.1915024494,-100.0 0.0,-100.0 C-55.1915024494,-100.0 -100.0,-55.1915024494 -100.0,0.0 C-100.0,55.1915024494 -55.1915024494,100.0 0.0,100.0 Z" style="fill:none;stroke:rgb(0,0,0);stroke-miterlimit:10;"/>
  </g>
</svg>
