<svg xmlns="http://www.w3.org/2000/svg" width="1476.7627457812105" height="344.3169548885461" viewBox="-738.3813728906052 -174.65847744427305 1476.7627457812105 344.3169548885461" style=""><g><defs></defs><g><g><g><path transform="matrix(1.0,0.0,0.0,-1.0,-585.0288237343632,5.0)" style="stroke-width: 7.0px; stroke: hsla(0.0, 0.0%, 0.0%, 1.0); stroke-linecap: butt; stroke-linejoin: miter;  fill: hsla(0.0, 0.0%, 0.0%, 1.0);" d="M 0,0 M 0,0 M 150,0 L 40.45084971874737,29.389262614623657 L 46.35254915624212,142.65847744427302 L -15.450849718747367,47.55282581475768 L -121.3525491562421,88.16778784387098 L -50,6.123233995736766E-15 L -121.35254915624212,-88.16778784387095 L -15.450849718747378,-47.552825814757675 L 46.352549156242084,-142.65847744427305 L 40.450849718747364,-29.389262614623668 L 150,-3.6739403974420595E-14 Z"></path><path transform="matrix(1.0,0.0,0.0,-1.0,-590.0288237343632,0.0)" style="stroke-width: 7.0px; stroke: hsla(209.6, 100.0%, 55.88235294117647%, 1.0); stroke-linecap: butt; stroke-linejoin: miter;  fill: hsla(0.0, 67.9245283018868%, 41.56862745098039%, 1.0);" d="M 0,0 M 0,0 M 150,0 L 40.45084971874737,29.389262614623657 L 46.35254915624212,142.65847744427302 L -15.450849718747367,47.55282581475768 L -121.3525491562421,88.16778784387098 L -50,6.123233995736766E-15 L -121.35254915624212,-88.16778784387095 L -15.450849718747378,-47.552825814757675 L 46.352549156242084,-142.65847744427305 L 40.450849718747364,-29.389262614623668 L 150,-3.6739403974420595E-14 Z"></path></g><g><path transform="matrix(1.0,0.0,0.0,-1.0,-299.67627457812097,0.0)" style="stroke-width: 7.0px; stroke: hsla(209.6, 100.0%, 55.88235294117647%, 1.0); stroke-linecap: butt; stroke-linejoin: miter;  fill: hsla(0.0, 67.9245283018868%, 41.56862745098039%, 1.0);" d="M 0,0 M 0,0 M 150,0 L 40.45084971874737,29.389262614623657 L 46.35254915624212,142.65847744427302 L -15.450849718747367,47.55282581475768 L -121.3525491562421,88.16778784387098 L -50,6.123233995736766E-15 L -121.35254915624212,-88.16778784387095 L -15.450849718747378,-47.552825814757675 L 46.352549156242084,-142.65847744427305 L 40.450849718747364,-29.389262614623668 L 150,-3.6739403974420595E-14 Z"></path><path transform="matrix(-1.0,-0.0,0.0,-1.0,14.323725421879033,0.0)" style="stroke-width: 7.0px; stroke: hsla(209.6, 100.0%, 55.88235294117647%, 1.0); stroke-linecap: butt; stroke-linejoin: miter;  fill: hsla(0.0, 67.9245283018868%, 41.56862745098039%, 1.0);" d="M 0,0 M 0,0 M 150,0 L 40.45084971874737,29.389262614623657 L 46.35254915624212,142.65847744427302 L -15.450849718747367,47.55282581475768 L -121.3525491562421,88.16778784387098 L -50,6.123233995736766E-15 L -121.35254915624212,-88.16778784387095 L -15.450849718747378,-47.552825814757675 L 46.352549156242084,-142.65847744427305 L 40.450849718747364,-29.389262614623668 L 150,-3.6739403974420595E-14 Z"></path></g></g><g><g><path transform="matrix(1.0,0.0,0.0,-1.0,276.02882373436313,5.0)" style="stroke-width: 7.0px; stroke: hsla(0.0, 0.0%, 0.0%, 1.0); stroke-linecap: butt; stroke-linejoin: miter;  fill: hsla(0.0, 0.0%, 0.0%, 1.0);" d="M 0,0 M 0,0 M 150,0 L 40.45084971874737,29.389262614623657 L 46.35254915624212,142.65847744427302 L -15.450849718747367,47.55282581475768 L -121.3525491562421,88.16778784387098 L -50,6.123233995736766E-15 L -121.35254915624212,-88.16778784387095 L -15.450849718747378,-47.552825814757675 L 46.352549156242084,-142.65847744427305 L 40.450849718747364,-29.389262614623668 L 150,-3.6739403974420595E-14 Z"></path><path transform="matrix(-1.0,-0.0,0.0,-1.0,590.0288237343632,5.0)" style="stroke-width: 7.0px; stroke: hsla(0.0, 0.0%, 0.0%, 1.0); stroke-linecap: butt; stroke-linejoin: miter;  fill: hsla(0.0, 0.0%, 0.0%, 1.0);" d="M 0,0 M 0,0 M 150,0 L 40.45084971874737,29.389262614623657 L 46.35254915624212,142.65847744427302 L -15.450849718747367,47.55282581475768 L -121.3525491562421,88.16778784387098 L -50,6.123233995736766E-15 L -121.35254915624212,-88.16778784387095 L -15.450849718747378,-47.552825814757675 L 46.352549156242084,-142.65847744427305 L 40.450849718747364,-29.389262614623668 L 150,-3.6739403974420595E-14 Z"></path></g><g><path transform="matrix(1.0,0.0,0.0,-1.0,271.02882373436313,0.0)" style="stroke-width: 7.0px; stroke: hsla(209.6, 100.0%, 55.88235294117647%, 1.0); stroke-linecap: butt; stroke-linejoin: miter;  fill: hsla(0.0, 67.9245283018868%, 41.56862745098039%, 1.0);" d="M 0,0 M 0,0 M 150,0 L 40.45084971874737,29.389262614623657 L 46.35254915624212,142.65847744427302 L -15.450849718747367,47.55282581475768 L -121.3525491562421,88.16778784387098 L -50,6.123233995736766E-15 L -121.35254915624212,-88.16778784387095 L -15.450849718747378,-47.552825814757675 L 46.352549156242084,-142.65847744427305 L 40.450849718747364,-29.389262614623668 L 150,-3.6739403974420595E-14 Z"></path><path transform="matrix(-1.0,-0.0,0.0,-1.0,585.0288237343632,0.0)" style="stroke-width: 7.0px; stroke: hsla(209.6, 100.0%, 55.88235294117647%, 1.0); stroke-linecap: butt; stroke-linejoin: miter;  fill: hsla(0.0, 67.9245283018868%, 41.56862745098039%, 1.0);" d="M 0,0 M 0,0 M 150,0 L 40.45084971874737,29.389262614623657 L 46.35254915624212,142.65847744427302 L -15.450849718747367,47.55282581475768 L -121.3525491562421,88.16778784387098 L -50,6.123233995736766E-15 L -121.35254915624212,-88.16778784387095 L -15.450849718747378,-47.552825814757675 L 46.352549156242084,-142.65847744427305 L 40.450849718747364,-29.389262614623668 L 150,-3.6739403974420595E-14 Z"></path></g></g></g></g></svg>