<?xml version="1.0" encoding="UTF-8" standalone="no"?>
<!DOCTYPE svg PUBLIC "-//W3C//DTD SVG 1.1//EN" "http://www.w3.org/Graphics/SVG/1.1/DTD/svg11.dtd">
<svg xmlns:xlink="http://www.w3.org/1999/xlink" height="39.86388888888889mm" version="1.1" viewBox="0 0 113 113" width="39.86388888888889mm" x="0mm" y="0mm" xmlns="http://www.w3.org/2000/svg">
  <g transform="matrix(1 0 0 -1 6.5 106.5)">
    <path d="M100.0,5.0 C102.75957512247,5.0 105.0,2.75957512247 105.0,0.0 C105.0,-2.75957512247 102.75957512247,-5.0 100.0,-5.0 C97.24042487753,-5.0 95.0,-2.75957512247 95.0,0.0 C95.0,2.75957512247 97.24042487753,5.0 100.0,5.0 Z" style="fill:none;stroke:rgb(220,20,60);stroke-width:3;stroke-miterlimit:10;"/>
    <path d="M100.0,105.0 C102.75957512247,105.0 105.0,102.75957512247 105.0,100.0 C105.0,97.24042487753 102.75957512247,95.0 100.0,95.0 C97.24042487753,95.0 95.0,97.24042487753 95.0,100.0 C95.0,102.75957512247 97.24042487753,105.0 100.0,105.0 Z" style="fill:none;stroke:rgb(220,20,60);stroke-width:3;stroke-miterlimit:10;"/>
    <path d="M0.0,105.0 C2.75957512247,105.0 5.0,102.75957512247 5.0,100.0 C5.0,97.24042487753 2.75957512247,95.0 0.0,95.0 C-2.75957512247,95.0 -5.0,97.24042487753 -5.0,100.0 C-5.0,102.75957512247 -2.75957512247,105.0 0.0,105.0 Z" style="fill:none;stroke:rgb(220,20,60);stroke-width:3;stroke-miterlimit:10;"/>
    <path d="M0.0,5.0 C2.75957512247,5.0 5.0,2.75957512247 5.0,0.0 C5.0,-2.75957512247 2.75957512247,-5.0 0.0,-5.0 C-2.75957512247,-5.0 -5.0,-2.75957512247 -5.0,0.0 C-5.0,2.75957512247 -2.75957512247,5.0 0.0,5.0 Z" style="fill:none;stroke:rgb(220,20,60);stroke-width:3;stroke-miterlimit:10;"/>
  </g>
</svg>
