<?xml version="1.0" encoding="UTF-8" standalone="no"?>
<!DOCTYPE svg PUBLIC "-//W3C//DTD SVG 1.1//EN" "http://www.w3.org/Graphics/SVG/1.1/DTD/svg11.dtd">
<svg xmlns:xlink="http://www.w3.org/1999/xlink" height="39.40904478074764mm" version="1.1" viewBox="0 0 244.5685424949238 111.71067811865476" width="86.27834693570922mm" x="0mm" y="0mm" xmlns="http://www.w3.org/2000/svg">
  <path d="M0.5,55.85533905932738 L20.5,55.85533905932738 L24.035533905932738,52.31980515339464 L27.571067811865476,55.85533905932738 L24.035533905932738,59.390872965260115 L20.5,55.85533905932738 M20.5,55.85533905932738" style="fill:none;stroke:rgb(34,139,34);stroke-miterlimit:10;"/>
  <path d="M38.571067811865476,55.85533905932738 L58.571067811865476,55.85533905932738 L78.57106781186548,55.85533905932738 L92.71320343559643,41.71320343559643 L92.71320343559643,36.71320343559643 L97.71320343559643,36.71320343559643 L97.71320343559643,41.71320343559643 L92.71320343559643,41.71320343559643 M78.57106781186548,55.85533905932738 L92.71320343559643,69.99747468305833 L97.71320343559643,69.99747468305833 L97.71320343559643,74.99747468305833 L92.71320343559643,74.99747468305833 L92.71320343559643,69.99747468305833 M78.57106781186548,55.85533905932738" style="fill:none;stroke:rgb(34,139,34);stroke-miterlimit:10;"/>
  <path d="M108.71320343559643,55.85533905932738 L128.71320343559643,55.85533905932738 L148.71320343559643,55.85533905932738 L168.71320343559643,55.85533905932738 L188.71320343559643,55.85533905932738 L202.85533905932738,41.71320343559643 L216.99747468305833,27.57106781186548 L216.99747468305833,7.5710678118654755 L213.4619407771256,4.035533905932738 L216.99747468305833,0.5 L220.53300858899107,4.035533905932738 L216.99747468305833,7.5710678118654755 M216.99747468305833,27.57106781186548 L236.99747468305833,27.57106781186548 L240.53300858899107,24.03553390593274 L244.0685424949238,27.57106781186548 L240.53300858899107,31.106601717798217 L236.99747468305833,27.57106781186548 M188.71320343559643,55.85533905932738 L202.85533905932738,69.99747468305833 L216.99747468305833,84.13961030678928 L236.99747468305833,84.13961030678928 L240.53300858899107,80.60407640085654 L244.0685424949238,84.13961030678928 L240.53300858899107,87.67514421272202 L236.99747468305833,84.13961030678928 M216.99747468305833,84.13961030678928 L216.99747468305833,104.13961030678928 L220.53300858899107,107.67514421272202 L216.99747468305833,111.21067811865476 L213.4619407771256,107.67514421272202 L216.99747468305833,104.13961030678928 M188.71320343559643,55.85533905932738" style="fill:none;stroke:rgb(34,139,34);stroke-miterlimit:10;"/>
</svg>
