<?xml version="1.0" encoding="UTF-8" standalone="no"?>
<!DOCTYPE svg PUBLIC "-//W3C//DTD SVG 1.1//EN" "http://www.w3.org/Graphics/SVG/1.1/DTD/svg11.dtd">
<svg xmlns:xlink="http://www.w3.org/1999/xlink" height="39.511111111111106mm" version="1.1" viewBox="0 0 843.712890625 112" width="297.64315863715274mm" x="0mm" y="0mm" xmlns="http://www.w3.org/2000/svg">
  <path d="M76.0,26.0 C92.55745073482001,26.0 106.0,39.442549265180006 106.0,56.0 C106.0,72.55745073482 92.55745073482001,86.0 76.0,86.0 C59.44254926517999,86.0 46.0,72.55745073482 46.0,56.0 C46.0,39.442549265180006 59.44254926517999,26.0 76.0,26.0 Z" style="fill:none;stroke:rgb(0,0,0);stroke-miterlimit:10;"/>
  <path d="M76.0,26.0 C92.55745073482001,26.0 106.0,39.442549265180006 106.0,56.0 C106.0,72.55745073482 92.55745073482001,86.0 76.0,86.0 C59.44254926517999,86.0 46.0,72.55745073482 46.0,56.0 C46.0,39.442549265180006 59.44254926517999,26.0 76.0,26.0 Z" style="fill:rgb(0,0,0);stroke:none;"/>
  <path d="M114.0,6.0 C120.62741699796953,6.0 126.0,11.372583002030481 126.0,18.0 L126.0,94.0 C126.0,100.62741699796952 120.62741699796953,106.0 114.0,106.0 L38.0,106.0 C31.372583002030467,106.0 26.0,100.62741699796952 26.0,94.0 L26.0,18.0 C26.0,11.372583002030481 31.372583002030467,6.0 38.0,6.0 L114.0,6.0 Z" style="fill:none;stroke:rgb(0,0,0);stroke-width:12;stroke-miterlimit:10;"/>
  <text style="fill:rgb(0,0,0);stroke:none;font-family:&quot;Lucida Grande&quot;;font-size:50px;" x="152" y="80">flatMap</text>
  <path d="M379.306640625,26.0 C395.86409135982,26.0 409.306640625,39.442549265180006 409.306640625,56.0 C409.306640625,72.55745073482 395.86409135982,86.0 379.306640625,86.0 C362.74918989018,86.0 349.306640625,72.55745073482 349.306640625,56.0 C349.306640625,39.442549265180006 362.74918989018,26.0 379.306640625,26.0 Z" style="fill:none;stroke:rgb(0,0,0);stroke-miterlimit:10;"/>
  <path d="M379.306640625,26.0 C395.86409135982,26.0 409.306640625,39.442549265180006 409.306640625,56.0 C409.306640625,72.55745073482 395.86409135982,86.0 379.306640625,86.0 C362.74918989018,86.0 349.306640625,72.55745073482 349.306640625,56.0 C349.306640625,39.442549265180006 362.74918989018,26.0 379.306640625,26.0 Z" style="fill:rgb(0,0,0);stroke:none;"/>
  <path d="M530.306640625,56.0 L480.306640625,6.0 L480.306640625,36.0 L430.306640625,36.0 L430.306640625,76.0 L480.306640625,76.0 L480.306640625,106.0 L530.306640625,56.0 Z" style="fill:none;stroke:rgb(0,0,0);stroke-miterlimit:10;"/>
  <path d="M530.306640625,56.0 L480.306640625,6.0 L480.306640625,36.0 L430.306640625,36.0 L430.306640625,76.0 L480.306640625,76.0 L480.306640625,106.0 L530.306640625,56.0 Z" style="fill:rgb(0,0,0);stroke:none;"/>
  <path d="M576.806640625,86.0 L606.806640625,26.0 L636.806640625,86.0 L576.806640625,86.0 Z" style="fill:none;stroke:rgb(0,0,0);stroke-miterlimit:10;"/>
  <path d="M576.806640625,86.0 L606.806640625,26.0 L636.806640625,86.0 L576.806640625,86.0 Z" style="fill:rgb(0,0,0);stroke:none;"/>
  <path d="M644.806640625,6.0 C651.4340576229695,6.0 656.806640625,11.372583002030481 656.806640625,18.0 L656.806640625,94.0 C656.806640625,100.62741699796952 651.4340576229695,106.0 644.806640625,106.0 L568.806640625,106.0 C562.1792236270305,106.0 556.806640625,100.62741699796952 556.806640625,94.0 L556.806640625,18.0 C556.806640625,11.372583002030481 562.1792236270305,6.0 568.806640625,6.0 L644.806640625,6.0 Z" style="fill:none;stroke:rgb(0,0,0);stroke-width:12;stroke-miterlimit:10;"/>
  <text style="fill:rgb(0,0,0);stroke:none;font-family:&quot;Lucida Grande&quot;;font-size:50px;" x="682" y="62">=</text>
  <path d="M757.712890625,86.0 L787.712890625,26.0 L817.712890625,86.0 L757.712890625,86.0 Z" style="fill:none;stroke:rgb(0,0,0);stroke-miterlimit:10;"/>
  <path d="M757.712890625,86.0 L787.712890625,26.0 L817.712890625,86.0 L757.712890625,86.0 Z" style="fill:rgb(0,0,0);stroke:none;"/>
  <path d="M825.712890625,6.0 C832.3403076229695,6.0 837.712890625,11.372583002030481 837.712890625,18.0 L837.712890625,94.0 C837.712890625,100.62741699796952 832.3403076229695,106.0 825.712890625,106.0 L749.712890625,106.0 C743.0854736270305,106.0 737.712890625,100.62741699796952 737.712890625,94.0 L737.712890625,18.0 C737.712890625,11.372583002030481 743.0854736270305,6.0 749.712890625,6.0 L825.712890625,6.0 Z" style="fill:none;stroke:rgb(0,0,0);stroke-width:12;stroke-miterlimit:10;"/>
</svg>
