<?xml version="1.0" encoding="UTF-8" standalone="no"?>
<!DOCTYPE svg PUBLIC "-//W3C//DTD SVG 1.1//EN" "http://www.w3.org/Graphics/SVG/1.1/DTD/svg11.dtd">
<svg xmlns:xlink="http://www.w3.org/1999/xlink" height="80.26769826541742mm" version="1.1" viewBox="0 0 682.4112549695446 227.5304832720494" width="240.73952605870045mm" x="0mm" y="0mm" xmlns="http://www.w3.org/2000/svg">
  <path d="M2.5,5.5 L7.5,5.5" style="fill:none;stroke:rgb(0,0,0);stroke-miterlimit:10;"/>
  <path d="M2.5,15.035533905932738 L7.5,15.035533905932738 L11.035533905932766,11.5 L14.571067811865476,15.035533905932738 L19.571067811865476,15.035533905932738" style="fill:none;stroke:rgb(0,0,0);stroke-miterlimit:10;"/>
  <path d="M2.5,33.10660171779821 L7.5,33.10660171779821 L11.035533905932766,29.571067811865476 L14.571067811865476,33.10660171779821 L19.571067811865476,33.10660171779821 L23.106601717798185,29.571067811865476 L23.106601717798185,24.571067811865476 L28.106601717798185,24.571067811865476 L31.64213562373095,21.035533905932738 L35.17766952966372,24.571067811865476 L40.17766952966372,24.571067811865476 L40.17766952966372,29.571067811865476 L43.71320343559643,33.10660171779821 L48.71320343559643,33.10660171779821 L52.248737341529136,29.571067811865476 L55.7842712474619,33.10660171779821 L60.7842712474619,33.10660171779821" style="fill:none;stroke:rgb(0,0,0);stroke-miterlimit:10;"/>
  <path d="M2.5,80.31980515339464 L7.5,80.31980515339464 L11.035533905932766,76.7842712474619 L14.571067811865476,80.31980515339464 L19.571067811865476,80.31980515339464 L23.106601717798185,76.7842712474619 L23.106601717798185,71.7842712474619 L28.106601717798185,71.7842712474619 L31.64213562373095,68.24873734152916 L35.17766952966372,71.7842712474619 L40.17766952966372,71.7842712474619 L40.17766952966372,76.7842712474619 L43.71320343559643,80.31980515339464 L48.71320343559643,80.31980515339464 L52.248737341529136,76.7842712474619 L55.7842712474619,80.31980515339464 L60.7842712474619,80.31980515339464 L64.31980515339467,76.7842712474619 L64.31980515339467,71.7842712474619 L69.31980515339467,71.7842712474619 L72.85533905932738,68.24873734152916 L72.85533905932738,63.248737341529164 L69.31980515339467,59.71320343559643 L72.85533905932738,56.17766952966369 L72.85533905932738,51.17766952966369 L77.85533905932738,51.17766952966369 L81.39087296526009,47.64213562373095 L84.92640687119285,51.17766952966369 L89.92640687119285,51.17766952966369 L93.46194077712559,47.64213562373095 L93.46194077712559,42.64213562373095 L98.46194077712559,42.64213562373095 L101.99747468305833,39.10660171779821 L105.53300858899107,42.64213562373095 L110.53300858899107,42.64213562373095 L110.53300858899107,47.64213562373095 L114.0685424949238,51.17766952966369 L119.0685424949238,51.17766952966369 L122.60407640085654,47.64213562373095 L126.13961030678928,51.17766952966369 L131.13961030678928,51.17766952966369 L131.13961030678928,56.17766952966369 L134.67514421272202,59.71320343559643 L131.13961030678928,63.248737341529164 L131.13961030678928,68.24873734152916 L134.67514421272202,71.7842712474619 L139.67514421272202,71.7842712474619 L139.67514421272202,76.7842712474619 L143.21067811865476,80.31980515339464 L148.21067811865476,80.31980515339464 L151.7462120245875,76.7842712474619 L155.28174593052023,80.31980515339464 L160.28174593052023,80.31980515339464 L163.81727983645297,76.7842712474619 L163.81727983645297,71.7842712474619 L168.81727983645297,71.7842712474619 L172.3528137423857,68.24873734152916 L175.88834764831844,71.7842712474619 L180.88834764831844,71.7842712474619 L180.88834764831844,76.7842712474619 L184.42388155425118,80.31980515339464 L189.42388155425118,80.31980515339464 L192.95941546018392,76.7842712474619 L196.49494936611666,80.31980515339464 L201.49494936611666,80.31980515339464" style="fill:none;stroke:rgb(0,0,0);stroke-miterlimit:10;"/>
  <path d="M2.5,227.0304832720494 L7.5,227.0304832720494 L11.035533905932766,223.49494936611666 L14.571067811865476,227.0304832720494 L19.571067811865476,227.0304832720494 L23.106601717798185,223.49494936611666 L23.106601717798185,218.49494936611666 L28.106601717798185,218.49494936611666 L31.64213562373095,214.95941546018392 L35.17766952966372,218.49494936611666 L40.17766952966372,218.49494936611666 L40.17766952966372,223.49494936611666 L43.71320343559643,227.0304832720494 L48.71320343559643,227.0304832720494 L52.248737341529136,223.49494936611666 L55.7842712474619,227.0304832720494 L60.7842712474619,227.0304832720494 L64.31980515339467,223.49494936611666 L64.31980515339467,218.49494936611666 L69.31980515339467,218.49494936611666 L72.85533905932738,214.95941546018392 L72.85533905932738,209.95941546018392 L69.31980515339467,206.42388155425118 L72.85533905932738,202.88834764831844 L72.85533905932738,197.88834764831844 L77.85533905932738,197.88834764831844 L81.39087296526009,194.3528137423857 L84.92640687119285,197.88834764831844 L89.92640687119285,197.88834764831844 L93.46194077712559,194.3528137423857 L93.46194077712559,189.3528137423857 L98.46194077712559,189.3528137423857 L101.99747468305833,185.81727983645297 L105.53300858899107,189.3528137423857 L110.53300858899107,189.3528137423857 L110.53300858899107,194.3528137423857 L114.0685424949238,197.88834764831844 L119.0685424949238,197.88834764831844 L122.60407640085654,194.3528137423857 L126.13961030678928,197.88834764831844 L131.13961030678928,197.88834764831844 L131.13961030678928,202.88834764831844 L134.67514421272202,206.42388155425118 L131.13961030678928,209.95941546018392 L131.13961030678928,214.95941546018392 L134.67514421272202,218.49494936611666 L139.67514421272202,218.49494936611666 L139.67514421272202,223.49494936611666 L143.21067811865476,227.0304832720494 L148.21067811865476,227.0304832720494 L151.7462120245875,223.49494936611666 L155.28174593052023,227.0304832720494 L160.28174593052023,227.0304832720494 L163.81727983645297,223.49494936611666 L163.81727983645297,218.49494936611666 L168.81727983645297,218.49494936611666 L172.3528137423857,214.95941546018392 L175.88834764831844,218.49494936611666 L180.88834764831844,218.49494936611666 L180.88834764831844,223.49494936611666 L184.42388155425118,227.0304832720494 L189.42388155425118,227.0304832720494 L192.95941546018392,223.49494936611666 L196.49494936611666,227.0304832720494 L201.49494936611666,227.0304832720494 L205.0304832720494,223.49494936611666 L205.0304832720494,218.49494936611666 L210.0304832720494,218.49494936611666 L213.56601717798213,214.95941546018392 L213.56601717798213,209.95941546018392 L210.0304832720494,206.42388155425118 L213.56601717798213,202.88834764831844 L213.56601717798213,197.88834764831844 L218.56601717798213,197.88834764831844 L222.10155108391487,194.3528137423857 L225.6370849898476,197.88834764831844 L230.6370849898476,197.88834764831844 L234.17261889578035,194.3528137423857 L234.17261889578035,189.3528137423857 L239.17261889578035,189.3528137423857 L242.70815280171308,185.81727983645297 L242.70815280171308,180.81727983645297 L239.17261889578035,177.28174593052023 L242.70815280171308,173.7462120245875 L242.70815280171308,168.7462120245875 L239.17261889578035,165.21067811865476 L234.17261889578035,165.21067811865476 L234.17261889578035,160.21067811865476 L230.6370849898476,156.67514421272202 L234.17261889578035,153.13961030678928 L234.17261889578035,148.13961030678928 L239.17261889578035,148.13961030678928 L242.70815280171308,144.60407640085654 L242.70815280171308,139.60407640085654 L239.17261889578035,136.0685424949238 L242.70815280171308,132.53300858899107 L242.70815280171308,127.53300858899107 L247.70815280171308,127.53300858899107 L251.24368670764582,123.99747468305833 L254.77922061357856,127.53300858899107 L259.77922061357856,127.53300858899107 L263.3147545195113,123.99747468305833 L263.3147545195113,118.99747468305833 L268.3147545195113,118.99747468305833 L271.8502884254441,115.46194077712559 L275.38582233137686,118.99747468305833 L280.38582233137686,118.99747468305833 L280.38582233137686,123.99747468305833 L283.9213562373096,127.53300858899107 L288.9213562373096,127.53300858899107 L292.4568901432424,123.99747468305833 L295.99242404917516,127.53300858899107 L300.99242404917516,127.53300858899107 L304.5279579551079,123.99747468305833 L304.5279579551079,118.99747468305833 L309.5279579551079,118.99747468305833 L313.0634918610407,115.46194077712559 L313.0634918610407,110.46194077712559 L309.527957955108,106.92640687119285 L313.0634918610407,103.39087296526012 L313.0634918610407,98.39087296526012 L318.0634918610407,98.39087296526012 L321.59902576697345,94.85533905932738 L325.1345596729062,98.39087296526012 L330.1345596729062,98.39087296526012 L333.670093578839,94.85533905932738 L333.670093578839,89.85533905932738 L338.670093578839,89.85533905932738 L342.20562748477175,86.31980515339464 L345.7411613907045,89.85533905932738 L350.7411613907045,89.85533905932738 L350.7411613907045,94.85533905932738 L354.2766952966373,98.39087296526012 L359.2766952966373,98.39087296526012 L362.81222920257005,94.85533905932738 L366.3477631085028,98.39087296526012 L371.3477631085028,98.39087296526012 L371.3477631085028,103.39087296526012 L374.8832970144356,106.92640687119285 L371.3477631085029,110.46194077712559 L371.3477631085029,115.46194077712559 L374.8832970144356,118.99747468305833 L379.8832970144356,118.99747468305833 L379.8832970144356,123.99747468305833 L383.41883092036835,127.53300858899107 L388.41883092036835,127.53300858899107 L391.9543648263011,123.99747468305833 L395.4898987322339,127.53300858899107 L400.4898987322339,127.53300858899107 L404.02543263816665,123.99747468305833 L404.02543263816665,118.99747468305833 L409.02543263816665,118.99747468305833 L412.5609665440994,115.46194077712559 L416.0965004500322,118.99747468305833 L421.0965004500322,118.99747468305833 L421.0965004500322,123.99747468305833 L424.63203435596495,127.53300858899107 L429.63203435596495,127.53300858899107 L433.1675682618977,123.99747468305833 L436.7031021678305,127.53300858899107 L441.7031021678305,127.53300858899107 L441.7031021678305,132.53300858899107 L445.23863607376325,136.0685424949238 L441.70310216783054,139.60407640085654 L441.70310216783054,144.60407640085654 L445.23863607376325,148.13961030678928 L450.23863607376325,148.13961030678928 L450.23863607376325,153.13961030678928 L453.774169979696,156.67514421272202 L450.2386360737633,160.21067811865476 L450.2386360737633,165.21067811865476 L445.2386360737633,165.21067811865476 L441.7031021678306,168.7462120245875 L441.7031021678306,173.7462120245875 L445.23863607376336,177.28174593052023 L441.70310216783065,180.81727983645297 L441.70310216783065,185.81727983645297 L445.23863607376336,189.3528137423857 L450.23863607376336,189.3528137423857 L450.23863607376336,194.3528137423857 L453.7741699796961,197.88834764831844 L458.7741699796961,197.88834764831844 L462.3097038856289,194.3528137423857 L465.84523779156166,197.88834764831844 L470.84523779156166,197.88834764831844 L470.84523779156166,202.88834764831844 L474.3807716974944,206.42388155425118 L470.8452377915617,209.95941546018392 L470.8452377915617,214.95941546018392 L474.3807716974944,218.49494936611666 L479.3807716974944,218.49494936611666 L479.3807716974944,223.49494936611666 L482.9163056034272,227.0304832720494 L487.9163056034272,227.0304832720494 L491.45183950935996,223.49494936611666 L494.9873734152927,227.0304832720494 L499.9873734152927,227.0304832720494 L503.5229073212255,223.49494936611666 L503.5229073212255,218.49494936611666 L508.5229073212255,218.49494936611666 L512.0584412271583,214.95941546018392 L515.593975133091,218.49494936611666 L520.593975133091,218.49494936611666 L520.593975133091,223.49494936611666 L524.1295090390238,227.0304832720494 L529.1295090390238,227.0304832720494 L532.6650429449566,223.49494936611666 L536.2005768508893,227.0304832720494 L541.2005768508893,227.0304832720494 L544.7361107568221,223.49494936611666 L544.7361107568221,218.49494936611666 L549.7361107568221,218.49494936611666 L553.2716446627549,214.95941546018392 L553.2716446627549,209.95941546018392 L549.7361107568221,206.42388155425118 L553.2716446627549,202.88834764831844 L553.2716446627549,197.88834764831844 L558.2716446627549,197.88834764831844 L561.8071785686876,194.3528137423857 L565.3427124746204,197.88834764831844 L570.3427124746204,197.88834764831844 L573.8782463805532,194.3528137423857 L573.8782463805532,189.3528137423857 L578.8782463805532,189.3528137423857 L582.4137802864859,185.81727983645297 L585.9493141924187,189.3528137423857 L590.9493141924187,189.3528137423857 L590.9493141924187,194.3528137423857 L594.4848480983514,197.88834764831844 L599.4848480983514,197.88834764831844 L603.0203820042842,194.3528137423857 L606.555915910217,197.88834764831844 L611.555915910217,197.88834764831844 L611.555915910217,202.88834764831844 L615.0914498161497,206.42388155425118 L611.555915910217,209.95941546018392 L611.555915910217,214.95941546018392 L615.0914498161497,218.49494936611666 L620.0914498161497,218.49494936611666 L620.0914498161497,223.49494936611666 L623.6269837220825,227.0304832720494 L628.6269837220825,227.0304832720494 L632.1625176280153,223.49494936611666 L635.698051533948,227.0304832720494 L640.698051533948,227.0304832720494 L644.2335854398808,223.49494936611666 L644.2335854398808,218.49494936611666 L649.2335854398808,218.49494936611666 L652.7691193458136,214.95941546018392 L656.3046532517463,218.49494936611666 L661.3046532517463,218.49494936611666 L661.3046532517463,223.49494936611666 L664.8401871576791,227.0304832720494 L669.8401871576791,227.0304832720494 L673.3757210636119,223.49494936611666 L676.9112549695446,227.0304832720494 L681.9112549695446,227.0304832720494" style="fill:none;stroke:rgb(0,0,0);stroke-miterlimit:10;"/>
</svg>
