<?xml version="1.0" encoding="UTF-8" standalone="no"?>
<!DOCTYPE svg PUBLIC "-//W3C//DTD SVG 1.1//EN" "http://www.w3.org/Graphics/SVG/1.1/DTD/svg11.dtd">
<svg xmlns:xlink="http://www.w3.org/1999/xlink" height="15.874999999999998mm" version="1.1" viewBox="0 0 225 45" width="79.37499999999999mm" x="0mm" y="0mm" xmlns="http://www.w3.org/2000/svg">
  <g transform="matrix(1 0 0 -1 112.5 22.5)">
    <path d="M-110.0,20.0 L-70.0,20.0 L-70.0,-20.0 L-110.0,-20.0 L-110.0,20.0 Z" style="fill:none;stroke:rgb(125,232,199);stroke-width:5;stroke-miterlimit:10;"/>
    <path d="M-110.0,20.0 L-70.0,20.0 L-70.0,-20.0 L-110.0,-20.0 L-110.0,20.0 Z" style="fill:rgb(125,232,145);stroke:none;"/>
    <path d="M-65.0,20.0 L-25.0,20.0 L-25.0,-20.0 L-65.0,-20.0 L-65.0,20.0 Z" style="fill:none;stroke:rgb(125,228,232);stroke-width:5;stroke-miterlimit:10;"/>
    <path d="M-65.0,20.0 L-25.0,20.0 L-25.0,-20.0 L-65.0,-20.0 L-65.0,20.0 Z" style="fill:rgb(125,232,182);stroke:none;"/>
    <path d="M-20.0,20.0 L20.0,20.0 L20.0,-20.0 L-20.0,-20.0 L-20.0,20.0 Z" style="fill:none;stroke:rgb(223,232,125);stroke-width:5;stroke-miterlimit:10;"/>
    <path d="M-20.0,20.0 L20.0,20.0 L20.0,-20.0 L-20.0,-20.0 L-20.0,20.0 Z" style="fill:rgb(232,188,125);stroke:none;"/>
    <path d="M25.0,20.0 L65.0,20.0 L65.0,-20.0 L25.0,-20.0 L25.0,20.0 Z" style="fill:none;stroke:rgb(125,232,202);stroke-width:5;stroke-miterlimit:10;"/>
    <path d="M25.0,20.0 L65.0,20.0 L65.0,-20.0 L25.0,-20.0 L25.0,20.0 Z" style="fill:rgb(125,232,149);stroke:none;"/>
    <path d="M70.0,20.0 L110.0,20.0 L110.0,-20.0 L70.0,-20.0 L70.0,20.0 Z" style="fill:none;stroke:rgb(232,221,125);stroke-width:5;stroke-miterlimit:10;"/>
    <path d="M70.0,20.0 L110.0,20.0 L110.0,-20.0 L70.0,-20.0 L70.0,20.0 Z" style="fill:rgb(232,167,125);stroke:none;"/>
  </g>
</svg>
