<?xml version="1.0" encoding="UTF-8" standalone="no"?>
<!DOCTYPE svg PUBLIC "-//W3C//DTD SVG 1.1//EN" "http://www.w3.org/Graphics/SVG/1.1/DTD/svg11.dtd">
<svg xmlns:xlink="http://www.w3.org/1999/xlink" height="135.11388888888888mm" version="1.1" viewBox="0 0 766 383" width="270.22777777777776mm" x="0mm" y="0mm" xmlns="http://www.w3.org/2000/svg">
  <g transform="matrix(1 0 0 -1 383 191.5)">
    <path d="M-191.5,50.0 C-163.9042487753,50.0 -141.5,27.5957512247 -141.5,0.0 C-141.5,-27.5957512247 -163.9042487753,-50.0 -191.5,-50.0 C-219.0957512247,-50.0 -241.5,-27.5957512247 -241.5,0.0 C-241.5,27.5957512247 -219.0957512247,50.0 -191.5,50.0 Z" style="fill:none;stroke:rgb(255,0,0);stroke-width:3;stroke-miterlimit:10;"/>
    <path d="M-191.5,57.0 C-160.040843603842,57.0 -134.5,31.459156396158 -134.5,0.0 C-134.5,-31.459156396158 -160.040843603842,-57.0 -191.5,-57.0 C-222.959156396158,-57.0 -248.5,-31.459156396158 -248.5,0.0 C-248.5,31.459156396158 -222.959156396158,57.0 -191.5,57.0 Z" style="fill:none;stroke:rgb(255,0,0);stroke-opacity:0.9490196078431372;stroke-width:3;stroke-miterlimit:10;"/>
    <path d="M-191.5,64.0 C-156.177438432384,64.0 -127.5,35.322561567616 -127.5,0.0 C-127.5,-35.322561567616 -156.177438432384,-64.0 -191.5,-64.0 C-226.822561567616,-64.0 -255.5,-35.322561567616 -255.5,0.0 C-255.5,35.322561567616 -226.822561567616,64.0 -191.5,64.0 Z" style="fill:none;stroke:rgb(255,0,0);stroke-opacity:0.9019607843137255;stroke-width:3;stroke-miterlimit:10;"/>
    <path d="M-191.5,71.0 C-152.314033260926,71.0 -120.5,39.185966739074 -120.5,0.0 C-120.5,-39.185966739074 -152.314033260926,-71.0 -191.5,-71.0 C-230.685966739074,-71.0 -262.5,-39.185966739074 -262.5,0.0 C-262.5,39.185966739074 -230.685966739074,71.0 -191.5,71.0 Z" style="fill:none;stroke:rgb(255,0,0);stroke-opacity:0.8509803921568627;stroke-width:3;stroke-miterlimit:10;"/>
    <path d="M-191.5,78.0 C-148.450628089468,78.0 -113.5,43.049371910531995 -113.5,0.0 C-113.5,-43.049371910531995 -148.450628089468,-78.0 -191.5,-78.0 C-234.549371910532,-78.0 -269.5,-43.049371910531995 -269.5,0.0 C-269.5,43.049371910531995 -234.549371910532,78.0 -191.5,78.0 Z" style="fill:none;stroke:rgb(255,0,0);stroke-opacity:0.8;stroke-width:3;stroke-miterlimit:10;"/>
    <path d="M-191.5,85.0 C-144.58722291801,85.0 -106.5,46.91277708199 -106.5,0.0 C-106.5,-46.91277708199 -144.58722291801,-85.0 -191.5,-85.0 C-238.41277708199,-85.0 -276.5,-46.91277708199 -276.5,0.0 C-276.5,46.91277708199 -238.41277708199,85.0 -191.5,85.0 Z" style="fill:none;stroke:rgb(255,0,0);stroke-opacity:0.7490196078431373;stroke-width:3;stroke-miterlimit:10;"/>
    <path d="M-191.5,92.0 C-140.72381774655202,92.0 -99.5,50.776182253448 -99.5,0.0 C-99.5,-50.776182253448 -140.72381774655202,-92.0 -191.5,-92.0 C-242.27618225344798,-92.0 -283.5,-50.776182253448 -283.5,0.0 C-283.5,50.776182253448 -242.27618225344798,92.0 -191.5,92.0 Z" style="fill:none;stroke:rgb(255,0,0);stroke-opacity:0.7019607843137254;stroke-width:3;stroke-miterlimit:10;"/>
    <path d="M-191.5,99.0 C-136.86041257509402,99.0 -92.5,54.639587424906 -92.5,0.0 C-92.5,-54.639587424906 -136.86041257509402,-99.0 -191.5,-99.0 C-246.13958742490598,-99.0 -290.5,-54.639587424906 -290.5,0.0 C-290.5,54.639587424906 -246.13958742490598,99.0 -191.5,99.0 Z" style="fill:none;stroke:rgb(255,0,0);stroke-opacity:0.6509803921568628;stroke-width:3;stroke-miterlimit:10;"/>
    <path d="M-191.5,106.0 C-132.99700740363602,106.0 -85.5,58.502992596363995 -85.5,0.0 C-85.5,-58.502992596363995 -132.99700740363602,-106.0 -191.5,-106.0 C-250.00299259636398,-106.0 -297.5,-58.502992596363995 -297.5,0.0 C-297.5,58.502992596363995 -250.00299259636398,106.0 -191.5,106.0 Z" style="fill:none;stroke:rgb(255,0,0);stroke-opacity:0.6;stroke-width:3;stroke-miterlimit:10;"/>
    <path d="M-191.5,113.0 C-129.133602232178,113.0 -78.5,62.366397767822 -78.5,0.0 C-78.5,-62.366397767822 -129.133602232178,-113.0 -191.5,-113.0 C-253.866397767822,-113.0 -304.5,-62.366397767822 -304.5,0.0 C-304.5,62.366397767822 -253.866397767822,113.0 -191.5,113.0 Z" style="fill:none;stroke:rgb(255,0,0);stroke-opacity:0.5490196078431373;stroke-width:3;stroke-miterlimit:10;"/>
    <path d="M-191.5,120.0 C-125.27019706072001,120.0 -71.5,66.22980293927999 -71.5,0.0 C-71.5,-66.22980293927999 -125.27019706072001,-120.0 -191.5,-120.0 C-257.72980293928,-120.0 -311.5,-66.22980293927999 -311.5,0.0 C-311.5,66.22980293927999 -257.72980293928,120.0 -191.5,120.0 Z" style="fill:none;stroke:rgb(255,0,0);stroke-opacity:0.5019607843137255;stroke-width:3;stroke-miterlimit:10;"/>
    <path d="M-191.5,127.0 C-121.406791889262,127.0 -64.5,70.093208110738 -64.5,0.0 C-64.5,-70.093208110738 -121.406791889262,-127.0 -191.5,-127.0 C-261.59320811073803,-127.0 -318.5,-70.093208110738 -318.5,0.0 C-318.5,70.093208110738 -261.59320811073803,127.0 -191.5,127.0 Z" style="fill:none;stroke:rgb(255,0,0);stroke-opacity:0.45098039215686275;stroke-width:3;stroke-miterlimit:10;"/>
    <path d="M-191.5,134.0 C-117.543386717804,134.0 -57.5,73.956613282196 -57.5,0.0 C-57.5,-73.956613282196 -117.543386717804,-134.0 -191.5,-134.0 C-265.45661328219603,-134.0 -325.5,-73.956613282196 -325.5,0.0 C-325.5,73.956613282196 -265.45661328219603,134.0 -191.5,134.0 Z" style="fill:none;stroke:rgb(255,0,0);stroke-opacity:0.4;stroke-width:3;stroke-miterlimit:10;"/>
    <path d="M-191.5,141.0 C-113.679981546346,141.0 -50.5,77.820018453654 -50.5,0.0 C-50.5,-77.820018453654 -113.679981546346,-141.0 -191.5,-141.0 C-269.32001845365403,-141.0 -332.5,-77.820018453654 -332.5,0.0 C-332.5,77.820018453654 -269.32001845365403,141.0 -191.5,141.0 Z" style="fill:none;stroke:rgb(255,0,0);stroke-opacity:0.34901960784313724;stroke-width:3;stroke-miterlimit:10;"/>
    <path d="M-191.5,148.0 C-109.816576374888,148.0 -43.5,81.683423625112 -43.5,0.0 C-43.5,-81.683423625112 -109.816576374888,-148.0 -191.5,-148.0 C-273.183423625112,-148.0 -339.5,-81.683423625112 -339.5,0.0 C-339.5,81.683423625112 -273.183423625112,148.0 -191.5,148.0 Z" style="fill:none;stroke:rgb(255,0,0);stroke-opacity:0.30196078431372547;stroke-width:3;stroke-miterlimit:10;"/>
    <path d="M-191.5,155.0 C-105.95317120343,155.0 -36.5,85.54682879657 -36.5,0.0 C-36.5,-85.54682879657 -105.95317120343,-155.0 -191.5,-155.0 C-277.04682879657,-155.0 -346.5,-85.54682879657 -346.5,0.0 C-346.5,85.54682879657 -277.04682879657,155.0 -191.5,155.0 Z" style="fill:none;stroke:rgb(255,0,0);stroke-opacity:0.25098039215686274;stroke-width:3;stroke-miterlimit:10;"/>
    <path d="M-191.5,162.0 C-102.089766031972,162.0 -29.5,89.410233968028 -29.5,0.0 C-29.5,-89.410233968028 -102.089766031972,-162.0 -191.5,-162.0 C-280.910233968028,-162.0 -353.5,-89.410233968028 -353.5,0.0 C-353.5,89.410233968028 -280.910233968028,162.0 -191.5,162.0 Z" style="fill:none;stroke:rgb(255,0,0);stroke-opacity:0.2;stroke-width:3;stroke-miterlimit:10;"/>
    <path d="M-191.5,169.0 C-98.226360860514,169.0 -22.5,93.273639139486 -22.5,0.0 C-22.5,-93.273639139486 -98.226360860514,-169.0 -191.5,-169.0 C-284.773639139486,-169.0 -360.5,-93.273639139486 -360.5,0.0 C-360.5,93.273639139486 -284.773639139486,169.0 -191.5,169.0 Z" style="fill:none;stroke:rgb(255,0,0);stroke-opacity:0.14901960784313725;stroke-width:3;stroke-miterlimit:10;"/>
    <path d="M-191.5,176.0 C-94.36295568905601,176.0 -15.5,97.13704431094399 -15.5,0.0 C-15.5,-97.13704431094399 -94.36295568905601,-176.0 -191.5,-176.0 C-288.637044310944,-176.0 -367.5,-97.13704431094399 -367.5,0.0 C-367.5,97.13704431094399 -288.637044310944,176.0 -191.5,176.0 Z" style="fill:none;stroke:rgb(255,0,0);stroke-opacity:0.09803921568627451;stroke-width:3;stroke-miterlimit:10;"/>
    <path d="M-191.5,183.0 C-90.49955051759801,183.0 -8.5,101.00044948240199 -8.5,0.0 C-8.5,-101.00044948240199 -90.49955051759801,-183.0 -191.5,-183.0 C-292.500449482402,-183.0 -374.5,-101.00044948240199 -374.5,0.0 C-374.5,101.00044948240199 -292.500449482402,183.0 -191.5,183.0 Z" style="fill:none;stroke:rgb(255,0,0);stroke-opacity:0.050980392156862744;stroke-width:3;stroke-miterlimit:10;"/>
    <path d="M-191.5,190.0 C-86.63614534614,190.0 -1.5,104.86385465386 -1.5,0.0 C-1.5,-104.86385465386 -86.63614534614,-190.0 -191.5,-190.0 C-296.36385465386,-190.0 -381.5,-104.86385465386 -381.5,0.0 C-381.5,104.86385465386 -296.36385465386,190.0 -191.5,190.0 Z" style="fill:none;stroke:rgb(255,0,0);stroke-opacity:0;stroke-width:3;stroke-miterlimit:10;"/>
    <path d="M191.5,50.0 C219.0957512247,50.0 241.5,27.5957512247 241.5,0.0 C241.5,-27.5957512247 219.0957512247,-50.0 191.5,-50.0 C163.9042487753,-50.0 141.5,-27.5957512247 141.5,0.0 C141.5,27.5957512247 163.9042487753,50.0 191.5,50.0 Z" style="fill:none;stroke:rgb(65,105,225);stroke-width:3;stroke-miterlimit:10;"/>
    <path d="M191.5,57.0 C222.959156396158,57.0 248.5,31.459156396158 248.5,0.0 C248.5,-31.459156396158 222.959156396158,-57.0 191.5,-57.0 C160.040843603842,-57.0 134.5,-31.459156396158 134.5,0.0 C134.5,31.459156396158 160.040843603842,57.0 191.5,57.0 Z" style="fill:none;stroke:rgb(65,65,225);stroke-width:3;stroke-miterlimit:10;"/>
    <path d="M191.5,64.0 C226.822561567616,64.0 255.5,35.322561567616 255.5,0.0 C255.5,-35.322561567616 226.822561567616,-64.0 191.5,-64.0 C156.177438432384,-64.0 127.5,-35.322561567616 127.5,0.0 C127.5,35.322561567616 156.177438432384,64.0 191.5,64.0 Z" style="fill:none;stroke:rgb(105,65,225);stroke-width:3;stroke-miterlimit:10;"/>
    <path d="M191.5,71.0 C230.685966739074,71.0 262.5,39.185966739074 262.5,0.0 C262.5,-39.185966739074 230.685966739074,-71.0 191.5,-71.0 C152.314033260926,-71.0 120.5,-39.185966739074 120.5,0.0 C120.5,39.185966739074 152.314033260926,71.0 191.5,71.0 Z" style="fill:none;stroke:rgb(145,65,225);stroke-width:3;stroke-miterlimit:10;"/>
    <path d="M191.5,78.0 C234.549371910532,78.0 269.5,43.049371910531995 269.5,0.0 C269.5,-43.049371910531995 234.549371910532,-78.0 191.5,-78.0 C148.450628089468,-78.0 113.5,-43.049371910531995 113.5,0.0 C113.5,43.049371910531995 148.450628089468,78.0 191.5,78.0 Z" style="fill:none;stroke:rgb(185,65,225);stroke-width:3;stroke-miterlimit:10;"/>
    <path d="M191.5,85.0 C238.41277708199,85.0 276.5,46.91277708199 276.5,0.0 C276.5,-46.91277708199 238.41277708199,-85.0 191.5,-85.0 C144.58722291801,-85.0 106.5,-46.91277708199 106.5,0.0 C106.5,46.91277708199 144.58722291801,85.0 191.5,85.0 Z" style="fill:none;stroke:rgb(225,65,225);stroke-width:3;stroke-miterlimit:10;"/>
    <path d="M191.5,92.0 C242.27618225344798,92.0 283.5,50.776182253448 283.5,0.0 C283.5,-50.776182253448 242.27618225344798,-92.0 191.5,-92.0 C140.72381774655202,-92.0 99.5,-50.776182253448 99.5,0.0 C99.5,50.776182253448 140.72381774655202,92.0 191.5,92.0 Z" style="fill:none;stroke:rgb(225,65,185);stroke-width:3;stroke-miterlimit:10;"/>
    <path d="M191.5,99.0 C246.13958742490598,99.0 290.5,54.639587424906 290.5,0.0 C290.5,-54.639587424906 246.13958742490598,-99.0 191.5,-99.0 C136.86041257509402,-99.0 92.5,-54.639587424906 92.5,0.0 C92.5,54.639587424906 136.86041257509402,99.0 191.5,99.0 Z" style="fill:none;stroke:rgb(225,65,145);stroke-width:3;stroke-miterlimit:10;"/>
    <path d="M191.5,106.0 C250.00299259636398,106.0 297.5,58.502992596363995 297.5,0.0 C297.5,-58.502992596363995 250.00299259636398,-106.0 191.5,-106.0 C132.99700740363602,-106.0 85.5,-58.502992596363995 85.5,0.0 C85.5,58.502992596363995 132.99700740363602,106.0 191.5,106.0 Z" style="fill:none;stroke:rgb(225,65,105);stroke-width:3;stroke-miterlimit:10;"/>
    <path d="M191.5,113.0 C253.866397767822,113.0 304.5,62.366397767822 304.5,0.0 C304.5,-62.366397767822 253.866397767822,-113.0 191.5,-113.0 C129.133602232178,-113.0 78.5,-62.366397767822 78.5,0.0 C78.5,62.366397767822 129.133602232178,113.0 191.5,113.0 Z" style="fill:none;stroke:rgb(225,65,65);stroke-width:3;stroke-miterlimit:10;"/>
    <path d="M191.5,120.0 C257.72980293928,120.0 311.5,66.22980293927999 311.5,0.0 C311.5,-66.22980293927999 257.72980293928,-120.0 191.5,-120.0 C125.27019706072001,-120.0 71.5,-66.22980293927999 71.5,0.0 C71.5,66.22980293927999 125.27019706072001,120.0 191.5,120.0 Z" style="fill:none;stroke:rgb(225,105,65);stroke-width:3;stroke-miterlimit:10;"/>
    <path d="M191.5,127.0 C261.59320811073803,127.0 318.5,70.093208110738 318.5,0.0 C318.5,-70.093208110738 261.59320811073803,-127.0 191.5,-127.0 C121.406791889262,-127.0 64.5,-70.093208110738 64.5,0.0 C64.5,70.093208110738 121.406791889262,127.0 191.5,127.0 Z" style="fill:none;stroke:rgb(225,145,65);stroke-width:3;stroke-miterlimit:10;"/>
    <path d="M191.5,134.0 C265.45661328219603,134.0 325.5,73.956613282196 325.5,0.0 C325.5,-73.956613282196 265.45661328219603,-134.0 191.5,-134.0 C117.543386717804,-134.0 57.5,-73.956613282196 57.5,0.0 C57.5,73.956613282196 117.543386717804,134.0 191.5,134.0 Z" style="fill:none;stroke:rgb(225,185,65);stroke-width:3;stroke-miterlimit:10;"/>
    <path d="M191.5,141.0 C269.32001845365403,141.0 332.5,77.820018453654 332.5,0.0 C332.5,-77.820018453654 269.32001845365403,-141.0 191.5,-141.0 C113.679981546346,-141.0 50.5,-77.820018453654 50.5,0.0 C50.5,77.820018453654 113.679981546346,141.0 191.5,141.0 Z" style="fill:none;stroke:rgb(225,225,65);stroke-width:3;stroke-miterlimit:10;"/>
    <path d="M191.5,148.0 C273.183423625112,148.0 339.5,81.683423625112 339.5,0.0 C339.5,-81.683423625112 273.183423625112,-148.0 191.5,-148.0 C109.816576374888,-148.0 43.5,-81.683423625112 43.5,0.0 C43.5,81.683423625112 109.816576374888,148.0 191.5,148.0 Z" style="fill:none;stroke:rgb(185,225,65);stroke-width:3;stroke-miterlimit:10;"/>
    <path d="M191.5,155.0 C277.04682879657,155.0 346.5,85.54682879657 346.5,0.0 C346.5,-85.54682879657 277.04682879657,-155.0 191.5,-155.0 C105.95317120343,-155.0 36.5,-85.54682879657 36.5,0.0 C36.5,85.54682879657 105.95317120343,155.0 191.5,155.0 Z" style="fill:none;stroke:rgb(145,225,65);stroke-width:3;stroke-miterlimit:10;"/>
    <path d="M191.5,162.0 C280.910233968028,162.0 353.5,89.410233968028 353.5,0.0 C353.5,-89.410233968028 280.910233968028,-162.0 191.5,-162.0 C102.089766031972,-162.0 29.5,-89.410233968028 29.5,0.0 C29.5,89.410233968028 102.089766031972,162.0 191.5,162.0 Z" style="fill:none;stroke:rgb(105,225,65);stroke-width:3;stroke-miterlimit:10;"/>
    <path d="M191.5,169.0 C284.773639139486,169.0 360.5,93.273639139486 360.5,0.0 C360.5,-93.273639139486 284.773639139486,-169.0 191.5,-169.0 C98.226360860514,-169.0 22.5,-93.273639139486 22.5,0.0 C22.5,93.273639139486 98.226360860514,169.0 191.5,169.0 Z" style="fill:none;stroke:rgb(65,225,65);stroke-width:3;stroke-miterlimit:10;"/>
    <path d="M191.5,176.0 C288.637044310944,176.0 367.5,97.13704431094399 367.5,0.0 C367.5,-97.13704431094399 288.637044310944,-176.0 191.5,-176.0 C94.36295568905601,-176.0 15.5,-97.13704431094399 15.5,0.0 C15.5,97.13704431094399 94.36295568905601,176.0 191.5,176.0 Z" style="fill:none;stroke:rgb(65,225,105);stroke-width:3;stroke-miterlimit:10;"/>
    <path d="M191.5,183.0 C292.500449482402,183.0 374.5,101.00044948240199 374.5,0.0 C374.5,-101.00044948240199 292.500449482402,-183.0 191.5,-183.0 C90.49955051759801,-183.0 8.5,-101.00044948240199 8.5,0.0 C8.5,101.00044948240199 90.49955051759801,183.0 191.5,183.0 Z" style="fill:none;stroke:rgb(65,225,145);stroke-width:3;stroke-miterlimit:10;"/>
    <path d="M191.5,190.0 C296.36385465386,190.0 381.5,104.86385465386 381.5,0.0 C381.5,-104.86385465386 296.36385465386,-190.0 191.5,-190.0 C86.63614534614,-190.0 1.5,-104.86385465386 1.5,0.0 C1.5,104.86385465386 86.63614534614,190.0 191.5,190.0 Z" style="fill:none;stroke:rgb(65,225,185);stroke-width:3;stroke-miterlimit:10;"/>
  </g>
</svg>
