<?xml version="1.0" encoding="UTF-8" standalone="no"?>
<!DOCTYPE svg PUBLIC "-//W3C//DTD SVG 1.1//EN" "http://www.w3.org/Graphics/SVG/1.1/DTD/svg11.dtd">
<svg xmlns:xlink="http://www.w3.org/1999/xlink" height="7.0555555555555545mm" version="1.1" viewBox="0 0 120 20" width="42.33333333333333mm" x="0mm" y="0mm" xmlns="http://www.w3.org/2000/svg">
  <path d="M0.0,0.0 L20.0,0.0 L20.0,20.0 L0.0,20.0 L0.0,0.0 Z" style="fill:rgb(65,105,255);stroke:none;"/>
  <path d="M20.0,0.0 L40.0,0.0 L40.0,20.0 L20.0,20.0 L20.0,0.0 Z" style="fill:rgb(65,105,255);stroke:none;"/>
  <path d="M40.0,0.0 L60.0,0.0 L60.0,20.0 L40.0,20.0 L40.0,0.0 Z" style="fill:rgb(65,105,255);stroke:none;"/>
  <path d="M60.0,0.0 L80.0,0.0 L80.0,20.0 L60.0,20.0 L60.0,0.0 Z" style="fill:rgb(65,105,255);stroke:none;"/>
  <path d="M80.0,0.0 L100.0,0.0 L100.0,20.0 L80.0,20.0 L80.0,0.0 Z" style="fill:rgb(65,105,255);stroke:none;"/>
  <path d="M100.0,0.0 L120.0,0.0 L120.0,20.0 L100.0,20.0 L100.0,0.0 Z" style="fill:rgb(65,105,255);stroke:none;"/>
</svg>
