<?xml version="1.0" encoding="UTF-8" standalone="no"?>
<!DOCTYPE svg PUBLIC "-//W3C//DTD SVG 1.1//EN" "http://www.w3.org/Graphics/SVG/1.1/DTD/svg11.dtd">
<svg xmlns:xlink="http://www.w3.org/1999/xlink" height="47.62499999999999mm" version="1.1" viewBox="0 0 45 135" width="15.874999999999998mm" x="0mm" y="0mm" xmlns="http://www.w3.org/2000/svg">
  <g transform="matrix(1 0 0 -1 22.5 67.5)">
    <path d="M-20.0,65.0 L20.0,65.0 L20.0,25.0 L-20.0,25.0 L-20.0,65.0 Z" style="fill:none;stroke:rgb(105,65,225);stroke-width:5;stroke-miterlimit:10;"/>
    <path d="M-20.0,65.0 L20.0,65.0 L20.0,25.0 L-20.0,25.0 L-20.0,65.0 Z" style="fill:rgb(65,105,225);stroke:none;"/>
    <path d="M-20.0,20.0 L20.0,20.0 L20.0,-20.0 L-20.0,-20.0 L-20.0,20.0 Z" style="fill:none;stroke:rgb(105,65,225);stroke-width:5;stroke-miterlimit:10;"/>
    <path d="M-20.0,20.0 L20.0,20.0 L20.0,-20.0 L-20.0,-20.0 L-20.0,20.0 Z" style="fill:rgb(65,105,225);stroke:none;"/>
    <path d="M-20.0,-25.0 L20.0,-25.0 L20.0,-65.0 L-20.0,-65.0 L-20.0,-25.0 Z" style="fill:none;stroke:rgb(105,65,225);stroke-width:5;stroke-miterlimit:10;"/>
    <path d="M-20.0,-25.0 L20.0,-25.0 L20.0,-65.0 L-20.0,-65.0 L-20.0,-25.0 Z" style="fill:rgb(65,105,225);stroke:none;"/>
  </g>
</svg>
