<?xml version="1.0" encoding="UTF-8" standalone="no"?>
<!DOCTYPE svg PUBLIC "-//W3C//DTD SVG 1.1//EN" "http://www.w3.org/Graphics/SVG/1.1/DTD/svg11.dtd">
<svg xmlns:xlink="http://www.w3.org/1999/xlink" height="70.90833333333333mm" version="1.1" viewBox="0 0 462 201" width="162.98333333333332mm" x="0mm" y="0mm" xmlns="http://www.w3.org/2000/svg">
  <g transform="matrix(1 0 0 -1 231 100.5)">
    <path d="M-226.0,0.0 L-176.0,100.0 L-126.0,0.0 L-226.0,0.0" style="fill:none;stroke:rgb(0,0,0);stroke-miterlimit:10;"/>
    <path d="M-226.0,5.0 C-223.24042487753,5.0 -221.0,2.75957512247 -221.0,0.0 C-221.0,-2.75957512247 -223.24042487753,-5.0 -226.0,-5.0 C-228.75957512247,-5.0 -231.0,-2.75957512247 -231.0,0.0 C-231.0,2.75957512247 -228.75957512247,5.0 -226.0,5.0 Z" style="fill:rgb(255,0,0);stroke:none;"/>
    <path d="M-25.0,100.0 C30.191502449399998,100.0 75.0,55.1915024494 75.0,0.0 C75.0,-55.1915024494 30.191502449399998,-100.0 -25.0,-100.0 C-80.19150244939999,-100.0 -125.0,-55.1915024494 -125.0,0.0 C-125.0,55.1915024494 -80.19150244939999,100.0 -25.0,100.0 Z" style="fill:none;stroke:rgb(0,0,0);stroke-miterlimit:10;"/>
    <path d="M-25.0,5.0 C-22.24042487753,5.0 -20.0,2.75957512247 -20.0,0.0 C-20.0,-2.75957512247 -22.24042487753,-5.0 -25.0,-5.0 C-27.75957512247,-5.0 -30.0,-2.75957512247 -30.0,0.0 C-30.0,2.75957512247 -27.75957512247,5.0 -25.0,5.0 Z" style="fill:rgb(255,0,0);stroke:none;"/>
    <path d="M80.5,0.0 C130.5,100.0 180.5,100.0 230.5,0.0" style="fill:none;stroke:rgb(0,0,0);stroke-miterlimit:10;"/>
    <path d="M80.5,5.0 C83.25957512247,5.0 85.5,2.75957512247 85.5,0.0 C85.5,-2.75957512247 83.25957512247,-5.0 80.5,-5.0 C77.74042487753,-5.0 75.5,-2.75957512247 75.5,0.0 C75.5,2.75957512247 77.74042487753,5.0 80.5,5.0 Z" style="fill:rgb(255,0,0);stroke:none;"/>
  </g>
</svg>
