<?xml version="1.0" encoding="UTF-8" standalone="no"?>
<!DOCTYPE svg PUBLIC "-//W3C//DTD SVG 1.1//EN" "http://www.w3.org/Graphics/SVG/1.1/DTD/svg11.dtd">
<svg xmlns:xlink="http://www.w3.org/1999/xlink" height="39.15833333333333mm" version="1.1" viewBox="0 0 111 111" width="39.15833333333333mm" x="0mm" y="0mm" xmlns="http://www.w3.org/2000/svg">
  <g transform="matrix(1 0 0 -1 55.5 55.5)">
    <path d="M0.0,55.0 C30.35532634717,55.0 55.0,30.35532634717 55.0,0.0 C55.0,-30.35532634717 30.35532634717,-55.0 0.0,-55.0 C-30.35532634717,-55.0 -55.0,-30.35532634717 -55.0,0.0 C-55.0,30.35532634717 -30.35532634717,55.0 0.0,55.0 Z" style="fill:none;stroke:rgb(0,0,0);stroke-miterlimit:10;"/>
    <path d="M0.0,55.0 C30.35532634717,55.0 55.0,30.35532634717 55.0,0.0 C55.0,-30.35532634717 30.35532634717,-55.0 0.0,-55.0 C-30.35532634717,-55.0 -55.0,-30.35532634717 -55.0,0.0 C-55.0,30.35532634717 -30.35532634717,55.0 0.0,55.0 Z" style="fill:rgb(125,206,232);stroke:none;"/>
    <path d="M0.0,50.0 C27.5957512247,50.0 50.0,27.5957512247 50.0,0.0 C50.0,-27.5957512247 27.5957512247,-50.0 0.0,-50.0 C-27.5957512247,-50.0 -50.0,-27.5957512247 -50.0,0.0 C-50.0,27.5957512247 -27.5957512247,50.0 0.0,50.0 Z" style="fill:none;stroke:rgb(0,0,0);stroke-miterlimit:10;"/>
    <path d="M0.0,50.0 C27.5957512247,50.0 50.0,27.5957512247 50.0,0.0 C50.0,-27.5957512247 27.5957512247,-50.0 0.0,-50.0 C-27.5957512247,-50.0 -50.0,-27.5957512247 -50.0,0.0 C-50.0,27.5957512247 -27.5957512247,50.0 0.0,50.0 Z" style="fill:rgb(189,125,232);stroke:none;"/>
    <path d="M0.0,45.0 C24.83617610223,45.0 45.0,24.83617610223 45.0,0.0 C45.0,-24.83617610223 24.83617610223,-45.0 0.0,-45.0 C-24.83617610223,-45.0 -45.0,-24.83617610223 -45.0,0.0 C-45.0,24.83617610223 -24.83617610223,45.0 0.0,45.0 Z" style="fill:none;stroke:rgb(0,0,0);stroke-miterlimit:10;"/>
    <path d="M0.0,45.0 C24.83617610223,45.0 45.0,24.83617610223 45.0,0.0 C45.0,-24.83617610223 24.83617610223,-45.0 0.0,-45.0 C-24.83617610223,-45.0 -45.0,-24.83617610223 -45.0,0.0 C-45.0,24.83617610223 -24.83617610223,45.0 0.0,45.0 Z" style="fill:rgb(232,125,214);stroke:none;"/>
    <path d="M0.0,40.0 C22.07660097976,40.0 40.0,22.07660097976 40.0,0.0 C40.0,-22.07660097976 22.07660097976,-40.0 0.0,-40.0 C-22.07660097976,-40.0 -40.0,-22.07660097976 -40.0,0.0 C-40.0,22.07660097976 -22.07660097976,40.0 0.0,40.0 Z" style="fill:none;stroke:rgb(0,0,0);stroke-miterlimit:10;"/>
    <path d="M0.0,40.0 C22.07660097976,40.0 40.0,22.07660097976 40.0,0.0 C40.0,-22.07660097976 22.07660097976,-40.0 0.0,-40.0 C-22.07660097976,-40.0 -40.0,-22.07660097976 -40.0,0.0 C-40.0,22.07660097976 -22.07660097976,40.0 0.0,40.0 Z" style="fill:rgb(232,157,125);stroke:none;"/>
    <path d="M0.0,35.0 C19.317025857289998,35.0 35.0,19.317025857289998 35.0,0.0 C35.0,-19.317025857289998 19.317025857289998,-35.0 0.0,-35.0 C-19.317025857289998,-35.0 -35.0,-19.317025857289998 -35.0,0.0 C-35.0,19.317025857289998 -19.317025857289998,35.0 0.0,35.0 Z" style="fill:none;stroke:rgb(0,0,0);stroke-miterlimit:10;"/>
    <path d="M0.0,35.0 C19.317025857289998,35.0 35.0,19.317025857289998 35.0,0.0 C35.0,-19.317025857289998 19.317025857289998,-35.0 0.0,-35.0 C-19.317025857289998,-35.0 -35.0,-19.317025857289998 -35.0,0.0 C-35.0,19.317025857289998 -19.317025857289998,35.0 0.0,35.0 Z" style="fill:rgb(176,232,125);stroke:none;"/>
    <path d="M0.0,30.0 C16.557450734819998,30.0 30.0,16.557450734819998 30.0,0.0 C30.0,-16.557450734819998 16.557450734819998,-30.0 0.0,-30.0 C-16.557450734819998,-30.0 -30.0,-16.557450734819998 -30.0,0.0 C-30.0,16.557450734819998 -16.557450734819998,30.0 0.0,30.0 Z" style="fill:none;stroke:rgb(0,0,0);stroke-miterlimit:10;"/>
    <path d="M0.0,30.0 C16.557450734819998,30.0 30.0,16.557450734819998 30.0,0.0 C30.0,-16.557450734819998 16.557450734819998,-30.0 0.0,-30.0 C-16.557450734819998,-30.0 -30.0,-16.557450734819998 -30.0,0.0 C-30.0,16.557450734819998 -16.557450734819998,30.0 0.0,30.0 Z" style="fill:rgb(132,232,125);stroke:none;"/>
    <path d="M0.0,25.0 C13.79787561235,25.0 25.0,13.79787561235 25.0,0.0 C25.0,-13.79787561235 13.79787561235,-25.0 0.0,-25.0 C-13.79787561235,-25.0 -25.0,-13.79787561235 -25.0,0.0 C-25.0,13.79787561235 -13.79787561235,25.0 0.0,25.0 Z" style="fill:none;stroke:rgb(0,0,0);stroke-miterlimit:10;"/>
    <path d="M0.0,25.0 C13.79787561235,25.0 25.0,13.79787561235 25.0,0.0 C25.0,-13.79787561235 13.79787561235,-25.0 0.0,-25.0 C-13.79787561235,-25.0 -25.0,-13.79787561235 -25.0,0.0 C-25.0,13.79787561235 -13.79787561235,25.0 0.0,25.0 Z" style="fill:rgb(125,232,191);stroke:none;"/>
    <path d="M0.0,20.0 C11.03830048988,20.0 20.0,11.03830048988 20.0,0.0 C20.0,-11.03830048988 11.03830048988,-20.0 0.0,-20.0 C-11.03830048988,-20.0 -20.0,-11.03830048988 -20.0,0.0 C-20.0,11.03830048988 -11.03830048988,20.0 0.0,20.0 Z" style="fill:none;stroke:rgb(0,0,0);stroke-miterlimit:10;"/>
    <path d="M0.0,20.0 C11.03830048988,20.0 20.0,11.03830048988 20.0,0.0 C20.0,-11.03830048988 11.03830048988,-20.0 0.0,-20.0 C-11.03830048988,-20.0 -20.0,-11.03830048988 -20.0,0.0 C-20.0,11.03830048988 -11.03830048988,20.0 0.0,20.0 Z" style="fill:rgb(232,189,125);stroke:none;"/>
    <path d="M0.0,15.0 C8.278725367409999,15.0 15.0,8.278725367409999 15.0,0.0 C15.0,-8.278725367409999 8.278725367409999,-15.0 0.0,-15.0 C-8.278725367409999,-15.0 -15.0,-8.278725367409999 -15.0,0.0 C-15.0,8.278725367409999 -8.278725367409999,15.0 0.0,15.0 Z" style="fill:none;stroke:rgb(0,0,0);stroke-miterlimit:10;"/>
    <path d="M0.0,15.0 C8.278725367409999,15.0 15.0,8.278725367409999 15.0,0.0 C15.0,-8.278725367409999 8.278725367409999,-15.0 0.0,-15.0 C-8.278725367409999,-15.0 -15.0,-8.278725367409999 -15.0,0.0 C-15.0,8.278725367409999 -8.278725367409999,15.0 0.0,15.0 Z" style="fill:rgb(232,125,204);stroke:none;"/>
    <path d="M0.0,10.0 C5.51915024494,10.0 10.0,5.51915024494 10.0,0.0 C10.0,-5.51915024494 5.51915024494,-10.0 0.0,-10.0 C-5.51915024494,-10.0 -10.0,-5.51915024494 -10.0,0.0 C-10.0,5.51915024494 -5.51915024494,10.0 0.0,10.0 Z" style="fill:none;stroke:rgb(0,0,0);stroke-miterlimit:10;"/>
    <path d="M0.0,10.0 C5.51915024494,10.0 10.0,5.51915024494 10.0,0.0 C10.0,-5.51915024494 5.51915024494,-10.0 0.0,-10.0 C-5.51915024494,-10.0 -10.0,-5.51915024494 -10.0,0.0 C-10.0,5.51915024494 -5.51915024494,10.0 0.0,10.0 Z" style="fill:rgb(125,232,137);stroke:none;"/>
  </g>
</svg>
