<svg width="1090.0" height="390.0" viewBox="-545.0 -195.0 1090.0 390.0" style=""><g><defs></defs><g><g><g><g><g><g><g><g><g><g><g><g></g><circle transform="matrix(1.0,0.0,0.0,-1.0,-350.0,0.0)" style="stroke-width: 10.0px; stroke: hsla(270.0, 50.0%, 50.0%, 1.0); stroke-linecap: butt; stroke-linejoin: miter;  fill: none;" r="62.0"></circle></g><circle transform="matrix(1.0,0.0,0.0,-1.0,-350.0,0.0)" style="stroke-width: 10.0px; stroke: hsla(300.0, 50.0%, 50.0%, 1.0); stroke-linecap: butt; stroke-linejoin: miter;  fill: none;" r="74.0"></circle></g><circle transform="matrix(1.0,0.0,0.0,-1.0,-350.0,0.0)" style="stroke-width: 10.0px; stroke: hsla(330.0, 50.0%, 50.0%, 1.0); stroke-linecap: butt; stroke-linejoin: miter;  fill: none;" r="86.0"></circle></g><circle transform="matrix(1.0,0.0,0.0,-1.0,-350.0,0.0)" style="stroke-width: 10.0px; stroke: hsla(360.0, 50.0%, 50.0%, 1.0); stroke-linecap: butt; stroke-linejoin: miter;  fill: none;" r="98.0"></circle></g><circle transform="matrix(1.0,0.0,0.0,-1.0,-350.0,0.0)" style="stroke-width: 10.0px; stroke: hsla(390.0, 50.0%, 50.0%, 1.0); stroke-linecap: butt; stroke-linejoin: miter;  fill: none;" r="110.0"></circle></g><circle transform="matrix(1.0,0.0,0.0,-1.0,-350.0,0.0)" style="stroke-width: 10.0px; stroke: hsla(419.99999999999994, 50.0%, 50.0%, 1.0); stroke-linecap: butt; stroke-linejoin: miter;  fill: none;" r="122.0"></circle></g><circle transform="matrix(1.0,0.0,0.0,-1.0,-350.0,0.0)" style="stroke-width: 10.0px; stroke: hsla(450.0, 50.0%, 50.0%, 1.0); stroke-linecap: butt; stroke-linejoin: miter;  fill: none;" r="134.0"></circle></g><circle transform="matrix(1.0,0.0,0.0,-1.0,-350.0,0.0)" style="stroke-width: 10.0px; stroke: hsla(480.0, 50.0%, 50.0%, 1.0); stroke-linecap: butt; stroke-linejoin: miter;  fill: none;" r="146.0"></circle></g><circle transform="matrix(1.0,0.0,0.0,-1.0,-350.0,0.0)" style="stroke-width: 10.0px; stroke: hsla(510.0, 50.0%, 50.0%, 1.0); stroke-linecap: butt; stroke-linejoin: miter;  fill: none;" r="158.0"></circle></g><circle transform="matrix(1.0,0.0,0.0,-1.0,-350.0,0.0)" style="stroke-width: 10.0px; stroke: hsla(540.0, 50.0%, 50.0%, 1.0); stroke-linecap: butt; stroke-linejoin: miter;  fill: none;" r="170.0"></circle></g><g><g><g><g><g><g><g><g><g><g><g><g></g><path transform="matrix(1.0,0.0,0.0,-1.0,0.0,0.0)" style="stroke-width: 10.0px; stroke: hsla(240.0, 100.0%, 50.0%, 0.050000000000000044); stroke-linecap: butt; stroke-linejoin: miter;  fill: none;" d="M -62,-62 L 0,62 L 62,-62 Z"></path></g><path transform="matrix(1.0,0.0,0.0,-1.0,0.0,0.0)" style="stroke-width: 10.0px; stroke: hsla(240.0, 100.0%, 50.0%, 0.09999999999999998); stroke-linecap: butt; stroke-linejoin: miter;  fill: none;" d="M -74,-74 L 0,74 L 74,-74 Z"></path></g><path transform="matrix(1.0,0.0,0.0,-1.0,0.0,0.0)" style="stroke-width: 10.0px; stroke: hsla(240.0, 100.0%, 50.0%, 0.15000000000000002); stroke-linecap: butt; stroke-linejoin: miter;  fill: none;" d="M -86,-86 L 0,86 L 86,-86 Z"></path></g><path transform="matrix(1.0,0.0,0.0,-1.0,0.0,0.0)" style="stroke-width: 10.0px; stroke: hsla(240.0, 100.0%, 50.0%, 0.19999999999999996); stroke-linecap: butt; stroke-linejoin: miter;  fill: none;" d="M -98,-98 L 0,98 L 98,-98 Z"></path></g><path transform="matrix(1.0,0.0,0.0,-1.0,0.0,0.0)" style="stroke-width: 10.0px; stroke: hsla(240.0, 100.0%, 50.0%, 0.25); stroke-linecap: butt; stroke-linejoin: miter;  fill: none;" d="M -110,-110 L 0,110 L 110,-110 Z"></path></g><path transform="matrix(1.0,0.0,0.0,-1.0,0.0,0.0)" style="stroke-width: 10.0px; stroke: hsla(240.0, 100.0%, 50.0%, 0.30000000000000004); stroke-linecap: butt; stroke-linejoin: miter;  fill: none;" d="M -122,-122 L 0,122 L 122,-122 Z"></path></g><path transform="matrix(1.0,0.0,0.0,-1.0,0.0,0.0)" style="stroke-width: 10.0px; stroke: hsla(240.0, 100.0%, 50.0%, 0.35); stroke-linecap: butt; stroke-linejoin: miter;  fill: none;" d="M -134,-134 L 0,134 L 134,-134 Z"></path></g><path transform="matrix(1.0,0.0,0.0,-1.0,0.0,0.0)" style="stroke-width: 10.0px; stroke: hsla(240.0, 100.0%, 50.0%, 0.4); stroke-linecap: butt; stroke-linejoin: miter;  fill: none;" d="M -146,-146 L 0,146 L 146,-146 Z"></path></g><path transform="matrix(1.0,0.0,0.0,-1.0,0.0,0.0)" style="stroke-width: 10.0px; stroke: hsla(240.0, 100.0%, 50.0%, 0.44999999999999996); stroke-linecap: butt; stroke-linejoin: miter;  fill: none;" d="M -158,-158 L 0,158 L 158,-158 Z"></path></g><path transform="matrix(1.0,0.0,0.0,-1.0,0.0,0.0)" style="stroke-width: 10.0px; stroke: hsla(240.0, 100.0%, 50.0%, 0.5); stroke-linecap: butt; stroke-linejoin: miter;  fill: none;" d="M -170,-170 L 0,170 L 170,-170 Z"></path></g><g><g><g><g><g><g><g><g><g><g><g></g><rect transform="matrix(1.0,0.0,0.0,-1.0,350.0,0.0)" style="stroke-width: 10.0px; stroke: hsla(270.0, 50.0%, 50.0%, 1.0); stroke-linecap: butt; stroke-linejoin: miter;  fill: none;" x="-62.0" y="-62.0" width="124.0" height="124.0"></rect></g><rect transform="matrix(1.0,0.0,0.0,-1.0,350.0,0.0)" style="stroke-width: 10.0px; stroke: hsla(300.0, 50.0%, 50.0%, 1.0); stroke-linecap: butt; stroke-linejoin: miter;  fill: none;" x="-74.0" y="-74.0" width="148.0" height="148.0"></rect></g><rect transform="matrix(1.0,0.0,0.0,-1.0,350.0,0.0)" style="stroke-width: 10.0px; stroke: hsla(330.0, 50.0%, 50.0%, 1.0); stroke-linecap: butt; stroke-linejoin: miter;  fill: none;" x="-86.0" y="-86.0" width="172.0" height="172.0"></rect></g><rect transform="matrix(1.0,0.0,0.0,-1.0,350.0,0.0)" style="stroke-width: 10.0px; stroke: hsla(360.0, 50.0%, 50.0%, 1.0); stroke-linecap: butt; stroke-linejoin: miter;  fill: none;" x="-98.0" y="-98.0" width="196.0" height="196.0"></rect></g><rect transform="matrix(1.0,0.0,0.0,-1.0,350.0,0.0)" style="stroke-width: 10.0px; stroke: hsla(390.0, 50.0%, 50.0%, 1.0); stroke-linecap: butt; stroke-linejoin: miter;  fill: none;" x="-110.0" y="-110.0" width="220.0" height="220.0"></rect></g><rect transform="matrix(1.0,0.0,0.0,-1.0,350.0,0.0)" style="stroke-width: 10.0px; stroke: hsla(419.99999999999994, 50.0%, 50.0%, 1.0); stroke-linecap: butt; stroke-linejoin: miter;  fill: none;" x="-122.0" y="-122.0" width="244.0" height="244.0"></rect></g><rect transform="matrix(1.0,0.0,0.0,-1.0,350.0,0.0)" style="stroke-width: 10.0px; stroke: hsla(450.0, 50.0%, 50.0%, 1.0); stroke-linecap: butt; stroke-linejoin: miter;  fill: none;" x="-134.0" y="-134.0" width="268.0" height="268.0"></rect></g><rect transform="matrix(1.0,0.0,0.0,-1.0,350.0,0.0)" style="stroke-width: 10.0px; stroke: hsla(480.0, 50.0%, 50.0%, 1.0); stroke-linecap: butt; stroke-linejoin: miter;  fill: none;" x="-146.0" y="-146.0" width="292.0" height="292.0"></rect></g><rect transform="matrix(1.0,0.0,0.0,-1.0,350.0,0.0)" style="stroke-width: 10.0px; stroke: hsla(510.0, 50.0%, 50.0%, 1.0); stroke-linecap: butt; stroke-linejoin: miter;  fill: none;" x="-158.0" y="-158.0" width="316.0" height="316.0"></rect></g><rect transform="matrix(1.0,0.0,0.0,-1.0,350.0,0.0)" style="stroke-width: 10.0px; stroke: hsla(540.0, 50.0%, 50.0%, 1.0); stroke-linecap: butt; stroke-linejoin: miter;  fill: none;" x="-170.0" y="-170.0" width="340.0" height="340.0"></rect></g></g></g></g></svg>