<svg width="163.0" height="223.0" viewBox="-81.5 -111.5 163.0 223.0" style=""><g><defs></defs><g><g><g><g><g><circle transform="matrix(1.0,0.0,0.0,-1.0,-41.0,-61.0)" style="stroke-width: 1.0px; stroke: hsla(0.0, 0.0%, 0.0%, 1.0); stroke-linecap: butt; stroke-linejoin: miter;  fill: none;" r="20.0"></circle><circle transform="matrix(1.0,0.0,0.0,-1.0,0.0,-71.0)" style="stroke-width: 1.0px; stroke: hsla(0.0, 0.0%, 0.0%, 1.0); stroke-linecap: butt; stroke-linejoin: miter;  fill: none;" r="20.0"></circle></g><circle transform="matrix(1.0,0.0,0.0,-1.0,41.0,-51.0)" style="stroke-width: 1.0px; stroke: hsla(0.0, 0.0%, 0.0%, 1.0); stroke-linecap: butt; stroke-linejoin: miter;  fill: none;" r="20.0"></circle></g><g><rect transform="matrix(1.0,0.0,0.0,-1.0,0.0,-61.0)" style="stroke-width: 1.0px; stroke: hsla(-11.999999999999996, 83.33333333333334%, 47.05882352941176%, 1.0); stroke-linecap: butt; stroke-linejoin: miter;  fill: none;" x="-61.5" y="-30.5" width="123.0" height="61.0"></rect><circle transform="matrix(1.0,0.0,0.0,-1.0,0.0,-61.0)" style="stroke-width: 1.0px; stroke: hsla(-11.999999999999996, 83.33333333333334%, 47.05882352941176%, 1.0); stroke-linecap: butt; stroke-linejoin: miter;  fill: none;" r="2.5"></circle></g></g><g><g><g><circle transform="matrix(1.0,0.0,0.0,-1.0,-41.0,0.0)" style="stroke-width: 1.0px; stroke: hsla(0.0, 0.0%, 0.0%, 1.0); stroke-linecap: butt; stroke-linejoin: miter;  fill: none;" r="20.0"></circle><g><rect transform="matrix(1.0,0.0,0.0,-1.0,-41.0,0.0)" style="stroke-width: 1.0px; stroke: hsla(-11.999999999999996, 83.33333333333334%, 47.05882352941176%, 1.0); stroke-linecap: butt; stroke-linejoin: miter;  fill: none;" x="-20.5" y="-20.5" width="41.0" height="41.0"></rect><circle transform="matrix(1.0,0.0,0.0,-1.0,-41.0,0.0)" style="stroke-width: 1.0px; stroke: hsla(-11.999999999999996, 83.33333333333334%, 47.05882352941176%, 1.0); stroke-linecap: butt; stroke-linejoin: miter;  fill: none;" r="2.5"></circle></g></g><g><circle transform="matrix(1.0,0.0,0.0,-1.0,0.0,-10.0)" style="stroke-width: 1.0px; stroke: hsla(0.0, 0.0%, 0.0%, 1.0); stroke-linecap: butt; stroke-linejoin: miter;  fill: none;" r="20.0"></circle><g><rect transform="matrix(1.0,0.0,0.0,-1.0,0.0,-10.0)" style="stroke-width: 1.0px; stroke: hsla(-11.999999999999996, 83.33333333333334%, 47.05882352941176%, 1.0); stroke-linecap: butt; stroke-linejoin: miter;  fill: none;" x="-20.5" y="-20.5" width="41.0" height="41.0"></rect><circle transform="matrix(1.0,0.0,0.0,-1.0,-10.0,0.0)" style="stroke-width: 1.0px; stroke: hsla(-11.999999999999996, 83.33333333333334%, 47.05882352941176%, 1.0); stroke-linecap: butt; stroke-linejoin: miter;  fill: none;" r="2.5"></circle></g></g></g><g><circle transform="matrix(1.0,0.0,0.0,-1.0,41.0,10.0)" style="stroke-width: 1.0px; stroke: hsla(0.0, 0.0%, 0.0%, 1.0); stroke-linecap: butt; stroke-linejoin: miter;  fill: none;" r="20.0"></circle><g><rect transform="matrix(1.0,0.0,0.0,-1.0,41.0,10.0)" style="stroke-width: 1.0px; stroke: hsla(-11.999999999999996, 83.33333333333334%, 47.05882352941176%, 1.0); stroke-linecap: butt; stroke-linejoin: miter;  fill: none;" x="-20.5" y="-20.5" width="41.0" height="41.0"></rect><circle transform="matrix(1.0,0.0,0.0,-1.0,31.0,0.0)" style="stroke-width: 1.0px; stroke: hsla(-11.999999999999996, 83.33333333333334%, 47.05882352941176%, 1.0); stroke-linecap: butt; stroke-linejoin: miter;  fill: none;" r="2.5"></circle></g></g></g></g><g><g><g><circle transform="matrix(1.0,0.0,0.0,-1.0,-41.0,61.0)" style="stroke-width: 1.0px; stroke: hsla(0.0, 0.0%, 0.0%, 1.0); stroke-linecap: butt; stroke-linejoin: miter;  fill: none;" r="20.0"></circle><g><rect transform="matrix(1.0,0.0,0.0,-1.0,-41.0,61.0)" style="stroke-width: 1.0px; stroke: hsla(-11.999999999999996, 83.33333333333334%, 47.05882352941176%, 1.0); stroke-linecap: butt; stroke-linejoin: miter;  fill: none;" x="-20.5" y="-20.5" width="41.0" height="41.0"></rect><circle transform="matrix(1.0,0.0,0.0,-1.0,-41.0,61.0)" style="stroke-width: 1.0px; stroke: hsla(-11.999999999999996, 83.33333333333334%, 47.05882352941176%, 1.0); stroke-linecap: butt; stroke-linejoin: miter;  fill: none;" r="2.5"></circle></g></g><g><circle transform="matrix(1.0,0.0,0.0,-1.0,0.0,51.0)" style="stroke-width: 1.0px; stroke: hsla(0.0, 0.0%, 0.0%, 1.0); stroke-linecap: butt; stroke-linejoin: miter;  fill: none;" r="20.0"></circle><g><rect transform="matrix(1.0,0.0,0.0,-1.0,0.0,51.0)" style="stroke-width: 1.0px; stroke: hsla(-11.999999999999996, 83.33333333333334%, 47.05882352941176%, 1.0); stroke-linecap: butt; stroke-linejoin: miter;  fill: none;" x="-20.5" y="-20.5" width="41.0" height="41.0"></rect><circle transform="matrix(1.0,0.0,0.0,-1.0,0.0,51.0)" style="stroke-width: 1.0px; stroke: hsla(-11.999999999999996, 83.33333333333334%, 47.05882352941176%, 1.0); stroke-linecap: butt; stroke-linejoin: miter;  fill: none;" r="2.5"></circle></g></g></g><g><circle transform="matrix(1.0,0.0,0.0,-1.0,41.0,71.0)" style="stroke-width: 1.0px; stroke: hsla(0.0, 0.0%, 0.0%, 1.0); stroke-linecap: butt; stroke-linejoin: miter;  fill: none;" r="20.0"></circle><g><rect transform="matrix(1.0,0.0,0.0,-1.0,41.0,71.0)" style="stroke-width: 1.0px; stroke: hsla(-11.999999999999996, 83.33333333333334%, 47.05882352941176%, 1.0); stroke-linecap: butt; stroke-linejoin: miter;  fill: none;" x="-20.5" y="-20.5" width="41.0" height="41.0"></rect><circle transform="matrix(1.0,0.0,0.0,-1.0,41.0,71.0)" style="stroke-width: 1.0px; stroke: hsla(-11.999999999999996, 83.33333333333334%, 47.05882352941176%, 1.0); stroke-linecap: butt; stroke-linejoin: miter;  fill: none;" r="2.5"></circle></g></g></g></g></g></svg>