<?xml version="1.0" encoding="UTF-8" standalone="no"?>
<!DOCTYPE svg PUBLIC "-//W3C//DTD SVG 1.1//EN" "http://www.w3.org/Graphics/SVG/1.1/DTD/svg11.dtd">
<svg xmlns:xlink="http://www.w3.org/1999/xlink" height="75.14166666666667mm" version="1.1" viewBox="0 0 719 213" width="253.64722222222218mm" x="0mm" y="0mm" xmlns="http://www.w3.org/2000/svg">
  <g transform="matrix(1 0 0 -1 359.5 106.5)">
    <path d="M-153.0,5.0 C-150.24042487753,5.0 -148.0,2.75957512247 -148.0,0.0 C-148.0,-2.75957512247 -150.24042487753,-5.0 -153.0,-5.0 C-155.75957512247,-5.0 -158.0,-2.75957512247 -158.0,0.0 C-158.0,2.75957512247 -155.75957512247,5.0 -153.0,5.0 Z" style="fill:none;stroke:rgb(220,20,60);stroke-width:3;stroke-miterlimit:10;"/>
    <path d="M-153.0,5.0 C-150.24042487753,5.0 -148.0,2.75957512247 -148.0,0.0 C-148.0,-2.75957512247 -150.24042487753,-5.0 -153.0,-5.0 C-155.75957512247,-5.0 -158.0,-2.75957512247 -158.0,0.0 C-158.0,2.75957512247 -155.75957512247,5.0 -153.0,5.0 Z" style="fill:rgb(172,73,68);stroke:none;"/>
    <path d="M-253.0,105.0 C-250.24042487753,105.0 -248.0,102.75957512247 -248.0,100.0 C-248.0,97.24042487753 -250.24042487753,95.0 -253.0,95.0 C-255.75957512247,95.0 -258.0,97.24042487753 -258.0,100.0 C-258.0,102.75957512247 -255.75957512247,105.0 -253.0,105.0 Z" style="fill:none;stroke:rgb(220,20,60);stroke-width:3;stroke-miterlimit:10;"/>
    <path d="M-253.0,105.0 C-250.24042487753,105.0 -248.0,102.75957512247 -248.0,100.0 C-248.0,97.24042487753 -250.24042487753,95.0 -253.0,95.0 C-255.75957512247,95.0 -258.0,97.24042487753 -258.0,100.0 C-258.0,102.75957512247 -255.75957512247,105.0 -253.0,105.0 Z" style="fill:rgb(172,73,68);stroke:none;"/>
    <path d="M-353.0,5.000000000000012 C-350.24042487753,5.000000000000012 -348.0,2.7595751224700122 -348.0,1.2246467991473532E-14 C-348.0,-2.7595751224699874 -350.24042487753,-4.999999999999988 -353.0,-4.999999999999988 C-355.75957512247,-4.999999999999988 -358.0,-2.7595751224699874 -358.0,1.2246467991473532E-14 C-358.0,2.7595751224700122 -355.75957512247,5.000000000000012 -353.0,5.000000000000012 Z" style="fill:none;stroke:rgb(220,20,60);stroke-width:3;stroke-miterlimit:10;"/>
    <path d="M-353.0,5.000000000000012 C-350.24042487753,5.000000000000012 -348.0,2.7595751224700122 -348.0,1.2246467991473532E-14 C-348.0,-2.7595751224699874 -350.24042487753,-4.999999999999988 -353.0,-4.999999999999988 C-355.75957512247,-4.999999999999988 -358.0,-2.7595751224699874 -358.0,1.2246467991473532E-14 C-358.0,2.7595751224700122 -355.75957512247,5.000000000000012 -353.0,5.000000000000012 Z" style="fill:rgb(172,73,68);stroke:none;"/>
    <path d="M-253.00000000000003,-95.0 C-250.24042487753002,-95.0 -248.00000000000003,-97.24042487753 -248.00000000000003,-100.0 C-248.00000000000003,-102.75957512247 -250.24042487753002,-105.0 -253.00000000000003,-105.0 C-255.75957512247004,-105.0 -258.0,-102.75957512247 -258.0,-100.0 C-258.0,-97.24042487753 -255.75957512247004,-95.0 -253.00000000000003,-95.0 Z" style="fill:none;stroke:rgb(220,20,60);stroke-width:3;stroke-miterlimit:10;"/>
    <path d="M-253.00000000000003,-95.0 C-250.24042487753002,-95.0 -248.00000000000003,-97.24042487753 -248.00000000000003,-100.0 C-248.00000000000003,-102.75957512247 -250.24042487753002,-105.0 -253.00000000000003,-105.0 C-255.75957512247004,-105.0 -258.0,-102.75957512247 -258.0,-100.0 C-258.0,-97.24042487753 -255.75957512247004,-95.0 -253.00000000000003,-95.0 Z" style="fill:rgb(172,73,68);stroke:none;"/>
    <path d="M-153.0,4.999999999999975 C-150.24042487753,4.999999999999975 -148.0,2.7595751224699754 -148.0,-2.4492935982947064E-14 C-148.0,-2.7595751224700242 -150.24042487753,-5.000000000000025 -153.0,-5.000000000000025 C-155.75957512247,-5.000000000000025 -158.0,-2.7595751224700242 -158.0,-2.4492935982947064E-14 C-158.0,2.7595751224699754 -155.75957512247,4.999999999999975 -153.0,4.999999999999975 Z" style="fill:none;stroke:rgb(220,20,60);stroke-width:3;stroke-miterlimit:10;"/>
    <path d="M-153.0,4.999999999999975 C-150.24042487753,4.999999999999975 -148.0,2.7595751224699754 -148.0,-2.4492935982947064E-14 C-148.0,-2.7595751224700242 -150.24042487753,-5.000000000000025 -153.0,-5.000000000000025 C-155.75957512247,-5.000000000000025 -158.0,-2.7595751224700242 -158.0,-2.4492935982947064E-14 C-158.0,2.7595751224699754 -155.75957512247,4.999999999999975 -153.0,4.999999999999975 Z" style="fill:rgb(172,73,68);stroke:none;"/>
    <path d="M100.0,5.0 C102.75957512247,5.0 105.0,2.75957512247 105.0,0.0 C105.0,-2.75957512247 102.75957512247,-5.0 100.0,-5.0 C97.24042487753,-5.0 95.0,-2.75957512247 95.0,0.0 C95.0,2.75957512247 97.24042487753,5.0 100.0,5.0 Z" style="fill:none;stroke:rgb(220,20,60);stroke-width:3;stroke-miterlimit:10;"/>
    <path d="M100.0,5.0 C102.75957512247,5.0 105.0,2.75957512247 105.0,0.0 C105.0,-2.75957512247 102.75957512247,-5.0 100.0,-5.0 C97.24042487753,-5.0 95.0,-2.75957512247 95.0,0.0 C95.0,2.75957512247 97.24042487753,5.0 100.0,5.0 Z" style="fill:rgb(172,73,68);stroke:none;"/>
    <path d="M70.71067811865476,75.71067811865474 C73.47025324112475,75.71067811865474 75.71067811865476,73.47025324112474 75.71067811865476,70.71067811865474 C75.71067811865476,67.95110299618474 73.47025324112475,65.71067811865474 70.71067811865476,65.71067811865474 C67.95110299618476,65.71067811865474 65.71067811865476,67.95110299618474 65.71067811865476,70.71067811865474 C65.71067811865476,73.47025324112474 67.95110299618476,75.71067811865474 70.71067811865476,75.71067811865474 Z" style="fill:none;stroke:rgb(220,20,60);stroke-width:3;stroke-miterlimit:10;"/>
    <path d="M70.71067811865476,75.71067811865474 C73.47025324112475,75.71067811865474 75.71067811865476,73.47025324112474 75.71067811865476,70.71067811865474 C75.71067811865476,67.95110299618474 73.47025324112475,65.71067811865474 70.71067811865476,65.71067811865474 C67.95110299618476,65.71067811865474 65.71067811865476,67.95110299618474 65.71067811865476,70.71067811865474 C65.71067811865476,73.47025324112474 67.95110299618476,75.71067811865474 70.71067811865476,75.71067811865474 Z" style="fill:rgb(172,73,68);stroke:none;"/>
    <path d="M6.123233995736766E-15,105.0 C2.759575122470006,105.0 5.000000000000006,102.75957512247 5.000000000000006,100.0 C5.000000000000006,97.24042487753 2.759575122470006,95.0 6.123233995736766E-15,95.0 C-2.7595751224699936,95.0 -4.999999999999994,97.24042487753 -4.999999999999994,100.0 C-4.999999999999994,102.75957512247 -2.7595751224699936,105.0 6.123233995736766E-15,105.0 Z" style="fill:none;stroke:rgb(220,20,60);stroke-width:3;stroke-miterlimit:10;"/>
    <path d="M6.123233995736766E-15,105.0 C2.759575122470006,105.0 5.000000000000006,102.75957512247 5.000000000000006,100.0 C5.000000000000006,97.24042487753 2.759575122470006,95.0 6.123233995736766E-15,95.0 C-2.7595751224699936,95.0 -4.999999999999994,97.24042487753 -4.999999999999994,100.0 C-4.999999999999994,102.75957512247 -2.7595751224699936,105.0 6.123233995736766E-15,105.0 Z" style="fill:rgb(172,73,68);stroke:none;"/>
    <path d="M-70.71067811865474,75.71067811865476 C-67.95110299618474,75.71067811865476 -65.71067811865474,73.47025324112475 -65.71067811865474,70.71067811865476 C-65.71067811865474,67.95110299618476 -67.95110299618474,65.71067811865476 -70.71067811865474,65.71067811865476 C-73.47025324112474,65.71067811865476 -75.71067811865474,67.95110299618476 -75.71067811865474,70.71067811865476 C-75.71067811865474,73.47025324112475 -73.47025324112474,75.71067811865476 -70.71067811865474,75.71067811865476 Z" style="fill:none;stroke:rgb(220,20,60);stroke-width:3;stroke-miterlimit:10;"/>
    <path d="M-70.71067811865474,75.71067811865476 C-67.95110299618474,75.71067811865476 -65.71067811865474,73.47025324112475 -65.71067811865474,70.71067811865476 C-65.71067811865474,67.95110299618476 -67.95110299618474,65.71067811865476 -70.71067811865474,65.71067811865476 C-73.47025324112474,65.71067811865476 -75.71067811865474,67.95110299618476 -75.71067811865474,70.71067811865476 C-75.71067811865474,73.47025324112475 -73.47025324112474,75.71067811865476 -70.71067811865474,75.71067811865476 Z" style="fill:rgb(172,73,68);stroke:none;"/>
    <path d="M-100.0,5.000000000000012 C-97.24042487753,5.000000000000012 -95.0,2.7595751224700122 -95.0,1.2246467991473532E-14 C-95.0,-2.7595751224699874 -97.24042487753,-4.999999999999988 -100.0,-4.999999999999988 C-102.75957512247,-4.999999999999988 -105.0,-2.7595751224699874 -105.0,1.2246467991473532E-14 C-105.0,2.7595751224700122 -102.75957512247,5.000000000000012 -100.0,5.000000000000012 Z" style="fill:none;stroke:rgb(220,20,60);stroke-width:3;stroke-miterlimit:10;"/>
    <path d="M-100.0,5.000000000000012 C-97.24042487753,5.000000000000012 -95.0,2.7595751224700122 -95.0,1.2246467991473532E-14 C-95.0,-2.7595751224699874 -97.24042487753,-4.999999999999988 -100.0,-4.999999999999988 C-102.75957512247,-4.999999999999988 -105.0,-2.7595751224699874 -105.0,1.2246467991473532E-14 C-105.0,2.7595751224700122 -102.75957512247,5.000000000000012 -100.0,5.000000000000012 Z" style="fill:rgb(172,73,68);stroke:none;"/>
    <path d="M-70.71067811865477,-65.71067811865474 C-67.95110299618477,-65.71067811865474 -65.71067811865477,-67.95110299618474 -65.71067811865477,-70.71067811865474 C-65.71067811865477,-73.47025324112474 -67.95110299618477,-75.71067811865474 -70.71067811865477,-75.71067811865474 C-73.47025324112477,-75.71067811865474 -75.71067811865477,-73.47025324112474 -75.71067811865477,-70.71067811865474 C-75.71067811865477,-67.95110299618474 -73.47025324112477,-65.71067811865474 -70.71067811865477,-65.71067811865474 Z" style="fill:none;stroke:rgb(220,20,60);stroke-width:3;stroke-miterlimit:10;"/>
    <path d="M-70.71067811865477,-65.71067811865474 C-67.95110299618477,-65.71067811865474 -65.71067811865477,-67.95110299618474 -65.71067811865477,-70.71067811865474 C-65.71067811865477,-73.47025324112474 -67.95110299618477,-75.71067811865474 -70.71067811865477,-75.71067811865474 C-73.47025324112477,-75.71067811865474 -75.71067811865477,-73.47025324112474 -75.71067811865477,-70.71067811865474 C-75.71067811865477,-67.95110299618474 -73.47025324112477,-65.71067811865474 -70.71067811865477,-65.71067811865474 Z" style="fill:rgb(172,73,68);stroke:none;"/>
    <path d="M-1.8369701987210297E-14,-95.0 C2.7595751224699816,-95.0 4.999999999999981,-97.24042487753 4.999999999999981,-100.0 C4.999999999999981,-102.75957512247 2.7595751224699816,-105.0 -1.8369701987210297E-14,-105.0 C-2.759575122470018,-105.0 -5.000000000000019,-102.75957512247 -5.000000000000019,-100.0 C-5.000000000000019,-97.24042487753 -2.759575122470018,-95.0 -1.8369701987210297E-14,-95.0 Z" style="fill:none;stroke:rgb(220,20,60);stroke-width:3;stroke-miterlimit:10;"/>
    <path d="M-1.8369701987210297E-14,-95.0 C2.7595751224699816,-95.0 4.999999999999981,-97.24042487753 4.999999999999981,-100.0 C4.999999999999981,-102.75957512247 2.7595751224699816,-105.0 -1.8369701987210297E-14,-105.0 C-2.759575122470018,-105.0 -5.000000000000019,-102.75957512247 -5.000000000000019,-100.0 C-5.000000000000019,-97.24042487753 -2.759575122470018,-95.0 -1.8369701987210297E-14,-95.0 Z" style="fill:rgb(172,73,68);stroke:none;"/>
    <path d="M70.71067811865474,-65.71067811865477 C73.47025324112474,-65.71067811865477 75.71067811865474,-67.95110299618477 75.71067811865474,-70.71067811865477 C75.71067811865474,-73.47025324112477 73.47025324112474,-75.71067811865477 70.71067811865474,-75.71067811865477 C67.95110299618474,-75.71067811865477 65.71067811865474,-73.47025324112477 65.71067811865474,-70.71067811865477 C65.71067811865474,-67.95110299618477 67.95110299618474,-65.71067811865477 70.71067811865474,-65.71067811865477 Z" style="fill:none;stroke:rgb(220,20,60);stroke-width:3;stroke-miterlimit:10;"/>
    <path d="M70.71067811865474,-65.71067811865477 C73.47025324112474,-65.71067811865477 75.71067811865474,-67.95110299618477 75.71067811865474,-70.71067811865477 C75.71067811865474,-73.47025324112477 73.47025324112474,-75.71067811865477 70.71067811865474,-75.71067811865477 C67.95110299618474,-75.71067811865477 65.71067811865474,-73.47025324112477 65.71067811865474,-70.71067811865477 C65.71067811865474,-67.95110299618477 67.95110299618474,-65.71067811865477 70.71067811865474,-65.71067811865477 Z" style="fill:rgb(172,73,68);stroke:none;"/>
    <path d="M100.0,4.999999999999975 C102.75957512247,4.999999999999975 105.0,2.7595751224699754 105.0,-2.4492935982947064E-14 C105.0,-2.7595751224700242 102.75957512247,-5.000000000000025 100.0,-5.000000000000025 C97.24042487753,-5.000000000000025 95.0,-2.7595751224700242 95.0,-2.4492935982947064E-14 C95.0,2.7595751224699754 97.24042487753,4.999999999999975 100.0,4.999999999999975 Z" style="fill:none;stroke:rgb(220,20,60);stroke-width:3;stroke-miterlimit:10;"/>
    <path d="M100.0,4.999999999999975 C102.75957512247,4.999999999999975 105.0,2.7595751224699754 105.0,-2.4492935982947064E-14 C105.0,-2.7595751224700242 102.75957512247,-5.000000000000025 100.0,-5.000000000000025 C97.24042487753,-5.000000000000025 95.0,-2.7595751224700242 95.0,-2.4492935982947064E-14 C95.0,2.7595751224699754 97.24042487753,4.999999999999975 100.0,4.999999999999975 Z" style="fill:rgb(172,73,68);stroke:none;"/>
    <path d="M353.0,5.0 C355.75957512247,5.0 358.0,2.75957512247 358.0,0.0 C358.0,-2.75957512247 355.75957512247,-5.0 353.0,-5.0 C350.24042487753,-5.0 348.0,-2.75957512247 348.0,0.0 C348.0,2.75957512247 350.24042487753,5.0 353.0,5.0 Z" style="fill:none;stroke:rgb(220,20,60);stroke-width:3;stroke-miterlimit:10;"/>
    <path d="M353.0,5.0 C355.75957512247,5.0 358.0,2.75957512247 358.0,0.0 C358.0,-2.75957512247 355.75957512247,-5.0 353.0,-5.0 C350.24042487753,-5.0 348.0,-2.75957512247 348.0,0.0 C348.0,2.75957512247 350.24042487753,5.0 353.0,5.0 Z" style="fill:rgb(172,73,68);stroke:none;"/>
    <path d="M345.3879532511287,43.268343236508976 C348.1475283735987,43.268343236508976 350.3879532511287,41.02791835897897 350.3879532511287,38.268343236508976 C350.3879532511287,35.50876811403898 348.1475283735987,33.268343236508976 345.3879532511287,33.268343236508976 C342.6283781286587,33.268343236508976 340.3879532511287,35.50876811403898 340.3879532511287,38.268343236508976 C340.3879532511287,41.02791835897897 342.6283781286587,43.268343236508976 345.3879532511287,43.268343236508976 Z" style="fill:none;stroke:rgb(220,20,60);stroke-width:3;stroke-miterlimit:10;"/>
    <path d="M345.3879532511287,43.268343236508976 C348.1475283735987,43.268343236508976 350.3879532511287,41.02791835897897 350.3879532511287,38.268343236508976 C350.3879532511287,35.50876811403898 348.1475283735987,33.268343236508976 345.3879532511287,33.268343236508976 C342.6283781286587,33.268343236508976 340.3879532511287,35.50876811403898 340.3879532511287,38.268343236508976 C340.3879532511287,41.02791835897897 342.6283781286587,43.268343236508976 345.3879532511287,43.268343236508976 Z" style="fill:rgb(172,73,68);stroke:none;"/>
    <path d="M323.71067811865476,75.71067811865474 C326.47025324112474,75.71067811865474 328.71067811865476,73.47025324112474 328.71067811865476,70.71067811865474 C328.71067811865476,67.95110299618474 326.47025324112474,65.71067811865474 323.71067811865476,65.71067811865474 C320.9511029961848,65.71067811865474 318.71067811865476,67.95110299618474 318.71067811865476,70.71067811865474 C318.71067811865476,73.47025324112474 320.9511029961848,75.71067811865474 323.71067811865476,75.71067811865474 Z" style="fill:none;stroke:rgb(220,20,60);stroke-width:3;stroke-miterlimit:10;"/>
    <path d="M323.71067811865476,75.71067811865474 C326.47025324112474,75.71067811865474 328.71067811865476,73.47025324112474 328.71067811865476,70.71067811865474 C328.71067811865476,67.95110299618474 326.47025324112474,65.71067811865474 323.71067811865476,65.71067811865474 C320.9511029961848,65.71067811865474 318.71067811865476,67.95110299618474 318.71067811865476,70.71067811865474 C318.71067811865476,73.47025324112474 320.9511029961848,75.71067811865474 323.71067811865476,75.71067811865474 Z" style="fill:rgb(172,73,68);stroke:none;"/>
    <path d="M291.268343236509,97.38795325112868 C294.027918358979,97.38795325112868 296.268343236509,95.14752837359867 296.268343236509,92.38795325112868 C296.268343236509,89.62837812865868 294.027918358979,87.38795325112868 291.268343236509,87.38795325112868 C288.508768114039,87.38795325112868 286.268343236509,89.62837812865868 286.268343236509,92.38795325112868 C286.268343236509,95.14752837359867 288.508768114039,97.38795325112868 291.268343236509,97.38795325112868 Z" style="fill:none;stroke:rgb(220,20,60);stroke-width:3;stroke-miterlimit:10;"/>
    <path d="M291.268343236509,97.38795325112868 C294.027918358979,97.38795325112868 296.268343236509,95.14752837359867 296.268343236509,92.38795325112868 C296.268343236509,89.62837812865868 294.027918358979,87.38795325112868 291.268343236509,87.38795325112868 C288.508768114039,87.38795325112868 286.268343236509,89.62837812865868 286.268343236509,92.38795325112868 C286.268343236509,95.14752837359867 288.508768114039,97.38795325112868 291.268343236509,97.38795325112868 Z" style="fill:rgb(172,73,68);stroke:none;"/>
    <path d="M253.0,105.0 C255.75957512247,105.0 258.0,102.75957512247 258.0,100.0 C258.0,97.24042487753 255.75957512247,95.0 253.0,95.0 C250.24042487753,95.0 248.0,97.24042487753 248.0,100.0 C248.0,102.75957512247 250.24042487753,105.0 253.0,105.0 Z" style="fill:none;stroke:rgb(220,20,60);stroke-width:3;stroke-miterlimit:10;"/>
    <path d="M253.0,105.0 C255.75957512247,105.0 258.0,102.75957512247 258.0,100.0 C258.0,97.24042487753 255.75957512247,95.0 253.0,95.0 C250.24042487753,95.0 248.0,97.24042487753 248.0,100.0 C248.0,102.75957512247 250.24042487753,105.0 253.0,105.0 Z" style="fill:rgb(172,73,68);stroke:none;"/>
    <path d="M214.73165676349103,97.38795325112868 C217.49123188596104,97.38795325112868 219.73165676349103,95.14752837359867 219.73165676349103,92.38795325112868 C219.73165676349103,89.62837812865868 217.49123188596104,87.38795325112868 214.73165676349103,87.38795325112868 C211.97208164102102,87.38795325112868 209.73165676349103,89.62837812865868 209.73165676349103,92.38795325112868 C209.73165676349103,95.14752837359867 211.97208164102102,97.38795325112868 214.73165676349103,97.38795325112868 Z" style="fill:none;stroke:rgb(220,20,60);stroke-width:3;stroke-miterlimit:10;"/>
    <path d="M214.73165676349103,97.38795325112868 C217.49123188596104,97.38795325112868 219.73165676349103,95.14752837359867 219.73165676349103,92.38795325112868 C219.73165676349103,89.62837812865868 217.49123188596104,87.38795325112868 214.73165676349103,87.38795325112868 C211.97208164102102,87.38795325112868 209.73165676349103,89.62837812865868 209.73165676349103,92.38795325112868 C209.73165676349103,95.14752837359867 211.97208164102102,97.38795325112868 214.73165676349103,97.38795325112868 Z" style="fill:rgb(172,73,68);stroke:none;"/>
    <path d="M182.28932188134524,75.71067811865476 C185.04889700381526,75.71067811865476 187.28932188134524,73.47025324112475 187.28932188134524,70.71067811865476 C187.28932188134524,67.95110299618476 185.04889700381526,65.71067811865476 182.28932188134524,65.71067811865476 C179.52974675887523,65.71067811865476 177.28932188134524,67.95110299618476 177.28932188134524,70.71067811865476 C177.28932188134524,73.47025324112475 179.52974675887523,75.71067811865476 182.28932188134524,75.71067811865476 Z" style="fill:none;stroke:rgb(220,20,60);stroke-width:3;stroke-miterlimit:10;"/>
    <path d="M182.28932188134524,75.71067811865476 C185.04889700381526,75.71067811865476 187.28932188134524,73.47025324112475 187.28932188134524,70.71067811865476 C187.28932188134524,67.95110299618476 185.04889700381526,65.71067811865476 182.28932188134524,65.71067811865476 C179.52974675887523,65.71067811865476 177.28932188134524,67.95110299618476 177.28932188134524,70.71067811865476 C177.28932188134524,73.47025324112475 179.52974675887523,75.71067811865476 182.28932188134524,75.71067811865476 Z" style="fill:rgb(172,73,68);stroke:none;"/>
    <path d="M160.6120467488713,43.26834323650899 C163.37162187134132,43.26834323650899 165.6120467488713,41.02791835897899 165.6120467488713,38.26834323650899 C165.6120467488713,35.50876811403899 163.37162187134132,33.26834323650899 160.6120467488713,33.26834323650899 C157.8524716264013,33.26834323650899 155.6120467488713,35.50876811403899 155.6120467488713,38.26834323650899 C155.6120467488713,41.02791835897899 157.8524716264013,43.26834323650899 160.6120467488713,43.26834323650899 Z" style="fill:none;stroke:rgb(220,20,60);stroke-width:3;stroke-miterlimit:10;"/>
    <path d="M160.6120467488713,43.26834323650899 C163.37162187134132,43.26834323650899 165.6120467488713,41.02791835897899 165.6120467488713,38.26834323650899 C165.6120467488713,35.50876811403899 163.37162187134132,33.26834323650899 160.6120467488713,33.26834323650899 C157.8524716264013,33.26834323650899 155.6120467488713,35.50876811403899 155.6120467488713,38.26834323650899 C155.6120467488713,41.02791835897899 157.8524716264013,43.26834323650899 160.6120467488713,43.26834323650899 Z" style="fill:rgb(172,73,68);stroke:none;"/>
    <path d="M153.0,5.000000000000012 C155.75957512247,5.000000000000012 158.0,2.7595751224700122 158.0,1.2246467991473532E-14 C158.0,-2.7595751224699874 155.75957512247,-4.999999999999988 153.0,-4.999999999999988 C150.24042487753,-4.999999999999988 148.0,-2.7595751224699874 148.0,1.2246467991473532E-14 C148.0,2.7595751224700122 150.24042487753,5.000000000000012 153.0,5.000000000000012 Z" style="fill:none;stroke:rgb(220,20,60);stroke-width:3;stroke-miterlimit:10;"/>
    <path d="M153.0,5.000000000000012 C155.75957512247,5.000000000000012 158.0,2.7595751224700122 158.0,1.2246467991473532E-14 C158.0,-2.7595751224699874 155.75957512247,-4.999999999999988 153.0,-4.999999999999988 C150.24042487753,-4.999999999999988 148.0,-2.7595751224699874 148.0,1.2246467991473532E-14 C148.0,2.7595751224700122 150.24042487753,5.000000000000012 153.0,5.000000000000012 Z" style="fill:rgb(172,73,68);stroke:none;"/>
    <path d="M160.6120467488713,-33.26834323650897 C163.37162187134132,-33.26834323650897 165.6120467488713,-35.50876811403897 165.6120467488713,-38.26834323650897 C165.6120467488713,-41.027918358978965 163.37162187134132,-43.26834323650897 160.6120467488713,-43.26834323650897 C157.8524716264013,-43.26834323650897 155.6120467488713,-41.027918358978965 155.6120467488713,-38.26834323650897 C155.6120467488713,-35.50876811403897 157.8524716264013,-33.26834323650897 160.6120467488713,-33.26834323650897 Z" style="fill:none;stroke:rgb(220,20,60);stroke-width:3;stroke-miterlimit:10;"/>
    <path d="M160.6120467488713,-33.26834323650897 C163.37162187134132,-33.26834323650897 165.6120467488713,-35.50876811403897 165.6120467488713,-38.26834323650897 C165.6120467488713,-41.027918358978965 163.37162187134132,-43.26834323650897 160.6120467488713,-43.26834323650897 C157.8524716264013,-43.26834323650897 155.6120467488713,-41.027918358978965 155.6120467488713,-38.26834323650897 C155.6120467488713,-35.50876811403897 157.8524716264013,-33.26834323650897 160.6120467488713,-33.26834323650897 Z" style="fill:rgb(172,73,68);stroke:none;"/>
    <path d="M182.28932188134524,-65.71067811865474 C185.04889700381526,-65.71067811865474 187.28932188134524,-67.95110299618474 187.28932188134524,-70.71067811865474 C187.28932188134524,-73.47025324112474 185.04889700381526,-75.71067811865474 182.28932188134524,-75.71067811865474 C179.52974675887523,-75.71067811865474 177.28932188134524,-73.47025324112474 177.28932188134524,-70.71067811865474 C177.28932188134524,-67.95110299618474 179.52974675887523,-65.71067811865474 182.28932188134524,-65.71067811865474 Z" style="fill:none;stroke:rgb(220,20,60);stroke-width:3;stroke-miterlimit:10;"/>
    <path d="M182.28932188134524,-65.71067811865474 C185.04889700381526,-65.71067811865474 187.28932188134524,-67.95110299618474 187.28932188134524,-70.71067811865474 C187.28932188134524,-73.47025324112474 185.04889700381526,-75.71067811865474 182.28932188134524,-75.71067811865474 C179.52974675887523,-75.71067811865474 177.28932188134524,-73.47025324112474 177.28932188134524,-70.71067811865474 C177.28932188134524,-67.95110299618474 179.52974675887523,-65.71067811865474 182.28932188134524,-65.71067811865474 Z" style="fill:rgb(172,73,68);stroke:none;"/>
    <path d="M214.73165676349097,-87.38795325112865 C217.49123188596099,-87.38795325112865 219.73165676349097,-89.62837812865865 219.73165676349097,-92.38795325112865 C219.73165676349097,-95.14752837359865 217.49123188596099,-97.38795325112865 214.73165676349097,-97.38795325112865 C211.97208164102096,-97.38795325112865 209.73165676349097,-95.14752837359865 209.73165676349097,-92.38795325112865 C209.73165676349097,-89.62837812865865 211.97208164102096,-87.38795325112865 214.73165676349097,-87.38795325112865 Z" style="fill:none;stroke:rgb(220,20,60);stroke-width:3;stroke-miterlimit:10;"/>
    <path d="M214.73165676349097,-87.38795325112865 C217.49123188596099,-87.38795325112865 219.73165676349097,-89.62837812865865 219.73165676349097,-92.38795325112865 C219.73165676349097,-95.14752837359865 217.49123188596099,-97.38795325112865 214.73165676349097,-97.38795325112865 C211.97208164102096,-97.38795325112865 209.73165676349097,-95.14752837359865 209.73165676349097,-92.38795325112865 C209.73165676349097,-89.62837812865865 211.97208164102096,-87.38795325112865 214.73165676349097,-87.38795325112865 Z" style="fill:rgb(172,73,68);stroke:none;"/>
    <path d="M252.99999999999997,-95.0 C255.75957512246998,-95.0 258.0,-97.24042487753 258.0,-100.0 C258.0,-102.75957512247 255.75957512246998,-105.0 252.99999999999997,-105.0 C250.24042487752996,-105.0 247.99999999999997,-102.75957512247 247.99999999999997,-100.0 C247.99999999999997,-97.24042487753 250.24042487752996,-95.0 252.99999999999997,-95.0 Z" style="fill:none;stroke:rgb(220,20,60);stroke-width:3;stroke-miterlimit:10;"/>
    <path d="M252.99999999999997,-95.0 C255.75957512246998,-95.0 258.0,-97.24042487753 258.0,-100.0 C258.0,-102.75957512247 255.75957512246998,-105.0 252.99999999999997,-105.0 C250.24042487752996,-105.0 247.99999999999997,-102.75957512247 247.99999999999997,-100.0 C247.99999999999997,-97.24042487753 250.24042487752996,-95.0 252.99999999999997,-95.0 Z" style="fill:rgb(172,73,68);stroke:none;"/>
    <path d="M291.268343236509,-87.38795325112866 C294.027918358979,-87.38795325112866 296.268343236509,-89.62837812865867 296.268343236509,-92.38795325112866 C296.268343236509,-95.14752837359866 294.027918358979,-97.38795325112866 291.268343236509,-97.38795325112866 C288.508768114039,-97.38795325112866 286.268343236509,-95.14752837359866 286.268343236509,-92.38795325112866 C286.268343236509,-89.62837812865867 288.508768114039,-87.38795325112866 291.268343236509,-87.38795325112866 Z" style="fill:none;stroke:rgb(220,20,60);stroke-width:3;stroke-miterlimit:10;"/>
    <path d="M291.268343236509,-87.38795325112866 C294.027918358979,-87.38795325112866 296.268343236509,-89.62837812865867 296.268343236509,-92.38795325112866 C296.268343236509,-95.14752837359866 294.027918358979,-97.38795325112866 291.268343236509,-97.38795325112866 C288.508768114039,-97.38795325112866 286.268343236509,-95.14752837359866 286.268343236509,-92.38795325112866 C286.268343236509,-89.62837812865867 288.508768114039,-87.38795325112866 291.268343236509,-87.38795325112866 Z" style="fill:rgb(172,73,68);stroke:none;"/>
    <path d="M323.71067811865476,-65.71067811865477 C326.47025324112474,-65.71067811865477 328.71067811865476,-67.95110299618477 328.71067811865476,-70.71067811865477 C328.71067811865476,-73.47025324112477 326.47025324112474,-75.71067811865477 323.71067811865476,-75.71067811865477 C320.9511029961848,-75.71067811865477 318.71067811865476,-73.47025324112477 318.71067811865476,-70.71067811865477 C318.71067811865476,-67.95110299618477 320.9511029961848,-65.71067811865477 323.71067811865476,-65.71067811865477 Z" style="fill:none;stroke:rgb(220,20,60);stroke-width:3;stroke-miterlimit:10;"/>
    <path d="M323.71067811865476,-65.71067811865477 C326.47025324112474,-65.71067811865477 328.71067811865476,-67.95110299618477 328.71067811865476,-70.71067811865477 C328.71067811865476,-73.47025324112477 326.47025324112474,-75.71067811865477 323.71067811865476,-75.71067811865477 C320.9511029961848,-75.71067811865477 318.71067811865476,-73.47025324112477 318.71067811865476,-70.71067811865477 C318.71067811865476,-67.95110299618477 320.9511029961848,-65.71067811865477 323.71067811865476,-65.71067811865477 Z" style="fill:rgb(172,73,68);stroke:none;"/>
    <path d="M345.38795325112864,-33.26834323650904 C348.1475283735986,-33.26834323650904 350.38795325112864,-35.50876811403904 350.38795325112864,-38.26834323650904 C350.38795325112864,-41.027918358979036 348.1475283735986,-43.26834323650904 345.38795325112864,-43.26834323650904 C342.62837812865865,-43.26834323650904 340.38795325112864,-41.027918358979036 340.38795325112864,-38.26834323650904 C340.38795325112864,-35.50876811403904 342.62837812865865,-33.26834323650904 345.38795325112864,-33.26834323650904 Z" style="fill:none;stroke:rgb(220,20,60);stroke-width:3;stroke-miterlimit:10;"/>
    <path d="M345.38795325112864,-33.26834323650904 C348.1475283735986,-33.26834323650904 350.38795325112864,-35.50876811403904 350.38795325112864,-38.26834323650904 C350.38795325112864,-41.027918358979036 348.1475283735986,-43.26834323650904 345.38795325112864,-43.26834323650904 C342.62837812865865,-43.26834323650904 340.38795325112864,-41.027918358979036 340.38795325112864,-38.26834323650904 C340.38795325112864,-35.50876811403904 342.62837812865865,-33.26834323650904 345.38795325112864,-33.26834323650904 Z" style="fill:rgb(172,73,68);stroke:none;"/>
    <path d="M353.0,4.999999999999975 C355.75957512247,4.999999999999975 358.0,2.7595751224699754 358.0,-2.4492935982947064E-14 C358.0,-2.7595751224700242 355.75957512247,-5.000000000000025 353.0,-5.000000000000025 C350.24042487753,-5.000000000000025 348.0,-2.7595751224700242 348.0,-2.4492935982947064E-14 C348.0,2.7595751224699754 350.24042487753,4.999999999999975 353.0,4.999999999999975 Z" style="fill:none;stroke:rgb(220,20,60);stroke-width:3;stroke-miterlimit:10;"/>
    <path d="M353.0,4.999999999999975 C355.75957512247,4.999999999999975 358.0,2.7595751224699754 358.0,-2.4492935982947064E-14 C358.0,-2.7595751224700242 355.75957512247,-5.000000000000025 353.0,-5.000000000000025 C350.24042487753,-5.000000000000025 348.0,-2.7595751224700242 348.0,-2.4492935982947064E-14 C348.0,2.7595751224699754 350.24042487753,4.999999999999975 353.0,4.999999999999975 Z" style="fill:rgb(172,73,68);stroke:none;"/>
  </g>
</svg>
