<svg xmlns="http://www.w3.org/2000/svg" width="488.0" height="244.0" viewBox="-244.0 -42.0 488.0 244.0" style=""><g><defs></defs><g><g><g><path transform="matrix(1.0,0.0,0.0,-1.0,-122.0,-75.0)" style="stroke-width: 1.0px; stroke: hsla(0.0, 0.0%, 50.19607843137255%, 1.0); stroke-linecap: butt; stroke-linejoin: miter;  fill: none;" d="M 0,0 M 0,0 M -0,-75 L 0,75 "></path><g><path transform="matrix(1.0,0.0,0.0,-1.0,-162.0,-150.0)" style="stroke-width: 1.0px; stroke: hsla(0.0, 0.0%, 50.19607843137255%, 1.0); stroke-linecap: butt; stroke-linejoin: miter;  fill: none;" d="M 0,0 M 0,0 M -40,-0 L 40,0 "></path><g><g><path transform="matrix(1.0,0.0,0.0,-1.0,-202.0,-80.0)" style="stroke-width: 2.0px; stroke: hsla(0.0, 0.0%, 0.0%, 1.0); stroke-linecap: butt; stroke-linejoin: miter;  fill: none;" d="M 0,0 M 0,0 M -0,-100 L 0,100 "></path><path transform="matrix(1.0,0.0,0.0,-1.0,-122.0,0.0)" style="stroke-width: 2.0px; stroke: hsla(0.0, 0.0%, 0.0%, 1.0); stroke-linecap: butt; stroke-linejoin: miter;  fill: none;" d="M 0,0 M 0,0 M -100,-0 L 100,0 "></path></g><circle transform="matrix(1.0,0.0,0.0,-1.0,-122.0,-150.0)" style="stroke-width: 1.0px; stroke: hsla(0.0, 0.0%, 0.0%, 1.0); stroke-linecap: butt; stroke-linejoin: miter;  fill: hsla(0.0, 0.0%, 0.0%, 1.0);" r="2.5"></circle></g></g></g><rect transform="matrix(1.0,0.0,0.0,-1.0,0.0,0.0)" style="stroke: none; fill: none;" x="-20.0" y="-20.0" width="40.0" height="40.0"></rect></g><g><path transform="matrix(1.0,0.0,0.0,-1.0,82.0,-75.0)" style="stroke-width: 1.0px; stroke: hsla(0.0, 0.0%, 50.19607843137255%, 1.0); stroke-linecap: butt; stroke-linejoin: miter;  fill: none;" d="M 0,0 M 0,0 M -40,-75 L 40,75 "></path><g><g><path transform="matrix(1.0,0.0,0.0,-1.0,42.0,-80.0)" style="stroke-width: 2.0px; stroke: hsla(0.0, 0.0%, 0.0%, 1.0); stroke-linecap: butt; stroke-linejoin: miter;  fill: none;" d="M 0,0 M 0,0 M -0,-100 L 0,100 "></path><path transform="matrix(1.0,0.0,0.0,-1.0,122.0,0.0)" style="stroke-width: 2.0px; stroke: hsla(0.0, 0.0%, 0.0%, 1.0); stroke-linecap: butt; stroke-linejoin: miter;  fill: none;" d="M 0,0 M 0,0 M -100,-0 L 100,0 "></path></g><circle transform="matrix(1.0,0.0,0.0,-1.0,122.0,-150.0)" style="stroke-width: 1.0px; stroke: hsla(0.0, 0.0%, 0.0%, 1.0); stroke-linecap: butt; stroke-linejoin: miter;  fill: hsla(0.0, 0.0%, 0.0%, 1.0);" r="2.5"></circle></g></g></g></g></svg>