<?xml version="1.0" encoding="UTF-8" standalone="no"?>
<!DOCTYPE svg PUBLIC "-//W3C//DTD SVG 1.1//EN" "http://www.w3.org/Graphics/SVG/1.1/DTD/svg11.dtd">
<svg xmlns:xlink="http://www.w3.org/1999/xlink" height="144.99166666666665mm" version="1.1" viewBox="0 0 411 411" width="144.99166666666665mm" x="0mm" y="0mm" xmlns="http://www.w3.org/2000/svg">
  <g transform="matrix(1 0 0 -1 205.5 205.5)">
    <path d="M195.0,-5.0 L200.0,5.0 L205.0,-5.0 L195.0,-5.0 Z" style="fill:none;stroke:rgb(0,0,0);stroke-miterlimit:10;"/>
    <path d="M194.23893961834912,12.431148549531635 L199.23893961834912,22.431148549531635 L204.23893961834912,12.431148549531635 L194.23893961834912,12.431148549531635 Z" style="fill:none;stroke:rgb(0,0,0);stroke-miterlimit:10;"/>
    <path d="M191.9615506024416,29.729635533386066 L196.9615506024416,39.729635533386066 L201.9615506024416,29.729635533386066 L191.9615506024416,29.729635533386066 Z" style="fill:none;stroke:rgb(0,0,0);stroke-miterlimit:10;"/>
    <path d="M188.18516525781365,46.76380902050415 L193.18516525781365,56.76380902050415 L198.18516525781365,46.76380902050415 L188.18516525781365,46.76380902050415 Z" style="fill:none;stroke:rgb(0,0,0);stroke-miterlimit:10;"/>
    <path d="M182.9385241571817,63.40402866513374 L187.9385241571817,73.40402866513374 L192.9385241571817,63.40402866513374 L182.9385241571817,63.40402866513374 Z" style="fill:none;stroke:rgb(0,0,0);stroke-miterlimit:10;"/>
    <path d="M176.26155740732997,79.52365234813989 L181.26155740732997,89.52365234813989 L186.26155740732997,79.52365234813989 L176.26155740732997,79.52365234813989 Z" style="fill:none;stroke:rgb(0,0,0);stroke-miterlimit:10;"/>
    <path d="M168.20508075688775,94.99999999999999 L173.20508075688775,104.99999999999999 L178.20508075688775,94.99999999999999 L168.20508075688775,94.99999999999999 Z" style="fill:none;stroke:rgb(0,0,0);stroke-miterlimit:10;"/>
    <path d="M158.83040885779835,109.71528727020922 L163.83040885779835,119.71528727020922 L168.83040885779835,109.71528727020922 L158.83040885779835,109.71528727020922 Z" style="fill:none;stroke:rgb(0,0,0);stroke-miterlimit:10;"/>
    <path d="M148.20888862379562,123.55752193730785 L153.20888862379562,133.55752193730785 L158.20888862379562,123.55752193730785 L148.20888862379562,123.55752193730785 Z" style="fill:none;stroke:rgb(0,0,0);stroke-miterlimit:10;"/>
    <path d="M136.4213562373095,136.42135623730948 L141.4213562373095,146.42135623730948 L146.4213562373095,136.42135623730948 L136.4213562373095,136.42135623730948 Z" style="fill:none;stroke:rgb(0,0,0);stroke-miterlimit:10;"/>
    <path d="M123.55752193730788,148.20888862379562 L128.55752193730788,158.20888862379562 L133.55752193730788,148.20888862379562 L123.55752193730788,148.20888862379562 Z" style="fill:none;stroke:rgb(0,0,0);stroke-miterlimit:10;"/>
    <path d="M109.71528727020922,158.83040885779835 L114.71528727020922,168.83040885779835 L119.71528727020922,158.83040885779835 L109.71528727020922,158.83040885779835 Z" style="fill:none;stroke:rgb(0,0,0);stroke-miterlimit:10;"/>
    <path d="M95.00000000000003,168.20508075688772 L100.00000000000003,178.20508075688772 L105.00000000000003,168.20508075688772 L95.00000000000003,168.20508075688772 Z" style="fill:none;stroke:rgb(0,0,0);stroke-miterlimit:10;"/>
    <path d="M79.52365234813989,176.26155740732997 L84.52365234813989,186.26155740732997 L89.52365234813989,176.26155740732997 L79.52365234813989,176.26155740732997 Z" style="fill:none;stroke:rgb(0,0,0);stroke-miterlimit:10;"/>
    <path d="M63.404028665133765,182.93852415718166 L68.40402866513377,192.93852415718166 L73.40402866513377,182.93852415718166 L63.404028665133765,182.93852415718166 Z" style="fill:none;stroke:rgb(0,0,0);stroke-miterlimit:10;"/>
    <path d="M46.76380902050415,188.18516525781365 L51.76380902050415,198.18516525781365 L56.76380902050415,188.18516525781365 L46.76380902050415,188.18516525781365 Z" style="fill:none;stroke:rgb(0,0,0);stroke-miterlimit:10;"/>
    <path d="M29.72963553338608,191.9615506024416 L34.72963553338608,201.9615506024416 L39.72963553338608,191.9615506024416 L29.72963553338608,191.9615506024416 Z" style="fill:none;stroke:rgb(0,0,0);stroke-miterlimit:10;"/>
    <path d="M12.43114854953167,194.23893961834912 L17.43114854953167,204.23893961834912 L22.43114854953167,194.23893961834912 L12.43114854953167,194.23893961834912 Z" style="fill:none;stroke:rgb(0,0,0);stroke-miterlimit:10;"/>
    <path d="M-4.999999999999988,195.0 L1.2246467991473532E-14,205.0 L5.000000000000012,195.0 L-4.999999999999988,195.0 Z" style="fill:none;stroke:rgb(0,0,0);stroke-miterlimit:10;"/>
    <path d="M-22.431148549531603,194.23893961834912 L-17.431148549531603,204.23893961834912 L-12.431148549531603,194.23893961834912 L-22.431148549531603,194.23893961834912 Z" style="fill:none;stroke:rgb(0,0,0);stroke-miterlimit:10;"/>
    <path d="M-39.72963553338606,191.9615506024416 L-34.72963553338606,201.9615506024416 L-29.72963553338606,191.9615506024416 L-39.72963553338606,191.9615506024416 Z" style="fill:none;stroke:rgb(0,0,0);stroke-miterlimit:10;"/>
    <path d="M-56.76380902050413,188.18516525781365 L-51.76380902050413,198.18516525781365 L-46.76380902050413,188.18516525781365 L-56.76380902050413,188.18516525781365 Z" style="fill:none;stroke:rgb(0,0,0);stroke-miterlimit:10;"/>
    <path d="M-73.40402866513374,182.9385241571817 L-68.40402866513374,192.9385241571817 L-63.40402866513374,182.9385241571817 L-73.40402866513374,182.9385241571817 Z" style="fill:none;stroke:rgb(0,0,0);stroke-miterlimit:10;"/>
    <path d="M-89.52365234813986,176.26155740733 L-84.52365234813986,186.26155740733 L-79.52365234813986,176.26155740733 L-89.52365234813986,176.26155740733 Z" style="fill:none;stroke:rgb(0,0,0);stroke-miterlimit:10;"/>
    <path d="M-104.99999999999996,168.20508075688775 L-99.99999999999996,178.20508075688775 L-94.99999999999996,168.20508075688775 L-104.99999999999996,168.20508075688775 Z" style="fill:none;stroke:rgb(0,0,0);stroke-miterlimit:10;"/>
    <path d="M-119.71528727020916,158.8304088577984 L-114.71528727020916,168.8304088577984 L-109.71528727020916,158.8304088577984 L-119.71528727020916,158.8304088577984 Z" style="fill:none;stroke:rgb(0,0,0);stroke-miterlimit:10;"/>
    <path d="M-133.55752193730788,148.20888862379562 L-128.55752193730788,158.20888862379562 L-123.55752193730788,148.20888862379562 L-133.55752193730788,148.20888862379562 Z" style="fill:none;stroke:rgb(0,0,0);stroke-miterlimit:10;"/>
    <path d="M-146.42135623730948,136.4213562373095 L-141.42135623730948,146.4213562373095 L-136.42135623730948,136.4213562373095 L-146.42135623730948,136.4213562373095 Z" style="fill:none;stroke:rgb(0,0,0);stroke-miterlimit:10;"/>
    <path d="M-158.2088886237956,123.55752193730788 L-153.2088886237956,133.55752193730788 L-148.2088886237956,123.55752193730788 L-158.2088886237956,123.55752193730788 Z" style="fill:none;stroke:rgb(0,0,0);stroke-miterlimit:10;"/>
    <path d="M-168.83040885779832,109.71528727020927 L-163.83040885779832,119.71528727020927 L-158.83040885779832,109.71528727020927 L-168.83040885779832,109.71528727020927 Z" style="fill:none;stroke:rgb(0,0,0);stroke-miterlimit:10;"/>
    <path d="M-178.20508075688775,94.99999999999999 L-173.20508075688775,104.99999999999999 L-168.20508075688775,94.99999999999999 L-178.20508075688775,94.99999999999999 Z" style="fill:none;stroke:rgb(0,0,0);stroke-miterlimit:10;"/>
    <path d="M-186.26155740732997,79.5236523481399 L-181.26155740732997,89.5236523481399 L-176.26155740732997,79.5236523481399 L-186.26155740732997,79.5236523481399 Z" style="fill:none;stroke:rgb(0,0,0);stroke-miterlimit:10;"/>
    <path d="M-192.93852415718166,63.40402866513378 L-187.93852415718166,73.40402866513378 L-182.93852415718166,63.40402866513378 L-192.93852415718166,63.40402866513378 Z" style="fill:none;stroke:rgb(0,0,0);stroke-miterlimit:10;"/>
    <path d="M-198.18516525781365,46.763809020504205 L-193.18516525781365,56.763809020504205 L-188.18516525781365,46.763809020504205 L-198.18516525781365,46.763809020504205 Z" style="fill:none;stroke:rgb(0,0,0);stroke-miterlimit:10;"/>
    <path d="M-201.9615506024416,29.729635533386144 L-196.9615506024416,39.729635533386144 L-191.9615506024416,29.729635533386144 L-201.9615506024416,29.729635533386144 Z" style="fill:none;stroke:rgb(0,0,0);stroke-miterlimit:10;"/>
    <path d="M-204.23893961834912,12.431148549531638 L-199.23893961834912,22.43114854953164 L-194.23893961834912,12.431148549531638 L-204.23893961834912,12.431148549531638 Z" style="fill:none;stroke:rgb(0,0,0);stroke-miterlimit:10;"/>
    <path d="M-205.0,-4.999999999999975 L-200.0,5.000000000000025 L-195.0,-4.999999999999975 L-205.0,-4.999999999999975 Z" style="fill:none;stroke:rgb(0,0,0);stroke-miterlimit:10;"/>
    <path d="M-204.23893961834912,-22.43114854953159 L-199.23893961834912,-12.431148549531589 L-194.23893961834912,-22.43114854953159 L-204.23893961834912,-22.43114854953159 Z" style="fill:none;stroke:rgb(0,0,0);stroke-miterlimit:10;"/>
    <path d="M-201.96155060244163,-39.729635533386 L-196.96155060244163,-29.729635533386002 L-191.96155060244163,-39.729635533386 L-201.96155060244163,-39.729635533386 Z" style="fill:none;stroke:rgb(0,0,0);stroke-miterlimit:10;"/>
    <path d="M-198.18516525781365,-56.76380902050416 L-193.18516525781365,-46.76380902050416 L-188.18516525781365,-56.76380902050416 L-198.18516525781365,-56.76380902050416 Z" style="fill:none;stroke:rgb(0,0,0);stroke-miterlimit:10;"/>
    <path d="M-192.9385241571817,-73.40402866513374 L-187.9385241571817,-63.40402866513374 L-182.9385241571817,-73.40402866513374 L-192.9385241571817,-73.40402866513374 Z" style="fill:none;stroke:rgb(0,0,0);stroke-miterlimit:10;"/>
    <path d="M-186.26155740733,-89.52365234813985 L-181.26155740733,-79.52365234813985 L-176.26155740733,-89.52365234813985 L-186.26155740733,-89.52365234813985 Z" style="fill:none;stroke:rgb(0,0,0);stroke-miterlimit:10;"/>
    <path d="M-178.20508075688775,-104.99999999999994 L-173.20508075688775,-94.99999999999994 L-168.20508075688775,-104.99999999999994 L-178.20508075688775,-104.99999999999994 Z" style="fill:none;stroke:rgb(0,0,0);stroke-miterlimit:10;"/>
    <path d="M-168.8304088577984,-119.71528727020916 L-163.8304088577984,-109.71528727020916 L-158.8304088577984,-119.71528727020916 L-168.8304088577984,-119.71528727020916 Z" style="fill:none;stroke:rgb(0,0,0);stroke-miterlimit:10;"/>
    <path d="M-158.20888862379562,-133.55752193730785 L-153.20888862379562,-123.55752193730785 L-148.20888862379562,-133.55752193730785 L-158.20888862379562,-133.55752193730785 Z" style="fill:none;stroke:rgb(0,0,0);stroke-miterlimit:10;"/>
    <path d="M-146.42135623730954,-146.42135623730948 L-141.42135623730954,-136.42135623730948 L-136.42135623730954,-146.42135623730948 L-146.42135623730954,-146.42135623730948 Z" style="fill:none;stroke:rgb(0,0,0);stroke-miterlimit:10;"/>
    <path d="M-133.55752193730788,-158.2088886237956 L-128.55752193730788,-148.2088886237956 L-123.55752193730788,-158.2088886237956 L-133.55752193730788,-158.2088886237956 Z" style="fill:none;stroke:rgb(0,0,0);stroke-miterlimit:10;"/>
    <path d="M-119.71528727020927,-168.83040885779832 L-114.71528727020927,-158.83040885779832 L-109.71528727020927,-168.83040885779832 L-119.71528727020927,-168.83040885779832 Z" style="fill:none;stroke:rgb(0,0,0);stroke-miterlimit:10;"/>
    <path d="M-105.00000000000009,-178.2050807568877 L-100.00000000000009,-168.2050807568877 L-95.00000000000009,-178.2050807568877 L-105.00000000000009,-178.2050807568877 Z" style="fill:none;stroke:rgb(0,0,0);stroke-miterlimit:10;"/>
    <path d="M-89.52365234813999,-186.26155740732995 L-84.52365234813999,-176.26155740732995 L-79.52365234813999,-186.26155740732995 L-89.52365234813999,-186.26155740732995 Z" style="fill:none;stroke:rgb(0,0,0);stroke-miterlimit:10;"/>
    <path d="M-73.40402866513388,-192.93852415718163 L-68.40402866513388,-182.93852415718163 L-63.40402866513388,-192.93852415718163 L-73.40402866513388,-192.93852415718163 Z" style="fill:none;stroke:rgb(0,0,0);stroke-miterlimit:10;"/>
    <path d="M-56.76380902050413,-198.18516525781365 L-51.76380902050413,-188.18516525781365 L-46.76380902050413,-198.18516525781365 L-56.76380902050413,-198.18516525781365 Z" style="fill:none;stroke:rgb(0,0,0);stroke-miterlimit:10;"/>
    <path d="M-39.729635533386066,-201.9615506024416 L-34.729635533386066,-191.9615506024416 L-29.729635533386066,-201.9615506024416 L-39.729635533386066,-201.9615506024416 Z" style="fill:none;stroke:rgb(0,0,0);stroke-miterlimit:10;"/>
    <path d="M-22.43114854953165,-204.23893961834912 L-17.43114854953165,-194.23893961834912 L-12.431148549531649,-204.23893961834912 L-22.43114854953165,-204.23893961834912 Z" style="fill:none;stroke:rgb(0,0,0);stroke-miterlimit:10;"/>
    <path d="M-5.000000000000036,-205.0 L-3.6739403974420595E-14,-195.0 L4.999999999999964,-205.0 L-5.000000000000036,-205.0 Z" style="fill:none;stroke:rgb(0,0,0);stroke-miterlimit:10;"/>
    <path d="M12.431148549531578,-204.23893961834912 L17.431148549531578,-194.23893961834912 L22.431148549531578,-204.23893961834912 L12.431148549531578,-204.23893961834912 Z" style="fill:none;stroke:rgb(0,0,0);stroke-miterlimit:10;"/>
    <path d="M29.729635533385995,-201.96155060244163 L34.729635533385995,-191.96155060244163 L39.729635533385995,-201.96155060244163 L29.729635533385995,-201.96155060244163 Z" style="fill:none;stroke:rgb(0,0,0);stroke-miterlimit:10;"/>
    <path d="M46.763809020504056,-198.18516525781368 L51.763809020504056,-188.18516525781368 L56.763809020504056,-198.18516525781368 L46.763809020504056,-198.18516525781368 Z" style="fill:none;stroke:rgb(0,0,0);stroke-miterlimit:10;"/>
    <path d="M63.40402866513364,-192.93852415718172 L68.40402866513364,-182.93852415718172 L73.40402866513364,-192.93852415718172 L63.40402866513364,-192.93852415718172 Z" style="fill:none;stroke:rgb(0,0,0);stroke-miterlimit:10;"/>
    <path d="M79.52365234813976,-186.26155740733006 L84.52365234813976,-176.26155740733006 L89.52365234813976,-186.26155740733006 L79.52365234813976,-186.26155740733006 Z" style="fill:none;stroke:rgb(0,0,0);stroke-miterlimit:10;"/>
    <path d="M95.00000000000003,-178.20508075688772 L100.00000000000003,-168.20508075688772 L105.00000000000003,-178.20508075688772 L95.00000000000003,-178.20508075688772 Z" style="fill:none;stroke:rgb(0,0,0);stroke-miterlimit:10;"/>
    <path d="M109.71528727020922,-168.83040885779835 L114.71528727020922,-158.83040885779835 L119.71528727020922,-168.83040885779835 L109.71528727020922,-168.83040885779835 Z" style="fill:none;stroke:rgb(0,0,0);stroke-miterlimit:10;"/>
    <path d="M123.55752193730785,-158.20888862379562 L128.55752193730785,-148.20888862379562 L133.55752193730785,-158.20888862379562 L123.55752193730785,-158.20888862379562 Z" style="fill:none;stroke:rgb(0,0,0);stroke-miterlimit:10;"/>
    <path d="M136.42135623730948,-146.42135623730954 L141.42135623730948,-136.42135623730954 L146.42135623730948,-146.42135623730954 L136.42135623730948,-146.42135623730954 Z" style="fill:none;stroke:rgb(0,0,0);stroke-miterlimit:10;"/>
    <path d="M148.20888862379556,-133.5575219373079 L153.20888862379556,-123.55752193730791 L158.20888862379556,-133.5575219373079 L148.20888862379556,-133.5575219373079 Z" style="fill:none;stroke:rgb(0,0,0);stroke-miterlimit:10;"/>
    <path d="M158.83040885779832,-119.7152872702093 L163.83040885779832,-109.7152872702093 L168.83040885779832,-119.7152872702093 L158.83040885779832,-119.7152872702093 Z" style="fill:none;stroke:rgb(0,0,0);stroke-miterlimit:10;"/>
    <path d="M168.20508075688767,-105.00000000000009 L173.20508075688767,-95.00000000000009 L178.20508075688767,-105.00000000000009 L168.20508075688767,-105.00000000000009 Z" style="fill:none;stroke:rgb(0,0,0);stroke-miterlimit:10;"/>
    <path d="M176.26155740732995,-89.52365234814 L181.26155740732995,-79.52365234814 L186.26155740732995,-89.52365234814 L176.26155740732995,-89.52365234814 Z" style="fill:none;stroke:rgb(0,0,0);stroke-miterlimit:10;"/>
    <path d="M182.93852415718163,-73.4040286651339 L187.93852415718163,-63.40402866513389 L192.93852415718163,-73.4040286651339 L182.93852415718163,-73.4040286651339 Z" style="fill:none;stroke:rgb(0,0,0);stroke-miterlimit:10;"/>
    <path d="M188.18516525781365,-56.763809020504134 L193.18516525781365,-46.763809020504134 L198.18516525781365,-56.763809020504134 L188.18516525781365,-56.763809020504134 Z" style="fill:none;stroke:rgb(0,0,0);stroke-miterlimit:10;"/>
    <path d="M191.9615506024416,-39.72963553338608 L196.9615506024416,-29.72963553338608 L201.9615506024416,-39.72963553338608 L191.9615506024416,-39.72963553338608 Z" style="fill:none;stroke:rgb(0,0,0);stroke-miterlimit:10;"/>
    <path d="M194.23893961834912,-22.431148549531663 L199.23893961834912,-12.431148549531663 L204.23893961834912,-22.431148549531663 L194.23893961834912,-22.431148549531663 Z" style="fill:none;stroke:rgb(0,0,0);stroke-miterlimit:10;"/>
    <path d="M195.0,-5.000000000000049 L200.0,4.999999999999951 L205.0,-5.000000000000049 L195.0,-5.000000000000049 Z" style="fill:none;stroke:rgb(0,0,0);stroke-miterlimit:10;"/>
  </g>
</svg>
