<svg width="451.0" height="451.0" viewBox="-225.5 -225.5 451.0 451.0" style=""><g><defs></defs><g><g><g><g><g><g><g><g><g><g><g><g><g><g><g><g><g><g><g><g><g><g><g><g><g><g><g><g><g><g><g><g><g><g><g><g><g><g><g><g><g><g><g><g><g><g><g><g><g><g><g><g><g><g><g><g><g><g><g><g><g><g><g><g><g><g><g><g><g><g><g><g><g></g><path transform="matrix(1.0,0.0,0.0,-1.0,199.23893961834912,-17.431148549531635)" style="stroke-width: 1.0px; stroke: hsla(90.47619047619048, 100.0%, 49.411764705882355%, 1.0); stroke-linecap: butt; stroke-linejoin: miter;  fill: hsla(120.0, 60.7843137254902%, 50.0%, 1.0);" d="M -5,-5 L 0,5 L 5,-5 Z"></path></g><path transform="matrix(1.0,0.0,0.0,-1.0,196.9615506024416,-34.729635533386066)" style="stroke-width: 1.0px; stroke: hsla(90.47619047619048, 100.0%, 49.411764705882355%, 1.0); stroke-linecap: butt; stroke-linejoin: miter;  fill: hsla(120.0, 60.7843137254902%, 50.0%, 1.0);" d="M -5,-5 L 0,5 L 5,-5 Z"></path></g><path transform="matrix(1.0,0.0,0.0,-1.0,193.18516525781365,-51.76380902050415)" style="stroke-width: 1.0px; stroke: hsla(90.47619047619048, 100.0%, 49.411764705882355%, 1.0); stroke-linecap: butt; stroke-linejoin: miter;  fill: hsla(120.0, 60.7843137254902%, 50.0%, 1.0);" d="M -5,-5 L 0,5 L 5,-5 Z"></path></g><path transform="matrix(1.0,0.0,0.0,-1.0,187.9385241571817,-68.40402866513374)" style="stroke-width: 1.0px; stroke: hsla(90.47619047619048, 100.0%, 49.411764705882355%, 1.0); stroke-linecap: butt; stroke-linejoin: miter;  fill: hsla(120.0, 60.7843137254902%, 50.0%, 1.0);" d="M -5,-5 L 0,5 L 5,-5 Z"></path></g><path transform="matrix(1.0,0.0,0.0,-1.0,181.26155740732997,-84.52365234813989)" style="stroke-width: 1.0px; stroke: hsla(90.47619047619048, 100.0%, 49.411764705882355%, 1.0); stroke-linecap: butt; stroke-linejoin: miter;  fill: hsla(120.0, 60.7843137254902%, 50.0%, 1.0);" d="M -5,-5 L 0,5 L 5,-5 Z"></path></g><path transform="matrix(1.0,0.0,0.0,-1.0,173.20508075688775,-99.99999999999999)" style="stroke-width: 1.0px; stroke: hsla(90.47619047619048, 100.0%, 49.411764705882355%, 1.0); stroke-linecap: butt; stroke-linejoin: miter;  fill: hsla(120.0, 60.7843137254902%, 50.0%, 1.0);" d="M -5,-5 L 0,5 L 5,-5 Z"></path></g><path transform="matrix(1.0,0.0,0.0,-1.0,163.83040885779835,-114.71528727020922)" style="stroke-width: 1.0px; stroke: hsla(90.47619047619048, 100.0%, 49.411764705882355%, 1.0); stroke-linecap: butt; stroke-linejoin: miter;  fill: hsla(120.0, 60.7843137254902%, 50.0%, 1.0);" d="M -5,-5 L 0,5 L 5,-5 Z"></path></g><path transform="matrix(1.0,0.0,0.0,-1.0,153.20888862379562,-128.55752193730785)" style="stroke-width: 1.0px; stroke: hsla(90.47619047619048, 100.0%, 49.411764705882355%, 1.0); stroke-linecap: butt; stroke-linejoin: miter;  fill: hsla(120.0, 60.7843137254902%, 50.0%, 1.0);" d="M -5,-5 L 0,5 L 5,-5 Z"></path></g><path transform="matrix(1.0,0.0,0.0,-1.0,141.4213562373095,-141.42135623730948)" style="stroke-width: 1.0px; stroke: hsla(90.47619047619048, 100.0%, 49.411764705882355%, 1.0); stroke-linecap: butt; stroke-linejoin: miter;  fill: hsla(120.0, 60.7843137254902%, 50.0%, 1.0);" d="M -5,-5 L 0,5 L 5,-5 Z"></path></g><path transform="matrix(1.0,0.0,0.0,-1.0,128.55752193730788,-153.20888862379562)" style="stroke-width: 1.0px; stroke: hsla(90.47619047619048, 100.0%, 49.411764705882355%, 1.0); stroke-linecap: butt; stroke-linejoin: miter;  fill: hsla(120.0, 60.7843137254902%, 50.0%, 1.0);" d="M -5,-5 L 0,5 L 5,-5 Z"></path></g><path transform="matrix(1.0,0.0,0.0,-1.0,114.71528727020923,-163.83040885779835)" style="stroke-width: 1.0px; stroke: hsla(90.47619047619048, 100.0%, 49.411764705882355%, 1.0); stroke-linecap: butt; stroke-linejoin: miter;  fill: hsla(120.0, 60.7843137254902%, 50.0%, 1.0);" d="M -5,-5 L 0,5 L 5,-5 Z"></path></g><path transform="matrix(1.0,0.0,0.0,-1.0,100.00000000000003,-173.20508075688772)" style="stroke-width: 1.0px; stroke: hsla(90.47619047619048, 100.0%, 49.411764705882355%, 1.0); stroke-linecap: butt; stroke-linejoin: miter;  fill: hsla(120.0, 60.7843137254902%, 50.0%, 1.0);" d="M -5,-5 L 0,5 L 5,-5 Z"></path></g><path transform="matrix(1.0,0.0,0.0,-1.0,84.52365234813989,-181.26155740732997)" style="stroke-width: 1.0px; stroke: hsla(90.47619047619048, 100.0%, 49.411764705882355%, 1.0); stroke-linecap: butt; stroke-linejoin: miter;  fill: hsla(120.0, 60.7843137254902%, 50.0%, 1.0);" d="M -5,-5 L 0,5 L 5,-5 Z"></path></g><path transform="matrix(1.0,0.0,0.0,-1.0,68.40402866513377,-187.93852415718166)" style="stroke-width: 1.0px; stroke: hsla(90.47619047619048, 100.0%, 49.411764705882355%, 1.0); stroke-linecap: butt; stroke-linejoin: miter;  fill: hsla(120.0, 60.7843137254902%, 50.0%, 1.0);" d="M -5,-5 L 0,5 L 5,-5 Z"></path></g><path transform="matrix(1.0,0.0,0.0,-1.0,51.76380902050415,-193.18516525781365)" style="stroke-width: 1.0px; stroke: hsla(90.47619047619048, 100.0%, 49.411764705882355%, 1.0); stroke-linecap: butt; stroke-linejoin: miter;  fill: hsla(120.0, 60.7843137254902%, 50.0%, 1.0);" d="M -5,-5 L 0,5 L 5,-5 Z"></path></g><path transform="matrix(1.0,0.0,0.0,-1.0,34.72963553338608,-196.9615506024416)" style="stroke-width: 1.0px; stroke: hsla(90.47619047619048, 100.0%, 49.411764705882355%, 1.0); stroke-linecap: butt; stroke-linejoin: miter;  fill: hsla(120.0, 60.7843137254902%, 50.0%, 1.0);" d="M -5,-5 L 0,5 L 5,-5 Z"></path></g><path transform="matrix(1.0,0.0,0.0,-1.0,17.43114854953167,-199.23893961834912)" style="stroke-width: 1.0px; stroke: hsla(90.47619047619048, 100.0%, 49.411764705882355%, 1.0); stroke-linecap: butt; stroke-linejoin: miter;  fill: hsla(120.0, 60.7843137254902%, 50.0%, 1.0);" d="M -5,-5 L 0,5 L 5,-5 Z"></path></g><path transform="matrix(1.0,0.0,0.0,-1.0,1.2246467991473532E-14,-200.0)" style="stroke-width: 1.0px; stroke: hsla(90.47619047619048, 100.0%, 49.411764705882355%, 1.0); stroke-linecap: butt; stroke-linejoin: miter;  fill: hsla(120.0, 60.7843137254902%, 50.0%, 1.0);" d="M -5,-5 L 0,5 L 5,-5 Z"></path></g><path transform="matrix(1.0,0.0,0.0,-1.0,-17.431148549531603,-199.23893961834912)" style="stroke-width: 1.0px; stroke: hsla(90.47619047619048, 100.0%, 49.411764705882355%, 1.0); stroke-linecap: butt; stroke-linejoin: miter;  fill: hsla(120.0, 60.7843137254902%, 50.0%, 1.0);" d="M -5,-5 L 0,5 L 5,-5 Z"></path></g><path transform="matrix(1.0,0.0,0.0,-1.0,-34.72963553338606,-196.9615506024416)" style="stroke-width: 1.0px; stroke: hsla(90.47619047619048, 100.0%, 49.411764705882355%, 1.0); stroke-linecap: butt; stroke-linejoin: miter;  fill: hsla(120.0, 60.7843137254902%, 50.0%, 1.0);" d="M -5,-5 L 0,5 L 5,-5 Z"></path></g><path transform="matrix(1.0,0.0,0.0,-1.0,-51.76380902050413,-193.18516525781365)" style="stroke-width: 1.0px; stroke: hsla(90.47619047619048, 100.0%, 49.411764705882355%, 1.0); stroke-linecap: butt; stroke-linejoin: miter;  fill: hsla(120.0, 60.7843137254902%, 50.0%, 1.0);" d="M -5,-5 L 0,5 L 5,-5 Z"></path></g><path transform="matrix(1.0,0.0,0.0,-1.0,-68.40402866513374,-187.9385241571817)" style="stroke-width: 1.0px; stroke: hsla(90.47619047619048, 100.0%, 49.411764705882355%, 1.0); stroke-linecap: butt; stroke-linejoin: miter;  fill: hsla(120.0, 60.7843137254902%, 50.0%, 1.0);" d="M -5,-5 L 0,5 L 5,-5 Z"></path></g><path transform="matrix(1.0,0.0,0.0,-1.0,-84.52365234813986,-181.26155740733)" style="stroke-width: 1.0px; stroke: hsla(90.47619047619048, 100.0%, 49.411764705882355%, 1.0); stroke-linecap: butt; stroke-linejoin: miter;  fill: hsla(120.0, 60.7843137254902%, 50.0%, 1.0);" d="M -5,-5 L 0,5 L 5,-5 Z"></path></g><path transform="matrix(1.0,0.0,0.0,-1.0,-99.99999999999996,-173.20508075688775)" style="stroke-width: 1.0px; stroke: hsla(90.47619047619048, 100.0%, 49.411764705882355%, 1.0); stroke-linecap: butt; stroke-linejoin: miter;  fill: hsla(120.0, 60.7843137254902%, 50.0%, 1.0);" d="M -5,-5 L 0,5 L 5,-5 Z"></path></g><path transform="matrix(1.0,0.0,0.0,-1.0,-114.71528727020916,-163.8304088577984)" style="stroke-width: 1.0px; stroke: hsla(90.47619047619048, 100.0%, 49.411764705882355%, 1.0); stroke-linecap: butt; stroke-linejoin: miter;  fill: hsla(120.0, 60.7843137254902%, 50.0%, 1.0);" d="M -5,-5 L 0,5 L 5,-5 Z"></path></g><path transform="matrix(1.0,0.0,0.0,-1.0,-128.55752193730788,-153.20888862379562)" style="stroke-width: 1.0px; stroke: hsla(90.47619047619048, 100.0%, 49.411764705882355%, 1.0); stroke-linecap: butt; stroke-linejoin: miter;  fill: hsla(120.0, 60.7843137254902%, 50.0%, 1.0);" d="M -5,-5 L 0,5 L 5,-5 Z"></path></g><path transform="matrix(1.0,0.0,0.0,-1.0,-141.42135623730948,-141.4213562373095)" style="stroke-width: 1.0px; stroke: hsla(90.47619047619048, 100.0%, 49.411764705882355%, 1.0); stroke-linecap: butt; stroke-linejoin: miter;  fill: hsla(120.0, 60.7843137254902%, 50.0%, 1.0);" d="M -5,-5 L 0,5 L 5,-5 Z"></path></g><path transform="matrix(1.0,0.0,0.0,-1.0,-153.2088886237956,-128.55752193730788)" style="stroke-width: 1.0px; stroke: hsla(90.47619047619048, 100.0%, 49.411764705882355%, 1.0); stroke-linecap: butt; stroke-linejoin: miter;  fill: hsla(120.0, 60.7843137254902%, 50.0%, 1.0);" d="M -5,-5 L 0,5 L 5,-5 Z"></path></g><path transform="matrix(1.0,0.0,0.0,-1.0,-163.83040885779832,-114.71528727020927)" style="stroke-width: 1.0px; stroke: hsla(90.47619047619048, 100.0%, 49.411764705882355%, 1.0); stroke-linecap: butt; stroke-linejoin: miter;  fill: hsla(120.0, 60.7843137254902%, 50.0%, 1.0);" d="M -5,-5 L 0,5 L 5,-5 Z"></path></g><path transform="matrix(1.0,0.0,0.0,-1.0,-173.20508075688775,-99.99999999999999)" style="stroke-width: 1.0px; stroke: hsla(90.47619047619048, 100.0%, 49.411764705882355%, 1.0); stroke-linecap: butt; stroke-linejoin: miter;  fill: hsla(120.0, 60.7843137254902%, 50.0%, 1.0);" d="M -5,-5 L 0,5 L 5,-5 Z"></path></g><path transform="matrix(1.0,0.0,0.0,-1.0,-181.26155740732997,-84.5236523481399)" style="stroke-width: 1.0px; stroke: hsla(90.47619047619048, 100.0%, 49.411764705882355%, 1.0); stroke-linecap: butt; stroke-linejoin: miter;  fill: hsla(120.0, 60.7843137254902%, 50.0%, 1.0);" d="M -5,-5 L 0,5 L 5,-5 Z"></path></g><path transform="matrix(1.0,0.0,0.0,-1.0,-187.93852415718166,-68.40402866513378)" style="stroke-width: 1.0px; stroke: hsla(90.47619047619048, 100.0%, 49.411764705882355%, 1.0); stroke-linecap: butt; stroke-linejoin: miter;  fill: hsla(120.0, 60.7843137254902%, 50.0%, 1.0);" d="M -5,-5 L 0,5 L 5,-5 Z"></path></g><path transform="matrix(1.0,0.0,0.0,-1.0,-193.18516525781365,-51.763809020504205)" style="stroke-width: 1.0px; stroke: hsla(90.47619047619048, 100.0%, 49.411764705882355%, 1.0); stroke-linecap: butt; stroke-linejoin: miter;  fill: hsla(120.0, 60.7843137254902%, 50.0%, 1.0);" d="M -5,-5 L 0,5 L 5,-5 Z"></path></g><path transform="matrix(1.0,0.0,0.0,-1.0,-196.9615506024416,-34.72963553338614)" style="stroke-width: 1.0px; stroke: hsla(90.47619047619048, 100.0%, 49.411764705882355%, 1.0); stroke-linecap: butt; stroke-linejoin: miter;  fill: hsla(120.0, 60.7843137254902%, 50.0%, 1.0);" d="M -5,-5 L 0,5 L 5,-5 Z"></path></g><path transform="matrix(1.0,0.0,0.0,-1.0,-199.23893961834912,-17.43114854953164)" style="stroke-width: 1.0px; stroke: hsla(90.47619047619048, 100.0%, 49.411764705882355%, 1.0); stroke-linecap: butt; stroke-linejoin: miter;  fill: hsla(120.0, 60.7843137254902%, 50.0%, 1.0);" d="M -5,-5 L 0,5 L 5,-5 Z"></path></g><path transform="matrix(1.0,0.0,0.0,-1.0,-200.0,-2.4492935982947064E-14)" style="stroke-width: 1.0px; stroke: hsla(90.47619047619048, 100.0%, 49.411764705882355%, 1.0); stroke-linecap: butt; stroke-linejoin: miter;  fill: hsla(120.0, 60.7843137254902%, 50.0%, 1.0);" d="M -5,-5 L 0,5 L 5,-5 Z"></path></g><path transform="matrix(1.0,0.0,0.0,-1.0,-199.23893961834912,17.43114854953159)" style="stroke-width: 1.0px; stroke: hsla(90.47619047619048, 100.0%, 49.411764705882355%, 1.0); stroke-linecap: butt; stroke-linejoin: miter;  fill: hsla(120.0, 60.7843137254902%, 50.0%, 1.0);" d="M -5,-5 L 0,5 L 5,-5 Z"></path></g><path transform="matrix(1.0,0.0,0.0,-1.0,-196.96155060244163,34.729635533386)" style="stroke-width: 1.0px; stroke: hsla(90.47619047619048, 100.0%, 49.411764705882355%, 1.0); stroke-linecap: butt; stroke-linejoin: miter;  fill: hsla(120.0, 60.7843137254902%, 50.0%, 1.0);" d="M -5,-5 L 0,5 L 5,-5 Z"></path></g><path transform="matrix(1.0,0.0,0.0,-1.0,-193.18516525781365,51.76380902050416)" style="stroke-width: 1.0px; stroke: hsla(90.47619047619048, 100.0%, 49.411764705882355%, 1.0); stroke-linecap: butt; stroke-linejoin: miter;  fill: hsla(120.0, 60.7843137254902%, 50.0%, 1.0);" d="M -5,-5 L 0,5 L 5,-5 Z"></path></g><path transform="matrix(1.0,0.0,0.0,-1.0,-187.9385241571817,68.40402866513374)" style="stroke-width: 1.0px; stroke: hsla(90.47619047619048, 100.0%, 49.411764705882355%, 1.0); stroke-linecap: butt; stroke-linejoin: miter;  fill: hsla(120.0, 60.7843137254902%, 50.0%, 1.0);" d="M -5,-5 L 0,5 L 5,-5 Z"></path></g><path transform="matrix(1.0,0.0,0.0,-1.0,-181.26155740733,84.52365234813985)" style="stroke-width: 1.0px; stroke: hsla(90.47619047619048, 100.0%, 49.411764705882355%, 1.0); stroke-linecap: butt; stroke-linejoin: miter;  fill: hsla(120.0, 60.7843137254902%, 50.0%, 1.0);" d="M -5,-5 L 0,5 L 5,-5 Z"></path></g><path transform="matrix(1.0,0.0,0.0,-1.0,-173.20508075688775,99.99999999999994)" style="stroke-width: 1.0px; stroke: hsla(90.47619047619048, 100.0%, 49.411764705882355%, 1.0); stroke-linecap: butt; stroke-linejoin: miter;  fill: hsla(120.0, 60.7843137254902%, 50.0%, 1.0);" d="M -5,-5 L 0,5 L 5,-5 Z"></path></g><path transform="matrix(1.0,0.0,0.0,-1.0,-163.8304088577984,114.71528727020916)" style="stroke-width: 1.0px; stroke: hsla(90.47619047619048, 100.0%, 49.411764705882355%, 1.0); stroke-linecap: butt; stroke-linejoin: miter;  fill: hsla(120.0, 60.7843137254902%, 50.0%, 1.0);" d="M -5,-5 L 0,5 L 5,-5 Z"></path></g><path transform="matrix(1.0,0.0,0.0,-1.0,-153.20888862379562,128.55752193730785)" style="stroke-width: 1.0px; stroke: hsla(90.47619047619048, 100.0%, 49.411764705882355%, 1.0); stroke-linecap: butt; stroke-linejoin: miter;  fill: hsla(120.0, 60.7843137254902%, 50.0%, 1.0);" d="M -5,-5 L 0,5 L 5,-5 Z"></path></g><path transform="matrix(1.0,0.0,0.0,-1.0,-141.42135623730954,141.42135623730948)" style="stroke-width: 1.0px; stroke: hsla(90.47619047619048, 100.0%, 49.411764705882355%, 1.0); stroke-linecap: butt; stroke-linejoin: miter;  fill: hsla(120.0, 60.7843137254902%, 50.0%, 1.0);" d="M -5,-5 L 0,5 L 5,-5 Z"></path></g><path transform="matrix(1.0,0.0,0.0,-1.0,-128.55752193730788,153.2088886237956)" style="stroke-width: 1.0px; stroke: hsla(90.47619047619048, 100.0%, 49.411764705882355%, 1.0); stroke-linecap: butt; stroke-linejoin: miter;  fill: hsla(120.0, 60.7843137254902%, 50.0%, 1.0);" d="M -5,-5 L 0,5 L 5,-5 Z"></path></g><path transform="matrix(1.0,0.0,0.0,-1.0,-114.71528727020927,163.83040885779832)" style="stroke-width: 1.0px; stroke: hsla(90.47619047619048, 100.0%, 49.411764705882355%, 1.0); stroke-linecap: butt; stroke-linejoin: miter;  fill: hsla(120.0, 60.7843137254902%, 50.0%, 1.0);" d="M -5,-5 L 0,5 L 5,-5 Z"></path></g><path transform="matrix(1.0,0.0,0.0,-1.0,-100.00000000000009,173.20508075688767)" style="stroke-width: 1.0px; stroke: hsla(90.47619047619048, 100.0%, 49.411764705882355%, 1.0); stroke-linecap: butt; stroke-linejoin: miter;  fill: hsla(120.0, 60.7843137254902%, 50.0%, 1.0);" d="M -5,-5 L 0,5 L 5,-5 Z"></path></g><path transform="matrix(1.0,0.0,0.0,-1.0,-84.52365234813999,181.26155740732995)" style="stroke-width: 1.0px; stroke: hsla(90.47619047619048, 100.0%, 49.411764705882355%, 1.0); stroke-linecap: butt; stroke-linejoin: miter;  fill: hsla(120.0, 60.7843137254902%, 50.0%, 1.0);" d="M -5,-5 L 0,5 L 5,-5 Z"></path></g><path transform="matrix(1.0,0.0,0.0,-1.0,-68.40402866513388,187.93852415718163)" style="stroke-width: 1.0px; stroke: hsla(90.47619047619048, 100.0%, 49.411764705882355%, 1.0); stroke-linecap: butt; stroke-linejoin: miter;  fill: hsla(120.0, 60.7843137254902%, 50.0%, 1.0);" d="M -5,-5 L 0,5 L 5,-5 Z"></path></g><path transform="matrix(1.0,0.0,0.0,-1.0,-51.76380902050413,193.18516525781365)" style="stroke-width: 1.0px; stroke: hsla(90.47619047619048, 100.0%, 49.411764705882355%, 1.0); stroke-linecap: butt; stroke-linejoin: miter;  fill: hsla(120.0, 60.7843137254902%, 50.0%, 1.0);" d="M -5,-5 L 0,5 L 5,-5 Z"></path></g><path transform="matrix(1.0,0.0,0.0,-1.0,-34.729635533386066,196.9615506024416)" style="stroke-width: 1.0px; stroke: hsla(90.47619047619048, 100.0%, 49.411764705882355%, 1.0); stroke-linecap: butt; stroke-linejoin: miter;  fill: hsla(120.0, 60.7843137254902%, 50.0%, 1.0);" d="M -5,-5 L 0,5 L 5,-5 Z"></path></g><path transform="matrix(1.0,0.0,0.0,-1.0,-17.43114854953165,199.23893961834912)" style="stroke-width: 1.0px; stroke: hsla(90.47619047619048, 100.0%, 49.411764705882355%, 1.0); stroke-linecap: butt; stroke-linejoin: miter;  fill: hsla(120.0, 60.7843137254902%, 50.0%, 1.0);" d="M -5,-5 L 0,5 L 5,-5 Z"></path></g><path transform="matrix(1.0,0.0,0.0,-1.0,-3.6739403974420595E-14,200.0)" style="stroke-width: 1.0px; stroke: hsla(90.47619047619048, 100.0%, 49.411764705882355%, 1.0); stroke-linecap: butt; stroke-linejoin: miter;  fill: hsla(120.0, 60.7843137254902%, 50.0%, 1.0);" d="M -5,-5 L 0,5 L 5,-5 Z"></path></g><path transform="matrix(1.0,0.0,0.0,-1.0,17.431148549531578,199.23893961834912)" style="stroke-width: 1.0px; stroke: hsla(90.47619047619048, 100.0%, 49.411764705882355%, 1.0); stroke-linecap: butt; stroke-linejoin: miter;  fill: hsla(120.0, 60.7843137254902%, 50.0%, 1.0);" d="M -5,-5 L 0,5 L 5,-5 Z"></path></g><path transform="matrix(1.0,0.0,0.0,-1.0,34.729635533385995,196.96155060244163)" style="stroke-width: 1.0px; stroke: hsla(90.47619047619048, 100.0%, 49.411764705882355%, 1.0); stroke-linecap: butt; stroke-linejoin: miter;  fill: hsla(120.0, 60.7843137254902%, 50.0%, 1.0);" d="M -5,-5 L 0,5 L 5,-5 Z"></path></g><path transform="matrix(1.0,0.0,0.0,-1.0,51.763809020504056,193.18516525781368)" style="stroke-width: 1.0px; stroke: hsla(90.47619047619048, 100.0%, 49.411764705882355%, 1.0); stroke-linecap: butt; stroke-linejoin: miter;  fill: hsla(120.0, 60.7843137254902%, 50.0%, 1.0);" d="M -5,-5 L 0,5 L 5,-5 Z"></path></g><path transform="matrix(1.0,0.0,0.0,-1.0,68.40402866513364,187.93852415718172)" style="stroke-width: 1.0px; stroke: hsla(90.47619047619048, 100.0%, 49.411764705882355%, 1.0); stroke-linecap: butt; stroke-linejoin: miter;  fill: hsla(120.0, 60.7843137254902%, 50.0%, 1.0);" d="M -5,-5 L 0,5 L 5,-5 Z"></path></g><path transform="matrix(1.0,0.0,0.0,-1.0,84.52365234813976,181.26155740733006)" style="stroke-width: 1.0px; stroke: hsla(90.47619047619048, 100.0%, 49.411764705882355%, 1.0); stroke-linecap: butt; stroke-linejoin: miter;  fill: hsla(120.0, 60.7843137254902%, 50.0%, 1.0);" d="M -5,-5 L 0,5 L 5,-5 Z"></path></g><path transform="matrix(1.0,0.0,0.0,-1.0,100.00000000000003,173.20508075688772)" style="stroke-width: 1.0px; stroke: hsla(90.47619047619048, 100.0%, 49.411764705882355%, 1.0); stroke-linecap: butt; stroke-linejoin: miter;  fill: hsla(120.0, 60.7843137254902%, 50.0%, 1.0);" d="M -5,-5 L 0,5 L 5,-5 Z"></path></g><path transform="matrix(1.0,0.0,0.0,-1.0,114.71528727020922,163.83040885779835)" style="stroke-width: 1.0px; stroke: hsla(90.47619047619048, 100.0%, 49.411764705882355%, 1.0); stroke-linecap: butt; stroke-linejoin: miter;  fill: hsla(120.0, 60.7843137254902%, 50.0%, 1.0);" d="M -5,-5 L 0,5 L 5,-5 Z"></path></g><path transform="matrix(1.0,0.0,0.0,-1.0,128.55752193730785,153.20888862379562)" style="stroke-width: 1.0px; stroke: hsla(90.47619047619048, 100.0%, 49.411764705882355%, 1.0); stroke-linecap: butt; stroke-linejoin: miter;  fill: hsla(120.0, 60.7843137254902%, 50.0%, 1.0);" d="M -5,-5 L 0,5 L 5,-5 Z"></path></g><path transform="matrix(1.0,0.0,0.0,-1.0,141.42135623730948,141.42135623730954)" style="stroke-width: 1.0px; stroke: hsla(90.47619047619048, 100.0%, 49.411764705882355%, 1.0); stroke-linecap: butt; stroke-linejoin: miter;  fill: hsla(120.0, 60.7843137254902%, 50.0%, 1.0);" d="M -5,-5 L 0,5 L 5,-5 Z"></path></g><path transform="matrix(1.0,0.0,0.0,-1.0,153.20888862379556,128.5575219373079)" style="stroke-width: 1.0px; stroke: hsla(90.47619047619048, 100.0%, 49.411764705882355%, 1.0); stroke-linecap: butt; stroke-linejoin: miter;  fill: hsla(120.0, 60.7843137254902%, 50.0%, 1.0);" d="M -5,-5 L 0,5 L 5,-5 Z"></path></g><path transform="matrix(1.0,0.0,0.0,-1.0,163.83040885779832,114.7152872702093)" style="stroke-width: 1.0px; stroke: hsla(90.47619047619048, 100.0%, 49.411764705882355%, 1.0); stroke-linecap: butt; stroke-linejoin: miter;  fill: hsla(120.0, 60.7843137254902%, 50.0%, 1.0);" d="M -5,-5 L 0,5 L 5,-5 Z"></path></g><path transform="matrix(1.0,0.0,0.0,-1.0,173.20508075688767,100.00000000000009)" style="stroke-width: 1.0px; stroke: hsla(90.47619047619048, 100.0%, 49.411764705882355%, 1.0); stroke-linecap: butt; stroke-linejoin: miter;  fill: hsla(120.0, 60.7843137254902%, 50.0%, 1.0);" d="M -5,-5 L 0,5 L 5,-5 Z"></path></g><path transform="matrix(1.0,0.0,0.0,-1.0,181.26155740732995,84.52365234814)" style="stroke-width: 1.0px; stroke: hsla(90.47619047619048, 100.0%, 49.411764705882355%, 1.0); stroke-linecap: butt; stroke-linejoin: miter;  fill: hsla(120.0, 60.7843137254902%, 50.0%, 1.0);" d="M -5,-5 L 0,5 L 5,-5 Z"></path></g><path transform="matrix(1.0,0.0,0.0,-1.0,187.93852415718163,68.4040286651339)" style="stroke-width: 1.0px; stroke: hsla(90.47619047619048, 100.0%, 49.411764705882355%, 1.0); stroke-linecap: butt; stroke-linejoin: miter;  fill: hsla(120.0, 60.7843137254902%, 50.0%, 1.0);" d="M -5,-5 L 0,5 L 5,-5 Z"></path></g><path transform="matrix(1.0,0.0,0.0,-1.0,193.18516525781365,51.763809020504134)" style="stroke-width: 1.0px; stroke: hsla(90.47619047619048, 100.0%, 49.411764705882355%, 1.0); stroke-linecap: butt; stroke-linejoin: miter;  fill: hsla(120.0, 60.7843137254902%, 50.0%, 1.0);" d="M -5,-5 L 0,5 L 5,-5 Z"></path></g><path transform="matrix(1.0,0.0,0.0,-1.0,196.9615506024416,34.72963553338608)" style="stroke-width: 1.0px; stroke: hsla(90.47619047619048, 100.0%, 49.411764705882355%, 1.0); stroke-linecap: butt; stroke-linejoin: miter;  fill: hsla(120.0, 60.7843137254902%, 50.0%, 1.0);" d="M -5,-5 L 0,5 L 5,-5 Z"></path></g><path transform="matrix(1.0,0.0,0.0,-1.0,199.23893961834912,17.431148549531663)" style="stroke-width: 1.0px; stroke: hsla(90.47619047619048, 100.0%, 49.411764705882355%, 1.0); stroke-linecap: butt; stroke-linejoin: miter;  fill: hsla(120.0, 60.7843137254902%, 50.0%, 1.0);" d="M -5,-5 L 0,5 L 5,-5 Z"></path></g><path transform="matrix(1.0,0.0,0.0,-1.0,200.0,4.898587196589413E-14)" style="stroke-width: 1.0px; stroke: hsla(90.47619047619048, 100.0%, 49.411764705882355%, 1.0); stroke-linecap: butt; stroke-linejoin: miter;  fill: hsla(120.0, 60.7843137254902%, 50.0%, 1.0);" d="M -5,-5 L 0,5 L 5,-5 Z"></path></g></g></svg>