<svg xmlns="http://www.w3.org/2000/svg" width="100.0" height="60.0" viewBox="-50.0 -30.0 100.0 60.0" style=""><g><defs></defs><g><g><g><g><g><g><g><g><g><g><g><g></g><circle transform="matrix(1.0,0.0,0.0,-1.0,-20.0,0.0)" style="stroke-width: 10.0px; stroke: hsla(270.0, 50.0%, 50.0%, 1.0); stroke-linecap: butt; stroke-linejoin: miter;  fill: none;" r="0.5"></circle></g><circle transform="matrix(1.0,0.0,0.0,-1.0,-20.0,0.0)" style="stroke-width: 10.0px; stroke: hsla(300.0, 50.0%, 50.0%, 1.0); stroke-linecap: butt; stroke-linejoin: miter;  fill: none;" r="1.0"></circle></g><circle transform="matrix(1.0,0.0,0.0,-1.0,-20.0,0.0)" style="stroke-width: 10.0px; stroke: hsla(330.0, 50.0%, 50.0%, 1.0); stroke-linecap: butt; stroke-linejoin: miter;  fill: none;" r="1.5"></circle></g><circle transform="matrix(1.0,0.0,0.0,-1.0,-20.0,0.0)" style="stroke-width: 10.0px; stroke: hsla(360.0, 50.0%, 50.0%, 1.0); stroke-linecap: butt; stroke-linejoin: miter;  fill: none;" r="2.0"></circle></g><circle transform="matrix(1.0,0.0,0.0,-1.0,-20.0,0.0)" style="stroke-width: 10.0px; stroke: hsla(390.0, 50.0%, 50.0%, 1.0); stroke-linecap: butt; stroke-linejoin: miter;  fill: none;" r="2.5"></circle></g><circle transform="matrix(1.0,0.0,0.0,-1.0,-20.0,0.0)" style="stroke-width: 10.0px; stroke: hsla(419.99999999999994, 50.0%, 50.0%, 1.0); stroke-linecap: butt; stroke-linejoin: miter;  fill: none;" r="3.0"></circle></g><circle transform="matrix(1.0,0.0,0.0,-1.0,-20.0,0.0)" style="stroke-width: 10.0px; stroke: hsla(450.0, 50.0%, 50.0%, 1.0); stroke-linecap: butt; stroke-linejoin: miter;  fill: none;" r="3.5"></circle></g><circle transform="matrix(1.0,0.0,0.0,-1.0,-20.0,0.0)" style="stroke-width: 10.0px; stroke: hsla(480.0, 50.0%, 50.0%, 1.0); stroke-linecap: butt; stroke-linejoin: miter;  fill: none;" r="4.0"></circle></g><circle transform="matrix(1.0,0.0,0.0,-1.0,-20.0,0.0)" style="stroke-width: 10.0px; stroke: hsla(510.0, 50.0%, 50.0%, 1.0); stroke-linecap: butt; stroke-linejoin: miter;  fill: none;" r="4.5"></circle></g><circle transform="matrix(1.0,0.0,0.0,-1.0,-20.0,0.0)" style="stroke-width: 10.0px; stroke: hsla(540.0, 50.0%, 50.0%, 1.0); stroke-linecap: butt; stroke-linejoin: miter;  fill: none;" r="5.0"></circle></g><g><g><g><g><g><g><g><g><g><g><g><g></g><path transform="matrix(1.0,0.0,0.0,-1.0,0.0,0.0)" style="stroke-width: 10.0px; stroke: hsla(240.0, 100.0%, 50.0%, 0.050000000000000044); stroke-linecap: butt; stroke-linejoin: miter;  fill: none;" d="M -0.5,-0.5 L 0,0.5 L 0.5,-0.5 Z"></path></g><path transform="matrix(1.0,0.0,0.0,-1.0,0.0,0.0)" style="stroke-width: 10.0px; stroke: hsla(240.0, 100.0%, 50.0%, 0.09999999999999998); stroke-linecap: butt; stroke-linejoin: miter;  fill: none;" d="M -1,-1 L 0,1 L 1,-1 Z"></path></g><path transform="matrix(1.0,0.0,0.0,-1.0,0.0,0.0)" style="stroke-width: 10.0px; stroke: hsla(240.0, 100.0%, 50.0%, 0.15000000000000002); stroke-linecap: butt; stroke-linejoin: miter;  fill: none;" d="M -1.5,-1.5 L 0,1.5 L 1.5,-1.5 Z"></path></g><path transform="matrix(1.0,0.0,0.0,-1.0,0.0,0.0)" style="stroke-width: 10.0px; stroke: hsla(240.0, 100.0%, 50.0%, 0.19999999999999996); stroke-linecap: butt; stroke-linejoin: miter;  fill: none;" d="M -2,-2 L 0,2 L 2,-2 Z"></path></g><path transform="matrix(1.0,0.0,0.0,-1.0,0.0,0.0)" style="stroke-width: 10.0px; stroke: hsla(240.0, 100.0%, 50.0%, 0.25); stroke-linecap: butt; stroke-linejoin: miter;  fill: none;" d="M -2.5,-2.5 L 0,2.5 L 2.5,-2.5 Z"></path></g><path transform="matrix(1.0,0.0,0.0,-1.0,0.0,0.0)" style="stroke-width: 10.0px; stroke: hsla(240.0, 100.0%, 50.0%, 0.30000000000000004); stroke-linecap: butt; stroke-linejoin: miter;  fill: none;" d="M -3,-3 L 0,3 L 3,-3 Z"></path></g><path transform="matrix(1.0,0.0,0.0,-1.0,0.0,0.0)" style="stroke-width: 10.0px; stroke: hsla(240.0, 100.0%, 50.0%, 0.35); stroke-linecap: butt; stroke-linejoin: miter;  fill: none;" d="M -3.5,-3.5 L 0,3.5 L 3.5,-3.5 Z"></path></g><path transform="matrix(1.0,0.0,0.0,-1.0,0.0,0.0)" style="stroke-width: 10.0px; stroke: hsla(240.0, 100.0%, 50.0%, 0.4); stroke-linecap: butt; stroke-linejoin: miter;  fill: none;" d="M -4,-4 L 0,4 L 4,-4 Z"></path></g><path transform="matrix(1.0,0.0,0.0,-1.0,0.0,0.0)" style="stroke-width: 10.0px; stroke: hsla(240.0, 100.0%, 50.0%, 0.44999999999999996); stroke-linecap: butt; stroke-linejoin: miter;  fill: none;" d="M -4.5,-4.5 L 0,4.5 L 4.5,-4.5 Z"></path></g><path transform="matrix(1.0,0.0,0.0,-1.0,0.0,0.0)" style="stroke-width: 10.0px; stroke: hsla(240.0, 100.0%, 50.0%, 0.5); stroke-linecap: butt; stroke-linejoin: miter;  fill: none;" d="M -5,-5 L 0,5 L 5,-5 Z"></path></g><g><g><g><g><g><g><g><g><g><g><g></g><rect transform="matrix(1.0,0.0,0.0,-1.0,20.0,0.0)" style="stroke-width: 10.0px; stroke: hsla(270.0, 50.0%, 50.0%, 1.0); stroke-linecap: butt; stroke-linejoin: miter;  fill: none;" x="-0.5" y="-0.5" width="1.0" height="1.0"></rect></g><rect transform="matrix(1.0,0.0,0.0,-1.0,20.0,0.0)" style="stroke-width: 10.0px; stroke: hsla(300.0, 50.0%, 50.0%, 1.0); stroke-linecap: butt; stroke-linejoin: miter;  fill: none;" x="-1.0" y="-1.0" width="2.0" height="2.0"></rect></g><rect transform="matrix(1.0,0.0,0.0,-1.0,20.0,0.0)" style="stroke-width: 10.0px; stroke: hsla(330.0, 50.0%, 50.0%, 1.0); stroke-linecap: butt; stroke-linejoin: miter;  fill: none;" x="-1.5" y="-1.5" width="3.0" height="3.0"></rect></g><rect transform="matrix(1.0,0.0,0.0,-1.0,20.0,0.0)" style="stroke-width: 10.0px; stroke: hsla(360.0, 50.0%, 50.0%, 1.0); stroke-linecap: butt; stroke-linejoin: miter;  fill: none;" x="-2.0" y="-2.0" width="4.0" height="4.0"></rect></g><rect transform="matrix(1.0,0.0,0.0,-1.0,20.0,0.0)" style="stroke-width: 10.0px; stroke: hsla(390.0, 50.0%, 50.0%, 1.0); stroke-linecap: butt; stroke-linejoin: miter;  fill: none;" x="-2.5" y="-2.5" width="5.0" height="5.0"></rect></g><rect transform="matrix(1.0,0.0,0.0,-1.0,20.0,0.0)" style="stroke-width: 10.0px; stroke: hsla(419.99999999999994, 50.0%, 50.0%, 1.0); stroke-linecap: butt; stroke-linejoin: miter;  fill: none;" x="-3.0" y="-3.0" width="6.0" height="6.0"></rect></g><rect transform="matrix(1.0,0.0,0.0,-1.0,20.0,0.0)" style="stroke-width: 10.0px; stroke: hsla(450.0, 50.0%, 50.0%, 1.0); stroke-linecap: butt; stroke-linejoin: miter;  fill: none;" x="-3.5" y="-3.5" width="7.0" height="7.0"></rect></g><rect transform="matrix(1.0,0.0,0.0,-1.0,20.0,0.0)" style="stroke-width: 10.0px; stroke: hsla(480.0, 50.0%, 50.0%, 1.0); stroke-linecap: butt; stroke-linejoin: miter;  fill: none;" x="-4.0" y="-4.0" width="8.0" height="8.0"></rect></g><rect transform="matrix(1.0,0.0,0.0,-1.0,20.0,0.0)" style="stroke-width: 10.0px; stroke: hsla(510.0, 50.0%, 50.0%, 1.0); stroke-linecap: butt; stroke-linejoin: miter;  fill: none;" x="-4.5" y="-4.5" width="9.0" height="9.0"></rect></g><rect transform="matrix(1.0,0.0,0.0,-1.0,20.0,0.0)" style="stroke-width: 10.0px; stroke: hsla(540.0, 50.0%, 50.0%, 1.0); stroke-linecap: butt; stroke-linejoin: miter;  fill: none;" x="-5.0" y="-5.0" width="10.0" height="10.0"></rect></g></g></g></g></svg>