<svg xmlns="http://www.w3.org/2000/svg" width="381.0" height="381.0" viewBox="-190.5 -190.5 381.0 381.0" style=""><g><defs></defs><g><g><g><g><g><g><g><g><g><g><g></g><g><rect transform="matrix(1.0,0.0,0.0,-1.0,0.0,0.0)" style="stroke-width: 1.0px; stroke: hsla(225.0, 72.72727272727272%, 56.86274509803921%, 1.0); stroke-linecap: butt; stroke-linejoin: miter;  fill: none;" x="-62.0" y="-62.0" width="124.0" height="124.0"></rect><circle transform="matrix(1.0,0.0,0.0,-1.0,0.0,0.0)" style="stroke-width: 1.0px; stroke: hsla(225.0, 72.72727272727272%, 56.86274509803921%, 1.0); stroke-linecap: butt; stroke-linejoin: miter;  fill: none;" r="62.0"></circle></g></g><g><rect transform="matrix(1.0,0.0,0.0,-1.0,0.0,0.0)" style="stroke-width: 1.0px; stroke: hsla(225.0, 72.72727272727272%, 56.86274509803921%, 1.0); stroke-linecap: butt; stroke-linejoin: miter;  fill: none;" x="-74.0" y="-74.0" width="148.0" height="148.0"></rect><circle transform="matrix(1.0,0.0,0.0,-1.0,0.0,0.0)" style="stroke-width: 1.0px; stroke: hsla(225.0, 72.72727272727272%, 56.86274509803921%, 1.0); stroke-linecap: butt; stroke-linejoin: miter;  fill: none;" r="74.0"></circle></g></g><g><rect transform="matrix(1.0,0.0,0.0,-1.0,0.0,0.0)" style="stroke-width: 1.0px; stroke: hsla(225.0, 72.72727272727272%, 56.86274509803921%, 1.0); stroke-linecap: butt; stroke-linejoin: miter;  fill: none;" x="-86.0" y="-86.0" width="172.0" height="172.0"></rect><circle transform="matrix(1.0,0.0,0.0,-1.0,0.0,0.0)" style="stroke-width: 1.0px; stroke: hsla(225.0, 72.72727272727272%, 56.86274509803921%, 1.0); stroke-linecap: butt; stroke-linejoin: miter;  fill: none;" r="86.0"></circle></g></g><g><rect transform="matrix(1.0,0.0,0.0,-1.0,0.0,0.0)" style="stroke-width: 1.0px; stroke: hsla(225.0, 72.72727272727272%, 56.86274509803921%, 1.0); stroke-linecap: butt; stroke-linejoin: miter;  fill: none;" x="-98.0" y="-98.0" width="196.0" height="196.0"></rect><circle transform="matrix(1.0,0.0,0.0,-1.0,0.0,0.0)" style="stroke-width: 1.0px; stroke: hsla(225.0, 72.72727272727272%, 56.86274509803921%, 1.0); stroke-linecap: butt; stroke-linejoin: miter;  fill: none;" r="98.0"></circle></g></g><g><rect transform="matrix(1.0,0.0,0.0,-1.0,0.0,0.0)" style="stroke-width: 1.0px; stroke: hsla(225.0, 72.72727272727272%, 56.86274509803921%, 1.0); stroke-linecap: butt; stroke-linejoin: miter;  fill: none;" x="-110.0" y="-110.0" width="220.0" height="220.0"></rect><circle transform="matrix(1.0,0.0,0.0,-1.0,0.0,0.0)" style="stroke-width: 1.0px; stroke: hsla(225.0, 72.72727272727272%, 56.86274509803921%, 1.0); stroke-linecap: butt; stroke-linejoin: miter;  fill: none;" r="110.0"></circle></g></g><g><rect transform="matrix(1.0,0.0,0.0,-1.0,0.0,0.0)" style="stroke-width: 1.0px; stroke: hsla(225.0, 72.72727272727272%, 56.86274509803921%, 1.0); stroke-linecap: butt; stroke-linejoin: miter;  fill: none;" x="-122.0" y="-122.0" width="244.0" height="244.0"></rect><circle transform="matrix(1.0,0.0,0.0,-1.0,0.0,0.0)" style="stroke-width: 1.0px; stroke: hsla(225.0, 72.72727272727272%, 56.86274509803921%, 1.0); stroke-linecap: butt; stroke-linejoin: miter;  fill: none;" r="122.0"></circle></g></g><g><rect transform="matrix(1.0,0.0,0.0,-1.0,0.0,0.0)" style="stroke-width: 1.0px; stroke: hsla(225.0, 72.72727272727272%, 56.86274509803921%, 1.0); stroke-linecap: butt; stroke-linejoin: miter;  fill: none;" x="-134.0" y="-134.0" width="268.0" height="268.0"></rect><circle transform="matrix(1.0,0.0,0.0,-1.0,0.0,0.0)" style="stroke-width: 1.0px; stroke: hsla(225.0, 72.72727272727272%, 56.86274509803921%, 1.0); stroke-linecap: butt; stroke-linejoin: miter;  fill: none;" r="134.0"></circle></g></g><g><rect transform="matrix(1.0,0.0,0.0,-1.0,0.0,0.0)" style="stroke-width: 1.0px; stroke: hsla(225.0, 72.72727272727272%, 56.86274509803921%, 1.0); stroke-linecap: butt; stroke-linejoin: miter;  fill: none;" x="-146.0" y="-146.0" width="292.0" height="292.0"></rect><circle transform="matrix(1.0,0.0,0.0,-1.0,0.0,0.0)" style="stroke-width: 1.0px; stroke: hsla(225.0, 72.72727272727272%, 56.86274509803921%, 1.0); stroke-linecap: butt; stroke-linejoin: miter;  fill: none;" r="146.0"></circle></g></g><g><rect transform="matrix(1.0,0.0,0.0,-1.0,0.0,0.0)" style="stroke-width: 1.0px; stroke: hsla(225.0, 72.72727272727272%, 56.86274509803921%, 1.0); stroke-linecap: butt; stroke-linejoin: miter;  fill: none;" x="-158.0" y="-158.0" width="316.0" height="316.0"></rect><circle transform="matrix(1.0,0.0,0.0,-1.0,0.0,0.0)" style="stroke-width: 1.0px; stroke: hsla(225.0, 72.72727272727272%, 56.86274509803921%, 1.0); stroke-linecap: butt; stroke-linejoin: miter;  fill: none;" r="158.0"></circle></g></g><g><rect transform="matrix(1.0,0.0,0.0,-1.0,0.0,0.0)" style="stroke-width: 1.0px; stroke: hsla(225.0, 72.72727272727272%, 56.86274509803921%, 1.0); stroke-linecap: butt; stroke-linejoin: miter;  fill: none;" x="-170.0" y="-170.0" width="340.0" height="340.0"></rect><circle transform="matrix(1.0,0.0,0.0,-1.0,0.0,0.0)" style="stroke-width: 1.0px; stroke: hsla(225.0, 72.72727272727272%, 56.86274509803921%, 1.0); stroke-linecap: butt; stroke-linejoin: miter;  fill: none;" r="170.0"></circle></g></g></g></svg>