<svg xmlns="http://www.w3.org/2000/svg" width="288.11675126861576" height="272.68494544707977" viewBox="-143.01709072460517 -136.34247272354008 288.11675126861576 272.68494544707977" style=""><g><defs></defs><path transform="matrix(1.0,0.0,0.0,-1.0,0.0,0.0)" style="stroke-width: 1.0px; stroke: hsla(240.0, 100.0%, 27.254901960784313%, 1.0); stroke-linecap: butt; stroke-linejoin: miter;  fill: none;" d="M 0,0 M 122,-1.5853140407112906E-12 C 115.43617184955576,-11.769017580441995 99.16085356457792,-58.35737929857899 82.61703109733462,-70.61410548264404 C 66.07320863009132,-82.87083166670907 35.391309061990796,-76.7197080791262 22.73706519654018,-73.54035710439183 C 10.082821331089558,-70.36100612965745 9.74373586573439,-54.79062012775176 6.691567904630911,-51.53799963423777 C 3.639399943527431,-48.28537914072379 7.804408856265357,-53.088875042252546 4.424057429919302,-54.024634143307914 C 1.0437060035732484,-54.96039324436328 -8.60963563521933,-57.55518537226906 -13.590540653445414,-57.15255424056999 C -18.571445671671498,-56.74992310887092 -20.61148662457266,-51.244434898617236 -25.461372679437197,-51.608847353113504 C -30.31125873430173,-51.97325980760977 -31.70371076231336,-60.17055455091073 -42.689856982632605,-59.33902896754761 C -53.67600320295187,-58.507503384184496 -78.7933869632843,-60.54654218636131 -91.37825000135271,-46.619693852934816 C -103.96311303942109,-32.69284551950833 -122.01709072460517,1.407698205876348 -118.19903521104293,24.222061033011293 C -114.38097969748067,47.036423860146236 -87.9738140763928,80.50914665869954 -68.4699169199792,90.26648310987484 C -48.96601976356558,100.02381956105013 -14.594856967734891,89.82168186351049 -1.175652272561269,82.76607974006309 C 12.243552422612353,75.71047761661568 11.081099505757146,53.73053487888014 12.045311251062532,47.9328703691904 C 13.00952299636792,42.13520585950066 2.894525453096335,46.438840206485935 4.609618199271059,47.98009268192467 C 6.324710945445784,49.521345157363385 15.91391362877305,57.16055188804315 22.33586772811088,57.18038522182273 C 28.75782182744871,57.200218555602305 36.90787893781353,50.80335610136111 43.14134279529804,48.09909268460213 C 49.374806652782546,45.39482926784316 51.24850716678575,45.66799652375385 59.73665087301792,40.95480472126888 C 68.22479457925009,36.24161291878391 86.18654027631385,34.44123727581083 94.070205032691,19.819941869692308 C 101.95386978906818,5.19864646357379 114.38852113106721,-26.083324643935246 107.03863941128093,-46.772967715442235 C 99.68875769149463,-67.46261078694921 71.24307854996769,-97.68705984401497 49.970914713973265,-104.31791655934964 C 28.698750877978842,-110.9487732746843 -7.3231953203974784,-97.09901482861925 -20.59434360468562,-86.55810800745024 C -33.86549188897376,-76.01720118628126 -30.924250085912107,-48.939151319701004 -29.65597499175559,-41.072475632335724 C -28.387699897599074,-33.20579994497046 -12.909089886362247,-37.18801856425796 -12.984693039746531,-39.35805388325862 C -13.060296193130815,-41.52808920225928 -22.499090692807567,-53.785316306429 -30.10959391206129,-54.09268754633969 C -37.720097131315015,-54.40005878625038 -51.53792419749228,-46.972692421646435 -58.647712355268865,-41.20228132272274 C -65.75750051304544,-35.431870223799045 -67.47454128023425,-27.682252422820525 -72.76832285872078,-19.47022095279749 C -78.06210443720731,-11.258189482774453 -87.66669318051424,-6.190959590997679 -90.41040182618808,8.06990749741548 C -93.1541104718619,22.33077458582864 -99.56037630031858,48.79525895335297 -89.2305747327638,66.09498157768147 C -78.90077316520902,83.39470420200996 -50.16367762872701,108.74819078747208 -28.431592420859353,111.8682432433865 C -6.699507212991705,114.98829569930093 28.89976324015471,98.21893937762576 41.161936514442104,84.81529631316802 C 53.4241097887295,71.4116532487103 48.62970077739039,40.810122676583156 45.14144722486505,31.44638485664012 C 41.65319367233971,22.08264703669708 21.689723914775737,25.866357290248928 20.23241519929006,28.63286939350978 C 18.775106483804386,31.39938149677063 27.935736321594856,47.593732339101386 36.397594931951005,48.04545747620522 C 44.85945354230716,48.49718261330906 63.58020549137916,39.98531068123225 71.00356686142696,31.343220216132824 C 78.42692823147475,22.701129751033402 79.34818768539274,7.294637244555662 80.93776315223775,-3.8070853143913226 C 82.52733861908276,-14.908807873338306 83.04569692723764,-22.4267036272731 80.54101966249698,-35.267115137549084 C 78.03634239775631,-48.10752664782507 78.4414956527108,-67.98848759460611 65.9096995637938,-80.84955437604722 C 53.377903474876796,-93.71062115748833 26.201355980297595,-112.94306355469037 5.3502431289949755,-112.43351582619572 C -15.500869722307646,-111.92396809770105 -48.69620288783332,-93.24462663204332 -59.19697754402194,-77.79226800507925 C -69.69775220021056,-62.33990937811518 -63.192958217196924,-29.953586555094457 -57.65440480813675,-19.719364064411295 C -52.11585139907658,-9.48514157372813 -28.782371223215858,-13.11347304736806 -25.965657089660933,-16.386933060980272 C -23.14894295610601,-19.660393074592488 -31.84809963870011,-38.89897673947157 -40.754120006807206,-39.36012414608457 C -49.660140374914306,-39.821271552697574 -72.24132797796581,-30.284693476291352 -79.4017792983035,-19.153817500658317 C -86.56223061864118,-8.022941525025276 -86.11305352606293,14.2266514298147 -83.71682792883333,27.425131707713668 C -81.32060233160372,40.62361198561264 -72.55049717198068,49.606530600331844 -65.02442571492585,60.03706416673552 C -57.49835425787103,70.46759773313919 -52.34621744833667,82.3517920932447 -38.560399186504384,90.00833310613568 C -24.77458092467209,97.66487411902665 -0.992252207348912,109.96515426593379 17.690483856067903,105.97631024408135 C 36.37321991948472,101.98746622222892 65.39347932377635,82.62375872933737 73.53601719399651,66.07526897502099 C 81.67855506421668,49.526779220704604 73.81870638750551,17.15152569939963 66.5457110773889,6.685371718183051 C 59.272715767272295,-3.78078226303353 33.850466809898556,-0.3587926816628754 29.898045333296796,3.278345087721502 C 25.945623856695036,6.9154828571058795 33.93770548174522,28.148817727544454 42.83118221777834,28.508198334489315 C 51.724658953811456,28.86757894143417 76.90867464441881,18.49921803496916 83.25890574949551,5.434628729390654 C 89.60913685457221,-7.629960576187852 87.34064673423133,-35.5059220377514 80.93256884823852,-49.87933749898172 C 74.52449096224568,-64.25275296021204 56.81245934589535,-73.63187682018831 44.81043843353855,-80.80586403799121 C 32.80841752118176,-87.97985125579412 22.910607520849386,-90.90640355629989 8.920443374097783,-92.92326080579909 C -5.069720772653818,-94.94011805529829 -23.767688735058083,-99.97137370654248 -39.13054644697105,-92.90700753498643 C -54.493404158884026,-85.8426413634304 -77.87885867763755,-67.15254841338847 -83.25670289738004,-50.537063776462844 C -88.63454711712255,-33.92157913953721 -79.9642588101154,-3.302736762877102 -71.39761176542602,6.785900286567372 C -62.83096472073666,16.874537336011848 -36.68918457820663,13.806935893161842 -31.85682062924381,9.994758520204 C -27.024456680280988,6.1825811472461565 -34.003500280663054,-15.903978872582003 -42.40342807164909,-16.087163951179694 C -50.80335586263512,-16.270349029777385 -77.19359743405492,-5.403781106922044 -82.25638737515999,8.895648048617858 C -87.31917731626504,23.19507720415776 -82.96002052966307,55.14826292222775 -72.78016771827947,69.70941098205972 C -62.600314906895875,84.2705590418917 -36.8292022424285,92.98559764375857 -21.177270506858406,96.26253640760969 C -5.525338771288312,99.53947517146082 8.012397052061283,93.07211747547052 21.13142269514109,89.37104356516649 C 34.2504483382209,85.66996965486247 46.43612410502792,83.57223029651179 57.53688335162044,74.05609294578555 C 68.63764259821295,64.53995559505931 85.31846445541423,47.91795914986883 87.73597817469617,32.27421946080905 C 90.15349189397811,16.630479771749275 81.36646499716456,-10.638760591202 72.04196566731206,-19.806345188573104 C 62.71746633745954,-28.97392978594421 37.2315100873334,-26.497132785041185 31.788982195581113,-22.73128812341757 C 26.346454303828825,-18.965443461793956 31.957274989481693,2.810113009330085 39.386798316798334,2.788722781168575 C 46.81632164411497,2.7673325530070656 72.96200029665651,-8.128994617764471 76.36612215948092,-22.85962949238663 C 79.77024402230532,-37.59026436700879 73.26423928049549,-71.83101708267193 59.811529493744715,-85.59508646656437 C 46.358819706993934,-99.35915585045682 13.901249713110785,-106.44839732159024 -4.350136561023689,-105.44404579574125 C -22.601522835158164,-104.43969426989224 -38.472102626456326,-88.70641622610913 -49.69678815106212,-79.56897731147038 C -60.92147367566792,-70.43153839683163 -65.53297117757558,-61.79237365635649 -71.69824970865845,-50.61941230790877 C -77.86352823974131,-39.44645095946105 -87.21102439582644,-26.222255193058896 -86.68845933755938,-12.531209220784085 C -86.16589427929232,1.159836751490726 -78.0508283981943,23.727701113709145 -68.56285935905605,31.526863525740097 C -59.074890319917785,39.32602593777105 -35.54619269169141,37.74507286664562 -29.760645102729825,34.26376525140164 C -23.975097513768244,30.78245763615765 -27.833281877761326,10.435330852162691 -33.849573825286555,10.639017834276151 C -39.86586577281178,10.842704816389608 -64.34997599435538,21.184991435784926 -65.85839678788119,35.48588714408239 C -67.366817581407,49.78678285237985 -58.89301934294102,84.39244756254548 -42.90009858644146,96.44439208406094 C -26.9071778299419,108.49633660557639 10.45246991168409,113.17811077731035 30.099127751116164,107.79755427317511 C 49.745785590548245,102.41699776903984 66.54565890531175,78.1139648488047 74.979848450151,64.16105305924935 C 83.41403799499024,50.20814126969401 79.83712335554546,36.00416839912831 80.70426502015164,24.080083535843073 C 81.5714066847578,12.155998672557836 83.41941916088352,3.4950941218778837 80.18269843778803,-7.383456120462066 C 76.94597771469256,-18.262006362802016 70.32274119947108,-35.089705461866004 61.28394068157878,-41.19121791819663 C 52.24514016368647,-47.29273037452725 31.82808814755135,-46.952164402223104 25.94989533043417,-43.99253085844582 C 20.07170251331699,-41.032897314668524 21.791224438890907,-23.1197440463997 26.014783778875696,-23.43341665553291 C 30.238343118860485,-23.747089264666126 51.76303963640803,-32.868715773157554 51.29125137034292,-45.874566513245114 C 50.819463104277794,-58.88041725333269 40.79246865553784,-91.91165348663755 23.184054182485028,-101.46852109605831 C 5.575639709432223,-111.02538870547905 -34.59478413325851,-112.76464952154181 -54.35923546797391,-103.21577216976958 C -74.1236868026893,-93.66689481799733 -90.4619374891836,-62.02584148763102 -95.4026538258074,-44.17525698542494 C -100.3433701624312,-26.32467248321886 -88.46489133212049,-7.838714846621959 -84.00353348771674,3.88773484346688 C -79.54217564331297,15.61418453355572 -74.17813950959957,18.800902365783813 -68.63450675938486,26.183441155108092 C -63.09087400917014,33.56597994443238 -58.741863110966996,43.97755221241082 -50.74173698642841,48.182967579412576 C -42.74161086188982,52.38838294641433 -26.381802609036722,53.636274091837684 -20.633750012153307,51.41593335711858 C -14.88569741526989,49.19559262239949 -14.11212629764598,34.553642533921355 -16.25342140512791,34.86092317109796 C -18.394716512609836,35.16820380827456 -35.85850704904626,42.363409254391165 -33.48152065704489,53.259617180178196 C -31.104534265043526,64.15582510596523 -20.15437654394781,93.77426558001194 -1.991503053119711,100.23817072582017 C 16.171370437708386,106.7020758716284 56.87949848231906,105.25692356744764 75.4957202879237,92.04304805502761 C 94.11194209352836,78.82917254260758 108.71559105500491,41.549902914761326 109.70582778050822,20.954917651299965 C 110.69606450601151,0.3599323878386051 90.92510968008196,-20.919798303537547 81.43714064094353,-31.52686352574055 C 71.94917160180508,-42.13392874794355 60.07636291840948,-39.26484200597565 52.778013545677624,-42.68747368191803 C 45.47966417294577,-46.11010535786041 44.08169573154899,-49.81805243530895 37.64704440455239,-52.062653581394834 C 31.212393077555777,-54.30725472748071 19.599872756394806,-57.455528910582636 14.170105583697962,-56.15508055843334 C 8.74033841100112,-54.85463220628406 5.186962242737184,-44.10857839861981 5.068441368371337,-44.259963468499095 C 4.9499204940054895,-44.41134853837837 17.51163328270186,-48.98715873512858 13.45898033750288,-57.063390977709 C 9.406327392303899,-65.13962322028942 -1.6611122982751496,-89.71929310419561 -19.24747630282254,-92.71735692398165 C -36.83384030736993,-95.71542074376771 -75.7624125733201,-91.15988389855083 -92.05920368978147,-75.05177389642535 C -108.3559948062428,-58.94366389429987 -120.1638388662238,-18.095630604516618 -117.02822300159066,3.9313030887712177 C -113.89260713695751,25.958236782059057 -87.1474505053233,48.449450714253345 -73.24550850198258,57.10982826330168 C -59.34356649864188,65.77020581235003 -42.017966416005315,56.64635711369194 -33.61657098154641,55.89356838306127 C -25.215175547087515,55.1407796524306 -27.277268643367545,52.24668326933829 -22.837135895229203,52.59309587951762 C -18.397003147090853,52.93950848969695 -11.936951588754335,58.224134823774456 -6.975774492716326,57.97204404413725 C -2.0145973966783184,57.71995326450004 4.501655677451128,51.25259556851004 6.929926680998841,51.08055120169434 C 9.358197684546555,50.908506834878644 2.2328123452227664,52.24117974431636 7.59385152856996,56.939777843243036 C 12.954890711917153,61.63837594216971 23.21446268623609,79.86366159814357 39.096161781082,79.27213979525438 C 54.97786087592792,78.6806179923652 89.90667563317099,71.40179425092494 102.88404609764542,53.39064702590797 C 115.86141656211987,35.37949980089099 124.09966054401042,-6.721477150225458 116.96038456792866,-28.79474355484747 C 109.8211085918469,-50.86800995946948 77.4823050749891,-73.00808822098087 60.048390241154785,-79.04895140182411 C 42.61447540732047,-85.08981458266736 21.161293486903183,-69.92283622199666 12.356895564922747,-65.03992263990696 C 3.5524976429423094,-60.157009057817255 9.364507729309128,-51.12799893953015 7.222002709272157,-49.7514699092859 C 5.079497689235186,-48.37494087904165 3.881608446450143,-55.91962780467052 -0.4981345552990808,-56.7807484584415 C -4.877877557048304,-57.641869112212476 -14.40402351627734,-55.58119717659873 -19.056455301223185,-54.918193831911765 C -23.70888708616903,-54.2551904872248 -22.22087329288765,-51.846875423622784 -28.412725264974164,-52.80272839031972 C -34.604577237060674,-53.75858135701666 -43.08155171420091,-64.70239997473188 -56.207567133742266,-60.65331163209339 C -69.33358255328362,-56.6042232894549 -98.2753410461891,-47.27380657566756 -107.16881778222229,-28.508198334488785 C -116.0622945182555,-9.742590093310016 -120.29663334100793,31.189522397377612 -109.56842754994146,51.94033781497923 C -98.84022175887497,72.69115323258086 -62.67250820401961,93.0452856578034 -42.79958303582335,95.99669417112095 C -22.926657867627096,98.94810268443848 1.1572086321539514,78.36028808671135 9.669123459236056,69.64878889488445 C 18.181038286318163,60.93728970305754 8.584734841585691,46.560806446283955 8.271905926669278,43.72769902015952 C 7.959077011752868,40.894591594035084 4.072605499619612,50.68144046655891 7.792149969737585,52.65014433813781 C 11.511694439855555,54.6188482097167 23.933002062709026,56.841959738065384 30.589172747377113,55.53992224963295 C 37.245343432045196,54.23788476120052 41.258131885831126,47.76893935993143 47.72917407774607,44.8379194075432 C 54.20021626966102,41.90689945515496 59.94806255140974,45.084015591334456 69.4154258988668,37.95380253530353 C 78.88278924632387,30.82358947927261 100.20477646786969,20.345750624390384 104.53335416248844,2.056641071357687 C 108.8619318571072,-16.23246848167501 109.02251535387485,-53.616443810851194 95.38689206657938,-71.78085478289265 C 81.7512687792839,-89.9452657549341 43.79905984250609,-107.3014972906691 22.719614438715524,-106.92982476089104 C 1.640169034924962,-106.55815223111296 -23.510352273233575,-81.55419510052135 -31.089780356163995,-69.55081960422422 C -38.66920843909441,-57.54744410792708 -25.527864171051974,-38.86810264226948 -22.75695405886699,-34.909571783108206 C -19.986043946682006,-30.95104092394693 -11.45522377724096,-42.8011176287209 -14.464319683054102,-45.79963444925655 C -17.473415588867244,-48.79815126979219 -32.49729760474528,-54.951212154475364 -40.811529493745844,-52.90067270632208 C -49.12576138274642,-50.850133258168796 -58.18269287672434,-40.22263734780956 -64.34971101705752,-33.49639776033682 C -70.51672915739069,-26.770158172864083 -72.6971889928166,-22.16223374805035 -77.81363833574488,-12.543235181485645 C -82.93008767867316,-2.9242366149209444 -95.45381625341567,7.636368271660646 -95.04840707462715,24.217593639051394 C -94.6429978958386,40.79881900644215 -91.02073412022213,72.44503386476198 -75.38118326301364,86.94411702285886 C -59.74163240580515,101.44320018095574 -22.20471821585168,114.8879932662636 -1.2111019313762177,111.21209258763274 C 19.782514353099245,107.53619190900186 44.47278056962593,79.44809261125978 50.580514443839135,64.8887129510737 C 56.68824831805233,50.32933329088761 40.512933824468064,28.572752733091935 35.43530131390297,23.855814626516256 C 30.357668803337873,19.13887651994057 17.844591089924112,32.704924181824445 20.114719380448562,36.5870843116196 C 22.384847670973013,40.469244441414745 39.53657809691124,50.00158596509083 49.05607105704966,47.14877540528716 C 58.57556401718807,44.295964845483496 71.93789556279252,29.664417117008494 77.23167714127905,19.47022095279762 C 82.52545871976558,9.276024788586753 80.48475668465697,-2.673135030684604 80.81876052796885,-14.016401579978062 C 81.15276437128074,-25.359668129271515 84.22512683997586,-34.864444608518994 79.23570020115037,-48.58937834296312 C 74.24627356232489,-62.314312077407244 67.4610502389343,-86.35897810515276 50.88220069501595,-96.36600398664281 C 34.30335115109761,-106.37302986813286 -0.5992148197026003,-115.34247272354008 -20.237397062359705,-108.63153363190334 C -39.87557930501681,-101.9205945402666 -62.71267831326494,-72.32911339930308 -66.94689276092667,-56.100369436822334 C -71.1811072085884,-39.87162547434157 -52.732605442601376,-16.36078419652019 -45.6426837483301,-11.259069857018781 C -38.55276205405882,-6.157355517517373 -22.8899765259408,-20.929940558594044 -24.407362595299016,-25.490083399813876 C -25.924748664657226,-30.050226241033712 -44.55642338098293,-42.259720529883374 -54.74700016447937,-38.619926904337774 C -64.9375769479758,-34.98013327879218 -81.6401222635334,-16.76609199047479 -85.5508232962776,-3.651321646540307 C -89.4615243290218,9.46344869739418 -82.79665165720111,27.882007617599076 -78.21120636094449,40.06869515926914 C -73.62576106468788,52.25538270093921 -67.15708941413098,59.58642030879518 -58.038151518737926,69.46880360348007 C -48.91921362334488,79.35118689816495 -39.862688981529665,94.37275932127316 -23.497578988586216,99.36299492737852 C -7.1324689956427685,104.3532305334839 23.036517445110473,108.65686488046889 40.15250843892277,99.41021724011227 C 57.26849943273507,90.16356959975566 77.07667967473111,60.801261169591356 79.19836697428758,43.88310908523881 C 81.32005427384404,26.964957000886262 61.56762023893419,3.034919241250756 52.882632236261564,-2.0986952660030127 C 44.19764423358893,-7.232309773256781 26.329051798325718,8.095021361001145 27.088438958251785,13.081422041716193 C 27.847826118177853,18.06782272243124 47.16100418486897,32.15394951652502 57.43895519581798,27.819708818287268 C 67.71690620676699,23.485468120049518 86.6372665927712,2.373952499213361 88.75614502394586,-12.924022147710305 C 90.87502345512053,-28.22199679463397 79.48458186972408,-51.87115555392268 70.15222578286598,-63.96813906325473 C 60.81986969600789,-76.06512257258679 45.28646621652124,-80.22071719408969 32.762008502797315,-85.50592320370268 C 20.23755078907339,-90.7911292133157 9.995035222676911,-95.89935261560562 -4.994520499477577,-95.67937512093279 C -19.984076221632066,-95.45939762625996 -43.573041093930335,-95.27566929166933 -57.175325830129616,-84.18605823566568 C -70.77761056632889,-73.09644717966204 -86.66254292404454,-45.73862225417858 -86.60822891667323,-29.141708784910854 C -86.55391490930191,-12.544795315643123 -66.61747993868055,10.538471115789028 -56.84944178590168,15.39542257994068 C -47.08140363312281,20.252374044092335 -28.00000000000007,5.13180752664612 -28,-9.398003304443042E-13 C -27.99999999999993,-5.131807526647999 -47.08140363312233,-20.25237404409372 -56.84944178590126,-15.395422579941675 C -66.6174799386802,-10.538471115789632 -86.55391490930224,12.5447953156434 -86.6082289166736,29.141708784911334 C -86.66254292404494,45.73862225417927 -70.7776105663285,73.09644717966232 -57.17532583012939,84.18605823566593 C -43.57304109393027,95.27566929166953 -19.984076221633526,95.45939762626024 -4.994520499478908,95.67937512093297 C 9.995035222675709,95.89935261560572 20.237550789074298,90.79112921331529 32.7620085027983,85.50592320370235 C 45.286466216522314,80.2207171940894 60.81986969600723,76.06512257258743 70.15222578286513,63.96813906325529 C 79.48458186972304,51.87115555392315 90.87502345512037,28.2219967946333 88.75614502394575,12.924022147709508 C 86.63726659277113,-2.373952499214282 67.71690620676641,-23.485468120049557 57.43895519581737,-27.819708818287445 C 47.16100418486835,-32.15394951652534 27.847826118177633,-18.067822722432776 27.088438958251558,-13.081422041717838 C 26.32905179832549,-8.095021361002901 44.19764423358839,7.23230977325541 52.882632236260946,2.098695266002183 C 61.5676202389335,-3.034919241251044 81.32005427384347,-26.9649570008847 79.19836697428687,-43.8831090852372 C 77.07667967473027,-60.8012611695897 57.26849943273374,-90.16356959975597 40.15250843892136,-99.41021724011279 C 23.036517445108974,-108.6568648804696 -7.13246899564422,-104.3532305334835 -23.49757898858744,-99.36299492737807 C -39.86268898153066,-94.37275932127265 -48.919213623345144,-79.35118689816507 -58.03815151873796,-69.46880360348024 C -67.1570894141308,-59.58642030879542 -73.62576106468781,-52.2553827009391 -78.21120636094442,-40.0686951592691 C -82.79665165720104,-27.882007617599097 -89.46152432902171,-9.463448697394535 -85.55082329627767,3.6513216465397633 C -81.64012226353363,16.766091990474063 -64.93757694797658,34.98013327879115 -54.74700016448017,38.619926904336694 C -44.556423380983766,42.25972052988224 -25.924748664657546,30.050226241032778 -24.407362595299205,25.490083399813017 C -22.889976525940863,20.929940558593252 -38.552762054058746,6.157355517516293 -45.642683748330114,11.259069857018105 C -52.73260544260148,16.360784196519916 -71.18110720858894,39.87162547434307 -66.94689276092744,56.10036943682389 C -62.71267831326595,72.32911339930472 -39.87557930501821,101.92059454026644 -20.23739706236114,108.63153363190305 C -0.5992148197040663,115.34247272353969 34.3033511510964,106.37302986813376 50.882200695015,96.36600398664368 C 67.4610502389336,86.35897810515358 74.24627356232486,62.314312077406704 79.23570020115045,48.589378342962526 C 84.22512683997606,34.86444460851834 81.15276437128057,25.359668129272034 80.81876052796862,14.016401579978591 C 80.48475668465669,2.6731350306851502 82.52545871976524,-9.276024788587256 77.23167714127887,-19.470220952798122 C 71.9378955627925,-29.66441711700899 58.575564017188704,-44.29596484548299 49.0560710570504,-47.148775405286614 C 39.53657809691209,-50.001585965090236 22.384847670973624,-40.46924444141491 20.114719380448996,-36.587084311619826 C 17.844591089924368,-32.70492418182474 30.357668803337646,-19.138876519940744 35.43530131390263,-23.855814626516086 C 40.51293382446761,-28.57275273309142 56.68824831805219,-50.32933329088584 50.5805144438389,-64.88871295107187 C 44.47278056962562,-79.4480926112579 19.782514353098307,-107.53619190900106 -1.211101931377096,-111.21209258763223 C -22.2047182158525,-114.88799326626338 -59.74163240580513,-101.44320018095543 -75.38118326301353,-86.94411702285885 C -91.02073412022192,-72.44503386476227 -94.64299789583895,-40.79881900644366 -95.04840707462743,-24.217593639052787 C -95.45381625341592,-7.6363682716619214 -82.93008767867285,2.924236614921451 -77.81363833574453,12.543235181486358 C -72.69718899281621,22.16223374805126 -70.51672915739074,26.770158172863933 -64.3497110170575,33.49639776033665 C -58.18269287672425,40.22263734780936 -49.12576138274562,50.850133258169336 -40.8115294937451,52.90067270632264 C -32.497297604744574,54.95121215447594 -17.473415588867468,48.79815126979219 -14.464319683054345,45.79963444925646 C -11.455223777241224,42.801117628720725 -19.98604394668131,30.951040923947 -22.756954058866363,34.90957178310823 C -25.527864171051416,38.868102642269456 -38.66920843909467,57.54744410792665 -31.089780356164667,69.55081960422385 C -23.51035227323467,81.55419510052104 1.6401690349227778,106.55815223111341 22.719614438713624,106.92982476089136 C 43.79905984250447,107.3014972906693 81.75126877928462,89.94526575493312 95.38689206658042,71.78085478289154 C 109.02251535387622,53.61644381084997 108.86193185710727,16.232468481674452 104.53335416248841,-2.0566410713580066 C 100.20477646786954,-20.345750624390465 78.88278924632435,-30.823589479272425 69.41542589886723,-37.95380253530321 C 59.94806255141011,-45.084015591334 54.20021626966064,-41.90689945515451 47.72917407774573,-44.83791940754272 C 41.258131885830814,-47.768939359930926 37.24534343204579,-54.2378847612 30.58917274737773,-55.53992224963248 C 23.933002062709672,-56.84195973806498 11.51169443985549,-54.618848209716504 7.792149969737382,-52.650144338137636 C 4.072605499619276,-50.68144046655877 7.959077011752569,-40.894591594034885 8.271905926669092,-43.727699020159264 C 8.584734841585615,-46.56080644628364 18.181038286318486,-60.93728970305699 9.669123459236513,-69.64878889488394 C 1.1572086321545392,-78.3602880867109 -22.926657867626584,-98.94810268443813 -42.79958303582275,-95.99669417112095 C -62.672508204018904,-93.04528565780379 -98.84022175887385,-72.69115323258266 -109.56842754994044,-51.94033781498093 C -120.29663334100701,-31.189522397379207 -116.0622945182551,9.742590093310268 -107.16881778222213,28.50819833448939 C -98.27534104618915,47.27380657566851 -69.33358255328385,56.604223289455255 -56.20756713374257,60.6533116320938 C -43.08155171420129,64.70239997473236 -34.604577237061044,53.75858135701778 -28.41272526497446,52.80272839032073 C -22.220873292887877,51.84687542362368 -23.70888708616896,54.25519048722463 -19.056455301223096,54.91819383191145 C -14.404023516277228,55.58119717659827 -4.877877557048372,57.64186911221256 -0.4981345552992513,56.780748458441664 C 3.8816084464498695,55.91962780467076 5.079497689234614,48.37494087904195 7.22200270927163,49.75146990928606 C 9.364507729308647,51.12799893953016 3.552497642942549,60.15700905781648 12.356895564922842,65.0399226399063 C 21.161293486903133,69.92283622199609 42.61447540731914,85.08981458266787 60.04839024115339,79.04895140182492 C 77.48230507498765,73.00808822098197 109.82110859184611,50.86800995947041 116.96038456792836,28.79474355484861 C 124.09966054401059,6.721477150226803 115.8614165621213,-35.379499800888865 102.88404609764677,-53.39064702590591 C 89.90667563317224,-71.40179425092298 54.97786087592726,-78.68061799236428 39.09616178108111,-79.27213979525371 C 23.214462686234963,-79.86366159814314 12.954890711916875,-61.63837594216913 7.593851528569891,-56.93977784324251 C 2.232812345222907,-52.2411797443159 9.358197684547017,-50.90850683487826 6.929926680999209,-51.080551201694014 C 4.5016556774514,-51.25259556850977 -2.0145973966789206,-57.71995326449983 -6.975774492716961,-57.97204404413702 C -11.936951588755,-58.224134823774214 -18.397003147090743,-52.9395084896964 -22.837135895229032,-52.59309587951713 C -27.277268643367318,-52.24668326933786 -25.215175547087785,-55.14077965243064 -33.616570981546694,-55.89356838306141 C -42.017966416005606,-56.64635711369218 -59.343566498641884,-65.77020581234989 -73.2455085019825,-57.10982826330176 C -87.1474505053231,-48.449450714253636 -113.89260713695724,-25.958236782060553 -117.02822300159036,-3.9313030887726885 C -120.16383886622346,18.095630604515176 -108.35599480624245,58.943663894299654 -92.0592036897812,75.05177389642543 C -75.76241257331993,91.1598838985512 -36.8338403073703,95.71542074376801 -19.247476302822868,92.71735692398198 C -1.6611122982754318,89.71929310419596 9.406327392304252,65.13962322028962 13.458980337503418,57.06339097770916 C 17.511633282702583,48.9871587351287 4.949920494006279,44.41134853837863 5.068441368372119,44.259963468499215 C 5.186962242737958,44.10857839861979 8.740338411001693,54.85463220628341 14.170105583698449,56.155080558432644 C 19.599872756395204,57.455528910581876 31.21239307755613,54.307254727480434 37.64704440455266,52.062653581394635 C 44.08169573154919,49.81805243530883 45.47966417294585,46.11010535786024 52.77801354567764,42.68747368191784 C 60.076362918409416,39.26484200597544 71.9491716018049,42.13392874794323 81.43714064094334,31.52686352574022 C 90.92510968008177,20.91979830353721 110.69606450601121,-0.3599323878390403 109.70582778050823,-20.9549176513002 C 108.71559105500525,-41.549902914761354 94.11194209352993,-78.82917254260674 75.49572028792542,-92.04304805502673 C 56.87949848232093,-105.25692356744673 16.171370437709566,-106.70207587162814 -1.9915030531187288,-100.23817072582023 C -20.154376543947027,-93.77426558001231 -31.104534265043018,-64.15582510596623 -33.481520657044356,-53.25961718017922 C -35.85850704904569,-42.3634092543922 -18.394716512608674,-35.16820380827484 -16.25342140512675,-34.860923171098136 C -14.112126297644828,-34.55364253392144 -14.885697415269286,-49.19559262239983 -20.633750012152813,-51.41593335711902 C -26.38180260903634,-53.63627409183821 -42.74161086188936,-52.388382946415085 -50.741736986427895,-48.182967579413265 C -58.74186311096643,-43.977552212411446 -63.09087400916931,-33.56597994443238 -68.63450675938404,-26.183441155108113 C -74.17813950959876,-18.80090236578385 -79.54217564331236,-15.61418453355666 -84.00353348771624,-3.8877348434676717 C -88.4648913321201,7.8387148466213175 -100.34337016243101,26.324672483219633 -95.4026538258073,44.17525698542582 C -90.4619374891836,62.025841487632 -74.12368680268924,93.66689481799726 -54.35923546797406,103.21577216976944 C -34.594784133258884,112.76464952154163 5.575639709430973,111.02538870547967 23.18405418248375,101.4685210960589 C 40.792468655536524,91.91165348663812 50.81946310427736,58.880417253332446 51.29125137034259,45.87456651324479 C 51.763039636407825,32.86871577315713 30.238343118859746,23.747089264666215 26.01478377887515,23.433416655532955 C 21.791224438890556,23.1197440463997 20.071702513317796,41.03289731466801 25.949895330435027,43.99253085844523 C 31.82808814755226,46.952164402222444 52.24514016368649,47.29273037452669 61.28394068157853,41.19121791819623 C 70.32274119947056,35.08970546186576 76.94597771469172,18.262006362802392 80.18269843778721,7.383456120462439 C 83.4194191608827,-3.495094121877516 81.57140668475756,-12.155998672558157 80.70426502015147,-24.080083535843496 C 79.83712335554537,-36.00416839912884 83.41403799499007,-50.20814126969433 74.97984845015063,-64.1610530592496 C 66.54565890531119,-78.11396484880487 49.74578559054686,-102.41699776903972 30.099127751114835,-107.7975542731751 C 10.452469911682806,-113.17811077731047 -26.907177829942395,-108.49633660557716 -42.900098586441544,-96.4443920840618 C -58.8930193429407,-84.39244756254645 -67.36681758140588,-49.786782852380576 -65.85839678788007,-35.48588714408299 C -64.34997599435427,-21.184991435785395 -39.865865772811794,-10.842704816389833 -33.84957382528674,-10.63901783427626 C -27.83328187776168,-10.435330852162688 -23.975097513768002,-30.782457636157556 -29.760645102729697,-34.26376525140155 C -35.546192691691395,-37.74507286664555 -59.07489031991855,-39.32602593777114 -68.56285935905693,-31.52686352574024 C -78.05082839819532,-23.727701113709333 -86.16589427929301,-1.1598367514909025 -86.68845933756003,12.531209220783861 C -87.21102439582704,26.22225519305862 -77.86352823974185,39.44645095946061 -71.69824970865893,50.619412307908334 C -65.53297117757602,61.792373656356055 -60.92147367566819,70.43153839683136 -49.69678815106253,79.56897731147019 C -38.472102626456866,88.70641622610903 -22.60152283515959,104.43969426989246 -4.350136561024932,105.44404579574136 C 13.901249713109726,106.44839732159026 46.358819706994446,99.35915585045609 59.81152949374541,85.59508646656367 C 73.26423928049637,71.83101708267124 79.77024402230526,37.59026436700881 76.36612215948082,22.85962949238678 C 72.96200029665638,8.128994617764752 46.81632164411536,-2.767332553007083 39.38679831679878,-2.788722781168511 C 31.957274989482205,-2.810113009329939 26.34645430382909,18.965443461794518 31.788982195581355,22.73128812341821 C 37.23151008733362,26.497132785041902 62.717466337459996,28.973929785944986 72.04196566731235,19.80634518857366 C 81.36646499716471,10.638760591202333 90.15349189397746,-16.63047977174993 87.73597817469549,-32.274219460809746 C 85.31846445541349,-47.91795914986957 68.63764259821268,-64.53995559505917 57.53688335162043,-74.05609294578524 C 46.43612410502819,-83.57223029651131 34.25044833822199,-85.6699696548621 21.131422695142025,-89.37104356516613 C 8.012397052062058,-93.07211747547017 -5.525338771289157,-99.53947517146047 -21.177270506859372,-96.26253640760939 C -36.82920224242959,-92.98559764375831 -62.6003149068957,-84.27055904189177 -72.78016771827927,-69.70941098205968 C -82.96002052966286,-55.14826292222759 -87.31917731626602,-23.195077204156547 -82.25638737516087,-8.895648048616875 C -77.19359743405572,5.4037811069228 -50.803355862634696,16.270349029775932 -42.403428071648385,16.08716395117837 C -34.003500280662074,15.903978872580806 -27.024456680280043,-6.182581147244622 -31.856820629243014,-9.994758520202252 C -36.68918457820598,-13.806935893159881 -62.83096472073665,-16.8745373360114 -71.3976117654262,-6.785900286567408 C -79.96425881011577,3.302736762876583 -88.63454711712303,33.92157913953594 -83.25670289738039,50.53706377646169 C -77.87885867763775,67.15254841338744 -54.4934041588834,85.84264136343076 -39.13054644697036,92.90700753498702 C -23.767688735057305,99.97137370654325 -5.069720772653476,94.94011805529844 8.920443374097907,92.92326080579915 C 22.910607520849293,90.90640355629984 32.808417521181354,87.97985125579392 44.81043843353794,80.80586403799119 C 56.812459345894524,73.63187682018845 74.52449096224453,64.25275296021323 80.93256884823738,49.879337498982736 C 87.34064673423023,35.505922037752235 89.6091368545716,7.629960576186858 83.25890574949501,-5.434628729391797 C 76.90867464441841,-18.49921803497045 51.724658953810824,-28.86757894143426 42.831182217777794,-28.508198334489197 C 33.93770548174477,-28.148817727544138 25.945623856695097,-6.915482857105917 29.898045333296842,-3.2783450877214175 C 33.85046680989859,0.35879268166308176 59.27271576727154,3.7807822630341144 66.54571107738828,-6.685371718182202 C 73.81870638750502,-17.151525699398515 81.67855506421755,-49.52677922070282 73.53601719399725,-66.07526897501931 C 65.39347932377696,-82.62375872933582 36.37321991948345,-101.98746622222849 17.69048385606645,-105.97631024408116 C -0.9922522073505462,-109.96515426593383 -24.774580924672673,-97.66487411902618 -38.560399186504725,-90.00833310613528 C -52.34621744833678,-82.35179209324438 -57.49835425787105,-70.4675977331393 -65.02442571492585,-60.0370641667358 C -72.55049717198067,-49.60653060033231 -81.32060233160382,-40.623611985613216 -83.71682792883362,-27.425131707714336 C -86.11305352606342,-14.226651429815453 -86.56223061864249,8.022941525024107 -79.40177929830462,19.153817500657482 C -72.24132797796675,30.284693476290858 -49.660140374913446,39.821271552698995 -40.75412000680637,39.36012414608591 C -31.848099638699285,38.89897673947282 -23.148942956107295,19.660393074591404 -25.96565708966216,16.386933060978944 C -28.782371223217023,13.113473047366478 -52.11585139907541,9.48514157372773 -57.65440480813554,19.719364064411124 C -63.19295821719566,29.953586555094518 -69.69775220021096,62.339909378115294 -59.19697754402292,77.79226800507931 C -48.696202887834886,93.24462663204332 -15.500869722310355,111.92396809770078 5.3502431289926236,112.4335158261952 C 26.201355980295602,112.94306355468962 53.37790347487759,93.71062115748697 65.90969956379496,80.84955437604583 C 78.44149565271233,67.98848759460468 78.03634239775648,48.10752664782405 80.54101966249685,35.26711513754833 C 83.04569692723722,22.4267036272726 82.52733861908214,14.90880787333815 80.93776315223715,3.8070853143914665 C 79.34818768539216,-7.294637244555216 78.4269282314744,-22.701129751032425 71.00356686142692,-31.34322021613177 C 63.580205491379424,-39.98531068123111 44.859453542308295,-48.49718261330835 36.39759493195219,-48.04545747620459 C 27.935736321596085,-47.593732339100825 18.775106483804755,-31.399381496769905 20.232415199290287,-28.63286939350924 C 21.689723914775822,-25.866357290248573 41.65319367234006,-22.082647036697495 45.14144722486539,-31.44638485664059 C 48.629700777390724,-40.81012267658369 53.42410978872954,-71.41165324871018 41.16193651444229,-84.81529631316785 C 28.899763240155043,-98.21893937762553 -6.699507212990547,-114.98829569930076 -28.431592420858095,-111.86824324338667 C -50.163677628725644,-108.74819078747255 -78.90077316520805,-83.39470420201197 -89.230574732763,-66.09498157768327 C -99.56037630031797,-48.79525895335458 -93.15411047186153,-22.33077458582804 -90.41040182618787,-8.069907497414508 C -87.6666931805142,6.190959590999025 -78.06210443720751,11.25818948277498 -72.76832285872105,19.47022095279793 C -67.47454128023459,27.68225242282088 -65.75750051304574,35.431870223799464 -58.647712355269135,41.2022813227232 C -51.537924197492536,46.97269242164695 -37.72009713131529,54.400058786251044 -30.109593912061406,54.092687546340386 C -22.499090692807528,53.78531630642973 -13.060296193129886,41.528089202259785 -12.984693039745842,39.35805388325925 C -12.9090898863618,37.18801856425872 -28.387699897600644,33.205799944972064 -29.65597499175715,41.072475632337174 C -30.92425008591366,48.93915131970228 -33.8654918889734,76.01720118628111 -20.594343604684905,86.55810800744992 C -7.323195320396405,97.09901482861873 28.69875087797961,110.94877327468437 49.97091471397385,104.31791655934998 C 71.24307854996808,97.68705984401556 99.68875769149419,67.46261078695044 107.03863941128047,46.77296771544354 C 114.38852113106674,26.083324643936653 101.95386978906868,-5.1986464635726435 94.07020503269142,-19.81994186969136 C 86.18654027631415,-34.441237275810074 68.22479457924915,-36.241612918783694 59.73665087301687,-40.954804721268744 C 51.248507166784606,-45.6679965237538 49.37480665278205,-45.39482926784276 43.14134279529781,-48.099092684601665 C 36.907878937813564,-50.80335610136058 28.75782182744905,-57.2002185556017 22.33586772811138,-57.180385221822235 C 15.913913628773713,-57.16055188804277 6.32471094544659,-49.521345157363506 4.609618199271814,-47.98009268192485 C 2.894525453097039,-46.4388402064862 13.009522996368437,-42.13520585950044 12.04531125106273,-47.932870369190304 C 11.081099505757024,-53.73053487888018 12.243552422611524,-75.71047761661686 -1.1756522725624095,-82.76607974006407 C -14.594856967736343,-89.82168186351127 -48.96601976356745,-100.023819561049 -68.46991691998088,-90.26648310987355 C -87.9738140763943,-80.50914665869807 -114.38097969748083,-47.03642386014571 -118.19903521104294,-24.22206103301125 C -122.01709072460505,-1.4076982058767957 -103.96311303942177,32.692845519506676 -91.37825000135354,46.619693852933196 C -78.7933869632853,60.54654218635971 -53.67600320295282,58.507503384184474 -42.689856982633515,59.33902896754785 C -31.703710762314216,60.17055455091122 -30.31125873430255,51.97325980760966 -25.461372679437723,51.60884735311343 C -20.611486624572898,51.24443489861719 -18.571445671670656,56.74992310887138 -13.590540653444547,57.15255424057044 C -8.60963563521844,57.555185372269484 1.0437060035729573,54.96039324436335 4.424057429918914,54.024634143307786 C 7.804408856264871,53.08887504225222 3.6393999435279802,48.28537914072309 6.691567904631194,51.53799963423705 C 9.74373586573441,54.79062012775102 10.082821331087437,70.36100612965726 22.737065196538204,73.54035710439156 C 35.39130906198898,76.71970807912588 72.6370367805362,71.10181408626771 82.61703109733581,70.61410548264293 Z"></path></g></svg>