<svg xmlns="http://www.w3.org/2000/svg" width="256.0" height="251.0" viewBox="-125.5 -128.0 256.0 251.0" style=""><g><defs></defs><g><g><g><g><g><g><g><g><g><g><g><g><g><g><g><g><g><g><g><g><g><g><g><g><g><g><g><g><g><g><g><g><g></g><circle transform="matrix(1.0,0.0,0.0,-1.0,98.07852804032305,-19.509032201612825)" style="stroke-width: 1.0px; stroke: hsla(0.0, 0.0%, 0.0%, 1.0); stroke-linecap: butt; stroke-linejoin: miter;  fill: none;" r="0.3125"></circle></g><circle transform="matrix(1.0,0.0,0.0,-1.0,92.38795325112868,-38.268343236508976)" style="stroke-width: 1.0px; stroke: hsla(0.0, 0.0%, 0.0%, 1.0); stroke-linecap: butt; stroke-linejoin: miter;  fill: none;" r="0.625"></circle></g><circle transform="matrix(1.0,0.0,0.0,-1.0,83.14696123025452,-55.557023301960214)" style="stroke-width: 1.0px; stroke: hsla(0.0, 0.0%, 0.0%, 1.0); stroke-linecap: butt; stroke-linejoin: miter;  fill: none;" r="0.9375"></circle></g><circle transform="matrix(1.0,0.0,0.0,-1.0,70.71067811865476,-70.71067811865474)" style="stroke-width: 1.0px; stroke: hsla(0.0, 0.0%, 0.0%, 1.0); stroke-linecap: butt; stroke-linejoin: miter;  fill: none;" r="1.25"></circle></g><circle transform="matrix(1.0,0.0,0.0,-1.0,55.55702330196023,-83.14696123025452)" style="stroke-width: 1.0px; stroke: hsla(0.0, 0.0%, 0.0%, 1.0); stroke-linecap: butt; stroke-linejoin: miter;  fill: none;" r="1.5625"></circle></g><circle transform="matrix(1.0,0.0,0.0,-1.0,38.26834323650898,-92.38795325112868)" style="stroke-width: 1.0px; stroke: hsla(0.0, 0.0%, 0.0%, 1.0); stroke-linecap: butt; stroke-linejoin: miter;  fill: none;" r="1.875"></circle></g><circle transform="matrix(1.0,0.0,0.0,-1.0,19.509032201612833,-98.07852804032305)" style="stroke-width: 1.0px; stroke: hsla(0.0, 0.0%, 0.0%, 1.0); stroke-linecap: butt; stroke-linejoin: miter;  fill: none;" r="2.1875"></circle></g><circle transform="matrix(1.0,0.0,0.0,-1.0,6.123233995736766E-15,-100.0)" style="stroke-width: 1.0px; stroke: hsla(0.0, 0.0%, 0.0%, 1.0); stroke-linecap: butt; stroke-linejoin: miter;  fill: none;" r="2.5"></circle></g><circle transform="matrix(1.0,0.0,0.0,-1.0,-19.50903220161282,-98.07852804032305)" style="stroke-width: 1.0px; stroke: hsla(0.0, 0.0%, 0.0%, 1.0); stroke-linecap: butt; stroke-linejoin: miter;  fill: none;" r="2.8125"></circle></g><circle transform="matrix(1.0,0.0,0.0,-1.0,-38.268343236508976,-92.38795325112868)" style="stroke-width: 1.0px; stroke: hsla(0.0, 0.0%, 0.0%, 1.0); stroke-linecap: butt; stroke-linejoin: miter;  fill: none;" r="3.125"></circle></g><circle transform="matrix(1.0,0.0,0.0,-1.0,-55.55702330196019,-83.14696123025455)" style="stroke-width: 1.0px; stroke: hsla(0.0, 0.0%, 0.0%, 1.0); stroke-linecap: butt; stroke-linejoin: miter;  fill: none;" r="3.4374999999999996"></circle></g><circle transform="matrix(1.0,0.0,0.0,-1.0,-70.71067811865474,-70.71067811865476)" style="stroke-width: 1.0px; stroke: hsla(0.0, 0.0%, 0.0%, 1.0); stroke-linecap: butt; stroke-linejoin: miter;  fill: none;" r="3.75"></circle></g><circle transform="matrix(1.0,0.0,0.0,-1.0,-83.14696123025453,-55.557023301960214)" style="stroke-width: 1.0px; stroke: hsla(0.0, 0.0%, 0.0%, 1.0); stroke-linecap: butt; stroke-linejoin: miter;  fill: none;" r="4.062500000000001"></circle></g><circle transform="matrix(1.0,0.0,0.0,-1.0,-92.38795325112868,-38.26834323650899)" style="stroke-width: 1.0px; stroke: hsla(0.0, 0.0%, 0.0%, 1.0); stroke-linecap: butt; stroke-linejoin: miter;  fill: none;" r="4.375"></circle></g><circle transform="matrix(1.0,0.0,0.0,-1.0,-98.07852804032305,-19.50903220161286)" style="stroke-width: 1.0px; stroke: hsla(0.0, 0.0%, 0.0%, 1.0); stroke-linecap: butt; stroke-linejoin: miter;  fill: none;" r="4.687499999999999"></circle></g><circle transform="matrix(1.0,0.0,0.0,-1.0,-100.0,-1.2246467991473532E-14)" style="stroke-width: 1.0px; stroke: hsla(0.0, 0.0%, 0.0%, 1.0); stroke-linecap: butt; stroke-linejoin: miter;  fill: none;" r="5.0"></circle></g><circle transform="matrix(1.0,0.0,0.0,-1.0,-98.07852804032305,19.509032201612836)" style="stroke-width: 1.0px; stroke: hsla(0.0, 0.0%, 0.0%, 1.0); stroke-linecap: butt; stroke-linejoin: miter;  fill: none;" r="5.3125"></circle></g><circle transform="matrix(1.0,0.0,0.0,-1.0,-92.38795325112868,38.26834323650897)" style="stroke-width: 1.0px; stroke: hsla(0.0, 0.0%, 0.0%, 1.0); stroke-linecap: butt; stroke-linejoin: miter;  fill: none;" r="5.625"></circle></g><circle transform="matrix(1.0,0.0,0.0,-1.0,-83.14696123025455,55.55702330196019)" style="stroke-width: 1.0px; stroke: hsla(0.0, 0.0%, 0.0%, 1.0); stroke-linecap: butt; stroke-linejoin: miter;  fill: none;" r="5.9375"></circle></g><circle transform="matrix(1.0,0.0,0.0,-1.0,-70.71067811865477,70.71067811865474)" style="stroke-width: 1.0px; stroke: hsla(0.0, 0.0%, 0.0%, 1.0); stroke-linecap: butt; stroke-linejoin: miter;  fill: none;" r="6.25"></circle></g><circle transform="matrix(1.0,0.0,0.0,-1.0,-55.557023301960214,83.14696123025452)" style="stroke-width: 1.0px; stroke: hsla(0.0, 0.0%, 0.0%, 1.0); stroke-linecap: butt; stroke-linejoin: miter;  fill: none;" r="6.5625"></circle></g><circle transform="matrix(1.0,0.0,0.0,-1.0,-38.26834323650903,92.38795325112865)" style="stroke-width: 1.0px; stroke: hsla(0.0, 0.0%, 0.0%, 1.0); stroke-linecap: butt; stroke-linejoin: miter;  fill: none;" r="6.874999999999999"></circle></g><circle transform="matrix(1.0,0.0,0.0,-1.0,-19.509032201612868,98.07852804032304)" style="stroke-width: 1.0px; stroke: hsla(0.0, 0.0%, 0.0%, 1.0); stroke-linecap: butt; stroke-linejoin: miter;  fill: none;" r="7.1875"></circle></g><circle transform="matrix(1.0,0.0,0.0,-1.0,-1.8369701987210297E-14,100.0)" style="stroke-width: 1.0px; stroke: hsla(0.0, 0.0%, 0.0%, 1.0); stroke-linecap: butt; stroke-linejoin: miter;  fill: none;" r="7.5"></circle></g><circle transform="matrix(1.0,0.0,0.0,-1.0,19.50903220161283,98.07852804032305)" style="stroke-width: 1.0px; stroke: hsla(0.0, 0.0%, 0.0%, 1.0); stroke-linecap: butt; stroke-linejoin: miter;  fill: none;" r="7.8125"></circle></g><circle transform="matrix(1.0,0.0,0.0,-1.0,38.268343236509,92.38795325112866)" style="stroke-width: 1.0px; stroke: hsla(0.0, 0.0%, 0.0%, 1.0); stroke-linecap: butt; stroke-linejoin: miter;  fill: none;" r="8.125000000000002"></circle></g><circle transform="matrix(1.0,0.0,0.0,-1.0,55.557023301960186,83.14696123025455)" style="stroke-width: 1.0px; stroke: hsla(0.0, 0.0%, 0.0%, 1.0); stroke-linecap: butt; stroke-linejoin: miter;  fill: none;" r="8.4375"></circle></g><circle transform="matrix(1.0,0.0,0.0,-1.0,70.71067811865474,70.71067811865477)" style="stroke-width: 1.0px; stroke: hsla(0.0, 0.0%, 0.0%, 1.0); stroke-linecap: butt; stroke-linejoin: miter;  fill: none;" r="8.75"></circle></g><circle transform="matrix(1.0,0.0,0.0,-1.0,83.14696123025452,55.557023301960214)" style="stroke-width: 1.0px; stroke: hsla(0.0, 0.0%, 0.0%, 1.0); stroke-linecap: butt; stroke-linejoin: miter;  fill: none;" r="9.0625"></circle></g><circle transform="matrix(1.0,0.0,0.0,-1.0,92.38795325112865,38.26834323650904)" style="stroke-width: 1.0px; stroke: hsla(0.0, 0.0%, 0.0%, 1.0); stroke-linecap: butt; stroke-linejoin: miter;  fill: none;" r="9.374999999999998"></circle></g><circle transform="matrix(1.0,0.0,0.0,-1.0,98.07852804032304,19.50903220161287)" style="stroke-width: 1.0px; stroke: hsla(0.0, 0.0%, 0.0%, 1.0); stroke-linecap: butt; stroke-linejoin: miter;  fill: none;" r="9.6875"></circle></g><circle transform="matrix(1.0,0.0,0.0,-1.0,100.0,2.4492935982947064E-14)" style="stroke-width: 1.0px; stroke: hsla(0.0, 0.0%, 0.0%, 1.0); stroke-linecap: butt; stroke-linejoin: miter;  fill: none;" r="10.0"></circle></g></g></svg>