<svg xmlns="http://www.w3.org/2000/svg" width="405.4238552703242" height="242.0026849395026" viewBox="-202.7119276351621 -121.0013424697513 405.4238552703242 242.0026849395026" style=""><g><defs></defs><g><path transform="matrix(1.0,0.0,0.0,-1.0,-120.28807236483783,0.0)" style="stroke-width: 1.0px; stroke: hsla(240.0, 100.0%, 27.254901960784313%, 1.0); stroke-linecap: butt; stroke-linejoin: miter;  fill: none;" d="M 0,0 M 99.99999999999999,-1.1331077795295958E-13 C 99.94977104233938,-0.29832964073377904 99.80427282693874,-1.1951167373619738 99.69862625403638,-1.7899778444021075 C 99.59297968113401,-2.3848389514422412 99.48209662647491,-2.9779893406506566 99.3661205625858,-3.569166642240915 C 99.25014449869668,-4.160343943831173 99.12897835590225,-4.749721951380913 99.00276987070171,-5.337041653943658 C 98.87656138550115,-5.924361356506402 98.74521066989519,-6.509794286365878 98.60886965138253,-7.093084857617383 C 98.4725286328699,-7.676375428868886 98.33109465409757,-8.257692868869817 98.1847237596258,-8.83678508145268 C 98.03835286515402,-9.41587729403554 97.88693967787994,-9.992911159007049 97.73064428455194,-10.567638133114553 C 97.57434889122396,-11.142365107222057 97.41306324520657,-11.714949681113515 97.24695139965789,-12.28514692609771 C 97.08083955410922,-12.855344171081905 96.90979084367176,-13.423316148064378 96.73397321125991,-13.988821603019733 C 96.55815557884806,-14.554327057975092 96.37745579176631,-15.117525582514451 96.19204560518672,-15.678179655829856 C 96.00663541860713,-16.23883372914526 95.8163990844334,-16.797100435040445 95.62151209178244,-17.352746042912166 C 95.42662509913146,-17.908391650783887 95.22696923697602,-18.461570699161268 95.0227236492809,-19.01205330306017 C 94.81847806158578,-19.562535906959074 94.60952212737531,-20.11047402321884 94.39603856561172,-20.6556416663056 C 94.18255500384812,-21.20080930939236 93.96442083708193,-21.743355819098728 93.74182227869932,-22.283059161580727 C 93.51922372031673,-22.822762504062727 93.29203549034082,-23.359769367772927 93.06044721531616,-23.89386172119759 C 92.82885894029148,-24.427954074622253 92.59274309211128,-24.95927592164963 92.35229262855134,-25.4876132821287 C 92.11184216499139,-26.015950642607763 91.86692736464344,-26.541444803712025 91.61774443395643,-27.063885884071993 C 91.36856150326942,-27.58632696443196 91.11497858277231,-28.105853503434194 90.85719504442932,-28.622259764288515 C 90.59941150608633,-29.138666025142836 90.33729340799188,-29.652087769459172 90.07104320389848,-30.16232344919791 C 89.80479299980506,-30.672559128936644 89.53427472137014,-31.179741699027414 89.25969381986887,-31.68367384272093 C 88.98511291836762,-32.18760598641444 88.70633145536657,-32.68841782414589 88.42355779489093,-33.18591631135901 C 88.14078413441528,-33.68341479857213 87.85387842461485,-34.17772719448589 87.56305185701505,-34.66866476599966 C 87.27222528941525,-35.15960233751343 86.97733615573081,-35.647289457003104 86.6785983892921,-36.1315417404416 C 86.37986062285337,-36.615794023880085 86.07713071620869,-37.09673293227075 85.77062525838274,-37.574178466630606 C 85.46411980055679,-38.05162400099047 85.15369354246666,-38.52569468751972 84.83956564233638,-38.99621494660077 C 84.52543774220614,-39.466735205681836 84.20746126710272,-39.93382060638162 83.88585785760122,-40.397300021116955 C 83.56425444809973,-40.86077943585229 83.2388755454237,-41.32076545532831 82.90994518532746,-41.777091435012764 C 82.58101482523124,-42.23341741469721 82.2483828813068,-42.68619294680718 81.91227569702377,-43.13525589922363 C 81.57616851274075,-43.58431885164007 81.23643445245632,-44.029775799068524 80.89330207962935,-44.47146914951142 C 80.55016970680238,-44.91316249995432 80.20348593511646,-45.351195792684614 79.85348146006197,-45.785416001881025 C 79.5034769850075,-46.219636211077436 79.14999732829999,-46.650143823761546 78.79327522930248,-47.0767904046899 C 78.43655313030497,-47.503436985618244 78.07643277759455,-47.92631995384388 77.71314886607695,-48.345295487451104 C 77.34986495455935,-48.764271021058335 76.98326039860693,-49.17943345651482 76.61357176019692,-49.59064360633331 C 76.24388312178691,-50.001853756151796 75.8709521001046,-50.409202860696645 75.4950170356169,-50.81255638636204 C 75.11908197112918,-51.21590991202743 74.73998340691615,-51.615355990653704 74.35796137327065,-52.01076476032564 C 73.97593933962516,-52.406173529997595 73.59083328264823,-52.797630002705745 73.20288483374398,-53.18500900439367 C 72.81493638483973,-53.5723880060816 72.42398395228061,-53.95577141865684 72.03027067984516,-54.33503877045321 C 71.63655740740971,-54.71430612224959 71.23992072469741,-55.08953615594794 70.84060519913125,-55.46061311517193 C 70.4412896735651,-55.83169007439593 70.03913181521253,-56.19868955454246 69.63437752644819,-56.56150052579714 C 69.22962323768385,-56.92431149705181 68.82210816815005,-57.2830064005533 68.4120794665452,-57.637478942699985 C 68.00205076494034,-57.99195148484666 67.5893432795353,-58.342270946623636 67.17420531681907,-58.68833577867723 C 66.75906735410284,-59.03440061073081 66.34133301995597,-59.3762769290721 65.92125169024786,-59.71386793502154 C 65.50117036053975,-60.05145894097098 65.07857545765035,-60.384827581815365 64.65371733857049,-60.713881814373906 C 64.22885921949063,-61.04293604693245 63.80157068187896,-61.3677356470828 63.37210297576874,-61.688193330372755 C 62.942635269658524,-62.0086510136627 62.51082062663738,-62.324823382936266 62.07691110190921,-62.63662791411361 C 61.64300157718103,-62.94843244529096 61.206828894765074,-63.25592256761257 60.76864582739974,-63.559020517436856 C 60.33046276003441,-63.86211846726113 59.89010058250695,-64.16087450070408 59.447812697717225,-64.45521561305928 C 59.00552481292751,-64.74955672541448 58.561142104582906,-65.03953000119526 58.1149185186614,-65.32506719156802 C 57.66869493273989,-65.61060438194079 57.2204610198186,-65.89174940237437 56.77047118218815,-66.1684387552959 C 56.32048134455771,-66.44512810821743 55.86856585739414,-66.71740254363891 55.41497949287871,-66.98520330909722 C 54.961393128363284,-67.25300407455552 54.50596594376194,-67.51636875921601 54.04895299509557,-67.77524334804568 C 53.591940046429194,-68.03411793687535 53.13317123028878,-68.28853686381841 52.67290180088051,-68.5384508420752 C 52.21263237147224,-68.788364820332 51.75069212167415,-69.03380513525853 51.287336418645964,-69.2747272175864 C 50.82398071561777,-69.51564929991426 50.35903930519613,-69.75208129404388 49.89276758271134,-69.9839833360424 C 49.42649586022656,-70.21588537804092 48.958723580838104,-70.44328247997714 48.48970608373727,-70.66613946957753 C 48.020688586636425,-70.88899645917792 47.55025569234545,-71.1073352257865 47.0786626001063,-71.32112527364472 C 46.60706950786713,-71.53491532150295 46.13414615926387,-71.74417542781117 45.66014753030229,-71.94887975672685 C 45.186148901340715,-72.15358408564254 44.71090511000864,-72.35374831376852 44.23467082633686,-72.54935124713882 C 43.75843654266507,-72.74495418050911 43.28104211601345,-72.93600840763101 42.802741828271614,-73.12249735694861 C 42.32444154052977,-73.30898630626622 41.845066027008556,-73.49091949163953 41.36486909988581,-73.66828494304448 C 40.884672172763054,-73.84565039444944 40.40348480747438,-74.01845456548331 39.92156026553511,-74.18669006537833 C 39.43963572359585,-74.35492556527335 38.956805374319266,-74.51859580267511 38.47332184825023,-74.67769794241458 C 37.989838322181186,-74.83680008215407 37.505533435827566,-74.99133450415219 37.02065910912085,-75.14130290381526 C 36.535784782414126,-75.29127130347835 36.0501733319226,-75.43667104913504 35.56407588800992,-75.57750834039305 C 35.07797844409723,-75.71834563165108 34.59122787579186,-75.85461484327395 34.10407444564477,-75.98632665136334 C 33.61692101549768,-76.11803845945273 33.12919819691671,-76.24518426411778 32.64115530712738,-76.36777918892938 C 32.15311241733804,-76.49037411374097 31.664583585551707,-76.60840660393698 31.175817106908745,-76.72189620023292 C 30.68705062826579,-76.83538579652884 30.197881338696277,-76.9443180099352 29.708556435269617,-77.04871676670491 C 29.21923153184296,-77.15311552347464 28.729586607600073,-77.25296342188399 28.2398676863488,-77.3482887408512 C 27.75014876509752,-77.44361405981842 27.26019224684518,-77.53439650721589 26.770242907761965,-77.62066868050823 C 26.280293568678747,-77.70694085380057 25.79018866504403,-77.78867959361172 25.300171651849503,-77.8659217806053 C 24.81015463865498,-77.94316396759889 24.320063677194522,-78.01588359911857 23.830140828594804,-78.08412180246978 C 23.340217979995085,-78.152360005821 22.850302358731152,-78.21608795983555 22.360634560251185,-78.27535100071253 C 21.870966761771218,-78.33461404158952 21.381386901309526,-78.38938055520494 20.892134037715003,-78.43970004773172 C 20.402881174120477,-78.49001954025847 19.913796470363934,-78.53585763094738 19.42511737868402,-78.57726795587311 C 18.93643828700411,-78.61867828079885 18.448007064472588,-78.65562371967914 17.960059487635537,-78.68816199728614 C 17.472111910798485,-78.72070027489313 16.984491376568226,-78.74879155925187 16.49743191766171,-78.77249762151511 C 16.010372458755196,-78.79620368377833 15.52371865702888,-78.8154820088536 15.037702734196447,-78.8303983708655 C 14.551686811364016,-78.84531473287736 14.066154578682145,-78.85582396291238 13.581336380667132,-78.86199579358633 C 13.096518182652119,-78.86816762426027 12.612261103758554,-78.86995426284263 12.128793546106365,-78.86742935490918 C 11.645325988454177,-78.86490444697573 11.162496352824585,-78.85801760667631 10.680531034754003,-78.84684634598564 C 10.198565716683417,-78.83567508529497 9.717314475728825,-78.82016645662016 9.23700163768286,-78.80040179076514 C 8.756688799636896,-78.78063712491011 8.277165524591984,-78.75656094458152 7.798654006478208,-78.72825835085553 C 7.320142488364431,-78.69995575712953 6.84249532886988,-78.66736877570538 6.365932529000195,-78.63058622840916 C 5.88936972913051,-78.59380368111293 5.413745372520726,-78.55276512996603 4.9392772072600994,-78.50756306707811 C 4.464809041999472,-78.46236100419019 3.991352673303114,-78.4129325618563 3.5191235374364322,-78.35937385108167 C 3.0468944015697503,-78.30581514030705 2.575749664233786,-78.2480608982188 2.105902392060011,-78.18621080243028 C 1.6360551198862359,-78.12436070664177 1.1673640772317426,-78.058347134263 0.7000399043937814,-77.9882732763506 C 0.23271573155582012,-77.91819941843819 -0.23338117102661982,-77.84399532781312 -0.6980426449677564,-77.76576765495591 C -1.162704118908893,-77.68753998209871 -1.6260680910143135,-77.60521649183157 -2.0879289392530374,-77.51890723920742 C -2.5497897874917608,-77.43259798658329 -3.0102837300004808,-77.34222848526292 -3.4692077344000984,-77.24791213921107 C -3.9281317387997157,-77.15359579315923 -4.385620279412287,-77.05525590224447 -4.841472965650742,-76.95300916289638 C -5.297325651889197,-76.8507624235483 -5.751675179889919,-76.74452995972895 -6.204323851830827,-76.63443170312259 C -6.656972523771734,-76.52433344651624 -7.108051224014292,-76.41028838356513 -7.55736499729619,-76.29241962325823 C -8.00667877057809,-76.1745508629513 -8.454356656684963,-76.05277529308334 -8.900206491522216,-75.92721914128111 C -9.346056326359468,-75.80166298947887 -9.790205273130605,-75.67224108423191 -10.232464006319702,-75.53908271244477 C -10.6747227395088,-75.4059243406576 -11.115216514531724,-75.26894231131122 -11.553758890656802,-75.12826891055818 C -11.99230126678188,-74.98759550980512 -12.429015561238105,-74.84314156735302 -12.863718263070169,-74.69504230792643 C -13.298420964902233,-74.54694304849984 -13.731233423564902,-74.39510736319117 -14.16197510164919,-74.23967335399864 C -14.592716779733479,-74.08423934480612 -15.021507030149506,-73.92511400527212 -15.448168331575902,-73.76243825277129 C -15.8748296330023,-73.59976250027047 -16.299479313855837,-73.4334414722516 -16.721942910207577,-73.2636188389937 C -17.14440650655932,-73.09379620573579 -17.56479929521037,-72.92037529042572 -17.982949909686358,-72.7435024532238 C -18.40110052416235,-72.56662961602186 -18.81712216335681,-72.3862064080443 -19.2308465970635,-72.20238181578209 C -19.64457103077019,-72.01855722351989 -20.056109354517705,-71.83123106855327 -20.465296511926514,-71.64055489965054 C -20.874483669335323,-71.44987873074781 -21.281428627949754,-71.25575068281528 -21.685969541516354,-71.05832480236568 C -22.090510455082953,-70.86089892191607 -22.492754139383837,-70.66007170035549 -22.89254199332611,-70.4559996169529 C -23.29232984726838,-70.2519275335503 -23.689766511938572,-70.04450547968071 -24.084696665169997,-69.83389230195016 C -24.479626818401425,-69.62327912421961 -24.872152904498734,-69.40936815772066 -25.26212291271466,-69.19232055056962 C -25.65209292093058,-68.97527294341859 -26.039607077551313,-68.7549805184377 -26.424516714465536,-68.53160665904399 C -26.809426351379756,-68.30823279965028 -27.191829456470447,-68.08166786065522 -27.571580734199983,-67.85207739420734 C -27.95133201192952,-67.62248692775945 -28.328527192246515,-67.38975986515068 -28.703024380842745,-67.1540638603567 C -29.07752156943897,-66.91836785556272 -29.449414219652883,-66.67959046106255 -29.81856386577736,-66.43790136544352 C -30.187713511901833,-66.19621226982451 -30.55421131284577,-65.95149769165887 -30.917922257589595,-65.70392928664259 C -31.28163320233342,-65.45636088162631 -31.64264613839465,-65.20582357951466 -32.00082953424029,-64.95249093534582 C -32.359012930085925,-64.69915829117699 -32.714453305738544,-64.44291399114687 -33.06702263266343,-64.18393342162955 C -33.419591959588324,-63.92495285211223 -33.769374415068064,-63.66311850115369 -34.11624549578963,-63.398607518241924 C -34.46311657651119,-63.13409653533015 -34.807158102630986,-62.86679025590659 -35.14824911699278,-62.59686752415896 C -35.489340131354574,-62.326944792411325 -35.827560083461016,-62.054285836842205 -36.16279158196039,-61.77907112775613 C -36.49802308045977,-61.50385641867006 -36.83034319153154,-61.225965123400954 -37.15963810798906,-60.94557926964249 C -37.48893302444659,-60.665193415884026 -37.81527741733414,-60.382191155660536 -38.13856108070554,-60.09675600520537 C -38.46184474407695,-59.8113208547502 -38.78213994288575,-59.52332999671038 -39.099340088217495,-59.23296836691152 C -39.416540233549235,-58.94260673711267 -39.73071517416648,-58.64975059481433 -40.041761952695985,-58.354586226412195 C -40.35280873122549,-58.05942185801005 -40.66079477099216,-57.76182464540839 -40.96562075939455,-57.461982156498635 C -41.27044674779693,-57.16213966758888 -41.57217767432742,-56.859926452979 -41.8707178831103,-56.555531292953695 C -42.169258091893184,-56.25113613292839 -42.464670131043256,-55.94443279286963 -42.75686201209184,-55.63561119634677 C -43.04905389314041,-55.32678959982393 -43.338085716126976,-55.01572277305959 -43.62386916940174,-54.702601713816605 C -43.90965262267651,-54.389480654573624 -44.19224535235079,-54.074177695962796 -44.47156273174048,-53.75688484088888 C -44.750880111130165,-53.43959198581496 -45.02697732740727,-53.1201809202906 -45.29977344573987,-52.79884458337305 C -45.57256956407247,-52.4775082464555 -45.84211730852095,-52.15411772302395 -46.10833944173606,-51.82886681938356 C -46.37456157495115,-51.503615915743175 -46.637508354544714,-51.17637516154048 -46.89710624503048,-50.847339161530726 C -47.15670413551624,-50.518303161520976 -47.413000925552176,-50.18734193594023 -47.66592678465065,-49.85465081932506 C -47.91885264374914,-49.521959702709886 -48.168452889936674,-49.18740825161482 -48.41466139962137,-48.85119246183966 C -48.66086990930608,-48.514976672064485 -48.90372952902903,-48.17696568210343 -49.14317784275886,-47.83735608067403 C -49.38262615648869,-47.497746479244626 -49.61870353924629,-47.15640703227974 -49.85135128200034,-46.81353485326326 C -50.083999024754384,-46.47066267424679 -50.31325503178534,-46.12612620191266 -50.53906429928314,-45.78012300657516 C -50.76487356678093,-45.43411981123765 -50.98727152987498,-45.086518049643594 -51.20620688698711,-44.73751568123822 C -51.42514224409925,-44.38851331283285 -51.64064796360168,-44.037978257422985 -51.85267644195596,-43.686108796142896 C -52.06470492031023,-43.334239334862815 -52.27328666232435,-42.980903195447816 -52.47837775711277,-42.626298913557726 C -52.68346885190119,-42.27169463166764 -52.8850973446942,-41.91568978764233 -53.08322301068649,-41.55848310480237 C -53.28134867667878,-41.201276421962405 -53.47599710629705,-40.84273537772233 -53.66713175306647,-40.48305881651794 C -53.858266399835884,-40.123382255313544 -54.04591040493542,-39.762437595884705 -54.23003089130296,-39.40042373757602 C -54.4141513776705,-39.03840987926734 -54.59476904356842,-38.67519422616183 -54.77185467127172,-38.310975666665854 C -54.948940298975025,-37.94675710716988 -55.12251215092939,-37.581403074481415 -55.29254465752273,-37.215112380600175 C -55.46257716411608,-36.848821686718935 -55.62908615983952,-36.4814618374707 -55.792049710831805,-36.113231503378415 C -55.95501326182409,-35.745001169286134 -56.11444478323899,-35.37576797204437 -56.27032596347648,-35.005730376046515 C -56.42620714371398,-34.63569278004866 -56.57854898795572,-34.264718565814434 -56.72733679225676,-33.893005927391265 C -56.876124596557794,-33.52129328896809 -57.02136696623364,-33.14871020836021 -57.163052789282695,-32.775454545507515 C -57.304738612331754,-32.40219888265482 -57.442874105042506,-32.02813886339589 -57.577451730551104,-31.653471950275108 C -57.7120293560597,-31.27880503715433 -57.843052953192085,-30.903399741872818 -57.97051854233429,-30.527453066782876 C -58.0979841314765,-30.151506391692937 -58.22189318627383,-29.77488717605274 -58.34224526540436,-29.397791899735463 C -58.462597344534885,-29.020696623418186 -58.57939156945448,-28.642994494588113 -58.69263101711742,-28.264881408879212 C -58.805870464780355,-27.886768323170315 -58.91555191814533,-27.508113898644893 -59.021681951381964,-27.129113385482086 C -59.127811984618596,-26.750112872319278 -59.23038505657311,-26.37063633910263 -59.32941121653719,-25.990878329902365 C -59.42843737650127,-25.611120320702103 -59.523908774277196,-25.230951394866352 -59.615838911166485,-24.850565330280492 C -59.70776904805577,-24.470179265694636 -59.796147780560126,-24.08944715232374 -59.880992037872936,-23.7085619423872 C -59.96583629518574,-23.327676732450655 -60.047133656917445,-22.94651008598093 -60.12490445504328,-22.565254070661247 C -60.202675253169105,-22.183998055341572 -60.276904807474374,-21.80252494030961 -60.34761682662794,-21.42102585046915 C -60.418328845781524,-21.03952676062869 -60.4855064074569,-20.657874612837247 -60.54917656996477,-20.27625953161847 C -60.61284673247264,-19.894644450399696 -60.672990349725815,-19.512940038512216 -60.729637801675175,-19.131335363156488 C -60.78628525362453,-18.74973068780076 -60.839415189401535,-18.36810007537424 -60.88906128166089,-17.98663147948409 C -60.938707373920245,-17.605162883593938 -60.98484608660967,-17.22373139156068 -61.02751435523127,-16.84252378781559 C -61.07018262385287,-16.4613161840705 -61.10935474737656,-16.080208353678252 -61.145070893390454,-15.699385857013548 C -61.18078703940435,-15.318563360348845 -61.21301936270472,-14.937902916568937 -61.24181123131467,-14.557588807827376 C -61.27060309992462,-14.177274699085816 -61.29592454585876,-13.797184514498914 -61.31782210505014,-13.41750120456419 C -61.33971966424152,-13.037817894629464 -61.358161267892676,-12.658419953797795 -61.37319658646291,-12.279488948219027 C -61.388231905033145,-11.900557942640262 -61.399826791449556,-11.52197330697547 -61.40803401647158,-11.143915171091596 C -61.4162412414936,-10.765857035207723 -61.421024602865764,-10.388205808343162 -61.42243993659502,-10.011140132915788 C -61.423855270324275,-9.634074457488413 -61.42186434261111,-9.257475751164128 -61.41652601884709,-8.88152111852735 C -61.411187695083065,-8.505566485890572 -61.40246173409782,-8.130138386359757 -61.390409994010895,-7.755412337095119 C -61.37835825392397,-7.380686287830479 -61.362938510890956,-7.006545822794968 -61.34421557832554,-6.633164822939521 C -61.32549264576013,-6.259783823084074 -61.30342234235324,-5.8870469291671546 -61.278072398618434,-5.515126337962435 C -61.25272245488363,-5.143205746757716 -61.224046757757826,-4.771987237521782 -61.19211591591672,-4.401641275711208 C -61.16018507407562,-4.0312953139006344 -61.12495106890278,-3.6617088484169513 -61.08648734757181,-3.2930505670989936 C -61.04802362624084,-2.9243922857810354 -61.00628029126117,-2.5565503377592482 -60.96133358793086,-2.1896915878034604 C -60.91638688460055,-1.8228328378476721 -60.8681850637012,-1.4568466653315149 -60.816807127589946,-1.0918980673642658 C -60.76542919147869,-0.7269494693970165 -60.710821566811006,-0.3629290850333722 -60.653065971263345,3.4363230452180155E-14 C -60.595310375715684,0.36292908503344096 -60.5343514398628,0.7248749431457296 -60.47027355430395,1.0856764428361736 C -60.40619566874509,1.4464779425266177 -60.338941696451776,1.8062418394020254 -60.268598657910246,2.1648089981426994 C -60.198255619368716,2.5233761568833732 -60.124764638844745,2.880851988622608 -60.048215323054734,3.237079395280217 C -59.97166600726472,3.593306801937826 -59.8919977710745,3.948389823103021 -59.80930276317013,4.302173438088354 C -59.72660775526575,4.655957053073688 -59.6408237108152,5.008543903459891 -59.552045275628515,5.3597810851922185 C -59.463266840441825,5.711018266924547 -59.37143010007529,6.061006997722245 -59.27663215205001,6.40959652848232 C -59.18183420402474,6.758186059242395 -59.08400951474363,7.105476158586078 -58.9832575874769,7.451318269752669 C -58.88250566021018,7.79716038091926 -58.77875937302557,8.141652798816699 -58.6721205884497,8.484649195481865 C -58.56548180387383,8.82764559214703 -58.455881842805184,9.169242764785098 -58.34342488002162,9.509296649743664 C -58.23096791723807,9.849350534702232 -58.11558374797036,10.187956408124416 -57.997378811748355,10.524972505233274 C -57.879173875526355,10.861988602342132 -57.75807647373773,11.19750865549367 -57.634195262689616,11.531393232396805 C -57.5103140516415,11.86527780929994 -57.38357587101395,12.197619076436693 -57.25409154545967,12.528279966652086 C -57.124607219905386,12.858940856867479 -56.99230215983082,13.188011949324446 -56.85728930936395,13.515358573689166 C -56.72227645889708,13.842705198053885 -56.584479831890825,14.168416325370279 -56.444014442658414,14.492359712840408 C -56.303549053426,14.816303100310535 -56.16033755226067,15.13856609070775 -56.01449697396944,15.459018898509946 C -55.868656395678215,15.779471706312142 -55.72010806024978,16.098200026521866 -55.56897097291106,16.415076559653585 C -55.41783388557233,16.731953092785304 -55.26402806951137,17.047061867224567 -55.10767444993713,17.36027809730027 C -54.951320830362896,17.673494327375977 -54.79233816740305,17.98490035666695 -54.630849255465655,18.29437394010781 C -54.46936034352826,18.60384752354867 -54.30528271364477,18.9114693023806 -54.13874097831273,19.217119597945427 C -53.972199242980686,19.522769893510254 -53.803109738311036,19.82652762784136 -53.6315988434734,20.128275713496773 C -53.46008794863576,20.430023799152178 -53.28607083919516,20.729839422749905 -53.10967560928689,21.02760811187787 C -52.93328037937862,21.32537680100584 -52.754421078582915,21.621173991323285 -52.57322746402375,21.914887848264584 C -52.39203384946459,22.208601705205883 -52.20841887947265,22.500305898593513 -52.02251392193195,22.789891253525653 C -51.836608964391246,23.079476608457792 -51.648325921279685,23.367015014708823 -51.45779771877955,23.652399977857414 C -51.26726951627942,23.937784941006004 -51.074407035061874,24.22108655723456 -50.87934470693111,24.502201032417204 C -50.68428237880034,24.78331550759985 -50.48693009830367,25.062311131451253 -50.287423749994964,25.339086828953274 C -50.08791740168627,25.615862526455302 -49.886165929296276,25.890484768647713 -49.68230661707894,26.162855217429364 C -49.47844730486161,26.43522566621101 -49.27238818115044,26.70540896240834 -49.06426787669095,26.97330952164316 C -48.85614757223144,27.241210080877977 -48.64587323547911,27.506890702893795 -48.433584790321945,27.770258572838255 C -48.221296345164774,28.033626442782715 -48.00690009578697,28.294742509115324 -47.79053720574794,28.55351674130993 C -47.57417431570891,28.812290973504535 -47.35575028060352,29.068782459203646 -47.13540745008776,29.322903966005896 C -46.91506461957201,29.577025472808145 -46.69270771639651,29.82883421867349 -46.468480222653426,30.078245782123428 C -46.24425272891034,30.327657345573368 -46.018058630302086,30.57472706668629 -45.79004248762924,30.819373346705532 C -45.562026344956394,31.064019626724775 -45.33209144270813,31.306295920313605 -45.10038336661637,31.546123462238892 C -44.86867529052461,31.785951004164176 -44.635096659727054,32.02338135680464 -44.39979403107867,32.25833859825724 C -44.164491402430286,32.49329583970984 -43.92736676559398,32.72582963386196 -43.68856759472608,32.955866910954484 C -43.44976842385819,33.185904188047004 -43.20919611502644,33.41349270793007 -42.966999005871294,33.63856226081236 C -42.72480189671615,33.86363181369464 -42.48088082558098,34.08622825050211 -42.235384939795225,34.30628422824819 C -41.989889054009474,34.526340205994266 -41.74271867004228,34.743899662450595 -41.49402369115677,34.95889812728883 C -41.24532871227126,35.17389659212707 -40.99500896888019,35.38637608638883 -40.74321506648216,35.596275017277634 C -40.49142116408413,35.80617394816644 -40.23805248280941,36.01353241707008 -39.9832602767686,36.21829171262166 C -39.72846807072779,36.423051008173225 -39.47215130548705,36.62524930983209 -39.21446183023729,36.82483079058706 C -38.95677235498752,37.02441227134202 -38.69760875638229,37.221413187095614 -38.43712342526999,37.415780597151446 C -38.17663809415769,37.610148007207286 -37.91472927385247,37.80191624292569 -37.651549843563494,37.991035250922074 C -37.38837041327452,38.18015425891846 -37.12381830846014,38.366656445665306 -36.85804684353614,38.550494645129774 C -36.59227537861214,38.73433284459424 -36.32518221656394,38.91553753865151 -36.05692105401952,39.09406444770886 C -35.788659891475106,39.272591356766206 -35.519128154217945,39.44846903902457 -35.248479868269634,39.62165609947385 C -34.97783158232132,39.79484315992314 -34.70596397141163,39.965366234641614 -34.43303133832965,40.133186810404574 C -34.16009870524767,40.301007386167534 -33.88599810668398,40.46615017910663 -33.610884069777775,40.6285795540516 C -33.33577003287157,40.79100892899657 -33.05953948214425,40.95074768492872 -32.78234711689243,41.10776306007441 C -32.50515475164061,41.26477843522011 -32.22689739893139,41.41909131482227 -31.94772987826684,41.570671804925766 C -31.668562357602287,41.722252295029264 -31.388381433144417,41.87111937116174 -31.107341992905113,42.017246000695394 C -30.826302552665812,42.16337263022905 -30.544301332275058,42.306775883605646 -30.261493236831022,42.44743158212772 C -29.97868514138698,42.588087280649795 -29.694966912174205,42.726010594903904 -29.410493420240858,42.86118019182781 C -29.126019928307514,42.99634978875171 -28.8406879545827,43.128778944903665 -28.55465228523096,43.2584491636711 C -28.268616615879225,43.38811938243853 -27.981774105257387,43.515042052769196 -27.69427940413044,43.63920150443245 C -27.406784703003495,43.76336095609571 -27.118534772722498,43.88476669743185 -26.82968407846928,44.00340587365067 C -26.54083338421606,44.122045049869485 -26.251279027675945,44.23792529628659 -25.961175238611144,44.351036561745325 C -25.671071449546343,44.464147827204044 -25.38031550308021,44.57449588215215 -25.08906134408047,44.682073466403025 C -24.797807185080718,44.789651050653895 -24.505952294966793,44.89446207851217 -24.213650284612665,44.996502067250574 C -23.921348274258534,45.098542055988986 -23.62849686398255,45.19781307305558 -23.335249281955708,45.29431339883346 C -23.04200169992886,45.39081372461135 -22.748255937706727,45.48454358953419 -22.454164792451582,45.57550402191789 C -22.160073647196437,45.66646445430158 -21.865535413765816,45.754653857956775 -21.570702410424836,45.840075993135635 C -21.275869407083857,45.9254981283145 -20.980640263774095,46.00814958313865 -20.685166772405704,46.08803683299106 C -20.38969328103731,46.167924082843456 -20.093874438126473,46.24504191162665 -19.797861462214488,46.31939949225005 C -19.501848486302503,46.39375707287345 -19.205540771670524,46.46534739701957 -18.90908891693379,46.53418231673145 C -18.612637062197056,46.60301723644333 -18.315940890283276,46.66908796370464 -18.019150333794087,46.73240901052136 C -17.7223597773049,46.79573005733807 -17.42537511837895,46.85629086903123 -17.128345577998655,46.91410859763173 C -16.83131603761836,46.97192632623224 -16.534142387372246,47.02698866394255 -16.236973091512326,47.07931538212439 C -15.939803795652407,47.13164210030626 -15.64254014512243,47.18121915208798 -15.34532980283914,47.228068906722854 C -15.048119460555853,47.27491866135773 -14.750864266382075,47.31902534743741 -14.453711037812596,47.36041390993362 C -14.156557809243116,47.401802472429836 -13.859408964274357,47.44045543042042 -13.562410431422268,47.47640028170011 C -13.265411898570184,47.51234513297981 -12.968466702822363,47.54556270261313 -12.671719840700082,47.57608301761179 C -12.374972978577802,47.60660333261046 -12.078328110552969,47.63440553999595 -11.781929258688576,47.65952217169208 C -11.485530406824182,47.684638803388204 -11.189281895197873,47.70704734480565 -10.893326729513717,47.72678280778854 C -10.597371563829562,47.746518270771425 -10.301614759513486,47.76355649600571 -10.006198264583642,47.777934949589415 C -9.710781769653797,47.79231340317312 -9.415611318241046,47.80400629839918 -9.120827759934649,47.813053529290755 C -8.826044201628251,47.82210076018233 -8.531554016227997,47.82847493040853 -8.237496914745263,47.83221833493884 C -7.943439813262528,47.83596173946915 -7.649723047730688,47.83704539054716 -7.3564851510382425,47.83551395647258 C -7.063247254345797,47.833982522397996 -6.770396276918555,47.82980544260784 -6.478069534590595,47.823029730491314 C -6.185742792262636,47.81625401837477 -5.893849159598953,47.806847559593415 -5.602524697070488,47.79485968377337 C -5.3112002345420235,47.78287180795331 -5.020354666181446,47.76826886641525 -4.730122759419805,47.75110247557104 C -4.439890852658164,47.73393608472683 -4.150183205900096,47.714171081385594 -3.861133256500639,47.69186133870811 C -3.572083307101181,47.66955159603061 -3.283602552311237,47.64466045652984 -2.9958230630230585,47.61724401950607 C -2.70804357373488,47.589827582482286 -2.4208777700843136,47.55984771674494 -2.1344563207715703,47.52736271656544 C -1.848034871458827,47.494877716385936 -1.5622711431023373,47.459847997830956 -1.2772943671465982,47.42233401842906 C -0.9923175911908589,47.38482003902717 -0.7080421038882023,47.34478078342227 -0.42459566503713475,47.30227884015406 C -0.1411492261860671,47.259776896885846 0.14155283562724738,47.214769840845655 0.4233842659598077,47.16732235881979 C 0.705215696292368,47.119874876793936 0.9862601519805508,47.06994315593233 1.2663929169582273,47.017593947998904 C 1.546525681935904,46.96524474006548 1.8258293766794047,46.91043286681173 2.1041808558258666,46.853227111219226 C 2.3825323349723284,46.79602135562673 2.660013161321014,46.736375196714135 2.9365017918369984,46.67435941444388 C 3.2129904223529824,46.612343632173626 3.4885673413114078,46.547910385810354 3.7631126389217724,46.481132417597685 C 4.0376579365321374,46.41435444938502 4.311250998172544,46.34518262211632 4.583773577499185,46.27369160516787 C 4.8562961568258265,46.20220058821942 5.127826520425006,46.12833997149053 5.398248114881618,46.05218631590694 C 5.6686697093382294,45.97603266032334 5.938059663034004,45.897534306752625 6.206303144238859,45.8167696716663 C 6.474546625443715,45.736005036579975 6.74171960540766,45.652921235951744 7.007709002110749,45.56759850538898 C 7.2736983988138375,45.482275774826206 7.53857900793633,45.394660029812634 7.802239524457395,45.30483328828968 C 8.06590004097846,45.215006546766716 8.32841406706295,45.12291354838853 8.589672101237138,45.02863805625122 C 8.850930135411327,44.934362564113904 9.11100456887452,44.837848166949335 9.369787729502528,44.73918033546576 C 9.628570890130538,44.64051250398219 9.886133941205395,44.53963370113382 10.14237106500519,44.436631067349765 C 10.398608188804983,44.33362843356571 10.653589304243921,44.22844333139474 10.907210472301285,44.12116453276141 C 11.16083164035865,44.01388573412808 11.413161519634022,43.90445352676597 11.664098073349374,43.792958275549765 C 11.915034627064728,43.68146302433356 12.164645238064312,43.567843967980245 12.412829794593412,43.45219302546419 C 12.661014351122512,43.336542082948135 12.907838945337668,43.21879746996689 13.153205412523974,43.09905262045344 C 13.39857187971028,42.97930777093998 13.64254500691454,42.85749990375857 13.885028597711242,42.733723928383476 C 14.127512188507945,42.60994795300837 14.368569710924326,42.48414011783591 14.608106957304194,42.356396768202835 C 14.847644203684062,42.228653418569756 15.085723309639107,42.09890985893936 15.32225207599045,41.967263830585 C 15.558780842341795,41.83561780223064 15.793820059404927,41.702003692377296 16.02727955541226,41.566520598076664 C 16.26073905141959,41.43103750377603 16.492678259026423,41.29361892185961 16.72300905203444,41.15436526478125 C 16.95333984504245,41.015111607702885 17.182120286600554,40.87395550888578 17.409264313460348,40.730998655606456 C 17.63640834032014,40.58804180232713 17.861972634796647,40.443215991716485 18.08587321319321,40.29662414510533 C 18.309773791589773,40.150032298494175 18.532065944579546,40.00160540395808 18.752667783839726,39.85144757593955 C 18.9732696230999,39.70128974792103 19.192235037373894,39.549331192788635 19.40948424875426,39.39567717699417 C 19.626733460134627,39.242023161199704 19.842318945667724,39.08660313685481 20.056163052121917,38.92952348117272 C 20.27000715857611,38.77244382549063 20.482160942054158,38.61363326386831 20.692548887479436,38.4531992429016 C 20.902936832904718,38.29276522193488 21.11160856671069,38.1306357679308 21.318490724673598,37.96691935537247 C 21.525372882636514,37.80320294281414 21.730513653315622,37.637826926616235 21.9338418352569,37.47090076755163 C 22.137170017198184,37.30397460848704 22.33873235340229,37.13542501783908 22.538459816321286,36.96536240098487 C 22.738187279240282,36.79529978413067 22.936125159151903,36.62365023653713 23.132206612770887,36.45052506642639 C 23.32828806638987,36.277399896315636 23.522556924626173,36.10272461119752 23.714948538035173,35.92661138032039 C 23.907340151444174,35.750498149443246 24.09789688544191,35.572871920254165 24.2865562932249,35.393845681163555 C 24.475215701007894,35.214819442072944 24.66201867688986,35.03431760838501 24.846904984733122,34.8524539457767 C 25.031791292576372,34.670590283168394 25.21480035050061,34.4872887027372 25.395874140284434,34.302663705513716 C 25.576947930068258,34.118038708290236 25.756124389061018,33.93201372910831 25.933347723436086,33.74470396243579 C 26.110571057811153,33.55739419576327 26.285877720085143,33.368722628111186 26.459214146534844,33.17880510547862 C 26.63255057298454,32.98888758284605 26.803951727743865,32.7976466713505 26.973366282134297,32.605198826640404 C 27.142780836524732,32.41275098193031 27.310242263258115,32.21901837763831 27.475701472877432,32.02411803721807 C 27.64116068249675,31.829217696797823 27.804649653761135,31.63307142927607 27.9661215398502,31.43579678411894 C 28.127593425939256,31.23852213896181 28.28707870963545,31.040040588430386 28.444532789411785,30.840470166275267 C 28.601986869188124,30.640899744120148 28.757438730330843,30.44016161362936 28.910846018508227,30.238374251188223 C 29.064253306685615,30.036586888747085 29.215643508670194,29.833671176406572 29.364976518476116,29.629745991628436 C 29.51430952828204,29.425820806850297 29.661611333650168,29.220806778119094 29.806844077343797,29.014823142519383 C 29.952076821037426,28.808839506919668 30.095264991744628,28.60180666696611 30.236372980637896,28.393844178030136 C 30.377480969531163,28.185881689094163 30.516531766718725,27.976909755234285 30.65349201070339,27.767048208903553 C 30.790452254688052,27.557186662572818 30.92534343796223,27.34635553679591 31.05813444454588,27.134674900045724 C 31.19092545112952,26.922994263295536 31.321636277351185,26.710384004885366 31.450238050205265,26.49696438840243 C 31.57883982305935,26.28354477191949 31.705351044647177,26.06923557017981 31.829745081670385,25.854157201148087 C 31.954139118693593,25.63907883211637 32.0764329814442,25.423150979208803 32.196602272344506,25.20649417421212 C 32.316771563244814,24.989837369215437 32.43483180367323,24.772371233118452 32.55076082707222,24.554216371167985 C 32.66668985047121,24.336061509217515 32.78050169267535,24.117137506814384 32.89217641273846,23.8975650025093 C 33.00385113280157,23.67799249820422 33.1134012848544,23.457691068508172 33.22080914745091,23.23678134533749 C 33.32821701004742,23.015871622166813 33.433493659920835,22.794273199691606 33.5366235883175,22.572106663485222 C 33.63975351671416,22.349940127278842 33.740746327738385,22.127125115562375 33.83958871783085,21.903782128099184 C 33.938431107923314,21.680439140635997 34.03513121378608,21.45648788592514 34.129677928872304,21.23204873870608 C 34.224224643958536,21.00760959148702 34.316624643248325,20.782602356591166 34.406869008348224,20.557147244784836 C 34.49711337344812,20.331692132978507 34.58520732374584,20.10570907129963 34.67114411947172,19.879318067868105 C 34.7570809151976,19.652927064436582 34.840864326721174,19.426048194183345 34.922489782703465,19.19880122419571 C 35.004115238685756,18.971554254208076 35.083585067492386,18.743859432801358 35.160896855365465,18.51583624794229 C 35.23820864323854,18.28781306308322 35.313363283989155,18.059381961760522 35.38636050994197,17.830662115041285 C 35.45935773589479,17.60194226832205 35.530197014185894,17.372854346947875 35.59888021108239,17.143517167626875 C 35.66756340797888,16.914179988305875 35.73408857224659,16.684514470395353 35.79845969132093,16.454639039115285 C 35.862830810395266,16.224763607835218 35.92504452339658,15.99459945579787 35.985106925528406,15.76426457994648 C 36.045169327660226,15.533929704095089 36.103075657536955,15.303345594705691 36.15883410411189,15.072629784006937 C 36.214592550686824,14.841913973308182 36.268196961617264,14.610988273411555 36.319657604978026,14.37996971575396 C 36.37111824833878,14.148951158096366 36.42042759078282,13.917761900552632 36.46759796427646,13.686518438061377 C 36.5147683377701,13.455274975570122 36.55979083831303,13.223899835447142 36.60267984593986,12.992508940806434 C 36.645568853566694,12.761118046165729 36.68631410436754,12.52963431718505 36.724932010037456,12.298173070217135 C 36.763549915707365,12.066711823249223 36.80002886355745,11.835196394491888 36.83438727995933,11.603741458998954 C 36.86874569636121,11.37228652350602 36.900970631358526,11.140815856384426 36.93108250844874,10.909443457259522 C 36.96119438553895,10.67807105813462 36.98917892938477,10.446721163636516 37.01505854250062,10.21550706424953 C 37.040938155616466,9.984292964862549 37.06469724953965,9.75313938107308 37.08636018714385,9.522158860937623 C 37.10802312474806,9.291178340802167 37.12757301706349,9.060296110709835 37.14503616812584,8.829623943436795 C 37.16249931918819,8.598951776163757 37.17785755249551,8.368415425755968 37.191139093517954,8.138125857299386 C 37.20442063454039,7.907836288842803 37.215606032569106,7.677719805496555 37.2247254142605,7.4478865326972965 C 37.233844795951896,7.218053259898038 37.24087745005934,6.9884300710712095 37.245855383666346,6.759126220503832 C 37.25083331727336,6.529822369936457 37.25373457260207,6.300765322164998 37.254593015902586,6.072063429293041 C 37.2554514592031,5.843361536421084 37.25424390050379,5.614942874627296 37.25100604346944,5.386914863272092 C 37.24776818643509,5.158886851916887 37.24247562356208,4.931178199033802 37.235165873696474,4.7038953611618135 C 37.22785612383087,4.476612523289824 37.21850357691645,4.249684860206645 37.2071475442758,4.023217836040159 C 37.19579151163514,3.796750811873673 37.18240519594969,3.570674457707009 37.16702967785255,3.345093216162897 C 37.151654159755395,3.1195119746187836 37.134261470259965,2.8943565673143627 37.114894435692904,2.669730386775484 C 37.09552740112584,2.4451042062366053 37.074156896724034,2.22093868350593 37.05082747045016,1.9973361329296246 C 37.02749804417628,1.7737335823533193 37.00217943167247,1.5506261629496862 36.97491787804963,1.3281150833176512 C 36.94765632442679,1.1056040036856163 36.90186810360254,0.7732438931674545 36.887258148713116,0.6622696551374151 "></path><path transform="matrix(1.0,0.0,0.0,-1.0,81.71192763516211,0.0)" style="stroke-width: 1.0px; stroke: hsla(240.0, 100.0%, 27.254901960784313%, 1.0); stroke-linecap: butt; stroke-linejoin: miter;  fill: none;" d="M 0,0 M 100,-1.1331077795295959E-13 C 99.99731446548431,-0.2991832299683947 99.99462806551713,-1.1968293359001105 99.98388679290582,-1.7950993798098016 C 99.97314552029451,-2.3933694237194927 99.95703144802775,-2.991639436557741 99.93555236433214,-3.5896202634582597 C 99.91407328063652,-4.187601090358778 99.88722226357355,-4.785485439099627 99.85501229073209,-5.382984341212915 C 99.82280231789065,-5.980483243326204 99.78522300915144,-6.577789251282898 99.7422925272834,-7.174613676137988 C 99.69936204541538,-7.7714381009930795 99.6510665554636,-8.367973277857699 99.59742939952389,-8.963930890343462 C 99.54379224358418,-9.559888502829226 99.4847961363245,-10.155460606704734 99.42046959164514,-10.750359351052568 C 99.35614304696578,-11.345258095400402 99.28646533472806,-11.939675194753887 99.21147013144778,-12.533323356430465 C 99.13647492816752,-13.126971518107043 99.05613806557984,-13.720042053622135 98.97049837196347,-14.312248321112042 C 98.8848586783471,-14.904454588601949 98.79388855509966,-15.49598743491128 98.69763196974955,-16.0865609613699 C 98.60137538439947,-16.677134487828525 98.49980131690087,-17.26693901510716 98.39295885986294,-17.855689479863777 C 98.28611640282503,-18.444439944620395 98.173971124755,-19.032326080018308 98.05657722752198,-19.619063749909593 C 97.93918333028897,-20.205801419800878 97.81650298204936,-20.7915797086972 97.68859547646476,-21.376115499211487 C 97.56068797088017,-21.96065128972577 97.42751208794807,-22.544132956782963 97.28913219401447,-23.126278492995308 C 97.15075230008085,-23.70842402920765 97.00712380026793,-24.289421039206818 96.8583161128631,-24.868988716485536 C 96.70950842545822,-25.448556393764253 96.55547359507973,-26.026881512202703 96.3962860695853,-26.603684556667616 C 96.23709854409087,-27.18048760113253 96.07270702304925,-27.755954454562087 95.90319095989655,-28.32980698327502 C 95.73367489674386,-28.903659511987954 95.55897966253151,-29.47608264807698 95.3791896906692,-30.046799728945228 C 95.19939971880687,-30.617516809813477 95.01445706943359,-31.186711757111294 94.82445112872261,-31.754109468484522 C 94.63444518801167,-32.32150717985775 94.43931472386161,-32.887290507242945 94.23915404640346,-33.45118599718459 C 94.0389933689453,-34.01508148712623 93.83373797357007,-34.57727086292049 93.62348706397368,-35.137482408134375 C 93.41323615437729,-35.69769395334826 93.19792197423078,-36.256108204074664 92.97764858882512,-36.81245526846787 C 92.75737520341947,-37.36880233286108 92.53207162654114,-37.923261501630364 92.30184675153971,-38.475564794493636 C 92.0716218765383,-39.02786808735691 91.83640151019199,-39.578193491860915 91.5962993388166,-40.12627502564751 C 91.35619716744122,-40.674356559434095 91.11113581471655,-41.22037084952843 90.86123372328741,-41.76405399721316 C 90.61133163185828,-42.30773714489789 90.35650826724168,-42.849264359756084 90.09688679024185,-43.38837391175591 C 89.83726531324203,-43.927483463755756 89.57276205716649,-44.464349088574416 89.3035048612885,-44.99871130921218 C 89.03424766541049,-45.53307352984996 88.76014975779087,-46.06510455208929 88.48134361497382,-46.594547235582525 C 88.20253747215679,-47.12398991907576 87.91893324492001,-47.65101488421499 87.63066800438631,-48.17536741017161 C 87.34240276385265,-48.699719936128226 87.04938361247167,-49.221569002919075 86.75175217177173,-49.74066239132225 C 86.45412073107178,-50.259755779725424 86.151781085112,-50.776260774926264 85.8448793601866,-51.289927740590635 C 85.53797763526119,-51.80359470625501 85.22641492794912,-52.31458917882684 84.91034182221931,-52.8226641853085 C 84.59426871648948,-53.33073919179015 84.27358335331373,-53.83605846653762 83.9484407258077,-54.338377779480595 C 83.62329809830165,-54.84069709242357 83.2935934246555,-55.34017832306437 82.95948605718306,-55.83658006296632 C 82.62537868971063,-56.33298180286826 82.28676095758789,-56.8264640245121 81.94379652097315,-57.31678821889227 C 81.60083208435843,-57.80711241327244 81.25341041811191,-58.294436594294666 80.90169943749473,-58.778525229247336 C 80.54998845687756,-59.2626138642 80.19387481805235,-59.743622957491674 79.8335306372701,-60.221320028608275 C 79.47318645648785,-60.69901709972489 79.10849560774032,-61.17355609330317 78.73963435280118,-61.64470765594703 C 78.37077309786203,-62.11585921859089 77.99762256597548,-62.58377518555437 77.62036310763524,-63.04822940447144 C 77.24310364929501,-63.51268362338851 76.8616136873055,-63.9738257711995 76.4760776027598,-64.43143296944947 C 76.09054151821411,-64.88904016769945 75.70083506665681,-65.34325988677945 75.30714660036108,-65.79387259397129 C 74.91345813406535,-66.24448530116312 74.51566078135541,-66.69163621278419 74.11394680498543,-67.13510921260045 C 73.71223282861544,-67.57858221241672 73.3064727705755,-68.01852021587392 72.89686274214112,-68.45471059286889 C 72.48725271370675,-68.89090096986386 72.0736607122536,-69.32348428891414 71.65628663437916,-69.7522514745703 C 71.2389125565047,-70.18101866022646 70.81762189750991,-70.60610788877761 70.39261827489446,-71.02731370680576 C 69.96761465227901,-71.4485195248339 69.53876110261518,-71.86597767187051 69.10626489868645,-72.27948638273917 C 68.67376869475771,-72.69299509360782 68.237490458546,-73.10268762733843 67.79764105132203,-73.50836597201773 C 67.35779164409804,-73.91404431669703 66.91422931817,-74.31583920790868 66.46716845534255,-74.71355645081499 C 66.02010759251509,-75.11127369372132 65.56940412110288,-75.50504145832828 65.11527587435728,-75.89466942945562 C 64.66114762761168,-76.28429740058294 64.20344825628293,-76.66991114135439 63.742398974868934,-77.05132427757896 C 63.28134969345495,-77.43273741380352 62.816801922304705,-77.8100728612582 62.34898018587334,-78.18314824680299 C 61.881158449441976,-78.55622363234775 61.409911985559035,-78.92515918480157 60.93546855628076,-79.28977659084757 C 60.46102512700248,-79.65439399689355 59.98323183622426,-80.01481075964718 59.50231961020368,-80.3708526830789 C 59.0214073841831,-80.72689460651061 58.53722124215432,-81.07867643016537 58.04999520015727,-81.42602813143792 C 57.56276915816022,-81.77337983271045 57.072346200712566,-82.11641335059869 56.5789633582214,-82.4549628907141 C 56.08558051573022,-82.79351243082948 55.58907878859719,-83.12768709554902 55.08969814521023,-83.45732537213027 C 54.59031750182326,-83.7869636487115 54.08789700970783,-84.11217176775081 53.5826794978996,-84.43279255020155 C 53.07746198609137,-84.7534133326523 52.56928464110242,-85.06955010309584 52.05839307436082,-85.38105006683475 C 51.547501507619224,-85.69255003057367 51.033731077092625,-85.9995135728765 50.51733009745002,-86.30179233263507 C 50.00092911780742,-86.60407109239367 49.48173117153022,-86.90176248321313 48.959987196505196,-87.19472262538626 C 48.43824322148017,-87.4876827675594 47.91378507833294,-87.77600607163497 47.38686624729985,-88.0595531856738 C 46.859947416266756,-88.34310029971266 46.330398090302886,-88.6219626007822 45.798474210306686,-88.89600530961937 C 45.26655033031048,-89.17004801845655 44.73208047628922,-89.43935944919976 44.19532296732264,-89.70380943869688 C 43.65856545835606,-89.96825942819397 43.11934731674612,-90.2279331991939 42.57792915650718,-90.482705246602 C 42.03651099626824,-90.73747729401009 41.49271833774147,-90.9874297217216 40.946814005888996,-91.23244172314546 C 40.40090967403652,-91.47745372456929 39.852717743467316,-91.71760425828785 39.302503165392345,-91.95277725514507 C 38.752288587317366,-92.18795025200228 38.199874047307745,-92.41822149982222 37.64552653743913,-92.64347970428878 C 37.09117902757051,-92.86873790875534 36.534719901518336,-93.08905566251049 35.97641810618066,-93.30432648194443 C 35.41811631084298,-93.51959730137837 34.857791925570815,-93.72989056055697 34.295715765413064,-93.93510462089239 C 33.73363960525531,-94.14031868122781 33.16963053322052,-94.34051967585309 32.60396114523413,-94.5356108439569 C 32.03829175724774,-94.73070201206075 31.470779758349867,-94.92074622453099 30.901699437494724,-95.10565162951536 C 30.332619116639577,-95.29055703449974 29.76178707964588,-95.47038322037992 29.18947922010326,-95.64504327386317 C 28.617171360560633,-95.81970332734642 28.043203244167838,-95.98925353510504 27.467852280238986,-96.1536119504149 C 26.892501316310135,-96.31797036572478 26.31558208986056,-96.4771899554096 25.737373436530152,-96.63119376572243 C 25.159164783199746,-96.78519757603527 24.579480367072993,-96.93403523688185 23.99860036025654,-97.07763481229183 C 23.417720353440085,-97.22123438770183 22.835457559137023,-97.35964215466915 22.252093395631423,-97.49279121818236 C 21.668729232125827,-97.62594028169559 21.084075702066126,-97.7538735509234 20.498415379222962,-97.87652919337116 C 19.912755056379797,-97.99918483581892 19.325899203431785,-98.11660237900196 18.738131458572425,-98.22872507286887 C 18.150363713713066,-98.34084776673579 17.561494660474434,-98.44771174441031 16.97180891006681,-98.54926535657268 C 16.38212315965918,-98.65081896873504 15.791430677510206,-98.74709494247294 15.200016956126658,-98.83804674584307 C 14.608603234743109,-98.9289985492132 14.016277682689605,-99.01465549272045 13.42332658176553,-99.09497617679348 C 12.830375480841454,-99.17529686086652 12.236607744169083,-99.2503071699817 11.642310350582214,-99.3199708502813 C 11.048012956995345,-99.3896345305809 10.452994385754412,-99.45397403217108 9.857542220244316,-99.51295825859113 C 9.26209005473422,-99.57194248501116 8.666012402073811,-99.62559044476212 8.069597357521639,-99.67387620880147 C 7.473182312969468,-99.72216197284081 6.8762376733429775,-99.76510110193881 6.279051952931283,-99.80267284282715 C 5.681866232519589,-99.84024458371546 5.084246979778986,-99.87246104441897 4.486483035051474,-99.89930665413146 C 3.888719090323962,-99.92615226384396 3.2906178157248287,-99.94763567394284 2.6924682845662096,-99.96374650110211 C 2.09431875340759,-99.97985732826139 1.4959282035441082,-99.99060076442295 0.8975858480997592,-99.99597161708711 C 0.2992434926554101,-100.0013424697513 -0.2992434926555356,-100.00134246975126 -0.8975858480998846,-99.99597161708711 C -1.4959282035442334,-99.99060076442295 -2.0943187534077303,-99.97985732826139 -2.692468284566335,-99.96374650110211 C -3.2906178157249393,-99.94763567394284 -3.888719090323999,-99.92615226384396 -4.486483035051511,-99.89930665413146 C -5.0842469797790235,-99.87246104441897 -5.6818662325197,-99.84024458371546 -6.279051952931409,-99.80267284282715 C -6.876237673343117,-99.76510110193881 -7.473182312969594,-99.72216197284081 -8.069597357521765,-99.67387620880146 C -8.666012402073937,-99.62559044476211 -9.262090054734342,-99.57194248501115 -9.85754222024444,-99.51295825859113 C -10.452994385754536,-99.4539740321711 -11.048012956995485,-99.38963453058089 -11.64231035058234,-99.31997085028128 C -12.236607744169193,-99.25030716998167 -12.83037548084149,-99.17529686086651 -13.423326581765565,-99.09497617679347 C -14.01627768268964,-99.01465549272042 -14.608603234743223,-98.9289985492132 -15.200016956126783,-98.83804674584307 C -15.791430677510343,-98.74709494247293 -16.382123159659304,-98.65081896873501 -16.97180891006693,-98.54926535657266 C -17.56149466047456,-98.44771174441028 -18.15036371371319,-98.34084776673576 -18.73813145857255,-98.22872507286885 C -19.325899203431906,-98.11660237900192 -19.91275505637993,-97.99918483581888 -20.498415379223083,-97.87652919337113 C -21.084075702066233,-97.75387355092336 -21.66872923212586,-97.62594028169559 -22.25209339563146,-97.49279121818236 C -22.835457559137055,-97.35964215466915 -23.41772035344019,-97.22123438770178 -23.99860036025666,-97.0776348122918 C -24.579480367073128,-96.93403523688181 -25.15916478319986,-96.7851975760352 -25.73737343653027,-96.63119376572239 C -26.315582089860673,-96.47718995540954 -26.89250131631026,-96.31797036572475 -27.467852280239107,-96.15361195041487 C -28.04320324416796,-95.989253535105 -28.617171360560775,-95.81970332734637 -29.189479220103383,-95.64504327386314 C -29.761787079645995,-95.47038322037987 -30.33261911663961,-95.29055703449973 -30.901699437494756,-95.10565162951535 C -31.470779758349902,-94.92074622453096 -32.03829175724785,-94.73070201206069 -32.60396114523425,-94.53561084395686 C -33.169630533220655,-94.34051967585303 -33.73363960525543,-94.14031868122777 -34.295715765413185,-93.93510462089235 C -34.85779192557094,-93.72989056055694 -35.4181163108431,-93.51959730137833 -35.97641810618077,-93.30432648194439 C -36.53471990151845,-93.08905566251046 -37.09117902757065,-92.86873790875528 -37.64552653743925,-92.64347970428872 C -38.19987404730785,-92.41822149982217 -38.7522885873174,-92.18795025200228 -39.30250316539238,-91.95277725514505 C -39.85271774346736,-91.71760425828784 -40.400909674036626,-91.47745372456927 -40.94681400588912,-91.23244172314541 C -41.4927183377416,-90.98742972172154 -42.03651099626836,-90.73747729401003 -42.577929156507295,-90.48270524660194 C -43.119347316746236,-90.22793319919384 -43.65856545835618,-89.96825942819392 -44.19532296732275,-89.70380943869682 C -44.73208047628933,-89.43935944919973 -45.2665503303106,-89.17004801845648 -45.7984742103068,-88.8960053096193 C -46.33039809030299,-88.62196260078213 -46.859947416266785,-88.34310029971265 -47.38686624729988,-88.05955318567379 C -47.91378507833296,-87.77600607163494 -48.43824322148026,-87.48768276755935 -48.9599871965053,-87.1947226253862 C -49.48173117153035,-86.90176248321308 -50.00092911780752,-86.60407109239361 -50.51733009745013,-86.301792332635 C -51.03373107709273,-85.99951357287642 -51.54750150761933,-85.6925500305736 -52.05839307436093,-85.38105006683467 C -52.56928464110252,-85.06955010309575 -53.07746198609149,-84.75341333265222 -53.58267949789971,-84.43279255020148 C -54.08789700970794,-84.11217176775074 -54.5903175018233,-83.7869636487115 -55.089698145210264,-83.45732537213026 C -55.58907878859723,-83.127687095549 -56.08558051573032,-82.79351243082944 -56.5789633582215,-82.45496289071403 C -57.07234620071268,-82.11641335059862 -57.56276915816033,-81.77337983271036 -58.04999520015737,-81.42602813143783 C -58.53722124215442,-81.07867643016532 -59.02140738418319,-80.72689460651054 -59.50231961020378,-80.37085268307882 C -59.983231836224356,-80.0148107596471 -60.46102512700259,-79.65439399689348 -60.93546855628086,-79.2897765908475 C -61.40991198555913,-78.9251591848015 -61.88115844944201,-78.55622363234774 -62.34898018587337,-78.18314824680297 C -62.81680192230474,-77.8100728612582 -63.28134969345501,-77.43273741380345 -63.74239897486902,-77.05132427757889 C -64.20344825628302,-76.66991114135432 -64.66114762761175,-76.28429740058287 -65.11527587435737,-75.89466942945553 C -65.56940412110298,-75.50504145832821 -66.02010759251515,-75.11127369372124 -66.4671684553426,-74.71355645081493 C -66.91422931817006,-74.31583920790862 -67.35779164409814,-73.91404431669694 -67.79764105132212,-73.50836597201764 C -68.2374904585461,-73.10268762733833 -68.67376869475777,-72.69299509360776 -69.1062648986865,-72.27948638273911 C -69.53876110261524,-71.86597767187045 -69.96761465227907,-71.44851952483384 -70.39261827489452,-71.0273137068057 C -70.81762189750997,-70.60610788877756 -71.2389125565048,-70.18101866022637 -71.65628663437924,-69.75225147457022 C -72.0736607122537,-69.32348428891406 -72.4872527137068,-68.89090096986382 -72.89686274214118,-68.45471059286884 C -73.30647277057555,-68.01852021587386 -73.71223282861551,-67.57858221241662 -74.11394680498552,-67.13510921260036 C -74.5156607813555,-66.69163621278409 -74.91345813406541,-66.24448530116304 -75.30714660036114,-65.79387259397122 C -75.70083506665686,-65.34325988677939 -76.09054151821415,-64.88904016769938 -76.47607760275986,-64.4314329694494 C -76.86161368730556,-63.973825771199415 -77.24310364929511,-63.512683623388426 -77.62036310763533,-63.04822940447134 C -77.99762256597555,-62.583775185554266 -78.37077309786207,-62.11585921859083 -78.73963435280122,-61.64470765594696 C -79.10849560774035,-61.1735560933031 -79.47318645648791,-60.69901709972478 -79.83353063727017,-60.22132002860817 C -80.19387481805244,-59.74362295749156 -80.54998845687761,-59.26261386419993 -80.90169943749478,-58.77852522924727 C -81.25341041811195,-58.294436594294616 -81.60083208435847,-57.80711241327237 -81.9437965209732,-57.3167882188922 C -82.28676095758792,-56.82646402451201 -82.62537868971069,-56.33298180286817 -82.95948605718313,-55.83658006296622 C -83.29359342465555,-55.34017832306427 -83.62329809830169,-54.840697092423504 -83.94844072580774,-54.33837777948053 C -84.27358335331378,-53.83605846653756 -84.59426871648957,-53.33073919179005 -84.91034182221938,-52.82266418530839 C -85.2264149279492,-52.314589178826736 -85.53797763526126,-51.803594706254934 -85.84487936018664,-51.28992774059057 C -86.15178108511203,-50.77626077492621 -86.4541207310718,-50.25975577972537 -86.75175217177177,-49.74066239132218 C -87.04938361247173,-49.221569002919004 -87.34240276385266,-48.69971993612811 -87.63066800438637,-48.175367410171496 C -87.91893324492003,-47.651014884214874 -88.20253747215683,-47.12398991907568 -88.48134361497387,-46.59454723558245 C -88.7601497577909,-46.0651045520892 -89.03424766541055,-45.53307352984985 -89.30350486128856,-44.99871130921207 C -89.57276205716657,-44.46434908857429 -89.83726531324213,-43.9274834637556 -90.09688679024194,-43.388373911755764 C -90.35650826724175,-42.84926435975593 -90.61133163185832,-42.30773714489782 -90.86123372328746,-41.76405399721309 C -91.11113581471659,-41.22037084952836 -91.35619716744128,-40.67435655943398 -91.59629933881666,-40.12627502564739 C -91.83640151019205,-39.578193491860794 -92.07162187653834,-39.02786808735683 -92.30184675153974,-38.47556479449356 C -92.53207162654115,-37.923261501630286 -92.7573752034195,-37.368802332860966 -92.97764858882516,-36.812455268467744 C -93.19792197423082,-36.25610820407452 -93.41323615437734,-35.697693953348086 -93.62348706397374,-35.13748240813422 C -93.83373797357012,-34.57727086292035 -94.03899336894533,-34.015081487126146 -94.23915404640348,-33.45118599718452 C -94.43931472386163,-32.88729050724288 -94.63444518801167,-32.32150717985763 -94.82445112872264,-31.754109468484405 C -95.01445706943359,-31.18671175711118 -95.19939971880689,-30.617516809813406 -95.37918969066922,-30.04679972894515 C -95.55897966253154,-29.476082648076897 -95.73367489674389,-28.90365951198785 -95.90319095989658,-28.329806983274896 C -96.07270702304926,-27.755954454561945 -96.23709854409093,-27.18048760113236 -96.39628606958534,-26.603684556667456 C -96.55547359507977,-26.02688151220255 -96.70950842545825,-25.448556393764164 -96.85831611286312,-24.868988716485458 C -97.00712380026799,-24.289421039206744 -97.1507523000809,-23.70842402920753 -97.2891321940145,-23.126278492995187 C -97.42751208794812,-22.544132956782846 -97.56068797088021,-21.96065128972569 -97.68859547646478,-21.376115499211405 C -97.81650298204937,-20.791579708697117 -97.93918333028898,-20.20580141980077 -98.05657722752201,-19.619063749909472 C -98.17397112475506,-19.032326080018173 -98.28611640282504,-18.444439944620218 -98.39295885986297,-17.85568947986361 C -98.4998013169009,-17.266939015107003 -98.60137538439949,-16.677134487828436 -98.69763196974957,-16.086560961369823 C -98.79388855509966,-15.495987434911207 -98.88485867834713,-14.904454588601824 -98.9704983719635,-14.312248321111918 C -99.05613806557987,-13.720042053622011 -99.1364749281675,-13.126971518106965 -99.21147013144778,-12.533323356430385 C -99.28646533472806,-11.939675194753805 -99.35614304696581,-11.345258095400292 -99.42046959164516,-10.750359351052444 C -99.48479613632452,-10.155460606704594 -99.5437922435842,-9.559888502829047 -99.5974293995239,-8.963930890343292 C -99.65106655546361,-8.367973277857535 -99.69936204541536,-7.771438100992991 -99.74229252728341,-7.174613676137907 C -99.78522300915144,-6.577789251282823 -99.82280231789065,-5.980483243326078 -99.85501229073209,-5.38298434121279 C -99.88722226357355,-4.785485439099502 -99.91407328063652,-4.187601090358697 -99.93555236433214,-3.5896202634581784 C -99.95703144802776,-2.99163943655766 -99.97314552029451,-2.393369423719382 -99.98388679290582,-1.7950993798096762 C -99.99462806551713,-1.1968293358999704 -100,-0.5983664599365136 -100,5.6655388976479795E-14 C -100,0.5983664599366268 -99.99462806551713,1.1968293359000468 -99.98388679290582,1.7950993798097452 C -99.97314552029451,2.393369423719444 -99.95703144802775,2.9916394365577283 -99.93555236433214,3.5896202634582473 C -99.91407328063652,4.187601090358766 -99.88722226357355,4.7854854390995705 -99.85501229073209,5.382984341212858 C -99.82280231789065,5.980483243326147 -99.78522300915144,6.577789251282884 -99.74229252728341,7.174613676137975 C -99.69936204541538,7.771438100993066 -99.6510665554636,8.367973277857649 -99.59742939952389,8.963930890343406 C -99.54379224358418,9.559888502829162 -99.4847961363245,10.15546060670467 -99.42046959164514,10.750359351052511 C -99.35614304696578,11.345258095400354 -99.28646533472806,11.939675194753875 -99.21147013144778,12.533323356430454 C -99.13647492816752,13.126971518107032 -99.05613806557987,13.72004205362208 -98.97049837196349,14.312248321111987 C -98.88485867834713,14.904454588601894 -98.79388855509966,15.495987434911271 -98.69763196974955,16.08656096136989 C -98.60137538439947,16.67713448782851 -98.49980131690087,17.266939015107113 -98.39295885986296,17.85568947986372 C -98.28611640282503,18.444439944620328 -98.17397112475503,19.032326080018247 -98.056577227522,19.619063749909536 C -97.93918333028897,20.205801419800824 -97.81650298204936,20.79157970869719 -97.68859547646476,21.376115499211473 C -97.56068797088017,21.96065128972576 -97.4275120879481,22.544132956782914 -97.28913219401448,23.126278492995255 C -97.15075230008087,23.708424029207595 -97.00712380026793,24.289421039206815 -96.8583161128631,24.868988716485525 C -96.70950842545822,25.44855639376424 -96.55547359507973,26.026881512202618 -96.39628606958533,26.603684556667524 C -96.2370985440909,27.180487601132427 -96.07270702304925,27.755954454562016 -95.90319095989656,28.329806983274963 C -95.73367489674388,28.90365951198791 -95.55897966253151,29.476082648076968 -95.3791896906692,30.046799728945217 C -95.19939971880687,30.617516809813466 -95.01445706943359,31.186711757111244 -94.82445112872261,31.754109468484472 C -94.63444518801167,32.3215071798577 -94.43931472386161,32.887290507242945 -94.23915404640346,33.45118599718458 C -94.03899336894533,34.01508148712622 -93.83373797357012,34.577270862920415 -93.62348706397373,35.13748240813428 C -93.41323615437734,35.69769395334816 -93.1979219742308,36.256108204074586 -92.97764858882513,36.812455268467815 C -92.75737520341949,37.368802332861044 -92.53207162654114,37.92326150163036 -92.30184675153971,38.47556479449363 C -92.0716218765383,39.0278680873569 -91.83640151019203,39.57819349186086 -91.59629933881665,40.12627502564745 C -91.35619716744127,40.67435655943404 -91.11113581471653,41.22037084952842 -90.86123372328743,41.76405399721315 C -90.61133163185828,42.30773714489788 -90.35650826724174,42.849264359756 -90.09688679024191,43.38837391175582 C -89.83726531324209,43.92748346375566 -89.57276205716654,44.46434908857435 -89.30350486128853,44.99871130921213 C -89.03424766541053,45.53307352984992 -88.76014975779087,46.06510455208926 -88.48134361497382,46.59454723558251 C -88.20253747215679,47.12398991907575 -87.91893324492003,47.65101488421494 -87.63066800438634,48.17536741017156 C -87.34240276385265,48.69971993612818 -87.04938361247167,49.22156900291907 -86.75175217177173,49.740662391322246 C -86.45412073107177,50.259755779725424 -86.151781085112,50.776260774926264 -85.84487936018661,51.28992774059063 C -85.53797763526121,51.80359470625499 -85.22641492794918,52.3145891788268 -84.91034182221935,52.822664185308454 C -84.59426871648954,53.330739191790116 -84.27358335331375,53.83605846653762 -83.9484407258077,54.338377779480595 C -83.62329809830165,54.84069709242357 -83.29359342465553,55.34017832306433 -82.9594860571831,55.83658006296628 C -82.62537868971067,56.332981802868225 -82.2867609575879,56.826464024512084 -81.94379652097317,57.316788218892256 C -81.60083208435844,57.80711241327242 -81.2534104181119,58.294436594294666 -80.90169943749473,58.77852522924732 C -80.54998845687756,59.26261386419998 -80.19387481805238,59.7436229574916 -79.83353063727013,60.221320028608226 C -79.47318645648788,60.69901709972484 -79.10849560774032,61.173556093303155 -78.73963435280118,61.644707655947016 C -78.37077309786203,62.115859218590884 -77.99762256597552,62.58377518555432 -77.62036310763528,63.0482294044714 C -77.24310364929505,63.51268362338848 -76.8616136873055,63.97382577119947 -76.4760776027598,64.43143296944946 C -76.0905415182141,64.88904016769943 -75.70083506665681,65.34325988677945 -75.30714660036108,65.79387259397127 C -74.91345813406535,66.2444853011631 -74.51566078135545,66.69163621278415 -74.11394680498546,67.13510921260041 C -73.71223282861547,67.57858221241668 -73.30647277057551,68.0185202158739 -72.89686274214114,68.45471059286888 C -72.48725271370677,68.89090096986385 -72.07366071225364,69.32348428891412 -71.6562866343792,69.75225147457026 C -71.23891255650476,70.1810186602264 -70.81762189750991,70.6061078887776 -70.39261827489446,71.02731370680574 C -69.96761465227901,71.4485195248339 -69.5387611026152,71.8659776718705 -69.10626489868646,72.27948638273915 C -68.67376869475773,72.6929950936078 -68.23749045854605,73.10268762733837 -67.79764105132206,73.50836597201769 C -67.35779164409809,73.91404431669699 -66.91422931817,74.31583920790867 -66.46716845534255,74.71355645081498 C -66.02010759251509,75.11127369372129 -65.56940412110292,75.50504145832825 -65.11527587435732,75.89466942945558 C -64.66114762761173,76.2842974005829 -64.20344825628294,76.66991114135438 -63.74239897486894,77.05132427757894 C -63.28134969345495,77.43273741380351 -62.816801922304705,77.81007286125822 -62.34898018587335,78.18314824680299 C -61.88115844944199,78.55622363234774 -61.409911985559084,78.92515918480156 -60.9354685562808,79.28977659084754 C -60.46102512700253,79.65439399689352 -59.98323183622427,80.01481075964716 -59.50231961020369,80.37085268307888 C -59.02140738418311,80.7268946065106 -58.53722124215437,81.07867643016533 -58.04999520015731,81.42602813143787 C -57.56276915816027,81.77337983271042 -57.07234620071259,82.11641335059869 -56.578963358221415,82.4549628907141 C -56.08558051573024,82.7935124308295 -55.58907878859721,83.12768709554904 -55.08969814521024,83.45732537213027 C -54.59031750182328,83.7869636487115 -54.08789700970788,84.11217176775078 -53.58267949789964,84.43279255020151 C -53.0774619860914,84.75341333265226 -52.56928464110242,85.06955010309582 -52.05839307436083,85.38105006683475 C -51.547501507619245,85.69255003057367 -51.03373107709268,85.99951357287647 -50.51733009745008,86.30179233263505 C -50.00092911780748,86.60407109239362 -49.48173117153024,86.90176248321313 -48.9599871965052,87.19472262538626 C -48.43824322148017,87.4876827675594 -47.91378507833294,87.77600607163497 -47.38686624729986,88.0595531856738 C -46.85994741626678,88.34310029971266 -46.330398090302936,88.62196260078214 -45.798474210306736,88.89600530961933 C -45.266550330310544,89.1700480184565 -44.732080476289234,89.43935944919976 -44.19532296732265,89.70380943869688 C -43.65856545835607,89.96825942819397 -43.11934731674617,90.22793319919386 -42.57792915650723,90.48270524660197 C -42.0365109962683,90.73747729401005 -41.49271833774152,90.9874297217216 -40.94681400588903,91.23244172314544 C -40.40090967403655,91.47745372456929 -39.85271774346731,91.71760425828786 -39.30250316539233,91.95277725514508 C -38.75228858731736,92.1879502520023 -38.199874047307794,92.4182214998222 -37.64552653743918,92.64347970428875 C -37.09117902757057,92.86873790875529 -36.53471990151834,93.08905566251049 -35.97641810618067,93.30432648194443 C -35.418116310843,93.51959730137837 -34.857791925570886,93.72989056055694 -34.295715765413135,93.93510462089236 C -33.733639605255384,94.14031868122777 -33.16963053322058,94.34051967585309 -32.603961145234166,94.5356108439569 C -32.038291757247755,94.73070201206075 -31.470779758349853,94.92074622453099 -30.901699437494713,95.10565162951536 C -30.332619116639574,95.29055703449974 -29.76178707964593,95.47038322037992 -29.189479220103316,95.64504327386317 C -28.617171360560693,95.81970332734642 -28.043203244167845,95.98925353510502 -27.467852280238997,96.15361195041488 C -26.892501316310145,96.31797036572476 -26.31558208986063,96.47718995540959 -25.737373436530227,96.6311937657224 C -25.159164783199824,96.78519757603522 -24.579480367073035,96.93403523688183 -23.99860036025657,97.07763481229182 C -23.417720353440103,97.22123438770181 -22.835457559137,97.35964215466913 -22.252093395631412,97.49279121818236 C -21.668729232125816,97.62594028169559 -21.084075702066176,97.75387355092339 -20.498415379223015,97.87652919337114 C -19.91275505637985,97.9991848358189 -19.325899203431796,98.11660237900192 -18.73813145857244,98.22872507286887 C -18.150363713713084,98.34084776673579 -17.56149466047451,98.44771174441031 -16.971808910066883,98.54926535657268 C -16.38212315965926,98.65081896873504 -15.791430677510254,98.74709494247294 -15.200016956126694,98.83804674584307 C -14.608603234743134,98.9289985492132 -14.016277682689585,99.01465549272045 -13.423326581765519,99.09497617679348 C -12.830375480841449,99.17529686086652 -12.236607744169136,99.2503071699817 -11.642310350582271,99.3199708502813 C -11.048012956995406,99.3896345305809 -10.45299438575442,99.45397403217108 -9.857542220244328,99.51295825859113 C -9.262090054734237,99.57194248501116 -8.666012402073887,99.62559044476211 -8.069597357521719,99.67387620880146 C -7.473182312969551,99.7221619728408 -6.876237673343027,99.7651011019388 -6.279051952931318,99.80267284282715 C -5.681866232519607,99.84024458371546 -5.084246979778972,99.87246104441897 -4.486483035051464,99.89930665413146 C -3.888719090323955,99.92615226384396 -3.290617815724881,99.94763567394284 -2.692468284566266,99.96374650110211 C -2.094318753407651,99.97985732826139 -1.4959282035441168,99.99060076442295 -0.8975858480997714,99.99597161708711 C -0.29924349265542616,100.0013424697513 0.29924349265546063,100.00134246975126 0.8975858480998059,99.99597161708711 C 1.4959282035441512,99.99060076442295 2.094318753407681,99.97985732826139 2.6924682845663006,99.96374650110211 C 3.2906178157249193,99.94763567394284 3.888719090324012,99.92615226384396 4.486483035051521,99.89930665413146 C 5.084246979779029,99.87246104441897 5.6818662325196465,99.84024458371546 6.279051952931352,99.80267284282715 C 6.876237673343057,99.76510110193881 7.473182312969583,99.72216197284081 8.06959735752175,99.67387620880146 C 8.66601240207392,99.62559044476211 9.262090054734267,99.57194248501115 9.857542220244362,99.51295825859113 C 10.452994385754454,99.4539740321711 11.048012956995438,99.38963453058089 11.642310350582305,99.31997085028128 C 12.23660774416917,99.25030716998167 12.830375480841484,99.17529686086651 13.423326581765554,99.09497617679347 C 14.016277682689626,99.01465549272042 14.608603234743166,98.9289985492132 15.200016956126728,98.83804674584307 C 15.791430677510286,98.74709494247293 16.382123159659297,98.65081896873504 16.97180891006692,98.54926535657268 C 17.56149466047454,98.4477117444103 18.15036371371312,98.34084776673579 18.738131458572475,98.22872507286885 C 19.32589920343183,98.11660237900192 19.91275505637989,97.99918483581888 20.49841537922305,97.87652919337113 C 21.084075702066215,97.75387355092336 21.668729232125852,97.62594028169558 22.252093395631444,97.49279121818236 C 22.835457559137037,97.35964215466915 23.417720353440142,97.22123438770181 23.998600360256606,97.07763481229182 C 24.579480367073074,96.93403523688183 25.159164783199856,96.78519757603522 25.73737343653026,96.63119376572239 C 26.31558208986066,96.47718995540957 26.892501316310177,96.31797036572476 27.46785228023903,96.15361195041488 C 28.04320324416788,95.98925353510502 28.61717136056073,95.8197033273464 29.189479220103348,95.64504327386315 C 29.761787079645966,95.4703832203799 30.332619116639606,95.29055703449973 30.901699437494745,95.10565162951535 C 31.470779758349888,94.92074622453096 32.03829175724779,94.73070201206072 32.603961145234194,94.53561084395689 C 33.1696305332206,94.34051967585306 33.73363960525541,94.14031868122777 34.29571576541317,93.93510462089235 C 34.85779192557092,93.72989056055694 35.418116310843025,93.51959730137834 35.9764181061807,93.30432648194441 C 36.53471990151838,93.08905566251048 37.091179027570604,92.86873790875529 37.64552653743922,92.64347970428875 C 38.19987404730782,92.41822149982217 38.752288587317395,92.18795025200227 39.302503165392366,91.95277725514505 C 39.85271774346734,91.71760425828784 40.40090967403658,91.47745372456927 40.94681400588907,91.23244172314543 C 41.49271833774155,90.98742972172158 42.03651099626834,90.73747729401005 42.57792915650728,90.48270524660195 C 43.11934731674622,90.22793319919386 43.658565458356094,89.96825942819396 44.19532296732268,89.70380943869685 C 44.73208047628926,89.43935944919974 45.266550330310565,89.17004801845648 45.798474210306765,88.89600530961931 C 46.33039809030296,88.62196260078213 46.859947416266785,88.34310029971266 47.38686624729987,88.0595531856738 C 47.91378507833295,87.77600607163497 48.43824322148021,87.48768276755936 48.95998719650525,87.19472262538623 C 49.48173117153029,86.90176248321309 50.000929117807516,86.6040710923936 50.51733009745012,86.30179233263502 C 51.03373107709272,85.99951357287642 51.547501507619266,85.69255003057363 52.058393074360865,85.38105006683472 C 52.569284641102456,85.06955010309578 53.07746198609144,84.75341333265224 53.582679497899676,84.4327925502015 C 54.08789700970791,84.11217176775075 54.5903175018233,83.7869636487115 55.089698145210264,83.45732537213026 C 55.58907878859723,83.12768709554902 56.08558051573027,82.79351243082948 56.57896335822146,82.45496289071407 C 57.07234620071264,82.11641335059868 57.562769158160314,81.7733798327104 58.049995200157355,81.42602813143786 C 58.537221242154395,81.07867643016532 59.021407384183156,80.7268946065106 59.50231961020373,80.37085268307887 C 59.9832318362243,80.01481075964715 60.46102512700256,79.65439399689349 60.935468556280824,79.28977659084751 C 61.40991198555909,78.92515918480153 61.881158449442005,78.55622363234772 62.34898018587336,78.18314824680297 C 62.81680192230471,77.8100728612582 63.28134969345498,77.43273741380348 63.74239897486898,77.05132427757891 C 64.20344825628298,76.66991114135435 64.66114762761177,76.28429740058287 65.11527587435737,75.89466942945555 C 65.56940412110296,75.50504145832822 66.02010759251512,75.11127369372126 66.46716845534257,74.71355645081495 C 66.91422931817003,74.31583920790862 67.3577916440981,73.91404431669697 67.79764105132209,73.50836597201767 C 68.23749045854606,73.10268762733837 68.67376869475774,72.6929950936078 69.10626489868648,72.27948638273915 C 69.53876110261521,71.8659776718705 69.96761465227904,71.44851952483386 70.3926182748945,71.0273137068057 C 70.81762189750995,70.60610788877754 71.23891255650479,70.18101866022636 71.65628663437923,69.75225147457023 C 72.07366071225367,69.32348428891409 72.48725271370678,68.89090096986384 72.89686274214115,68.45471059286886 C 73.30647277057552,68.01852021587388 73.71223282861551,67.57858221241666 74.11394680498549,67.13510921260038 C 74.51566078135548,66.6916362127841 74.91345813406538,66.2444853011631 75.3071466003611,65.79387259397126 C 75.70083506665682,65.34325988677942 76.09054151821414,64.8890401676994 76.47607760275984,64.43143296944942 C 76.86161368730554,63.97382577119944 77.24310364929507,63.51268362338843 77.6203631076353,63.04822940447137 C 77.99762256597553,62.583775185554295 78.37077309786204,62.115859218590856 78.73963435280119,61.644707655946995 C 79.10849560774032,61.17355609330313 79.47318645648788,60.69901709972482 79.83353063727014,60.221320028608204 C 80.19387481805241,59.74362295749159 80.54998845687756,59.26261386419998 80.90169943749474,58.778525229247315 C 81.25341041811191,58.294436594294645 81.60083208435846,57.807112413272385 81.9437965209732,57.31678821889221 C 82.28676095758793,56.82646402451204 82.6253786897107,56.3329818028682 82.95948605718311,55.83658006296625 C 83.29359342465553,55.3401783230643 83.62329809830169,54.84069709242353 83.94844072580773,54.33837777948056 C 84.27358335331377,53.83605846653759 84.59426871648954,53.33073919179009 84.91034182221937,52.82266418530843 C 85.22641492794918,52.31458917882677 85.53797763526121,51.80359470625499 85.84487936018661,51.28992774059061 C 86.151781085112,50.77626077492624 86.4541207310718,50.259755779725374 86.75175217177176,49.740662391322196 C 87.04938361247173,49.22156900291902 87.34240276385266,48.69971993612813 87.63066800438637,48.17536741017152 C 87.91893324492004,47.651014884214895 88.20253747215683,47.12398991907572 88.48134361497385,46.59454723558248 C 88.76014975779087,46.06510455208925 89.03424766541053,45.53307352984988 89.30350486128854,44.99871130921211 C 89.57276205716654,44.46434908857433 89.83726531324209,43.927483463755635 90.09688679024191,43.38837391175581 C 90.35650826724172,42.84926435975597 90.61133163185833,42.307737144897835 90.86123372328746,41.76405399721311 C 91.11113581471658,41.220370849528386 91.35619716744127,40.674356559433996 91.59629933881665,40.126275025647416 C 91.83640151019203,39.57819349186084 92.0716218765383,39.02786808735686 92.30184675153973,38.47556479449359 C 92.53207162654114,37.92326150163033 92.75737520341949,37.368802332861016 92.97764858882515,36.812455268467794 C 93.1979219742308,36.25610820407457 93.41323615437734,35.69769395334814 93.62348706397373,35.13748240813427 C 93.83373797357012,34.577270862920386 94.03899336894533,34.015081487126174 94.23915404640348,33.45118599718454 C 94.43931472386164,32.8872905072429 94.63444518801167,32.32150717985766 94.82445112872263,31.754109468484433 C 95.01445706943359,31.18671175711121 95.1993997188069,30.617516809813434 95.37918969066921,30.046799728945185 C 95.55897966253154,29.476082648076936 95.73367489674388,28.903659511987886 95.90319095989656,28.329806983274942 C 96.07270702304925,27.75595445456199 96.2370985440909,27.180487601132427 96.39628606958533,26.603684556667513 C 96.55547359507973,26.026881512202596 96.70950842545824,25.44855639376419 96.85831611286311,24.868988716485475 C 97.00712380026796,24.289421039206758 97.1507523000809,23.70842402920756 97.2891321940145,23.126278492995215 C 97.42751208794812,22.544132956782878 97.56068797088018,21.96065128972573 97.68859547646477,21.376115499211444 C 97.81650298204936,20.791579708697164 97.93918333028898,20.20580141980081 98.056577227522,19.619063749909515 C 98.17397112475503,19.03232608001822 98.28611640282504,18.444439944620274 98.39295885986297,17.855689479863663 C 98.4998013169009,17.266939015107052 98.60137538439949,16.677134487828457 98.69763196974957,16.08656096136984 C 98.79388855509966,15.495987434911223 98.88485867834713,14.904454588601851 98.97049837196349,14.312248321111948 C 99.05613806557987,13.720042053622043 99.1364749281675,13.126971518106998 99.21147013144778,12.533323356430422 C 99.28646533472808,11.939675194753846 99.35614304696581,11.345258095400338 99.42046959164516,10.75035935105249 C 99.48479613632452,10.155460606704645 99.5437922435842,9.559888502829109 99.5974293995239,8.963930890343349 C 99.65106655546361,8.367973277857589 99.69936204541536,7.7714381009930165 99.74229252728341,7.174613676137928 C 99.78522300915144,6.57778925128284 99.82280231789065,5.9804832433261055 99.85501229073209,5.382984341212819 C 99.88722226357355,4.785485439099535 99.91407328063652,4.187601090358734 99.93555236433214,3.5896202634582175 C 99.95703144802776,2.9916394365577017 99.97583105481021,2.0941861937511392 99.98388679290582,1.7950993798097237 Z"></path></g></g></svg>