<svg xmlns="http://www.w3.org/2000/svg" width="462.9149776247169" height="487.04965483839834" viewBox="-230.55556311856284 -243.52482741919928 462.9149776247169 487.04965483839834" style=""><g><defs></defs><path transform="matrix(1.0,0.0,0.0,-1.0,0.0,0.0)" style="stroke-width: 1.0px; stroke: hsla(240.0, 100.0%, 27.254901960784313%, 1.0); stroke-linecap: butt; stroke-linejoin: miter;  fill: none;" d="M 0,0 M 99.99999999999966,-7.564360416962963E-13 C 98.96850893110248,-1.642570166142172 96.13872480262098,-6.588356868747567 93.81105358661665,-9.85542099684925 C 91.48338237061232,-13.122485124950934 88.88293106850546,-16.389152650349125 86.03397270397365,-19.60238476861085 C 83.18501433944185,-22.815616886872576 80.06688805960822,-26.0099886445295 76.71730339942579,-29.134813706419603 C 73.36771873924339,-32.259638768309706 69.75726884937052,-35.347554214072666 65.93646474287917,-38.351335139951445 C 62.115660636387815,-41.355116065830224 58.04685121645821,-44.30474863449242 53.79247876047769,-47.157499261692266 C 49.53810630449717,-50.01024988889211 45.05292845952702,-52.79280146653789 40.41023000699604,-55.46783890315056 C 35.76753155446505,-58.142876339763234 30.915270635589422,-60.73320250811591 25.93628804529179,-63.20772388136832 C 20.957305454994152,-65.68224525462072 15.793675203341664,-68.0593968923557 10.536334465210231,-70.314967142665 C 5.2789937270788,-72.57053739297429 -0.1348461063501182,-74.71820605592727 -5.607756383496799,-76.74114538322414 C -11.08066666064348,-78.764084710521 -16.679190453740706,-80.67094132850876 -22.301127197669853,-82.45260310644618 C -27.923063941598997,-84.23426488438358 -33.637537491056044,-85.8941836618185 -39.33937684707168,-87.43111605084859 C -45.04121620308731,-88.96804843987867 -50.80090912180271,-90.38021038029815 -56.51216333376365,-91.67419744062667 C -62.223417545724594,-92.96818450095516 -67.95684772162356,-94.13705763772555 -73.60690211883728,-95.19503841281959 C -79.256956516051,-96.25301918791361 -84.89314303668259,-97.18821533780947 -90.41248971704596,-98.02208209119092 C -95.93183639740933,-98.85594884457241 -101.40153725803252,-99.571959448862 -106.72298220101754,-100.19823893310841 C -112.04442714400257,-100.82451841735481 -117.281338433795,-101.34033473749821 -122.34115937495605,-101.77975899666929 C -127.40098031611707,-102.21918325584038 -132.34287440929089,-102.55780878962094 -137.08190784798376,-102.83478448813489 C -141.82094128667663,-103.11176018664882 -146.41072283489908,-103.29962560939784 -150.7753600071133,-103.44161318775303 C -155.13999717932754,-103.58360076610823 -159.32665738272868,-103.64989392776165 -163.26973088126903,-103.68670995826605 C -167.21280437980937,-103.72352598877042 -170.95225607148987,-103.69945146226894 -174.43380099835542,-103.66250937077936 C -177.91534592522098,-103.62556727928977 -181.17112439654616,-103.5435516162513 -184.15900044246217,-103.46505740932861 C -187.14687648837813,-103.38656320240591 -189.89069366104454,-103.27942337125182 -192.3610572738512,-103.1915441292432 C -194.83142088665787,-103.10366488723457 -197.04356334817274,-103.0037583174015 -198.98118211930216,-102.93778195727691 C -200.91880089043158,-102.87180559715232 -202.58836539377035,-102.81018080878881 -203.98676990062776,-102.79568596849563 C -205.38517440748515,-102.78119112820247 -206.51013763114926,-102.78675807613648 -207.37160916044655,-102.8508129155178 C -208.2330806897439,-102.91486775489915 -208.82020329722423,-103.01360675359928 -209.15559907641165,-103.18001500478366 C -209.4909948555991,-103.34642325596805 -209.55556311856284,-103.56065068221545 -209.38398383557103,-103.8492624226242 C -209.21240455257922,-104.13787416303295 -208.7778159456249,-104.4855820672887 -208.12612337846068,-104.91168544723608 C -207.47443081129646,-105.33778882718345 -206.57163298550117,-105.83207414371509 -205.47382843258583,-106.40588270230846 C -204.3760238796705,-106.97969126090182 -203.04281921805463,-107.62828851918432 -201.5392960609688,-108.35453679879635 C -200.035772903883,-109.08078507840837 -198.31600339934184,-109.8857144200971 -196.45268949007104,-110.76337237998047 C -194.58937558080024,-111.64103033986383 -192.5320050064294,-112.59837027937168 -190.3594126053439,-113.62048455809654 C -188.1868202042584,-114.64259883682138 -185.84493242408348,-115.74239061768584 -183.41713508355795,-116.89605805232952 C -180.9893377430324,-118.0497254869732 -178.41907150207143,-119.27601313399028 -175.79262856219054,-120.54248916595857 C -173.16618562230965,-121.80896519792687 -170.4256272305621,-123.13997250348764 -167.65847744427262,-124.4949142441393 C -164.8913276579831,-125.84985598479095 -162.0393836239992,-127.2582987564303 -159.18972984445347,-128.67213960986854 C -156.3400760649077,-130.08598046330678 -153.43534793032802,-131.53950945905683 -150.56055476699805,-132.97795936476868 C -147.68576160366808,-134.4164092704805 -144.785444979091,-135.8781764200326 -141.94097086447363,-137.30283904413952 C -139.09649674985624,-138.72750166824642 -136.25532586207396,-140.15683948085464 -133.49371007929383,-141.52593510941017 C -130.73209429651374,-142.8950307379657 -128.00135224398065,-144.2482322896571 -125.371276167793,-145.51741281547265 C -122.74120009160536,-146.7865933412882 -120.1678134939509,-148.017777967789 -117.71325362216797,-149.1410182643035 C -115.25869375038506,-150.26425856081804 -112.88442860169158,-151.32630640746024 -110.64391693709545,-152.25685459455985 C -108.40340527249931,-153.18740278165947 -106.26417860724352,-154.0329397203052 -104.27018363459113,-154.72430738690113 C -102.27618866193875,-155.41567505349704 -100.4015081635492,-155.9980882054048 -98.67994710118118,-156.40506059413548 C -96.95838603881316,-156.81203298286616 -95.37092701579445,-157.0864962142564 -93.94081726038301,-157.1661417192853 C -92.51070750497155,-157.24578722431417 -91.22603378509778,-157.1702755286245 -90.09928856871244,-156.8829336243087 C -88.9725433523271,-156.59559171999288 -87.99897566108694,-156.13186337964908 -87.18034596207099,-155.44209029339044 C -86.36171626305503,-154.7523172071318 -85.70034862008136,-153.86684304118992 -85.18751037461666,-152.74429510675697 C -84.67467212915199,-151.621747172324 -84.3195337781523,-150.28656701884594 -84.10331648928289,-148.70680268679257 C -83.88709920041347,-147.1270383547392 -83.82545664587879,-145.32052619365862 -83.8902066414002,-143.26570911443662 C -83.95495663692161,-141.2108920352146 -84.16774755460183,-138.91841280550722 -84.49181646241136,-136.37790021146054 C -84.81588537022093,-133.83738761741387 -85.2782735448422,-131.051830790267 -85.83462008825751,-128.02263355015657 C -86.39096663167284,-124.99343631004615 -87.0730047072545,-121.71561360859182 -87.8298957229033,-118.20271677079805 C -88.5867867385521,-114.68981993300429 -89.45417149125808,-110.92871719337234 -90.37596618215031,-106.945252523394 C -91.29776087304253,-102.96178785341567 -92.31266397482209,-98.73466384993996 -93.36066386825667,-94.30192875092803 C -94.40866376169123,-89.86919365191609 -95.53061962895642,-85.20152170502028 -96.66396554275772,-80.34884192932239 C -97.797311456559,-75.49616215362451 -98.98414279801291,-70.42141344225246 -100.16073935106445,-65.18585009674077 C -101.337335904116,-59.95028675122908 -102.5460970134629,-54.50955740029868 -103.72354486106701,-48.93546185625226 C -104.90099270867113,-43.36136631220584 -106.08891040059903,-37.60285345585051 -107.22542643668906,-31.741276832462212 C -108.36194247277909,-25.87970020907392 -109.48733483478713,-19.858035278888327 -110.54264107760717,-13.7660021159225 C -111.5979473204272,-7.67396895295667 -112.6211011404793,-1.4494193450626955 -113.55726389360932,4.810922145332764 C -114.49342664673934,11.071263635728224 -115.37741546055749,17.433710659742207 -116.15961759638725,23.796046826450258 C -116.94181973221701,30.158382993158302 -117.65324588919516,36.59003787392827 -118.25047670858784,42.98493914558106 C -118.84770752798052,49.37984041723386 -119.35735346855951,55.80941190329467 -119.7430025127432,62.16545445636703 C -120.1286515569269,68.52149700943939 -120.41202758722049,74.87625559089527 -120.56437097369,81.12119446401525 C -120.71671436015951,87.36613333713522 -120.75449255591538,93.57311590903733 -120.65706283156034,99.63508769508692 C -120.5596331072053,105.69705948113653 -120.33795952804468,111.68429267084514 -119.97979262755973,117.49302518031293 C -119.62162572707479,123.3017576897807 -119.13230581850014,128.9994767571816 -118.50806142865065,134.48748275189365 C -117.88381703880115,139.9754887466057 -117.1243718859261,145.31732889502533 -116.2343262884628,150.42106114858515 C -115.3442806909995,155.52479340214495 -114.3178746049435,160.44893072457023 -113.16778784387094,165.10987627325244 C -112.01770108279838,169.77082182193462 -110.73294378834235,174.22104194561697 -109.33380572202731,178.38673444067825 C -107.93466765571226,182.5524269357395 -106.40529704810443,186.47910070349224 -104.77295944598077,190.10403124362014 C -103.14062184385715,193.72896178374802 -101.3850758366565,197.08990899832645 -99.53978010928554,200.1363176814457 C -97.6944843819146,203.18272636456493 -95.73537272275848,205.94395069117869 -93.7011850817551,208.38248334233555 C -91.6669974407517,210.82101599349244 -89.53048647858283,212.9572965248534 -87.33465426326512,214.76751358838686 C -85.13882204794741,216.5777306519203 -82.85394724964475,218.0730583432644 -80.52619178984882,219.24378572353604 C -78.19843633005289,220.4145131038077 -75.79635882890676,221.2623632292426 -73.36812150448952,221.7918778700169 C -70.93988418007227,222.32139251079124 -68.45310876261834,222.52482741919906 -65.95676784334533,222.42087356818212 C -63.460426924072316,222.3169197171652 -60.92199960262655,221.88851941412494 -58.39007598885141,221.16815476391525 C -55.858152375076266,220.44779011370557 -53.30085603620796,219.40941150130956 -50.765226160694496,218.09868566692404 C -48.229596285181024,216.78795983253858 -45.68516284321826,215.17032873614275 -43.17629673577059,213.30379975760223 C -40.667430628322926,211.4372707790617 -38.16578765015254,209.27941411352572 -35.712029516008485,206.89951179568078 C -33.25827138186443,204.51960947783581 -30.826840295763557,201.868137991709 -28.453747930906278,199.02438585053264 C -26.080655566049003,196.18063370935624 -23.74371734229574,193.088888632446 -21.473475326864822,189.83699894862247 C -19.20323331143391,186.5851092647989 -16.981375933054682,183.112188815113 -14.832295838320782,179.51304774759134 C -12.68321574358688,175.91390668006966 -10.592875906275076,172.1235907080363 -8.578994758461416,168.24215254349244 C -6.565113610647757,164.3607143789486 -4.6182229425141434,160.32030739374736 -2.7490089514388223,156.2244187603282 C -0.879794960363501,152.12853012690906 0.9164613185545457,147.90764452254703 2.636289187990511,143.66682074297754 C 4.356117057426476,139.42599696340804 5.999423657723843,135.0952994096094 7.569958265176968,130.77947608291132 C 9.140492872630093,126.46365275621326 10.633407419834363,122.09359741827727 12.059496832709268,117.7718807827892 C 13.485586245584171,113.45016414730112 14.835421722344096,109.10973663605739 16.126494742426384,104.8491762699829 C 17.41756776250867,100.58861590390843 18.63615712132071,96.34411162702143 19.805934953202996,92.20851858634231 C 20.975712785085282,88.07292554566321 22.079061102051472,83.98678543945292 23.14516173372011,80.03561802590818 C 24.21126236538875,76.08445061236344 25.219094447283528,72.21417609297347 26.202538743214838,68.50151410507391 C 27.18598303914615,64.78885211717434 28.121196766846435,61.186019523993956 29.04582750930797,57.759646098510814 C 29.970458251769504,54.33327267302767 30.85849609150073,51.0426655172642 31.750323197984052,47.943273552175086 C 32.64215030446738,44.84388158708598 33.510303297719624,41.90275660324076 34.39679014820792,39.163294307976145 C 35.28327699869622,36.42383201271153 36.15993711109963,33.86133238678716 37.06924430091385,31.506499780587376 C 37.97855149072807,29.151667174387587 38.89242942524518,26.988393442204977 39.852633287093255,25.03429867077743 C 40.81283714894133,23.080203899349886 41.79216358235244,21.327949928800077 42.8304674720023,19.781931152022096 C 43.86877136165216,18.235912375244116 44.94050002621262,16.897570628951257 46.08245662499239,15.75818601010954 C 47.22441322377215,14.618801391267823 48.41344431718883,13.688438374959851 49.68220706468087,12.945623438971793 C 50.9509698121729,12.202808502983736 52.27941187624619,11.665908005220416 53.695033109944625,11.301296394181193 C 55.110654343643056,10.93668478314197 56.59714201121705,10.770553269351717 58.17593446687145,10.757953772736457 C 59.75472692252584,10.745354276121196 61.4138108084532,10.919679678302868 63.167787843871004,11.225699414489625 C 64.92176487928882,11.531719150676382 66.76338840674053,12.009271355259685 68.69979667937831,12.594072189857002 C 70.63620495201607,13.178873024454319 72.66528109122036,13.916331662495665 74.7862374796976,14.73450442207352 C 76.90719386817484,15.552677181651376 79.12329265816633,16.50156992069375 81.42553501024182,17.503108747324134 C 83.7277773623173,18.504647573954518 86.12493273143622,19.61238004634527 88.59969159215049,20.74373738185583 C 91.07445045286475,21.87509471736639 93.6410922999355,23.086051535618548 96.2740881745274,24.29125276038749 C 98.90708404911935,25.496453985156432 101.62609884809844,26.753149023221315 104.39766683970208,27.974944730469467 C 107.16923483130573,29.19674043771761 110.01815523474026,30.440993721741496 112.90349612414919,31.622027003876376 C 115.78883701355812,32.80306028601125 118.74015811339645,33.97717845425744 121.7097121761557,35.06114442327874 C 124.67926623891498,36.14511039230005 127.7008833569335,37.193047757391845 130.72082050070483,38.12582281800419 C 133.7407576444762,39.05859787861653 136.7965178282653,39.92707565281392 139.82933503878374,40.65779478695279 C 142.86215224930217,41.388513921091665 145.91250910109736,42.02807613452553 148.91772376381542,42.51013762283741 C 151.9229384265335,42.9921991111493 154.9256975460958,43.358185142575785 157.86062301509224,43.55016371682413 C 160.7955484840887,43.742142291072476 163.70668871413469,43.7955577111263 166.52727657779405,43.66200906832751 C 169.34786444145342,43.52846042552872 172.12241831048433,43.23672998619643 174.78415019704846,42.7488718600314 C 177.4458820836126,42.26101373386638 180.03885738607298,41.598602780607784 182.4976678971788,40.73486031133734 C 184.9564784082846,39.8711178420669 187.32380177838516,38.82001112613604 189.5370132636833,37.566417044408745 C 191.75022474898142,36.312822962681444 193.84968739735947,34.86285273527453 195.7769368089676,33.21329582097356 C 197.7041862205758,31.563738906672594 199.4963717290341,29.712757224101917 201.10050973333222,27.669075558602948 C 202.70464773763027,25.625393893103986 204.15382195478696,23.379287191218737 205.40176483475605,20.951205827979777 C 206.64970771472517,18.523124464740818 207.7246513640523,15.895671607786204 208.58816701314691,13.100587379169184 C 209.45168266224155,10.305503150552164 210.12644825436277,7.3180812610006 210.58285872932373,4.180700456277663 C 211.03926920428466,1.0433196515547252 211.293845219671,-2.2755349792411104 211.3266298629125,-5.723697449168441 C 211.35941450615397,-9.171859919095771 211.18028155630952,-12.787025714225619 210.77956658877272,-16.50827436328632 C 210.37885162123595,-20.22952301234702 209.759417372152,-24.099989060308896 208.92234005769177,-28.05118934353264 C 208.0852627432315,-32.00238962675639 207.02616475328,-36.08205864828833 205.7571027020113,-40.21547606262879 C 204.48804065074265,-44.34889347696924 202.99730888896264,-48.58747475182142 201.30796775007985,-52.85169382957536 C 199.6186266111971,-57.115912907329296 197.711700228497,-61.45988646105218 195.6210558687147,-65.80079052915244 C 193.5304115089324,-70.1416945972527 191.2300073772376,-74.53532669554664 188.76410159138592,-78.89711823817692 C 186.29819580553422,-83.25890978080719 183.6340293584044,-87.64529894114374 180.82562115360457,-91.97153978493404 C 178.01721294880477,-96.29778062872431 175.02557488978377,-100.61991295032514 171.91365236258702,-104.85456330091866 C 168.80172983539026,-109.08921365151218 165.5249252649154,-113.29100629119516 162.15408599042402,-117.37944188849525 C 158.78324671593262,-121.46787748579534 155.2689061023967,-125.49518956535712 151.68861671563883,-129.38517688471924 C 148.10832732888096,-133.27516420408134 144.408601454685,-137.0767553127936 140.67234966987695,-140.71936580466792 C 136.9360978850689,-144.36197629654222 133.10675137772478,-147.89039402934176 129.27110600679072,-151.24083983596503 C 125.43546063585666,-154.59128564258828 121.53488089532338,-157.80366526186674 117.65847744427259,-160.82204064440737 C 113.7820739932218,-163.840416026948 109.87021420298022,-166.69917731731272 106.01268530048605,-169.35109213120887 C 102.15515639799189,-172.003006945105 98.29243281870667,-174.4764356030803 94.51330402930768,-176.73352952778427 C 90.73417523990868,-178.99062345248822 86.98034009797367,-181.05332686809788 83.33791256409216,-182.89365567943275 C 79.69548503021069,-184.7339844907676 76.10849700402545,-186.36721448176579 72.65873882601879,-187.77550239579332 C 69.20898064801213,-189.1837903098209 65.84389520616884,-190.37562820473826 62.639363496052226,-191.34338316359813 C 59.434831785935614,-192.31113812245806 56.34273343597056,-193.05654049601165 53.43154856531913,-193.58203214895286 C 50.52036369466771,-194.1075238018941 47.747361560268395,-194.40823008470102 45.172254272143704,-194.49633308124547 C 42.59714698401901,-194.58443607778995 40.183454053124116,-194.44874213093826 37.98090483657097,-194.11065012821973 C 35.778355620017834,-193.7725581255012 33.757470515592956,-193.21496262979937 31.956958972824864,-192.4677810649343 C 30.156447430056772,-191.72059950006917 28.554455677476714,-190.76133260272675 27.177835579962405,-189.6275607390292 C 25.801215482448097,-188.4937888753317 24.63622501827423,-187.158234910155 23.69723838773902,-185.66514988274903 C 22.758251757203805,-184.1720648553431 22.039974886946624,-182.4900930577813 21.543915796751122,-180.6690505745936 C 21.047856706555624,-178.84800809140594 20.777347923333704,-176.85322702430912 20.720883846566025,-174.73889498362303 C 20.664419769798346,-172.62456294293693 20.833975846646197,-170.3535157967072 21.205131336145058,-167.98305833047698 C 21.576286825643923,-165.6126008642468 22.169512450892498,-163.10391986761496 22.947816783559205,-160.5161501862418 C 23.72612111622591,-157.9283805048686 24.718160116286427,-155.22191935921342 25.8749573321453,-152.45644024223793 C 27.031754548004173,-149.69096112526245 28.389683499287774,-146.82692464402723 29.88860007871245,-143.92327548438885 C 31.38751665813713,-141.01962632475048 33.07089449456441,-138.03771631652288 34.868456808693374,-135.0345452844076 C 36.66601912282234,-132.03137425229235 38.62758326147591,-128.9699701365803 40.673973963486226,-125.90424929169718 C 42.720364665496554,-122.8385284468141 44.9068612624248,-119.73392014915588 47.146801020755305,-116.64022021510897 C 49.38674077908581,-113.54652028106206 51.739874048795144,-110.43220964067916 54.113612513469285,-107.34204968741575 C 56.48735097814342,-104.25188973415236 58.94483411806571,-101.15797500256491 61.389231808800155,-98.09926049552863 C 63.833629499534595,-95.04054598849235 66.33031770327423,-91.99320203811119 68.77999865787595,-88.98976264519808 C 71.22967961247767,-85.98632325228498 73.69876397493405,-83.00738789302864 76.08731753641047,-80.07862413804992 C 78.47587109788688,-77.1498603830712 80.85011094580999,-74.25653475108021 83.11132002673439,-71.41718011532576 C 85.37252910765876,-68.5778254795713 87.58549945723992,-65.78249386791508 89.65457202195682,-63.04249632352319 C 91.72364458667373,-60.302498779131305 93.7109750529038,-57.61267058222245 95.52575541503579,-54.977194848974456 C 97.34053577716776,-52.34171911572647 99.04111734648285,-49.760092815147225 100.5432541947487,-47.22964192403527 C 102.04539104301455,-44.69919103292333 103.40252767041078,-42.223837421590225 104.5385765046309,-39.79448950230279 C 105.67462533885102,-37.36514158301535 106.6371083331387,-34.989800765747226 107.35954720006944,-32.65355440831065 C 108.08198606700022,-30.31730805087407 108.60507066412971,-28.031792229453384 108.87320970621545,-25.777011357683307 C 109.14134874830118,-23.52223048591323 109.18761411488845,-21.312922189879576 108.9683814525838,-19.12486917769018 C 108.74914879027915,-16.93681616550078 108.28922491165288,-14.787249476363721 107.55781373238752,-12.648693284546914 C 106.82640255312215,-10.510137092730105 105.83954999905616,-8.401647574213863 104.57991437699155,-6.293532026789332 C 103.32027875492695,-4.185416479364802 101.79481013172892,-2.0978440089295645 99.99999999999983,2.649072428951886E-13 C 98.20518986827072,2.0978440089300943 96.13872480262125,4.185416479365149 93.81105358661691,6.293532026789643 C 91.48338237061252,8.401647574214138 88.8829310685054,10.510137092730417 86.0339727039736,12.648693284547226 C 83.18501433944179,14.787249476364034 80.06688805960847,16.936816165501103 76.71730339942611,19.124869177690503 C 73.36771873924376,21.312922189879902 69.75726884937082,23.522230485913486 65.93646474287945,25.777011357683612 C 62.11566063638809,28.031792229453732 58.046851216458435,30.31730805087464 53.792478760477934,32.65355440831122 C 49.53810630449743,34.98980076574781 45.05292845952749,37.365141583015706 40.41023000699649,39.794489502303115 C 35.767531554465485,42.22383742159052 30.91527063558956,44.69919103292369 25.93628804529189,47.22964192403564 C 20.957305454994216,49.760092815147594 15.793675203341957,52.341719115726846 10.536334465210473,54.977194848974825 C 5.278993727078988,57.61267058222281 -0.1348461063503977,60.30249877913162 -5.607756383497019,63.04249632352355 C -11.080666660643642,65.78249386791548 -16.679190453740294,68.57782547957196 -22.301127197669256,71.41718011532642 C -27.923063941598215,74.25653475108088 -33.637537491055,77.14986038307163 -39.339376847070774,80.0786241380503 C -45.04121620308655,83.00738789302898 -50.80090912180288,85.98632325228535 -56.51216333376388,88.98976264519848 C -62.22341754572488,91.99320203811159 -67.95684772162309,95.04054598849274 -73.60690211883671,98.09926049552902 C -79.25695651605032,101.1579750025653 -84.89314303668216,104.2518897341527 -90.41248971704553,107.3420496874161 C -95.93183639740887,110.4322096406795 -101.40153725803191,113.54652028106251 -106.72298220101689,116.64022021510942 C -112.04442714400189,119.73392014915633 -117.28133843379443,122.8385284468144 -122.34115937495557,125.9042492916975 C -127.4009803161167,128.9699701365806 -132.34287440929083,132.03137425229275 -137.08190784798364,135.03454528440804 C -141.82094128667646,138.03771631652333 -146.41072283489828,141.01962632475085 -150.77536000711257,143.92327548438922 C -155.13999717932683,146.82692464402757 -159.32665738272883,149.6909611252628 -163.2697308812692,152.45644024223827 C -167.21280437980957,155.22191935921376 -170.9522560714893,157.928380504869 -174.43380099835474,160.51615018624216 C -177.91534592522018,163.10391986761533 -181.17112439654565,165.6126008642471 -184.15900044246172,167.98305833047726 C -187.14687648837776,170.35351579670746 -189.89069366104448,172.62456294293716 -192.3610572738512,174.73889498362328 C -194.83142088665792,176.8532270243094 -197.04356334817257,178.8480080914062 -198.981182119302,180.66905057459383 C -200.91880089043138,182.49009305778148 -202.58836539377035,184.17206485534334 -203.9867699006277,185.66514988274923 C -205.3851744074851,187.1582349101552 -206.51013763114906,188.49378887533192 -207.37160916044638,189.6275607390294 C -208.2330806897437,190.76133260272695 -208.82020329722423,191.72059950006937 -209.15559907641165,192.4677810649344 C -209.4909948555991,193.2149626297995 -209.55556311856284,193.77255812550126 -209.38398383557103,194.11065012821976 C -209.21240455257922,194.44874213093829 -208.77781594562484,194.58443607778986 -208.12612337846065,194.49633308124535 C -207.47443081129646,194.40823008470088 -206.571632985501,194.10752380189408 -205.47382843258572,193.5820321489528 C -204.37602387967044,193.05654049601162 -203.04281921805455,192.31113812245795 -201.53929606096884,191.34338316359802 C -200.03577290388316,190.3756282047381 -198.31600339934224,189.18379030982067 -196.4526894900714,187.77550239579313 C -194.58937558080058,186.36721448176556 -192.53200500642924,184.73398449076743 -190.35941260534372,182.89365567943256 C -188.18682020425817,181.05332686809768 -185.84493242408368,178.990623452488 -183.41713508355818,176.73352952778401 C -180.9893377430327,174.47643560308006 -178.41907150207177,172.00300694510486 -175.79262856219088,169.3510921312087 C -173.16618562231,166.69917731731255 -170.42562723056247,163.84041602694765 -167.65847744427296,160.82204064440702 C -164.89132765798342,157.80366526186637 -162.03938362399956,154.5912856425881 -159.18972984445375,151.24083983596483 C -156.34007606490795,147.89039402934156 -153.435347930328,144.3619762965418 -150.56055476699805,140.71936580466743 C -147.6857616036681,137.0767553127931 -144.78544497909158,133.27516420408085 -141.94097086447417,129.38517688471873 C -139.09649674985675,125.49518956535663 -136.25532586207382,121.4678774857948 -133.4937100792936,117.3794418884947 C -130.73209429651342,113.2910062911946 -128.0013522439805,109.08921365151167 -125.371276167793,104.85456330091813 C -122.74120009160549,100.61991295032459 -120.16781349395144,96.29778062872373 -117.7132536221685,91.97153978493346 C -115.25869375038553,87.6452989411432 -112.8844286016914,83.25890978080675 -110.6439169370952,78.89711823817649 C -108.40340527249901,74.53532669554623 -106.26417860724364,70.14169459725208 -104.27018363459135,65.80079052915184 C -102.27618866193905,61.45988646105159 -100.40150816354951,57.11591290732889 -98.67994710118143,52.85169382957495 C -96.95838603881334,48.58747475182101 -95.37092701579438,44.34889347696866 -93.94081726038291,40.21547606262821 C -92.51070750497144,36.08205864828776 -91.22603378509787,32.002389626755956 -90.09928856871258,28.051189343532243 C -88.97254335232726,24.09998906030853 -87.99897566108704,20.22952301234665 -87.18034596207104,16.508274363285935 C -86.36171626305504,12.787025714225221 -85.70034862008136,9.171859919095306 -85.18751037461666,5.7236974491679575 C -84.67467212915197,2.2755349792406085 -84.31953377815229,-1.043319651555277 -84.10331648928289,-4.18070045627816 C -83.88709920041349,-7.318081261001043 -83.82545664587883,-10.305503150552356 -83.89020664140023,-13.10058737916934 C -83.95495663692162,-15.895671607786326 -84.16774755460177,-18.523124464741073 -84.49181646241131,-20.95120582798007 C -84.81588537022085,-23.379287191219063 -85.27827354484221,-25.625393893104345 -85.83462008825752,-27.669075558603303 C -86.39096663167284,-29.71275722410226 -87.07300470725443,-31.56373890667287 -87.8298957229032,-33.2132958209738 C -88.586786738552,-34.86285273527472 -89.45417149125804,-36.312822962681615 -90.37596618215025,-37.56641704440888 C -91.29776087304246,-38.820011126136144 -92.31266397482193,-39.87111784206694 -93.3606638682565,-40.734860311337385 C -94.40866376169106,-41.598602780607834 -95.53061962895633,-42.261013733866555 -96.66396554275764,-42.74887186003158 C -97.79731145655894,-43.23672998619659 -98.98414279801291,-43.52846042552872 -100.16073935106442,-43.66200906832749 C -101.33733590411593,-43.79555771112624 -102.5460970134626,-43.742142291072525 -103.7235448610667,-43.55016371682416 C -104.90099270867081,-43.35818514257579 -106.08891040059903,-42.992199111149176 -107.22542643668912,-42.51013762283728 C -108.3619424727792,-42.02807613452538 -109.48733483478715,-41.388513921091665 -110.54264107760717,-40.65779478695278 C -111.59794732042718,-39.92707565281389 -112.62110114047908,-39.058597878616354 -113.55726389360913,-38.12582281800397 C -114.49342664673917,-37.19304775739158 -115.3774154605576,-36.14511039229974 -116.15961759638738,-35.061144423278456 C -116.94181973221716,-33.97717845425718 -117.65324588919516,-32.80306028601114 -118.25047670858778,-31.62202700387627 C -118.8477075279804,-30.440993721741396 -119.35735346855938,-29.196740437717352 -119.74300251274312,-27.974944730469208 C -120.12865155692684,-26.753149023221066 -120.4120275872206,-25.496453985156307 -120.56437097369015,-24.291252760387415 C -120.7167143601597,-23.086051535618527 -120.75449255591546,-21.875094717366455 -120.65706283156038,-20.743737381855865 C -120.5596331072053,-19.612380046345276 -120.33795952804469,-18.504647573954266 -119.97979262755975,-17.50310874732388 C -119.6216257270748,-16.50156992069349 -119.13230581850028,-15.552677181651378 -118.5080614286508,-14.734504422073542 C -117.88381703880133,-13.916331662495706 -117.12437188592621,-13.178873024454182 -116.23432628846288,-12.59407218985686 C -115.34428069099958,-12.009271355259537 -114.31787460494348,-11.531719150676354 -113.16778784387093,-11.225699414489611 C -112.01770108279835,-10.919679678302868 -110.73294378834244,-10.745354276121125 -109.33380572202745,-10.7579537727364 C -107.93466765571243,-10.770553269351675 -106.40529704810444,-10.936684783142008 -104.77295944598083,-11.301296394181264 C -103.1406218438572,-11.66590800522052 -101.38507583665672,-12.202808502983883 -99.53978010928577,-12.945623438971936 C -97.69448438191483,-13.688438374959988 -95.73537272275861,-14.618801391267871 -93.70118508175517,-15.758186010109583 C -91.66699744075173,-16.897570628951296 -89.53048647858274,-18.235912375244197 -87.33465426326507,-19.78193115202221 C -85.13882204794739,-21.327949928800226 -82.85394724964499,-23.080203899350067 -80.52619178984907,-25.034298670777673 C -78.19843633005314,-26.98839344220528 -75.79635882890678,-29.151667174388013 -73.36812150448955,-31.506499780587816 C -70.93988418007233,-33.861332386787616 -68.45310876261868,-36.42383201271187 -65.95676784334569,-39.16329430797647 C -63.46042692407269,-41.90275660324107 -60.921999602626734,-44.843881587086265 -58.390075988851535,-47.94327355217541 C -55.85815237507632,-51.04266551726456 -53.30085603620791,-54.33327267302812 -50.76522616069446,-57.75964609851131 C -48.22959628518101,-61.186019523994496 -45.685162843218485,-64.78885211717493 -43.17629673577083,-68.50151410507453 C -40.66743062832317,-72.21417609297414 -38.165787650152545,-76.08445061236434 -35.7120295160085,-80.03561802590897 C -33.25827138186445,-83.98678543945363 -30.826840295763834,-88.0729255456633 -28.45374793090658,-92.20851858634242 C -26.08065556604932,-96.34411162702156 -23.743717342295934,-100.58861590390921 -21.473475326864957,-104.84917626998376 C -19.20323331143398,-109.10973663605829 -16.98137593305462,-113.45016414730158 -14.832295838320725,-117.77188078278957 C -12.683215743586834,-122.09359741827753 -10.592875906275246,-126.4636527562136 -8.578994758461599,-130.77947608291169 C -6.565113610647955,-135.09529940960977 -4.61822294251417,-139.42599696340858 -2.749008951438856,-143.66682074297805 C -0.8797949603635417,-147.90764452254749 0.9164613185543296,-152.1285301269094 2.6362891879902857,-156.22441876032855 C 4.356117057426242,-160.3203073937477 5.99942365772371,-164.36071437894913 7.569958265176879,-168.24215254349292 C 9.140492872630048,-172.12359070803674 10.633407419834397,-175.91390668006963 12.059496832709298,-179.5130477475913 C 13.4855862455842,-183.11218881511297 14.835421722344007,-186.5851092647994 16.126494742426285,-189.83699894862306 C 17.41756776250856,-193.08888863244673 18.63615712132068,-196.180633709357 19.805934953202964,-199.02438585053326 C 20.97571278508525,-201.86813799170955 22.07906110205136,-204.51960947783576 23.145161733719995,-206.8995117956807 C 24.21126236538863,-209.2794141135256 25.219094447283435,-211.43727077906217 26.202538743214767,-213.30379975760275 C 27.185983039146095,-215.17032873614332 28.121196766846435,-216.78795983253863 29.045827509307966,-218.09868566692407 C 29.970458251769497,-219.40941150130948 30.85849609150063,-220.44779011370545 31.75032319798395,-221.1681547639152 C 32.64215030446727,-221.8885194141249 33.510303297719595,-222.31691971716543 34.39679014820789,-222.42087356818234 C 35.28327699869619,-222.52482741919928 36.15993711109952,-222.32139251079116 37.06924430091374,-221.79187787001678 C 37.97855149072796,-221.26236322924237 38.89242942524512,-220.41451310380762 39.85263328709321,-219.24378572353595 C 40.812837148941306,-218.0730583432643 41.79216358235245,-216.57773065192023 42.83046747200229,-214.7675135883868 C 43.868771361652136,-212.95729652485338 44.940500026212504,-210.82101599349218 46.08245662499226,-208.3824833423352 C 47.22441322377202,-205.9439506911782 48.413444317188805,-203.18272636456433 49.68220706468084,-200.13631768144506 C 50.95096981217287,-197.08990899832585 52.27941187624603,-193.7289617837478 53.69503310994445,-190.1040312436199 C 55.11065434364286,-186.479100703492 56.5971420112169,-182.55242693573894 58.17593446687131,-178.38673444067766 C 59.75472692252573,-174.2210419456164 61.41381080845315,-169.77082182193445 63.16778784387096,-165.10987627325227 C 64.92176487928877,-160.44893072457012 66.7633884067404,-155.52479340214458 68.69979667937817,-150.42106114858467 C 70.63620495201594,-145.31732889502476 72.66528109122034,-139.97548874660484 74.78623747969755,-134.4874827518928 C 76.90719386817476,-128.99947675718076 79.123292658166,-123.30175768978008 81.42553501024146,-117.49302518031232 C 83.72777736231694,-111.68429267084456 86.12493273143609,-105.69705948113575 88.5996915921504,-99.63508769508624 C 91.07445045286472,-93.57311590903674 93.64109229993544,-87.36613333713534 96.27408817452735,-81.1211944640153 C 98.90708404911925,-74.87625559089527 101.62609884809825,-68.52149700943866 104.39766683970187,-62.16545445636609 C 107.1692348313055,-55.80941190329352 110.01815523474018,-49.37984041723257 112.9034961241491,-42.98493914557986 C 115.78883701355801,-36.59003787392715 118.74015811339613,-30.158382993157847 121.70971217615535,-23.796046826449828 C 124.67926623891458,-17.433710659741813 127.70088335693312,-11.07126363572719 130.72082050070452,-4.810922145331759 C 133.7407576444759,1.4494193450636734 136.79651782826525,7.673968952957004 139.82933503878368,13.766002115922765 C 142.8621522493021,19.858035278888526 145.91250910109713,25.879700209074333 148.9177237638152,31.741276832462802 C 151.92293842653328,37.60285345585127 154.92569754609573,43.36136631220712 157.86062301509213,48.93546185625356 C 160.79554848408853,54.5095574003 163.7066887141343,59.950286751229875 166.52727657779366,65.18585009674143 C 169.34786444145303,70.42141344225298 172.12241831048414,75.49616215362505 174.78415019704835,80.3488419293229 C 177.44588208361256,85.20152170502074 180.038857386073,89.86919365191658 182.4976678971788,94.3019287509285 C 184.9564784082846,98.73466384994043 187.32380177838502,102.96178785341618 189.53701326368312,106.94525252339456 C 191.75022474898125,110.92871719337292 193.84968739735936,114.68981993300493 195.77693680896752,118.20271677079866 C 197.70418622057568,121.71561360859239 199.49637172903388,124.9934363100466 201.100509733332,128.02263355015694 C 202.70464773763004,131.0518307902673 204.15382195478682,133.83738761741415 205.40176483475594,136.3779002114608 C 206.64970771472508,138.91841280550747 207.7246513640523,141.2108920352148 208.58816701314691,143.2657091144368 C 209.45168266224155,145.32052619365876 210.12644825436277,147.12703835473914 210.5828587293237,148.7068026867925 C 211.03926920428466,150.2865670188459 211.293845219671,151.62174717232418 211.32662986291254,152.7442951067572 C 211.35941450615405,153.8668430411902 211.1802815563096,154.75231720713202 210.7795665887728,155.4420902933906 C 210.378851621236,156.1318633796492 209.75941737215206,156.59559171999285 208.92234005769183,156.88293362430863 C 208.0852627432316,157.17027552862444 207.02616475328009,157.2457872243143 205.75710270201142,157.16614171928546 C 204.48804065074273,157.0864962142566 202.9973088889626,156.8120329828662 201.30796775007983,156.40506059413548 C 199.61862661119707,155.99808820540474 197.71170022849722,155.4156750534969 195.6210558687149,154.724307386901 C 193.53041150893262,154.03293972030508 191.23000737723768,153.1874027816597 188.764101591386,152.25685459456005 C 186.2981958055344,151.3263064074604 183.63402935840466,150.2642585608177 180.82562115360489,149.14101826430314 C 178.0172129488051,148.01777796778856 175.02557488978414,146.78659334128815 171.9136523625873,145.5174128154726 C 168.8017298353905,144.24823228965704 165.5249252649153,142.89503073796547 162.15408599042394,141.5259351094099 C 158.78324671593256,140.1568394808543 155.26890610239684,138.72750166824594 151.68861671563903,137.30283904413906 C 148.10832732888124,135.8781764200322 144.4086014546851,134.41640927048033 140.6723496698771,132.97795936476854 C 136.93609788506907,131.53950945905675 133.10675137772492,130.0859804633067 129.2711060067909,128.67213960986842 C 125.43546063585687,127.25829875643016 121.53488089532385,125.8498559847907 117.65847744427302,124.49491424413901 C 113.7820739932222,123.13997250348733 109.87021420298016,121.80896519792658 106.01268530048597,120.5424891659583 C 102.15515639799179,119.27601313399003 98.29243281870681,118.04972548697295 94.51330402930787,116.89605805232934 C 90.73417523990895,115.74239061768571 86.9803400979738,114.64259883682136 83.33791256409235,113.62048455809654 C 79.6954850302109,112.5983702793717 76.10849700402578,111.64103033986362 72.65873882601915,110.76337237998024 C 69.20898064801251,109.88571442009686 65.84389520616917,109.08078507840828 62.63936349605251,108.35453679879632 C 59.43483178593585,107.62828851918437 56.342733435970615,106.97969126090179 53.431548565319176,106.40588270230842 C 50.52036369466773,105.83207414371505 47.74736156026855,105.33778882718343 45.17225427214386,104.91168544723607 C 42.59714698401918,104.48558206728869 40.18345405312425,104.13787416303289 37.9809048365711,103.84926242262412 C 35.77835562001795,103.56065068221535 33.75747051559308,103.34642325596796 31.956958972824978,103.18001500478357 C 30.156447430056875,103.01360675359918 28.55445567747684,102.91486775489905 27.17783557996252,102.85081291551771 C 25.801215482448196,102.78675807613634 24.636225018274274,102.78119112820234 23.69723838773905,102.79568596849552 C 22.758251757203823,102.81018080878873 22.039974886946652,102.87180559715232 21.54391579675115,102.93778195727693 C 21.04785670655565,103.00375831740155 20.777347923333746,103.10366488723453 20.72088384656604,103.19154412924316 C 20.664419769798332,103.27942337125178 20.833975846646066,103.38656320240602 21.205131336144916,103.46505740932871 C 21.576286825643763,103.54355161625138 22.169512450892395,103.62556727928977 22.947816783559134,103.66250937077933 C 23.726121116225872,103.6994514622689 24.718160116286498,103.7235259887705 25.874957332145357,103.6867099582661 C 27.031754548004216,103.64989392776174 28.389683499287614,103.58360076610832 29.888600078712273,103.4416131877531 C 31.38751665813693,103.29962560939789 33.07089449456432,103.11176018664878 34.86845680869332,102.83478448813482 C 36.66601912282231,102.55780878962086 38.627583261475955,102.2191832558404 40.67397396348624,101.7797589966693 C 42.72036466549653,101.34033473749817 44.906861262424535,100.82451841735458 47.146801020755056,100.19823893310814 C 49.38674077908558,99.5719594488617 51.739874048795194,98.85594884457215 54.11361251346935,98.02208209119068 C 56.4873509781435,97.18821533780924 58.94483411806556,96.25301918791342 61.38923180879996,95.19503841281939 C 63.83362949953437,94.13705763772536 66.33031770327413,92.96818450095488 68.77999865787584,91.67419744062641 C 71.22967961247754,90.38021038029795 73.69876397493373,88.96804843987864 76.08731753641011,87.43111605084854 C 78.4758710978865,85.89418366181843 80.85011094580963,84.23426488438317 83.1113200267341,82.45260310644576 C 85.37252910765856,80.67094132850836 87.58549945723996,78.76408471052098 89.65457202195688,76.74114538322412 C 91.7236445866738,74.71820605592727 93.71097505290363,72.57053739297395 95.52575541503562,70.3149671426646 C 97.34053577716757,68.05939689235524 99.04111734648275,65.6822452546204 100.54325419474864,63.20772388136802 C 102.0453910430145,60.73320250811563 103.40252767041083,58.14287633976304 104.53857650463094,55.467838903150316 C 105.67462533885104,52.79280146653758 106.63710833313858,50.0102498888915 107.35954720006936,47.15749926169159 C 108.08198606700013,44.30474863449169 108.60507066412977,41.35511606582964 108.87320970621552,38.35133513995089 C 109.14134874830127,35.34755421407214 109.18761411488845,32.25963876830917 108.96838145258378,29.134813706419102 C 108.74914879027911,26.009988644529034 108.28922491165292,22.815616886872174 107.55781373238756,19.60238476861048 C 106.8264025531222,16.389152650348795 105.0762309362243,11.47991495880921 104.57991437699164,9.855420996848958 Z"></path></g></svg>