<svg xmlns="http://www.w3.org/2000/svg" width="242.0" height="141.0" viewBox="-121.0 -70.5 242.0 141.0" style=""><g><defs></defs><g><g><g><g><g><g><g><g><g><g><g><g></g><circle transform="matrix(1.0,0.0,0.0,-1.0,-50.5,0.0)" style="stroke-width: 1.0px; stroke: hsla(0.0, 0.0%, 0.0%, 1.0); stroke-linecap: butt; stroke-linejoin: miter;  fill: none;" r="27.5"></circle></g><circle transform="matrix(1.0,0.0,0.0,-1.0,-50.5,0.0)" style="stroke-width: 1.0px; stroke: hsla(0.0, 0.0%, 0.0%, 1.0); stroke-linecap: butt; stroke-linejoin: miter;  fill: none;" r="30.0"></circle></g><circle transform="matrix(1.0,0.0,0.0,-1.0,-50.5,0.0)" style="stroke-width: 1.0px; stroke: hsla(0.0, 0.0%, 0.0%, 1.0); stroke-linecap: butt; stroke-linejoin: miter;  fill: none;" r="32.5"></circle></g><circle transform="matrix(1.0,0.0,0.0,-1.0,-50.5,0.0)" style="stroke-width: 1.0px; stroke: hsla(0.0, 0.0%, 0.0%, 1.0); stroke-linecap: butt; stroke-linejoin: miter;  fill: none;" r="35.0"></circle></g><circle transform="matrix(1.0,0.0,0.0,-1.0,-50.5,0.0)" style="stroke-width: 1.0px; stroke: hsla(0.0, 0.0%, 0.0%, 1.0); stroke-linecap: butt; stroke-linejoin: miter;  fill: none;" r="37.5"></circle></g><circle transform="matrix(1.0,0.0,0.0,-1.0,-50.5,0.0)" style="stroke-width: 1.0px; stroke: hsla(0.0, 0.0%, 0.0%, 1.0); stroke-linecap: butt; stroke-linejoin: miter;  fill: none;" r="40.0"></circle></g><circle transform="matrix(1.0,0.0,0.0,-1.0,-50.5,0.0)" style="stroke-width: 1.0px; stroke: hsla(0.0, 0.0%, 0.0%, 1.0); stroke-linecap: butt; stroke-linejoin: miter;  fill: none;" r="42.5"></circle></g><circle transform="matrix(1.0,0.0,0.0,-1.0,-50.5,0.0)" style="stroke-width: 1.0px; stroke: hsla(0.0, 0.0%, 0.0%, 1.0); stroke-linecap: butt; stroke-linejoin: miter;  fill: none;" r="45.0"></circle></g><circle transform="matrix(1.0,0.0,0.0,-1.0,-50.5,0.0)" style="stroke-width: 1.0px; stroke: hsla(0.0, 0.0%, 0.0%, 1.0); stroke-linecap: butt; stroke-linejoin: miter;  fill: none;" r="47.5"></circle></g><circle transform="matrix(1.0,0.0,0.0,-1.0,-50.5,0.0)" style="stroke-width: 1.0px; stroke: hsla(0.0, 0.0%, 0.0%, 1.0); stroke-linecap: butt; stroke-linejoin: miter;  fill: none;" r="50.0"></circle></g><g><g><g><g><g><g><g><g><g><g><g></g><circle transform="matrix(1.0,0.0,0.0,-1.0,50.5,0.0)" style="stroke-width: 1.0px; stroke: hsla(0.0, 100.0%, 50.0%, 1.0); stroke-linecap: butt; stroke-linejoin: miter;  fill: none;" r="27.5"></circle></g><circle transform="matrix(1.0,0.0,0.0,-1.0,50.5,0.0)" style="stroke-width: 1.0px; stroke: hsla(0.0, 100.0%, 50.0%, 1.0); stroke-linecap: butt; stroke-linejoin: miter;  fill: none;" r="30.0"></circle></g><circle transform="matrix(1.0,0.0,0.0,-1.0,50.5,0.0)" style="stroke-width: 1.0px; stroke: hsla(0.0, 100.0%, 50.0%, 1.0); stroke-linecap: butt; stroke-linejoin: miter;  fill: none;" r="32.5"></circle></g><circle transform="matrix(1.0,0.0,0.0,-1.0,50.5,0.0)" style="stroke-width: 1.0px; stroke: hsla(0.0, 100.0%, 50.0%, 1.0); stroke-linecap: butt; stroke-linejoin: miter;  fill: none;" r="35.0"></circle></g><circle transform="matrix(1.0,0.0,0.0,-1.0,50.5,0.0)" style="stroke-width: 1.0px; stroke: hsla(0.0, 100.0%, 50.0%, 1.0); stroke-linecap: butt; stroke-linejoin: miter;  fill: none;" r="37.5"></circle></g><circle transform="matrix(1.0,0.0,0.0,-1.0,50.5,0.0)" style="stroke-width: 1.0px; stroke: hsla(0.0, 100.0%, 50.0%, 1.0); stroke-linecap: butt; stroke-linejoin: miter;  fill: none;" r="40.0"></circle></g><circle transform="matrix(1.0,0.0,0.0,-1.0,50.5,0.0)" style="stroke-width: 1.0px; stroke: hsla(0.0, 100.0%, 50.0%, 1.0); stroke-linecap: butt; stroke-linejoin: miter;  fill: none;" r="42.5"></circle></g><circle transform="matrix(1.0,0.0,0.0,-1.0,50.5,0.0)" style="stroke-width: 1.0px; stroke: hsla(0.0, 100.0%, 50.0%, 1.0); stroke-linecap: butt; stroke-linejoin: miter;  fill: none;" r="45.0"></circle></g><circle transform="matrix(1.0,0.0,0.0,-1.0,50.5,0.0)" style="stroke-width: 1.0px; stroke: hsla(0.0, 100.0%, 50.0%, 1.0); stroke-linecap: butt; stroke-linejoin: miter;  fill: none;" r="47.5"></circle></g><circle transform="matrix(1.0,0.0,0.0,-1.0,50.5,0.0)" style="stroke-width: 1.0px; stroke: hsla(0.0, 100.0%, 50.0%, 1.0); stroke-linecap: butt; stroke-linejoin: miter;  fill: none;" r="50.0"></circle></g></g></g></svg>