<svg xmlns="http://www.w3.org/2000/svg" width="722.0" height="381.0" viewBox="-361.0 -190.5 722.0 381.0" style=""><g><defs></defs><g><g><g><g><g><g><g><g><g><g><g><g></g><circle transform="matrix(1.0,0.0,0.0,-1.0,-170.5,0.0)" style="stroke-width: 1.0px; stroke: hsla(0.0, 0.0%, 0.0%, 1.0); stroke-linecap: butt; stroke-linejoin: miter;  fill: none;" r="62.0"></circle></g><circle transform="matrix(1.0,0.0,0.0,-1.0,-170.5,0.0)" style="stroke-width: 1.0px; stroke: hsla(0.0, 0.0%, 0.0%, 1.0); stroke-linecap: butt; stroke-linejoin: miter;  fill: none;" r="74.0"></circle></g><circle transform="matrix(1.0,0.0,0.0,-1.0,-170.5,0.0)" style="stroke-width: 1.0px; stroke: hsla(0.0, 0.0%, 0.0%, 1.0); stroke-linecap: butt; stroke-linejoin: miter;  fill: none;" r="86.0"></circle></g><circle transform="matrix(1.0,0.0,0.0,-1.0,-170.5,0.0)" style="stroke-width: 1.0px; stroke: hsla(0.0, 0.0%, 0.0%, 1.0); stroke-linecap: butt; stroke-linejoin: miter;  fill: none;" r="98.0"></circle></g><circle transform="matrix(1.0,0.0,0.0,-1.0,-170.5,0.0)" style="stroke-width: 1.0px; stroke: hsla(0.0, 0.0%, 0.0%, 1.0); stroke-linecap: butt; stroke-linejoin: miter;  fill: none;" r="110.0"></circle></g><circle transform="matrix(1.0,0.0,0.0,-1.0,-170.5,0.0)" style="stroke-width: 1.0px; stroke: hsla(0.0, 0.0%, 0.0%, 1.0); stroke-linecap: butt; stroke-linejoin: miter;  fill: none;" r="122.0"></circle></g><circle transform="matrix(1.0,0.0,0.0,-1.0,-170.5,0.0)" style="stroke-width: 1.0px; stroke: hsla(0.0, 0.0%, 0.0%, 1.0); stroke-linecap: butt; stroke-linejoin: miter;  fill: none;" r="134.0"></circle></g><circle transform="matrix(1.0,0.0,0.0,-1.0,-170.5,0.0)" style="stroke-width: 1.0px; stroke: hsla(0.0, 0.0%, 0.0%, 1.0); stroke-linecap: butt; stroke-linejoin: miter;  fill: none;" r="146.0"></circle></g><circle transform="matrix(1.0,0.0,0.0,-1.0,-170.5,0.0)" style="stroke-width: 1.0px; stroke: hsla(0.0, 0.0%, 0.0%, 1.0); stroke-linecap: butt; stroke-linejoin: miter;  fill: none;" r="158.0"></circle></g><circle transform="matrix(1.0,0.0,0.0,-1.0,-170.5,0.0)" style="stroke-width: 1.0px; stroke: hsla(0.0, 0.0%, 0.0%, 1.0); stroke-linecap: butt; stroke-linejoin: miter;  fill: none;" r="170.0"></circle></g><g><g><g><g><g><g><g><g><g><g><g></g><circle transform="matrix(1.0,0.0,0.0,-1.0,170.5,0.0)" style="stroke-width: 1.0px; stroke: hsla(0.0, 100.0%, 50.0%, 1.0); stroke-linecap: butt; stroke-linejoin: miter;  fill: none;" r="62.0"></circle></g><circle transform="matrix(1.0,0.0,0.0,-1.0,170.5,0.0)" style="stroke-width: 1.0px; stroke: hsla(0.0, 100.0%, 50.0%, 1.0); stroke-linecap: butt; stroke-linejoin: miter;  fill: none;" r="74.0"></circle></g><circle transform="matrix(1.0,0.0,0.0,-1.0,170.5,0.0)" style="stroke-width: 1.0px; stroke: hsla(0.0, 100.0%, 50.0%, 1.0); stroke-linecap: butt; stroke-linejoin: miter;  fill: none;" r="86.0"></circle></g><circle transform="matrix(1.0,0.0,0.0,-1.0,170.5,0.0)" style="stroke-width: 1.0px; stroke: hsla(0.0, 100.0%, 50.0%, 1.0); stroke-linecap: butt; stroke-linejoin: miter;  fill: none;" r="98.0"></circle></g><circle transform="matrix(1.0,0.0,0.0,-1.0,170.5,0.0)" style="stroke-width: 1.0px; stroke: hsla(0.0, 100.0%, 50.0%, 1.0); stroke-linecap: butt; stroke-linejoin: miter;  fill: none;" r="110.0"></circle></g><circle transform="matrix(1.0,0.0,0.0,-1.0,170.5,0.0)" style="stroke-width: 1.0px; stroke: hsla(0.0, 100.0%, 50.0%, 1.0); stroke-linecap: butt; stroke-linejoin: miter;  fill: none;" r="122.0"></circle></g><circle transform="matrix(1.0,0.0,0.0,-1.0,170.5,0.0)" style="stroke-width: 1.0px; stroke: hsla(0.0, 100.0%, 50.0%, 1.0); stroke-linecap: butt; stroke-linejoin: miter;  fill: none;" r="134.0"></circle></g><circle transform="matrix(1.0,0.0,0.0,-1.0,170.5,0.0)" style="stroke-width: 1.0px; stroke: hsla(0.0, 100.0%, 50.0%, 1.0); stroke-linecap: butt; stroke-linejoin: miter;  fill: none;" r="146.0"></circle></g><circle transform="matrix(1.0,0.0,0.0,-1.0,170.5,0.0)" style="stroke-width: 1.0px; stroke: hsla(0.0, 100.0%, 50.0%, 1.0); stroke-linecap: butt; stroke-linejoin: miter;  fill: none;" r="158.0"></circle></g><circle transform="matrix(1.0,0.0,0.0,-1.0,170.5,0.0)" style="stroke-width: 1.0px; stroke: hsla(0.0, 100.0%, 50.0%, 1.0); stroke-linecap: butt; stroke-linejoin: miter;  fill: none;" r="170.0"></circle></g></g></g></svg>