<svg xmlns="http://www.w3.org/2000/svg" width="448.338031938736" height="433.31949526698975" viewBox="-225.95847744427303 -219.65974763349482 448.338031938736 433.31949526698975" style=""><g><defs></defs><g><g><g><g><g><g><g><g><g><g><g><g><g><g><g><g><g><g><g><g><g><g><g><g><g><g><g><g><g><g><g><g><g><g><g><g><g><g><g><g><g><g><g><g><g><g><g><g><g><g><g><g><g><g><g><g><g><g><g><g><g></g><circle transform="matrix(1.0,0.0,0.0,-1.0,74.48802381188584,-71.3525491562421)" style="stroke-width: 3.0px; stroke: hsla(241.2, 70.0%, 50.0%, 1.0); stroke-linecap: butt; stroke-linejoin: miter;  fill: none;" r="1.2"></circle></g><circle transform="matrix(1.0,0.0,0.0,-1.0,86.01049646137002,-131.4690580330929)" style="stroke-width: 3.0px; stroke: hsla(242.4, 70.0%, 50.0%, 1.0); stroke-linecap: butt; stroke-linejoin: miter;  fill: none;" r="1.4"></circle></g><circle transform="matrix(1.0,0.0,0.0,-1.0,88.16778784387097,-171.3525491562421)" style="stroke-width: 3.0px; stroke: hsla(243.59999999999994, 70.0%, 50.0%, 1.0); stroke-linecap: butt; stroke-linejoin: miter;  fill: none;" r="1.6"></circle></g><circle transform="matrix(1.0,0.0,0.0,-1.0,86.47172382160913,-185.959747633495)" style="stroke-width: 3.0px; stroke: hsla(244.79999999999998, 70.0%, 50.0%, 1.0); stroke-linecap: butt; stroke-linejoin: miter;  fill: none;" r="1.8"></circle></g><circle transform="matrix(1.0,0.0,0.0,-1.0,86.60254037844388,-175.00000000000003)" style="stroke-width: 3.0px; stroke: hsla(245.99999999999997, 70.0%, 50.0%, 1.0); stroke-linecap: butt; stroke-linejoin: miter;  fill: none;" r="2.0"></circle></g><circle transform="matrix(1.0,0.0,0.0,-1.0,92.65847744427302,-142.65847744427305)" style="stroke-width: 3.0px; stroke: hsla(247.2, 70.0%, 50.0%, 1.0); stroke-linecap: butt; stroke-linejoin: miter;  fill: none;" r="2.2"></circle></g><circle transform="matrix(1.0,0.0,0.0,-1.0,105.87701411601904,-96.35254915624213)" style="stroke-width: 3.0px; stroke: hsla(248.39999999999998, 70.0%, 50.0%, 1.0); stroke-linecap: butt; stroke-linejoin: miter;  fill: none;" r="2.4"></circle></g><circle transform="matrix(1.0,0.0,0.0,-1.0,124.17828430524096,-44.866517654649066)" style="stroke-width: 3.0px; stroke: hsla(249.60000000000002, 70.0%, 50.0%, 1.0); stroke-linecap: butt; stroke-linejoin: miter;  fill: none;" r="2.6"></circle></g><circle transform="matrix(1.0,0.0,0.0,-1.0,142.65847744427302,3.6474508437578805)" style="stroke-width: 3.0px; stroke: hsla(250.79999999999995, 70.0%, 50.0%, 1.0); stroke-linecap: butt; stroke-linejoin: miter;  fill: none;" r="2.8"></circle></g><circle transform="matrix(1.0,0.0,0.0,-1.0,154.90381056766577,43.30127018922193)" style="stroke-width: 3.0px; stroke: hsla(251.99999999999997, 70.0%, 50.0%, 1.0); stroke-linecap: butt; stroke-linejoin: miter;  fill: none;" r="3.0"></circle></g><circle transform="matrix(1.0,0.0,0.0,-1.0,154.77299401083104,71.3525491562421)" style="stroke-width: 3.0px; stroke: hsla(253.19999999999996, 70.0%, 50.0%, 1.0); stroke-linecap: butt; stroke-linejoin: miter;  fill: none;" r="3.1999999999999997"></circle></g><circle transform="matrix(1.0,0.0,0.0,-1.0,138.16778784387097,88.16778784387097)" style="stroke-width: 3.0px; stroke: hsla(254.4, 70.0%, 50.0%, 1.0); stroke-linecap: butt; stroke-linejoin: miter;  fill: none;" r="3.4000000000000004"></circle></g><circle transform="matrix(1.0,0.0,0.0,-1.0,104.31176665059203,96.35254915624213)" style="stroke-width: 3.0px; stroke: hsla(255.6, 70.0%, 50.0%, 1.0); stroke-linecap: butt; stroke-linejoin: miter;  fill: none;" r="3.5999999999999996"></circle></g><circle transform="matrix(1.0,0.0,0.0,-1.0,56.18675362266401,99.35720725505112)" style="stroke-width: 3.0px; stroke: hsla(256.8, 70.0%, 50.0%, 1.0); stroke-linecap: butt; stroke-linejoin: miter;  fill: none;" r="3.8"></circle></g><circle transform="matrix(1.0,0.0,0.0,-1.0,2.4492935982947064E-14,100.0)" style="stroke-width: 3.0px; stroke: hsla(258.0, 70.0%, 50.0%, 1.0); stroke-linecap: butt; stroke-linejoin: miter;  fill: none;" r="4.0"></circle></g><circle transform="matrix(1.0,0.0,0.0,-1.0,-56.18675362266383,99.3572072550511)" style="stroke-width: 3.0px; stroke: hsla(259.19999999999993, 70.0%, 50.0%, 1.0); stroke-linecap: butt; stroke-linejoin: miter;  fill: none;" r="4.2"></circle></g><circle transform="matrix(1.0,0.0,0.0,-1.0,-104.31176665059192,96.35254915624203)" style="stroke-width: 3.0px; stroke: hsla(260.4, 70.0%, 50.0%, 1.0); stroke-linecap: butt; stroke-linejoin: miter;  fill: none;" r="4.4"></circle></g><circle transform="matrix(1.0,0.0,0.0,-1.0,-138.16778784387097,88.16778784387097)" style="stroke-width: 3.0px; stroke: hsla(261.59999999999997, 70.0%, 50.0%, 1.0); stroke-linecap: butt; stroke-linejoin: miter;  fill: none;" r="4.6"></circle></g><circle transform="matrix(1.0,0.0,0.0,-1.0,-154.77299401083107,71.3525491562421)" style="stroke-width: 3.0px; stroke: hsla(262.8, 70.0%, 50.0%, 1.0); stroke-linecap: butt; stroke-linejoin: miter;  fill: none;" r="4.8"></circle></g><circle transform="matrix(1.0,0.0,0.0,-1.0,-154.9038105676658,43.3012701892219)" style="stroke-width: 3.0px; stroke: hsla(264.0, 70.0%, 50.0%, 1.0); stroke-linecap: butt; stroke-linejoin: miter;  fill: none;" r="5.0"></circle></g><circle transform="matrix(1.0,0.0,0.0,-1.0,-142.65847744427305,3.6474508437579445)" style="stroke-width: 3.0px; stroke: hsla(265.2, 70.0%, 50.0%, 1.0); stroke-linecap: butt; stroke-linejoin: miter;  fill: none;" r="5.199999999999999"></circle></g><circle transform="matrix(1.0,0.0,0.0,-1.0,-124.17828430524108,-44.86651765464884)" style="stroke-width: 3.0px; stroke: hsla(266.4, 70.0%, 50.0%, 1.0); stroke-linecap: butt; stroke-linejoin: miter;  fill: none;" r="5.3999999999999995"></circle></g><circle transform="matrix(1.0,0.0,0.0,-1.0,-105.8770141160191,-96.35254915624202)" style="stroke-width: 3.0px; stroke: hsla(267.59999999999997, 70.0%, 50.0%, 1.0); stroke-linecap: butt; stroke-linejoin: miter;  fill: none;" r="5.6"></circle></g><circle transform="matrix(1.0,0.0,0.0,-1.0,-92.65847744427302,-142.65847744427302)" style="stroke-width: 3.0px; stroke: hsla(268.79999999999995, 70.0%, 50.0%, 1.0); stroke-linecap: butt; stroke-linejoin: miter;  fill: none;" r="5.800000000000001"></circle></g><circle transform="matrix(1.0,0.0,0.0,-1.0,-86.60254037844388,-174.99999999999994)" style="stroke-width: 3.0px; stroke: hsla(270.0, 70.0%, 50.0%, 1.0); stroke-linecap: butt; stroke-linejoin: miter;  fill: none;" r="6.0"></circle></g><circle transform="matrix(1.0,0.0,0.0,-1.0,-86.47172382160912,-185.9597476334949)" style="stroke-width: 3.0px; stroke: hsla(271.2, 70.0%, 50.0%, 1.0); stroke-linecap: butt; stroke-linejoin: miter;  fill: none;" r="6.199999999999999"></circle></g><circle transform="matrix(1.0,0.0,0.0,-1.0,-88.16778784387094,-171.35254915624213)" style="stroke-width: 3.0px; stroke: hsla(272.40000000000003, 70.0%, 50.0%, 1.0); stroke-linecap: butt; stroke-linejoin: miter;  fill: none;" r="6.4"></circle></g><circle transform="matrix(1.0,0.0,0.0,-1.0,-86.01049646137002,-131.46905803309303)" style="stroke-width: 3.0px; stroke: hsla(273.59999999999997, 70.0%, 50.0%, 1.0); stroke-linecap: butt; stroke-linejoin: miter;  fill: none;" r="6.6"></circle></g><circle transform="matrix(1.0,0.0,0.0,-1.0,-74.48802381188588,-71.35254915624225)" style="stroke-width: 3.0px; stroke: hsla(274.8, 70.0%, 50.0%, 1.0); stroke-linecap: butt; stroke-linejoin: miter;  fill: none;" r="6.8"></circle></g><circle transform="matrix(1.0,0.0,0.0,-1.0,-50.000000000000036,-8.572527594031473E-14)" style="stroke-width: 3.0px; stroke: hsla(276.0, 70.0%, 50.0%, 1.0); stroke-linecap: butt; stroke-linejoin: miter;  fill: none;" r="7.0"></circle></g><circle transform="matrix(1.0,0.0,0.0,-1.0,-12.11451656655819,71.35254915624175)" style="stroke-width: 3.0px; stroke: hsla(277.2, 70.0%, 50.0%, 1.0); stroke-linecap: butt; stroke-linejoin: miter;  fill: none;" r="7.199999999999999"></circle></g><circle transform="matrix(1.0,0.0,0.0,-1.0,36.010496461369875,131.4690580330928)" style="stroke-width: 3.0px; stroke: hsla(278.4, 70.0%, 50.0%, 1.0); stroke-linecap: butt; stroke-linejoin: miter;  fill: none;" r="7.4"></circle></g><circle transform="matrix(1.0,0.0,0.0,-1.0,88.1677878438708,171.35254915624208)" style="stroke-width: 3.0px; stroke: hsla(279.6, 70.0%, 50.0%, 1.0); stroke-linecap: butt; stroke-linejoin: miter;  fill: none;" r="7.6000000000000005"></circle></g><circle transform="matrix(1.0,0.0,0.0,-1.0,136.47172382160892,185.959747633495)" style="stroke-width: 3.0px; stroke: hsla(280.8, 70.0%, 50.0%, 1.0); stroke-linecap: butt; stroke-linejoin: miter;  fill: none;" r="7.8"></circle></g><circle transform="matrix(1.0,0.0,0.0,-1.0,173.20508075688767,175.0)" style="stroke-width: 3.0px; stroke: hsla(281.99999999999994, 70.0%, 50.0%, 1.0); stroke-linecap: butt; stroke-linejoin: miter;  fill: none;" r="7.999999999999999"></circle></g><circle transform="matrix(1.0,0.0,0.0,-1.0,192.65847744427302,142.65847744427307)" style="stroke-width: 3.0px; stroke: hsla(283.2, 70.0%, 50.0%, 1.0); stroke-linecap: butt; stroke-linejoin: miter;  fill: none;" r="8.2"></circle></g><circle transform="matrix(1.0,0.0,0.0,-1.0,192.47955449446295,96.35254915624239)" style="stroke-width: 3.0px; stroke: hsla(284.4, 70.0%, 50.0%, 1.0); stroke-linecap: butt; stroke-linejoin: miter;  fill: none;" r="8.399999999999999"></circle></g><circle transform="matrix(1.0,0.0,0.0,-1.0,174.1782843052411,44.86651765464912)" style="stroke-width: 3.0px; stroke: hsla(285.6, 70.0%, 50.0%, 1.0); stroke-linecap: butt; stroke-linejoin: miter;  fill: none;" r="8.6"></circle></g><circle transform="matrix(1.0,0.0,0.0,-1.0,142.658477444273,-3.6474508437578166)" style="stroke-width: 3.0px; stroke: hsla(286.8, 70.0%, 50.0%, 1.0); stroke-linecap: butt; stroke-linejoin: miter;  fill: none;" r="8.8"></circle></g><circle transform="matrix(1.0,0.0,0.0,-1.0,104.90381056766603,-43.301270189221945)" style="stroke-width: 3.0px; stroke: hsla(288.0, 70.0%, 50.0%, 1.0); stroke-linecap: butt; stroke-linejoin: miter;  fill: none;" r="9.0"></circle></g><circle transform="matrix(1.0,0.0,0.0,-1.0,68.17045363238745,-71.35254915624195)" style="stroke-width: 3.0px; stroke: hsla(289.2, 70.0%, 50.0%, 1.0); stroke-linecap: butt; stroke-linejoin: miter;  fill: none;" r="9.2"></circle></g><circle transform="matrix(1.0,0.0,0.0,-1.0,38.167787843871,-88.16778784387094)" style="stroke-width: 3.0px; stroke: hsla(290.4, 70.0%, 50.0%, 1.0); stroke-linecap: butt; stroke-linejoin: miter;  fill: none;" r="9.399999999999999"></circle></g><circle transform="matrix(1.0,0.0,0.0,-1.0,17.709226272148207,-96.35254915624196)" style="stroke-width: 3.0px; stroke: hsla(291.59999999999997, 70.0%, 50.0%, 1.0); stroke-linecap: butt; stroke-linejoin: miter;  fill: none;" r="9.6"></circle></g><circle transform="matrix(1.0,0.0,0.0,-1.0,6.186753622663883,-99.35720725505115)" style="stroke-width: 3.0px; stroke: hsla(292.8, 70.0%, 50.0%, 1.0); stroke-linecap: butt; stroke-linejoin: miter;  fill: none;" r="9.799999999999999"></circle></g><circle transform="matrix(1.0,0.0,0.0,-1.0,-9.225055520567841E-14,-100.0)" style="stroke-width: 3.0px; stroke: hsla(294.0, 70.0%, 50.0%, 1.0); stroke-linecap: butt; stroke-linejoin: miter;  fill: none;" r="10.0"></circle></g><circle transform="matrix(1.0,0.0,0.0,-1.0,-6.186753622663918,-99.35720725505107)" style="stroke-width: 3.0px; stroke: hsla(295.19999999999993, 70.0%, 50.0%, 1.0); stroke-linecap: butt; stroke-linejoin: miter;  fill: none;" r="10.2"></circle></g><circle transform="matrix(1.0,0.0,0.0,-1.0,-17.709226272148,-96.35254915624212)" style="stroke-width: 3.0px; stroke: hsla(296.4, 70.0%, 50.0%, 1.0); stroke-linecap: butt; stroke-linejoin: miter;  fill: none;" r="10.399999999999999"></circle></g><circle transform="matrix(1.0,0.0,0.0,-1.0,-38.167787843870926,-88.16778784387098)" style="stroke-width: 3.0px; stroke: hsla(297.6, 70.0%, 50.0%, 1.0); stroke-linecap: butt; stroke-linejoin: miter;  fill: none;" r="10.600000000000001"></circle></g><circle transform="matrix(1.0,0.0,0.0,-1.0,-68.17045363238708,-71.35254915624242)" style="stroke-width: 3.0px; stroke: hsla(298.8, 70.0%, 50.0%, 1.0); stroke-linecap: butt; stroke-linejoin: miter;  fill: none;" r="10.8"></circle></g><circle transform="matrix(1.0,0.0,0.0,-1.0,-104.90381056766559,-43.301270189222244)" style="stroke-width: 3.0px; stroke: hsla(300.0, 70.0%, 50.0%, 1.0); stroke-linecap: butt; stroke-linejoin: miter;  fill: none;" r="11.0"></circle></g><circle transform="matrix(1.0,0.0,0.0,-1.0,-142.65847744427302,-3.647450843758236)" style="stroke-width: 3.0px; stroke: hsla(301.2, 70.0%, 50.0%, 1.0); stroke-linecap: butt; stroke-linejoin: miter;  fill: none;" r="11.2"></circle></g><circle transform="matrix(1.0,0.0,0.0,-1.0,-174.17828430524088,44.86651765464885)" style="stroke-width: 3.0px; stroke: hsla(302.4, 70.0%, 50.0%, 1.0); stroke-linecap: butt; stroke-linejoin: miter;  fill: none;" r="11.399999999999999"></circle></g><circle transform="matrix(1.0,0.0,0.0,-1.0,-192.47955449446286,96.35254915624171)" style="stroke-width: 3.0px; stroke: hsla(303.6, 70.0%, 50.0%, 1.0); stroke-linecap: butt; stroke-linejoin: miter;  fill: none;" r="11.599999999999998"></circle></g><circle transform="matrix(1.0,0.0,0.0,-1.0,-192.65847744427302,142.658477444273)" style="stroke-width: 3.0px; stroke: hsla(304.79999999999995, 70.0%, 50.0%, 1.0); stroke-linecap: butt; stroke-linejoin: miter;  fill: none;" r="11.8"></circle></g><circle transform="matrix(1.0,0.0,0.0,-1.0,-173.2050807568878,174.99999999999991)" style="stroke-width: 3.0px; stroke: hsla(306.0, 70.0%, 50.0%, 1.0); stroke-linecap: butt; stroke-linejoin: miter;  fill: none;" r="12.0"></circle></g><circle transform="matrix(1.0,0.0,0.0,-1.0,-136.47172382160957,185.95974763349483)" style="stroke-width: 3.0px; stroke: hsla(307.2, 70.0%, 50.0%, 1.0); stroke-linecap: butt; stroke-linejoin: miter;  fill: none;" r="12.2"></circle></g><circle transform="matrix(1.0,0.0,0.0,-1.0,-88.16778784387118,171.352549156242)" style="stroke-width: 3.0px; stroke: hsla(308.40000000000003, 70.0%, 50.0%, 1.0); stroke-linecap: butt; stroke-linejoin: miter;  fill: none;" r="12.399999999999999"></circle></g><circle transform="matrix(1.0,0.0,0.0,-1.0,-36.01049646137032,131.4690580330931)" style="stroke-width: 3.0px; stroke: hsla(309.6, 70.0%, 50.0%, 1.0); stroke-linecap: butt; stroke-linejoin: miter;  fill: none;" r="12.6"></circle></g><circle transform="matrix(1.0,0.0,0.0,-1.0,12.114516566557697,71.35254915624265)" style="stroke-width: 3.0px; stroke: hsla(310.8, 70.0%, 50.0%, 1.0); stroke-linecap: butt; stroke-linejoin: miter;  fill: none;" r="12.799999999999999"></circle></g><circle transform="matrix(1.0,0.0,0.0,-1.0,49.99999999999993,1.7145055188062946E-13)" style="stroke-width: 3.0px; stroke: hsla(311.99999999999994, 70.0%, 50.0%, 1.0); stroke-linecap: butt; stroke-linejoin: miter;  fill: none;" r="13.0"></circle></g></g></svg>