<svg xmlns="http://www.w3.org/2000/svg" width="453.0368628490485" height="433.31949526698975" viewBox="-228.21843142452423 -213.6597476334949 453.0368628490485 433.31949526698975" style=""><g><defs></defs><g><g><g><g><g><g><g><g><g><g><g><g><g><g><g><g><g><g><g><g><g><g><g><g><g><g><g><g><g><g><g><g><g><g><g><g><g><g><g><g><g><g><g><g><g><g><g><g><g><g><g><g><g><g><g><g><g><g><g><g><g><g><g><g><g><g><g><g><g><g><g><g><g><g><g><g><g><g><g><g><g><g><g><g><g><g><g><g><g><g><g><g><g><g><g><g><g><g><g><g><g><g><g><g><g><g><g><g><g><g><g><g><g><g><g><g><g><g><g><g><g></g><circle transform="matrix(1.0,0.0,0.0,-1.0,63.97556080460143,-36.40612201116067)" style="stroke-width: 3.0px; stroke: hsla(10.0, 16.666666666666664%, 28.235294117647058%, 1.0); stroke-linecap: butt; stroke-linejoin: miter;  fill: none;" r="1.1"></circle></g><circle transform="matrix(1.0,0.0,0.0,-1.0,74.48802381188584,-71.3525491562421)" style="stroke-width: 3.0px; stroke: hsla(191.6129032258065, 43.05555555555556%, 71.76470588235294%, 1.0); stroke-linecap: butt; stroke-linejoin: miter;  fill: none;" r="1.2"></circle></g><circle transform="matrix(1.0,0.0,0.0,-1.0,81.70788821556948,-103.45391402025939)" style="stroke-width: 3.0px; stroke: hsla(12.000000000000002, 42.98642533936651%, 56.666666666666664%, 1.0); stroke-linecap: butt; stroke-linejoin: miter;  fill: none;" r="1.3"></circle></g><circle transform="matrix(1.0,0.0,0.0,-1.0,86.01049646137002,-131.4690580330929)" style="stroke-width: 3.0px; stroke: hsla(41.68421052631579, 42.98642533936651%, 56.666666666666664%, 1.0); stroke-linecap: butt; stroke-linejoin: miter;  fill: none;" r="1.4"></circle></g><circle transform="matrix(1.0,0.0,0.0,-1.0,87.94095225512604,-154.36230849243552)" style="stroke-width: 3.0px; stroke: hsla(40.0, 16.666666666666664%, 28.235294117647058%, 1.0); stroke-linecap: butt; stroke-linejoin: miter;  fill: none;" r="1.5"></circle></g><circle transform="matrix(1.0,0.0,0.0,-1.0,88.16778784387097,-171.3525491562421)" style="stroke-width: 3.0px; stroke: hsla(10.0, 16.666666666666664%, 28.235294117647058%, 1.0); stroke-linecap: butt; stroke-linejoin: miter;  fill: none;" r="1.6"></circle></g><circle transform="matrix(1.0,0.0,0.0,-1.0,87.42863869870268,-181.94726994270857)" style="stroke-width: 3.0px; stroke: hsla(191.6129032258065, 43.05555555555556%, 71.76470588235294%, 1.0); stroke-linecap: butt; stroke-linejoin: miter;  fill: none;" r="1.7"></circle></g><circle transform="matrix(1.0,0.0,0.0,-1.0,86.47172382160913,-185.959747633495)" style="stroke-width: 3.0px; stroke: hsla(12.000000000000002, 42.98642533936651%, 56.666666666666664%, 1.0); stroke-linecap: butt; stroke-linejoin: miter;  fill: none;" r="1.8"></circle></g><circle transform="matrix(1.0,0.0,0.0,-1.0,85.99721009691473,-183.50859014859805)" style="stroke-width: 3.0px; stroke: hsla(41.68421052631579, 42.98642533936651%, 56.666666666666664%, 1.0); stroke-linecap: butt; stroke-linejoin: miter;  fill: none;" r="1.9"></circle></g><circle transform="matrix(1.0,0.0,0.0,-1.0,86.60254037844388,-175.00000000000003)" style="stroke-width: 3.0px; stroke: hsla(40.0, 16.666666666666664%, 28.235294117647058%, 1.0); stroke-linecap: butt; stroke-linejoin: miter;  fill: none;" r="2.0"></circle></g><circle transform="matrix(1.0,0.0,0.0,-1.0,88.73552733193671,-161.09420334439673)" style="stroke-width: 3.0px; stroke: hsla(10.0, 16.666666666666664%, 28.235294117647058%, 1.0); stroke-linecap: butt; stroke-linejoin: miter;  fill: none;" r="2.0999999999999996"></circle></g><circle transform="matrix(1.0,0.0,0.0,-1.0,92.65847744427302,-142.65847744427305)" style="stroke-width: 3.0px; stroke: hsla(191.6129032258065, 43.05555555555556%, 71.76470588235294%, 1.0); stroke-linecap: butt; stroke-linejoin: miter;  fill: none;" r="2.2"></circle></g><circle transform="matrix(1.0,0.0,0.0,-1.0,98.42584879561738,-120.71002637312914)" style="stroke-width: 3.0px; stroke: hsla(12.000000000000002, 42.98642533936651%, 56.666666666666664%, 1.0); stroke-linecap: butt; stroke-linejoin: miter;  fill: none;" r="2.3"></circle></g><circle transform="matrix(1.0,0.0,0.0,-1.0,105.87701411601904,-96.35254915624213)" style="stroke-width: 3.0px; stroke: hsla(41.68421052631579, 42.98642533936651%, 56.666666666666664%, 1.0); stroke-linecap: butt; stroke-linejoin: miter;  fill: none;" r="2.4"></circle></g><circle transform="matrix(1.0,0.0,0.0,-1.0,114.64466094067262,-70.71067811865476)" style="stroke-width: 3.0px; stroke: hsla(40.0, 16.666666666666664%, 28.235294117647058%, 1.0); stroke-linecap: butt; stroke-linejoin: miter;  fill: none;" r="2.5"></circle></g><circle transform="matrix(1.0,0.0,0.0,-1.0,124.17828430524096,-44.866517654649066)" style="stroke-width: 3.0px; stroke: hsla(10.0, 16.666666666666664%, 28.235294117647058%, 1.0); stroke-linecap: butt; stroke-linejoin: miter;  fill: none;" r="2.6"></circle></g><circle transform="matrix(1.0,0.0,0.0,-1.0,133.78118785494476,-19.80228364647862)" style="stroke-width: 3.0px; stroke: hsla(191.6129032258065, 43.05555555555556%, 71.76470588235294%, 1.0); stroke-linecap: butt; stroke-linejoin: miter;  fill: none;" r="2.7"></circle></g><circle transform="matrix(1.0,0.0,0.0,-1.0,142.65847744427302,3.6474508437578805)" style="stroke-width: 3.0px; stroke: hsla(12.000000000000002, 42.98642533936651%, 56.666666666666664%, 1.0); stroke-linecap: butt; stroke-linejoin: miter;  fill: none;" r="2.8"></circle></g><circle transform="matrix(1.0,0.0,0.0,-1.0,149.97277090151613,24.831121558418776)" style="stroke-width: 3.0px; stroke: hsla(41.68421052631579, 42.98642533936651%, 56.666666666666664%, 1.0); stroke-linecap: butt; stroke-linejoin: miter;  fill: none;" r="2.9"></circle></g><circle transform="matrix(1.0,0.0,0.0,-1.0,154.90381056766577,43.30127018922193)" style="stroke-width: 3.0px; stroke: hsla(40.0, 16.666666666666664%, 28.235294117647058%, 1.0); stroke-linecap: butt; stroke-linejoin: miter;  fill: none;" r="3.0"></circle></g><circle transform="matrix(1.0,0.0,0.0,-1.0,156.70788821556948,58.82050881536199)" style="stroke-width: 3.0px; stroke: hsla(10.0, 16.666666666666664%, 28.235294117647058%, 1.0); stroke-linecap: butt; stroke-linejoin: miter;  fill: none;" r="3.0999999999999996"></circle></g><circle transform="matrix(1.0,0.0,0.0,-1.0,154.77299401083104,71.3525491562421)" style="stroke-width: 3.0px; stroke: hsla(191.6129032258065, 43.05555555555556%, 71.76470588235294%, 1.0); stroke-linecap: butt; stroke-linejoin: miter;  fill: none;" r="3.1999999999999997"></circle></g><circle transform="matrix(1.0,0.0,0.0,-1.0,148.66588226828216,81.03952721605808)" style="stroke-width: 3.0px; stroke: hsla(12.000000000000002, 42.98642533936651%, 56.666666666666664%, 1.0); stroke-linecap: butt; stroke-linejoin: miter;  fill: none;" r="3.3"></circle></g><circle transform="matrix(1.0,0.0,0.0,-1.0,138.16778784387097,88.16778784387097)" style="stroke-width: 3.0px; stroke: hsla(41.68421052631579, 42.98642533936651%, 56.666666666666664%, 1.0); stroke-linecap: butt; stroke-linejoin: miter;  fill: none;" r="3.4000000000000004"></circle></g><circle transform="matrix(1.0,0.0,0.0,-1.0,123.29629131445347,93.12506492285605)" style="stroke-width: 3.0px; stroke: hsla(40.0, 16.666666666666664%, 28.235294117647058%, 1.0); stroke-linecap: butt; stroke-linejoin: miter;  fill: none;" r="3.5"></circle></g><circle transform="matrix(1.0,0.0,0.0,-1.0,104.31176665059203,96.35254915624213)" style="stroke-width: 3.0px; stroke: hsla(10.0, 16.666666666666664%, 28.235294117647058%, 1.0); stroke-linecap: butt; stroke-linejoin: miter;  fill: none;" r="3.5999999999999996"></circle></g><circle transform="matrix(1.0,0.0,0.0,-1.0,81.70788821556951,98.29563956892781)" style="stroke-width: 3.0px; stroke: hsla(191.6129032258065, 43.05555555555556%, 71.76470588235294%, 1.0); stroke-linecap: butt; stroke-linejoin: miter;  fill: none;" r="3.7"></circle></g><circle transform="matrix(1.0,0.0,0.0,-1.0,56.18675362266401,99.35720725505112)" style="stroke-width: 3.0px; stroke: hsla(12.000000000000002, 42.98642533936651%, 56.666666666666664%, 1.0); stroke-linecap: butt; stroke-linejoin: miter;  fill: none;" r="3.8"></circle></g><circle transform="matrix(1.0,0.0,0.0,-1.0,28.62022174527415,99.85695977481726)" style="stroke-width: 3.0px; stroke: hsla(41.68421052631579, 42.98642533936651%, 56.666666666666664%, 1.0); stroke-linecap: butt; stroke-linejoin: miter;  fill: none;" r="3.9"></circle></g><circle transform="matrix(1.0,0.0,0.0,-1.0,2.4492935982947064E-14,100.0)" style="stroke-width: 3.0px; stroke: hsla(40.0, 16.666666666666664%, 28.235294117647058%, 1.0); stroke-linecap: butt; stroke-linejoin: miter;  fill: none;" r="4.0"></circle></g><circle transform="matrix(1.0,0.0,0.0,-1.0,-28.620221745273966,99.85695977481728)" style="stroke-width: 3.0px; stroke: hsla(10.0, 16.666666666666664%, 28.235294117647058%, 1.0); stroke-linecap: butt; stroke-linejoin: miter;  fill: none;" r="4.1"></circle></g><circle transform="matrix(1.0,0.0,0.0,-1.0,-56.18675362266383,99.3572072550511)" style="stroke-width: 3.0px; stroke: hsla(191.6129032258065, 43.05555555555556%, 71.76470588235294%, 1.0); stroke-linecap: butt; stroke-linejoin: miter;  fill: none;" r="4.2"></circle></g><circle transform="matrix(1.0,0.0,0.0,-1.0,-81.70788821556943,98.29563956892777)" style="stroke-width: 3.0px; stroke: hsla(12.000000000000002, 42.98642533936651%, 56.666666666666664%, 1.0); stroke-linecap: butt; stroke-linejoin: miter;  fill: none;" r="4.300000000000001"></circle></g><circle transform="matrix(1.0,0.0,0.0,-1.0,-104.31176665059192,96.35254915624203)" style="stroke-width: 3.0px; stroke: hsla(41.68421052631579, 42.98642533936651%, 56.666666666666664%, 1.0); stroke-linecap: butt; stroke-linejoin: miter;  fill: none;" r="4.4"></circle></g><circle transform="matrix(1.0,0.0,0.0,-1.0,-123.29629131445337,93.12506492285613)" style="stroke-width: 3.0px; stroke: hsla(40.9090909090909, 42.30769230769232%, 10.196078431372548%, 1.0); stroke-linecap: butt; stroke-linejoin: miter;  fill: none;" r="4.5"></circle></g><circle transform="matrix(1.0,0.0,0.0,-1.0,-138.16778784387097,88.16778784387097)" style="stroke-width: 3.0px; stroke: hsla(10.0, 16.666666666666664%, 28.235294117647058%, 1.0); stroke-linecap: butt; stroke-linejoin: miter;  fill: none;" r="4.6"></circle></g><circle transform="matrix(1.0,0.0,0.0,-1.0,-148.6658822682821,81.03952721605816)" style="stroke-width: 3.0px; stroke: hsla(191.6129032258065, 43.05555555555556%, 71.76470588235294%, 1.0); stroke-linecap: butt; stroke-linejoin: miter;  fill: none;" r="4.699999999999999"></circle></g><circle transform="matrix(1.0,0.0,0.0,-1.0,-154.77299401083107,71.3525491562421)" style="stroke-width: 3.0px; stroke: hsla(12.000000000000002, 42.98642533936651%, 56.666666666666664%, 1.0); stroke-linecap: butt; stroke-linejoin: miter;  fill: none;" r="4.8"></circle></g><circle transform="matrix(1.0,0.0,0.0,-1.0,-156.70788821556945,58.82050881536203)" style="stroke-width: 3.0px; stroke: hsla(41.68421052631579, 42.98642533936651%, 56.666666666666664%, 1.0); stroke-linecap: butt; stroke-linejoin: miter;  fill: none;" r="4.9"></circle></g><circle transform="matrix(1.0,0.0,0.0,-1.0,-154.9038105676658,43.3012701892219)" style="stroke-width: 3.0px; stroke: hsla(40.0, 16.666666666666664%, 28.235294117647058%, 1.0); stroke-linecap: butt; stroke-linejoin: miter;  fill: none;" r="5.0"></circle></g><circle transform="matrix(1.0,0.0,0.0,-1.0,-149.9727709015162,24.831121558418943)" style="stroke-width: 3.0px; stroke: hsla(10.0, 16.666666666666664%, 28.235294117647058%, 1.0); stroke-linecap: butt; stroke-linejoin: miter;  fill: none;" r="5.1"></circle></g><circle transform="matrix(1.0,0.0,0.0,-1.0,-142.65847744427305,3.6474508437579445)" style="stroke-width: 3.0px; stroke: hsla(191.6129032258065, 43.05555555555556%, 71.76470588235294%, 1.0); stroke-linecap: butt; stroke-linejoin: miter;  fill: none;" r="5.199999999999999"></circle></g><circle transform="matrix(1.0,0.0,0.0,-1.0,-133.78118785494485,-19.802283646478436)" style="stroke-width: 3.0px; stroke: hsla(12.000000000000002, 42.98642533936651%, 56.666666666666664%, 1.0); stroke-linecap: butt; stroke-linejoin: miter;  fill: none;" r="5.3"></circle></g><circle transform="matrix(1.0,0.0,0.0,-1.0,-124.17828430524108,-44.86651765464884)" style="stroke-width: 3.0px; stroke: hsla(41.68421052631579, 42.98642533936651%, 56.666666666666664%, 1.0); stroke-linecap: butt; stroke-linejoin: miter;  fill: none;" r="5.3999999999999995"></circle></g><circle transform="matrix(1.0,0.0,0.0,-1.0,-114.64466094067271,-70.71067811865466)" style="stroke-width: 3.0px; stroke: hsla(40.0, 16.666666666666664%, 28.235294117647058%, 1.0); stroke-linecap: butt; stroke-linejoin: miter;  fill: none;" r="5.5"></circle></g><circle transform="matrix(1.0,0.0,0.0,-1.0,-105.8770141160191,-96.35254915624202)" style="stroke-width: 3.0px; stroke: hsla(10.0, 16.666666666666664%, 28.235294117647058%, 1.0); stroke-linecap: butt; stroke-linejoin: miter;  fill: none;" r="5.6"></circle></g><circle transform="matrix(1.0,0.0,0.0,-1.0,-98.42584879561747,-120.71002637312894)" style="stroke-width: 3.0px; stroke: hsla(191.6129032258065, 43.05555555555556%, 71.76470588235294%, 1.0); stroke-linecap: butt; stroke-linejoin: miter;  fill: none;" r="5.699999999999999"></circle></g><circle transform="matrix(1.0,0.0,0.0,-1.0,-92.65847744427302,-142.65847744427302)" style="stroke-width: 3.0px; stroke: hsla(12.000000000000002, 42.98642533936651%, 56.666666666666664%, 1.0); stroke-linecap: butt; stroke-linejoin: miter;  fill: none;" r="5.800000000000001"></circle></g><circle transform="matrix(1.0,0.0,0.0,-1.0,-88.73552733193672,-161.09420334439665)" style="stroke-width: 3.0px; stroke: hsla(41.68421052631579, 42.98642533936651%, 56.666666666666664%, 1.0); stroke-linecap: butt; stroke-linejoin: miter;  fill: none;" r="5.9"></circle></g><circle transform="matrix(1.0,0.0,0.0,-1.0,-86.60254037844388,-174.99999999999994)" style="stroke-width: 3.0px; stroke: hsla(40.0, 16.666666666666664%, 28.235294117647058%, 1.0); stroke-linecap: butt; stroke-linejoin: miter;  fill: none;" r="6.0"></circle></g><circle transform="matrix(1.0,0.0,0.0,-1.0,-85.99721009691481,-183.50859014859805)" style="stroke-width: 3.0px; stroke: hsla(10.0, 16.666666666666664%, 28.235294117647058%, 1.0); stroke-linecap: butt; stroke-linejoin: miter;  fill: none;" r="6.1"></circle></g><circle transform="matrix(1.0,0.0,0.0,-1.0,-86.47172382160912,-185.9597476334949)" style="stroke-width: 3.0px; stroke: hsla(191.6129032258065, 43.05555555555556%, 71.76470588235294%, 1.0); stroke-linecap: butt; stroke-linejoin: miter;  fill: none;" r="6.199999999999999"></circle></g><circle transform="matrix(1.0,0.0,0.0,-1.0,-87.42863869870266,-181.94726994270866)" style="stroke-width: 3.0px; stroke: hsla(12.000000000000002, 42.98642533936651%, 56.666666666666664%, 1.0); stroke-linecap: butt; stroke-linejoin: miter;  fill: none;" r="6.299999999999999"></circle></g><circle transform="matrix(1.0,0.0,0.0,-1.0,-88.16778784387094,-171.35254915624213)" style="stroke-width: 3.0px; stroke: hsla(41.68421052631579, 42.98642533936651%, 56.666666666666664%, 1.0); stroke-linecap: butt; stroke-linejoin: miter;  fill: none;" r="6.4"></circle></g><circle transform="matrix(1.0,0.0,0.0,-1.0,-87.94095225512608,-154.36230849243566)" style="stroke-width: 3.0px; stroke: hsla(40.0, 16.666666666666664%, 28.235294117647058%, 1.0); stroke-linecap: butt; stroke-linejoin: miter;  fill: none;" r="6.5"></circle></g><circle transform="matrix(1.0,0.0,0.0,-1.0,-86.01049646137002,-131.46905803309303)" style="stroke-width: 3.0px; stroke: hsla(10.0, 16.666666666666664%, 28.235294117647058%, 1.0); stroke-linecap: butt; stroke-linejoin: miter;  fill: none;" r="6.6"></circle></g><circle transform="matrix(1.0,0.0,0.0,-1.0,-81.70788821556947,-103.45391402025936)" style="stroke-width: 3.0px; stroke: hsla(191.6129032258065, 43.05555555555556%, 71.76470588235294%, 1.0); stroke-linecap: butt; stroke-linejoin: miter;  fill: none;" r="6.699999999999999"></circle></g><circle transform="matrix(1.0,0.0,0.0,-1.0,-74.48802381188588,-71.35254915624225)" style="stroke-width: 3.0px; stroke: hsla(12.000000000000002, 42.98642533936651%, 56.666666666666664%, 1.0); stroke-linecap: butt; stroke-linejoin: miter;  fill: none;" r="6.8"></circle></g><circle transform="matrix(1.0,0.0,0.0,-1.0,-63.97556080460153,-36.406122011160946)" style="stroke-width: 3.0px; stroke: hsla(41.68421052631579, 42.98642533936651%, 56.666666666666664%, 1.0); stroke-linecap: butt; stroke-linejoin: miter;  fill: none;" r="6.8999999999999995"></circle></g><circle transform="matrix(1.0,0.0,0.0,-1.0,-50.000000000000036,-8.572527594031473E-14)" style="stroke-width: 3.0px; stroke: hsla(40.0, 16.666666666666664%, 28.235294117647058%, 1.0); stroke-linecap: butt; stroke-linejoin: miter;  fill: none;" r="7.0"></circle></g><circle transform="matrix(1.0,0.0,0.0,-1.0,-32.61702182430549,36.406122011160434)" style="stroke-width: 3.0px; stroke: hsla(10.0, 16.666666666666664%, 28.235294117647058%, 1.0); stroke-linecap: butt; stroke-linejoin: miter;  fill: none;" r="7.1"></circle></g><circle transform="matrix(1.0,0.0,0.0,-1.0,-12.11451656655819,71.35254915624175)" style="stroke-width: 3.0px; stroke: hsla(191.6129032258065, 43.05555555555556%, 71.76470588235294%, 1.0); stroke-linecap: butt; stroke-linejoin: miter;  fill: none;" r="7.199999999999999"></circle></g><circle transform="matrix(1.0,0.0,0.0,-1.0,10.9972100969147,103.45391402025922)" style="stroke-width: 3.0px; stroke: hsla(12.000000000000002, 42.98642533936651%, 56.666666666666664%, 1.0); stroke-linecap: butt; stroke-linejoin: miter;  fill: none;" r="7.300000000000001"></circle></g><circle transform="matrix(1.0,0.0,0.0,-1.0,36.010496461369875,131.4690580330928)" style="stroke-width: 3.0px; stroke: hsla(41.68421052631579, 42.98642533936651%, 56.666666666666664%, 1.0); stroke-linecap: butt; stroke-linejoin: miter;  fill: none;" r="7.4"></circle></g><circle transform="matrix(1.0,0.0,0.0,-1.0,62.05904774487367,154.36230849243535)" style="stroke-width: 3.0px; stroke: hsla(40.0, 16.666666666666664%, 28.235294117647058%, 1.0); stroke-linecap: butt; stroke-linejoin: miter;  fill: none;" r="7.5"></circle></g><circle transform="matrix(1.0,0.0,0.0,-1.0,88.1677878438708,171.35254915624208)" style="stroke-width: 3.0px; stroke: hsla(10.0, 16.666666666666664%, 28.235294117647058%, 1.0); stroke-linecap: butt; stroke-linejoin: miter;  fill: none;" r="7.6000000000000005"></circle></g><circle transform="matrix(1.0,0.0,0.0,-1.0,113.31054320895466,181.9472699427085)" style="stroke-width: 3.0px; stroke: hsla(191.6129032258065, 43.05555555555556%, 71.76470588235294%, 1.0); stroke-linecap: butt; stroke-linejoin: miter;  fill: none;" r="7.7"></circle></g><circle transform="matrix(1.0,0.0,0.0,-1.0,136.47172382160892,185.959747633495)" style="stroke-width: 3.0px; stroke: hsla(12.000000000000002, 42.98642533936651%, 56.666666666666664%, 1.0); stroke-linecap: butt; stroke-linejoin: miter;  fill: none;" r="7.8"></circle></g><circle transform="matrix(1.0,0.0,0.0,-1.0,156.7078882155694,183.50859014859807)" style="stroke-width: 3.0px; stroke: hsla(41.68421052631579, 42.98642533936651%, 56.666666666666664%, 1.0); stroke-linecap: butt; stroke-linejoin: miter;  fill: none;" r="7.8999999999999995"></circle></g><circle transform="matrix(1.0,0.0,0.0,-1.0,173.20508075688767,175.0)" style="stroke-width: 3.0px; stroke: hsla(40.9090909090909, 42.30769230769232%, 10.196078431372548%, 1.0); stroke-linecap: butt; stroke-linejoin: miter;  fill: none;" r="7.999999999999999"></circle></g><circle transform="matrix(1.0,0.0,0.0,-1.0,185.32810996084348,161.09420334439682)" style="stroke-width: 3.0px; stroke: hsla(10.0, 16.666666666666664%, 28.235294117647058%, 1.0); stroke-linecap: butt; stroke-linejoin: miter;  fill: none;" r="8.1"></circle></g><circle transform="matrix(1.0,0.0,0.0,-1.0,192.65847744427302,142.65847744427307)" style="stroke-width: 3.0px; stroke: hsla(191.6129032258065, 43.05555555555556%, 71.76470588235294%, 1.0); stroke-linecap: butt; stroke-linejoin: miter;  fill: none;" r="8.2"></circle></g><circle transform="matrix(1.0,0.0,0.0,-1.0,195.01843142452427,120.71002637312941)" style="stroke-width: 3.0px; stroke: hsla(12.000000000000002, 42.98642533936651%, 56.666666666666664%, 1.0); stroke-linecap: butt; stroke-linejoin: miter;  fill: none;" r="8.299999999999999"></circle></g><circle transform="matrix(1.0,0.0,0.0,-1.0,192.47955449446295,96.35254915624239)" style="stroke-width: 3.0px; stroke: hsla(41.68421052631579, 42.98642533936651%, 56.666666666666664%, 1.0); stroke-linecap: butt; stroke-linejoin: miter;  fill: none;" r="8.399999999999999"></circle></g><circle transform="matrix(1.0,0.0,0.0,-1.0,185.35533905932738,70.71067811865488)" style="stroke-width: 3.0px; stroke: hsla(40.0, 16.666666666666664%, 28.235294117647058%, 1.0); stroke-linecap: butt; stroke-linejoin: miter;  fill: none;" r="8.5"></circle></g><circle transform="matrix(1.0,0.0,0.0,-1.0,174.1782843052411,44.86651765464912)" style="stroke-width: 3.0px; stroke: hsla(10.0, 16.666666666666664%, 28.235294117647058%, 1.0); stroke-linecap: butt; stroke-linejoin: miter;  fill: none;" r="8.6"></circle></g><circle transform="matrix(1.0,0.0,0.0,-1.0,159.66309236519695,19.802283646478784)" style="stroke-width: 3.0px; stroke: hsla(191.6129032258065, 43.05555555555556%, 71.76470588235294%, 1.0); stroke-linecap: butt; stroke-linejoin: miter;  fill: none;" r="8.7"></circle></g><circle transform="matrix(1.0,0.0,0.0,-1.0,142.658477444273,-3.6474508437578166)" style="stroke-width: 3.0px; stroke: hsla(12.000000000000002, 42.98642533936651%, 56.666666666666664%, 1.0); stroke-linecap: butt; stroke-linejoin: miter;  fill: none;" r="8.8"></circle></g><circle transform="matrix(1.0,0.0,0.0,-1.0,124.0908663912644,-24.83112155841864)" style="stroke-width: 3.0px; stroke: hsla(41.68421052631579, 42.98642533936651%, 56.666666666666664%, 1.0); stroke-linecap: butt; stroke-linejoin: miter;  fill: none;" r="8.899999999999999"></circle></g><circle transform="matrix(1.0,0.0,0.0,-1.0,104.90381056766603,-43.301270189221945)" style="stroke-width: 3.0px; stroke: hsla(40.0, 16.666666666666664%, 28.235294117647058%, 1.0); stroke-linecap: butt; stroke-linejoin: miter;  fill: none;" r="9.0"></circle></g><circle transform="matrix(1.0,0.0,0.0,-1.0,85.99721009691483,-58.820508815362125)" style="stroke-width: 3.0px; stroke: hsla(10.0, 16.666666666666664%, 28.235294117647058%, 1.0); stroke-linecap: butt; stroke-linejoin: miter;  fill: none;" r="9.100000000000001"></circle></g><circle transform="matrix(1.0,0.0,0.0,-1.0,68.17045363238745,-71.35254915624195)" style="stroke-width: 3.0px; stroke: hsla(191.6129032258065, 43.05555555555556%, 71.76470588235294%, 1.0); stroke-linecap: butt; stroke-linejoin: miter;  fill: none;" r="9.2"></circle></g><circle transform="matrix(1.0,0.0,0.0,-1.0,52.07329963937545,-81.03952721605799)" style="stroke-width: 3.0px; stroke: hsla(12.000000000000002, 42.98642533936651%, 56.666666666666664%, 1.0); stroke-linecap: butt; stroke-linejoin: miter;  fill: none;" r="9.3"></circle></g><circle transform="matrix(1.0,0.0,0.0,-1.0,38.167787843871,-88.16778784387094)" style="stroke-width: 3.0px; stroke: hsla(41.68421052631579, 42.98642533936651%, 56.666666666666664%, 1.0); stroke-linecap: butt; stroke-linejoin: miter;  fill: none;" r="9.399999999999999"></circle></g><circle transform="matrix(1.0,0.0,0.0,-1.0,26.703708685546744,-93.1250649228559)" style="stroke-width: 3.0px; stroke: hsla(40.0, 16.666666666666664%, 28.235294117647058%, 1.0); stroke-linecap: butt; stroke-linejoin: miter;  fill: none;" r="9.5"></circle></g><circle transform="matrix(1.0,0.0,0.0,-1.0,17.709226272148207,-96.35254915624196)" style="stroke-width: 3.0px; stroke: hsla(10.0, 16.666666666666664%, 28.235294117647058%, 1.0); stroke-linecap: butt; stroke-linejoin: miter;  fill: none;" r="9.6"></circle></g><circle transform="matrix(1.0,0.0,0.0,-1.0,10.997210096914806,-98.2956395689277)" style="stroke-width: 3.0px; stroke: hsla(191.6129032258065, 43.05555555555556%, 71.76470588235294%, 1.0); stroke-linecap: butt; stroke-linejoin: miter;  fill: none;" r="9.7"></circle></g><circle transform="matrix(1.0,0.0,0.0,-1.0,6.186753622663883,-99.35720725505115)" style="stroke-width: 3.0px; stroke: hsla(12.000000000000002, 42.98642533936651%, 56.666666666666664%, 1.0); stroke-linecap: butt; stroke-linejoin: miter;  fill: none;" r="9.799999999999999"></circle></g><circle transform="matrix(1.0,0.0,0.0,-1.0,2.738317235021931,-99.85695977481728)" style="stroke-width: 3.0px; stroke: hsla(41.68421052631579, 42.98642533936651%, 56.666666666666664%, 1.0); stroke-linecap: butt; stroke-linejoin: miter;  fill: none;" r="9.899999999999999"></circle></g><circle transform="matrix(1.0,0.0,0.0,-1.0,-9.225055520567841E-14,-100.0)" style="stroke-width: 3.0px; stroke: hsla(40.0, 16.666666666666664%, 28.235294117647058%, 1.0); stroke-linecap: butt; stroke-linejoin: miter;  fill: none;" r="10.0"></circle></g><circle transform="matrix(1.0,0.0,0.0,-1.0,-2.738317235021986,-99.85695977481723)" style="stroke-width: 3.0px; stroke: hsla(10.0, 16.666666666666664%, 28.235294117647058%, 1.0); stroke-linecap: butt; stroke-linejoin: miter;  fill: none;" r="10.099999999999998"></circle></g><circle transform="matrix(1.0,0.0,0.0,-1.0,-6.186753622663918,-99.35720725505107)" style="stroke-width: 3.0px; stroke: hsla(191.6129032258065, 43.05555555555556%, 71.76470588235294%, 1.0); stroke-linecap: butt; stroke-linejoin: miter;  fill: none;" r="10.2"></circle></g><circle transform="matrix(1.0,0.0,0.0,-1.0,-10.99721009691477,-98.2956395689277)" style="stroke-width: 3.0px; stroke: hsla(12.000000000000002, 42.98642533936651%, 56.666666666666664%, 1.0); stroke-linecap: butt; stroke-linejoin: miter;  fill: none;" r="10.3"></circle></g><circle transform="matrix(1.0,0.0,0.0,-1.0,-17.709226272148,-96.35254915624212)" style="stroke-width: 3.0px; stroke: hsla(41.68421052631579, 42.98642533936651%, 56.666666666666664%, 1.0); stroke-linecap: butt; stroke-linejoin: miter;  fill: none;" r="10.399999999999999"></circle></g><circle transform="matrix(1.0,0.0,0.0,-1.0,-26.703708685546502,-93.12506492285613)" style="stroke-width: 3.0px; stroke: hsla(40.0, 16.666666666666664%, 28.235294117647058%, 1.0); stroke-linecap: butt; stroke-linejoin: miter;  fill: none;" r="10.5"></circle></g><circle transform="matrix(1.0,0.0,0.0,-1.0,-38.167787843870926,-88.16778784387098)" style="stroke-width: 3.0px; stroke: hsla(10.0, 16.666666666666664%, 28.235294117647058%, 1.0); stroke-linecap: butt; stroke-linejoin: miter;  fill: none;" r="10.600000000000001"></circle></g><circle transform="matrix(1.0,0.0,0.0,-1.0,-52.073299639375094,-81.03952721605835)" style="stroke-width: 3.0px; stroke: hsla(191.6129032258065, 43.05555555555556%, 71.76470588235294%, 1.0); stroke-linecap: butt; stroke-linejoin: miter;  fill: none;" r="10.7"></circle></g><circle transform="matrix(1.0,0.0,0.0,-1.0,-68.17045363238708,-71.35254915624242)" style="stroke-width: 3.0px; stroke: hsla(12.000000000000002, 42.98642533936651%, 56.666666666666664%, 1.0); stroke-linecap: butt; stroke-linejoin: miter;  fill: none;" r="10.8"></circle></g><circle transform="matrix(1.0,0.0,0.0,-1.0,-85.9972100969147,-58.82050881536223)" style="stroke-width: 3.0px; stroke: hsla(41.68421052631579, 42.98642533936651%, 56.666666666666664%, 1.0); stroke-linecap: butt; stroke-linejoin: miter;  fill: none;" r="10.899999999999999"></circle></g><circle transform="matrix(1.0,0.0,0.0,-1.0,-104.90381056766559,-43.301270189222244)" style="stroke-width: 3.0px; stroke: hsla(40.0, 16.666666666666664%, 28.235294117647058%, 1.0); stroke-linecap: butt; stroke-linejoin: miter;  fill: none;" r="11.0"></circle></g><circle transform="matrix(1.0,0.0,0.0,-1.0,-124.09086639126402,-24.83112155841902)" style="stroke-width: 3.0px; stroke: hsla(10.0, 16.666666666666664%, 28.235294117647058%, 1.0); stroke-linecap: butt; stroke-linejoin: miter;  fill: none;" r="11.1"></circle></g><circle transform="matrix(1.0,0.0,0.0,-1.0,-142.65847744427302,-3.647450843758236)" style="stroke-width: 3.0px; stroke: hsla(191.6129032258065, 43.05555555555556%, 71.76470588235294%, 1.0); stroke-linecap: butt; stroke-linejoin: miter;  fill: none;" r="11.2"></circle></g><circle transform="matrix(1.0,0.0,0.0,-1.0,-159.6630923651966,19.80228364647835)" style="stroke-width: 3.0px; stroke: hsla(12.000000000000002, 42.98642533936651%, 56.666666666666664%, 1.0); stroke-linecap: butt; stroke-linejoin: miter;  fill: none;" r="11.299999999999999"></circle></g><circle transform="matrix(1.0,0.0,0.0,-1.0,-174.17828430524088,44.86651765464885)" style="stroke-width: 3.0px; stroke: hsla(41.68421052631579, 42.98642533936651%, 56.666666666666664%, 1.0); stroke-linecap: butt; stroke-linejoin: miter;  fill: none;" r="11.399999999999999"></circle></g><circle transform="matrix(1.0,0.0,0.0,-1.0,-185.35533905932732,70.7106781186547)" style="stroke-width: 3.0px; stroke: hsla(40.0, 16.666666666666664%, 28.235294117647058%, 1.0); stroke-linecap: butt; stroke-linejoin: miter;  fill: none;" r="11.5"></circle></g><circle transform="matrix(1.0,0.0,0.0,-1.0,-192.47955449446286,96.35254915624171)" style="stroke-width: 3.0px; stroke: hsla(10.0, 16.666666666666664%, 28.235294117647058%, 1.0); stroke-linecap: butt; stroke-linejoin: miter;  fill: none;" r="11.599999999999998"></circle></g><circle transform="matrix(1.0,0.0,0.0,-1.0,-195.01843142452424,120.71002637312891)" style="stroke-width: 3.0px; stroke: hsla(191.6129032258065, 43.05555555555556%, 71.76470588235294%, 1.0); stroke-linecap: butt; stroke-linejoin: miter;  fill: none;" r="11.7"></circle></g><circle transform="matrix(1.0,0.0,0.0,-1.0,-192.65847744427302,142.658477444273)" style="stroke-width: 3.0px; stroke: hsla(12.000000000000002, 42.98642533936651%, 56.666666666666664%, 1.0); stroke-linecap: butt; stroke-linejoin: miter;  fill: none;" r="11.8"></circle></g><circle transform="matrix(1.0,0.0,0.0,-1.0,-185.32810996084368,161.09420334439648)" style="stroke-width: 3.0px; stroke: hsla(41.68421052631579, 42.98642533936651%, 56.666666666666664%, 1.0); stroke-linecap: butt; stroke-linejoin: miter;  fill: none;" r="11.899999999999999"></circle></g><circle transform="matrix(1.0,0.0,0.0,-1.0,-173.2050807568878,174.99999999999991)" style="stroke-width: 3.0px; stroke: hsla(40.0, 16.666666666666664%, 28.235294117647058%, 1.0); stroke-linecap: butt; stroke-linejoin: miter;  fill: none;" r="12.0"></circle></g><circle transform="matrix(1.0,0.0,0.0,-1.0,-156.70788821556957,183.50859014859807)" style="stroke-width: 3.0px; stroke: hsla(10.0, 16.666666666666664%, 28.235294117647058%, 1.0); stroke-linecap: butt; stroke-linejoin: miter;  fill: none;" r="12.100000000000001"></circle></g><circle transform="matrix(1.0,0.0,0.0,-1.0,-136.47172382160957,185.95974763349483)" style="stroke-width: 3.0px; stroke: hsla(191.6129032258065, 43.05555555555556%, 71.76470588235294%, 1.0); stroke-linecap: butt; stroke-linejoin: miter;  fill: none;" r="12.2"></circle></g><circle transform="matrix(1.0,0.0,0.0,-1.0,-113.31054320895505,181.94726994270854)" style="stroke-width: 3.0px; stroke: hsla(12.000000000000002, 42.98642533936651%, 56.666666666666664%, 1.0); stroke-linecap: butt; stroke-linejoin: miter;  fill: none;" r="12.3"></circle></g><circle transform="matrix(1.0,0.0,0.0,-1.0,-88.16778784387118,171.352549156242)" style="stroke-width: 3.0px; stroke: hsla(41.68421052631579, 42.98642533936651%, 56.666666666666664%, 1.0); stroke-linecap: butt; stroke-linejoin: miter;  fill: none;" r="12.399999999999999"></circle></g><circle transform="matrix(1.0,0.0,0.0,-1.0,-62.059047744874405,154.3623084924358)" style="stroke-width: 3.0px; stroke: hsla(40.0, 16.666666666666664%, 28.235294117647058%, 1.0); stroke-linecap: butt; stroke-linejoin: miter;  fill: none;" r="12.5"></circle></g><circle transform="matrix(1.0,0.0,0.0,-1.0,-36.01049646137032,131.4690580330931)" style="stroke-width: 3.0px; stroke: hsla(10.0, 16.666666666666664%, 28.235294117647058%, 1.0); stroke-linecap: butt; stroke-linejoin: miter;  fill: none;" r="12.6"></circle></g><circle transform="matrix(1.0,0.0,0.0,-1.0,-10.997210096914884,103.45391402025945)" style="stroke-width: 3.0px; stroke: hsla(191.6129032258065, 43.05555555555556%, 71.76470588235294%, 1.0); stroke-linecap: butt; stroke-linejoin: miter;  fill: none;" r="12.7"></circle></g><circle transform="matrix(1.0,0.0,0.0,-1.0,12.114516566557697,71.35254915624265)" style="stroke-width: 3.0px; stroke: hsla(12.000000000000002, 42.98642533936651%, 56.666666666666664%, 1.0); stroke-linecap: butt; stroke-linejoin: miter;  fill: none;" r="12.799999999999999"></circle></g><circle transform="matrix(1.0,0.0,0.0,-1.0,32.6170218243052,36.40612201116104)" style="stroke-width: 3.0px; stroke: hsla(41.68421052631579, 42.98642533936651%, 56.666666666666664%, 1.0); stroke-linecap: butt; stroke-linejoin: miter;  fill: none;" r="12.899999999999999"></circle></g><circle transform="matrix(1.0,0.0,0.0,-1.0,49.99999999999993,1.7145055188062946E-13)" style="stroke-width: 3.0px; stroke: hsla(40.0, 16.666666666666664%, 28.235294117647058%, 1.0); stroke-linecap: butt; stroke-linejoin: miter;  fill: none;" r="13.0"></circle></g></g></svg>