<svg xmlns="http://www.w3.org/2000/svg" width="432.0849703435399" height="414.08563852607415" viewBox="-216.04248517176995 -207.042819263037 432.0849703435399 414.08563852607415" style=""><g><defs></defs><path transform="matrix(1.0,0.0,0.0,-1.0,0.0,0.0)" style="stroke-width: 1.0px; stroke: hsla(240.0, 100.0%, 27.254901960784313%, 1.0); stroke-linecap: butt; stroke-linejoin: miter;  fill: none;" d="M 0,0 M 49.99999999999966,-8.819932876407295E-13 C 49.06904738409545,-2.0927403261659614 46.34185781862024,-8.380877995906348 44.41428430457437,-12.556441956991359 C 42.4867107905285,-16.73200591807637 40.491505631784584,-20.907510139277985 38.43455891572445,-25.05338376651095 C 36.37761219966432,-29.19925739374392 34.25446865244786,-33.33509527266019 32.072604008213574,-37.431683720389174 C 29.89073936397929,-41.52827216811816 27.644653522466825,-45.60490944113641 25.34337105031873,-49.632914452884876 C 23.042088578170638,-53.660919464633345 20.679093278498833,-57.65917818752374 18.26490917532501,-61.59971379088 C 15.850725072151185,-65.54024939423626 13.377856853160127,-69.44142278528142 10.858266431275794,-73.27612807302238 C 8.338676009391461,-77.11083336076332 5.763933911687033,-80.89679731402846 3.147366644019016,-84.60794551732572 C 0.5307993763509984,-88.31909372062296 -2.136904108498515,-91.97241420490286 -4.84113717473231,-95.54301729280584 C -7.545370240966105,-99.11362038070878 -10.2962656959616,-102.6176559711631 -13.078031753383755,-106.03156404474348 C -15.85979781080591,-109.44547211832383 -18.683322458306588,-112.78447094499289 -21.53173351926524,-116.0264657342881 C -24.380144580223895,-119.26846052358331 -27.265012393651574,-122.42765096360456 -30.168498119135684,-125.4835327805148 C -33.0719838446198,-128.53941459742506 -36.00626166183877,-131.50508908554409 -38.9526478721699,-134.3617566357495 C -41.899034082501025,-137.2184241859549 -44.87022312706575,-139.9780155703618 -47.846815381122454,-142.6235380817471 C -50.823407635179166,-145.26906059313242 -53.81852980785209,-147.8112105204858 -56.812201396510126,-150.23489170406137 C -59.80587298516817,-152.6585728876369 -62.81156124943266,-154.97319176178058 -65.80884491307071,-157.1656251832004 C -68.80612857670877,-159.3580586046202 -71.80872072871483,-161.43637672755747 -74.7959033783385,-163.38949223258024 C -77.78308602796216,-165.34260773760306 -80.76872111379605,-167.17721730824442 -83.73194081081272,-168.88431821333722 C -86.69516050782939,-170.59141911843003 -89.64987712930895,-172.1763068339184 -92.57522156043854,-173.63209766313705 C -95.50056599156812,-175.08788849235563 -98.4104017262011,-176.4184585679046 -101.28400739759022,-177.6190631886488 C -104.1576130689793,-178.81966780939297 -107.00870422036301,-179.8927553049335 -109.81685558877314,-180.8357253876021 C -112.62500695718326,-181.77869547027072 -115.40368784902908,-182.59256988526002 -118.13291560805104,-183.27688368466065 C -120.86214336707302,-183.96119748406124 -123.55504439730062,-184.5155566549871 -126.19222214290492,-184.9416081840057 C -128.82939988850922,-185.36765971302432 -131.42354356936286,-185.6636141208253 -133.9559820816768,-185.83319285877226 C -136.48842059399075,-186.00277159671927 -138.97131481987782,-186.04281926303713 -141.3868532167886,-185.9590806116876 C -143.8023916136994,-185.8753419603381 -146.16211942027937,-185.66333418158487 -148.44921246314155,-185.33076095067503 C -150.73630550600376,-184.99818771976516 -152.9616106117768,-184.5392859559398 -155.1094114739618,-183.9636412262285 C -157.25721233614684,-183.38799649651727 -159.337579791237,-182.68862079696828 -161.3360176362517,-181.87689257240757 C -163.33445548126642,-181.0651643478469 -165.26018678691756,-180.1329337582779 -167.10003854404994,-179.09327187886424 C -168.93989030118232,-178.0536099994506 -170.70217240744907,-176.89727545289063 -172.37512817904602,-175.63892129592577 C -174.048083950643,-174.3805671389609 -175.6390515884673,-173.00993738773704 -177.13777317363173,-171.54314693707502 C -178.6364947587961,-170.076356486413 -180.04928561571913,-168.5022176819497 -181.36745769003232,-166.83817859195358 C -182.68562976434552,-165.17413950195746 -183.91443207012207,-163.40816907409257 -185.04680561951085,-161.5589123970983 C -186.1791791688996,-159.70965572010408 -187.2192713177665,-157.76433124721206 -188.16169898636477,-155.7426385299882 C -189.10412665496304,-153.72094581276434 -189.95190855478248,-151.609449608041 -190.70137163110053,-149.42875609375514 C -191.45083470741858,-147.24806257946926 -192.1038506118924,-144.9841827469414 -192.65847744427302,-142.658477444273 C -193.21310427665367,-140.33277214160458 -193.6700569247017,-137.9308008776591 -194.02913262538436,-135.47452427774462 C -194.3882083260671,-133.01824767783015 -194.64896428179176,-130.49287761006107 -194.81293164836927,-127.92081784478611 C -194.97689901494678,-125.34875807951113 -195.04248517176995,-122.71497744441162 -195.01293682484936,-120.0421656860948 C -194.98338847792877,-117.369353927778 -194.8559797609355,-114.64234139218148 -194.63564156684578,-111.88394729488525 C -194.41530337275606,-109.125553197589 -194.09820174345546,-106.32057312574447 -193.69090766031115,-103.49180110231738 C -193.28361357716685,-100.6630290788903 -192.78121851420033,-97.79532803775153 -192.19187706797987,-94.91131515432272 C -191.60253562175936,-92.02730227089391 -190.92030631901252,-89.11200755062481 -190.15485898298812,-86.18772380174445 C -189.3894116469637,-83.26344005286406 -188.5338212365026,-80.31546095791695 -187.59919305183357,-77.36561266104044 C -186.6645648671645,-74.41576436416393 -185.6430470379238,-71.44969700273292 -184.54708987497384,-68.48863402048539 C -183.45113271202388,-65.52757103823787 -182.2720211556616,-62.55760730466033 -181.0234500741338,-59.59923476755528 C -179.774878992606,-56.64086223045023 -178.4473401649841,-53.68070363653079 -177.0556633858071,-50.7383987978551 C -175.66398660663012,-47.79609395917941 -174.19794634646289,-44.858870926745396 -172.6733893990718,-41.945405735501154 C -171.14883245168073,-39.03194054425691 -169.55489704663077,-36.13013772288991 -167.90832170146055,-33.25760765038965 C -166.26174635629033,-30.385077577889394 -164.55111869077896,-27.53046569914078 -162.79393732805042,-24.71022530049958 C -161.03675596532184,-21.889984901858373 -159.22114742318658,-19.093559624735125 -157.3652335250892,-16.336165258542437 C -155.5093196269918,-13.578770892349747 -153.60085845559422,-10.850699034982057 -151.65845393946609,-8.165859103343443 C -149.71604942333795,-5.481019171704831 -147.72718629349652,-2.830592661293624 -145.7108064283204,-0.22712566871076234 C -143.69442656314428,2.3763413238720994 -141.63783808112373,4.9407435158845745 -139.56017474840928,7.454942852153728 C -137.48251141569483,9.96914218842288 -135.37100235928497,12.440083926047151 -133.24482643203373,14.858070348904157 C -131.1186505047825,17.276056771761162 -128.96505556504823,19.64706631742777 -126.80311918490183,21.96286138929577 C -124.64118280475542,24.278656461163774 -122.45826861835012,26.54423965943381 -120.27320815115526,28.75284078011217 C -118.08814768396041,30.961441900790533 -115.88851593785371,33.117086989530854 -113.69275638173269,35.214468113365925 C -111.49699682561167,37.311849237200995 -109.29298920677677,39.35402336180817 -107.09865081442909,41.33712752312261 C -104.90431242208142,43.32023168443706 -102.70791816917507,45.246369258620284 -100.52672602764666,47.11309308125261 C -98.34553388611825,48.97981690388494 -96.1683006785642,50.788300026952435 -94.01149796525863,52.53747045891659 C -91.85469525195306,54.286640890880754 -89.70764414434124,55.97677209588195 -87.58590974781325,57.60811567303754 C -85.46417535128523,59.239459250193136 -83.35772042778942,60.81142691913107 -81.28109158609065,62.32553192185016 C -79.20446274439188,63.83963692456925 -77.14833612928095,65.29447376570825 -75.12613669762068,66.6927456893521 C -73.1039372659604,68.09101761299596 -71.10712008256782,69.43055265059208 -69.147894996129,70.71516346371328 C -67.18866990969018,71.99977427683449 -65.25932973169782,73.22657885494183 -63.37078617898771,74.40041056807934 C -61.48224262627759,75.57424228121683 -59.62767791234825,76.69157063019274 -57.816633679868275,77.75815374253823 C -56.005589447388296,78.8247368548837 -54.2321813933788,79.83646181142265 -52.504520784107825,80.79990924215217 C -50.77686017483685,81.76335667288167 -49.09003235756732,82.67390118154186 -47.45067002424242,83.53883832691525 C -45.81130769091752,84.40377547228864 -44.21549381422033,85.21804052823323 -42.668346784158416,85.9895321143925 C -41.1211997540965,86.76102370055179 -39.619819742116114,87.48431341934719 -38.167787843870926,88.16778784387098 C -36.71575594562572,88.85126226839479 -35.31120056066053,89.48920678901901 -33.95615539468723,90.09037866153531 C -32.60111022871393,90.69155053405164 -31.294734321780556,91.25002747557899 -30.03751684803109,91.77481907896892 C -28.780299374281622,92.29961068235885 -27.572423806631164,92.78466588301045 -26.41285055219045,93.23912828187486 C -25.253277297749733,93.69359068073926 -24.14319950133307,94.11135895008015 -23.08007732138679,94.50159347215542 C -22.016955141440505,94.8918279942307 -21.002968216347593,95.24845460520889 -20.034117472512754,95.58053541432656 C -19.065266728677916,95.91261622344422 -18.144686906470824,96.21417986080269 -17.26697285837774,96.4940783268614 C -16.38925881028466,96.7739767929201 -15.558461044417855,97.02641465830665 -14.76783318395426,97.25992621067871 C -13.977205323490663,97.49343776305078 -13.231666702242777,97.70247351509425 -12.523205695596161,97.89514764109374 C -11.814744688949544,98.08782176709325 -11.149095302996484,98.25889694697197 -10.517067144074552,98.41597096667569 C -9.88503898515262,98.57304498637943 -9.293119821595715,98.7112545462165 -8.731036742064571,98.83759175931611 C -8.168953662533427,98.96392897241572 -7.643881040362742,99.0739614854997 -7.144568666887697,99.17399424527332 C -6.645256293412651,99.27402700504695 -6.179492302469157,99.36011009369257 -5.7351625012142975,99.43778831795788 C -5.290832699959438,99.5154665422232 -4.87626105691123,99.58131801143391 -4.478589859358539,99.6400635908652 C -4.080918661805849,99.69880917029649 -3.70892535284136,99.74759428367332 -3.3491353158981525,99.79026179454563 C -2.989345278954945,99.83292930541792 -2.650903320192905,99.86722458438906 -2.319849637699294,99.89606865609903 C -1.9887959552056824,99.92491272780899 -1.6745535685215707,99.94667659672403 -1.3628132209364852,99.96332622480543 C -1.0510728733513997,99.97997585288682 -0.7514443477096777,99.99052639129043 -0.4494075521887808,99.99596642458744 C -0.1473707566678839,100.00140645788444 0.147370756668034,100.00140645788444 0.4494075521888963,99.99596642458744 C 0.7514443477097585,99.99052639129043 1.0510728733513215,99.97997585288687 1.3628132209363928,99.96332622480546 C 1.674553568521464,99.94667659672406 1.988795955205677,99.92491272780899 2.319849637699324,99.89606865609903 C 2.650903320192971,99.86722458438908 2.9893452789550525,99.83292930541798 3.3491353158982733,99.79026179454566 C 3.708925352841494,99.74759428367334 4.08091866180596,99.69880917029646 4.4785898593586495,99.64006359086514 C 4.876261056911339,99.58131801143385 5.29083269995955,99.51546654222314 5.735162501214411,99.43778831795784 C 6.179492302469273,99.36011009369254 6.6452562934127855,99.27402700504696 7.144568666887817,99.17399424527333 C 7.643881040362849,99.07396148549971 8.168953662533477,98.9639289724157 8.731036742064603,98.8375917593161 C 9.29311982159573,98.71125454621652 9.885038985152626,98.57304498637954 10.51706714407458,98.4159709666758 C 11.149095302996535,98.25889694697207 11.814744688949693,98.08782176709315 12.523205695596332,97.89514764109362 C 13.23166670224297,97.70247351509408 13.977205323490844,97.49343776305058 14.76783318395443,97.25992621067859 C 15.558461044418015,97.02641465830656 16.389258810284787,96.77397679292018 17.266972858377848,96.49407832686153 C 18.14468690647091,96.21417986080286 19.06526672867794,95.91261622344427 20.034117472512797,95.58053541432658 C 21.002968216347654,95.24845460520889 22.016955141440675,94.89182799423072 23.080077321386995,94.50159347215539 C 24.143199501333314,94.11135895008009 25.253277297749992,93.69359068073912 26.41285055219072,93.23912828187466 C 27.572423806631445,92.78466588301022 28.78029937428188,92.29961068235856 30.037516848031352,91.77481907896868 C 31.294734321780826,91.25002747557879 32.60111022871429,90.69155053405154 33.95615539468756,90.09037866153524 C 35.31120056066084,89.48920678901895 36.7157559456258,88.85126226839473 38.167787843871,88.16778784387094 C 39.61981974211619,87.48431341934717 41.12119975409678,86.7610237005519 42.66834678415874,85.98953211439259 C 44.2154938142207,85.21804052823325 45.811307690917836,84.40377547228839 47.45067002424275,83.53883832691493 C 49.09003235756765,82.67390118154147 50.776860174837225,81.76335667288126 52.50452078410821,80.7999092421518 C 54.2321813933792,79.83646181142235 56.005589447388736,78.82473685488368 57.81663367986868,77.75815374253825 C 59.62767791234862,76.69157063019284 61.48224262627772,75.57424228121681 63.37078617898783,74.40041056807928 C 65.25932973169795,73.22657885494176 67.18866990969052,71.99977427683437 69.1478949961294,70.7151634637131 C 71.10712008256827,69.43055265059182 73.10393726596082,68.09101761299553 75.12613669762109,66.69274568935163 C 77.14833612928136,65.29447376570772 79.20446274439227,63.839636924568744 81.28109158609104,62.32553192184969 C 83.3577204277898,60.81142691913063 85.46417535128575,59.23945925019283 87.5859097478137,57.6081156730373 C 89.70764414434164,55.976772095881756 91.8546952519532,54.28664089088062 94.01149796525878,52.53747045891647 C 96.16830067856436,50.78830002695232 98.34553388611876,48.9798169038848 100.52672602764723,47.1130930812524 C 102.70791816917568,45.24636925862 104.90431242208184,43.32023168443656 107.0986508144295,41.33712752312204 C 109.29298920677716,39.354023361807535 111.49699682561204,37.311849237200356 113.69275638173312,35.214468113365335 C 115.88851593785417,33.11708698953031 118.08814768396105,30.96144190079016 120.27320815115586,28.752840780111875 C 122.45826861835064,26.544239659433586 124.64118280475554,24.27865646116364 126.80311918490195,21.962861389295625 C 128.96505556504835,19.64706631742761 131.11865050478283,17.276056771760878 133.24482643203413,14.85807034890378 C 135.37100235928543,12.440083926046682 137.48251141569523,9.969142188422238 139.56017474840965,7.454942852153032 C 141.6378380811241,4.940743515883827 143.69442656314462,2.376341323871369 145.71080642832078,-0.22712566871145157 C 147.72718629349694,-2.830592661294272 149.7160494233384,-5.481019171705363 151.65845393946648,-8.165859103343891 C 153.60085845559456,-10.85069903498242 155.50931962699192,-13.578770892349965 157.3652335250893,-16.33616525854262 C 159.2211474231867,-19.093559624735278 161.0367559653223,-21.889984901858536 162.7939373280509,-24.71022530049983 C 164.5511186907795,-27.53046569914112 166.26174635629064,-30.38507757789009 167.9083217014608,-33.25760765039038 C 169.55489704663097,-36.13013772289067 171.14883245168076,-39.03194054425736 172.67338939907188,-41.945405735501566 C 174.197946346463,-44.85887092674577 175.6639866066305,-47.79609395917995 177.0556633858075,-50.738398797855645 C 178.44734016498452,-53.68070363653135 179.77487899260632,-56.64086223045072 181.02345007413405,-59.59923476755577 C 182.27202115566175,-62.55760730466082 183.45113271202396,-65.52757103823838 184.54708987497392,-68.48863402048595 C 185.64304703792388,-71.4496970027335 186.6645648671647,-74.41576436416464 187.59919305183374,-77.36561266104113 C 188.5338212365028,-80.31546095791761 189.3894116469637,-83.26344005286451 190.15485898298812,-86.18772380174485 C 190.92030631901252,-89.11200755062521 191.60253562175953,-92.02730227089437 192.19187706798004,-94.9113151543232 C 192.78121851420056,-97.79532803775203 193.28361357716696,-100.6630290788908 193.69090766031127,-103.49180110231787 C 194.09820174345558,-106.32057312574493 194.4153033727562,-109.1255531975893 194.6356415668459,-111.88394729488556 C 194.8559797609356,-114.64234139218182 194.98338847792886,-117.36935392777859 195.0129368248494,-120.0421656860954 C 195.04248517176995,-122.71497744441221 194.97689901494672,-125.34875807951146 194.8129316483692,-127.92081784478643 C 194.64896428179168,-130.4928776100614 194.38820832606697,-133.01824767783077 194.02913262538425,-135.47452427774525 C 193.67005692470153,-137.93080087765975 193.21310427665355,-140.33277214160498 192.65847744427296,-142.65847744427333 C 192.1038506118923,-144.98418274694168 191.4508347074185,-147.24806257946943 190.70137163110047,-149.42875609375534 C 189.95190855478236,-151.60944960804122 189.10412665496287,-153.72094581276477 188.16169898636457,-155.74263852998862 C 187.21927131776624,-157.76433124721248 186.1791791688995,-159.70965572010422 185.04680561951076,-161.55891239709842 C 183.914432070122,-163.40816907409263 182.68562976434524,-165.1741395019577 181.36745769003207,-166.8381785919539 C 180.04928561571884,-168.50221768195004 178.63649475879586,-170.0763564864133 177.1377731736315,-171.5431469370753 C 175.63905158846708,-173.0099373877373 174.04808395064285,-174.38056713896114 172.37512817904582,-175.638921295926 C 170.70217240744884,-176.89727545289085 168.93989030118192,-178.0536099994508 167.10003854404954,-179.0932718788644 C 165.26018678691716,-180.132933758278 163.3344554812663,-181.06516434784692 161.33601763625157,-181.8768925724076 C 159.33757979123686,-182.6886207969683 157.2572123361464,-183.38799649651742 155.1094114739613,-183.96364122622867 C 152.9616106117762,-184.53928595593993 150.73630550600302,-184.9981877197653 148.44921246314087,-185.33076095067509 C 146.16211942027874,-185.66333418158487 143.80239161369917,-185.8753419603379 141.3868532167884,-185.95908061168743 C 138.97131481987768,-186.04281926303693 136.4884205939903,-186.0027715967191 133.95598208167632,-185.83319285877215 C 131.42354356936235,-185.6636141208252 128.82939988850893,-185.36765971302427 126.19222214290464,-184.94160818400564 C 123.55504439730034,-184.51555665498702 120.86214336707258,-183.96119748406116 118.13291560805052,-183.27688368466053 C 115.40368784902846,-182.59256988525988 112.6250069571824,-181.77869547027043 109.81685558877228,-180.8357253876018 C 107.00870422036216,-179.8927553049332 104.15761306897878,-178.81966780939294 101.28400739758973,-177.61906318864874 C 98.41040172620069,-176.41845856790454 95.5005659915675,-175.08788849235535 92.57522156043797,-173.63209766313668 C 89.64987712930842,-172.17630683391806 86.69516050782916,-170.59141911842974 83.73194081081246,-168.88431821333694 C 80.76872111379576,-167.17721730824414 77.78308602796152,-165.34260773760275 74.79590337833774,-163.38949223257987 C 71.80872072871396,-161.436376727557 68.80612857670785,-159.3580586046195 65.80884491306985,-157.16562518319964 C 62.81156124943186,-154.97319176177982 59.80587298516782,-152.65857288763635 56.81220139650982,-150.23489170406083 C 53.81852980785183,-147.8112105204853 50.82340763517857,-145.26906059313174 47.846815381121864,-142.62353808174646 C 44.87022312706515,-139.97801557036118 41.89903408250072,-137.21842418595443 38.95264787216959,-134.3617566357491 C 36.006261661838465,-131.50508908554374 33.071983844619304,-128.53941459742464 30.16849811913511,-125.48353278051431 C 27.26501239365091,-122.42765096360397 24.380144580223046,-119.26846052358222 21.531733519264417,-116.02646573428702 C 18.683322458305785,-112.78447094499182 15.859797810805446,-109.44547211832348 13.078031753383335,-106.03156404474313 C 10.296265695961226,-102.61765597116278 7.545370240965533,-99.11362038070801 4.841137174731763,-95.54301729280502 C 2.1369041084979927,-91.97241420490202 -0.5307993763512613,-88.31909372062245 -3.147366644019286,-84.60794551732522 C -5.76393391168731,-80.89679731402798 -8.338676009391978,-77.11083336076267 -10.858266431276384,-73.27612807302157 C -13.377856853160788,-69.44142278528047 -15.85072507215195,-65.5402493942349 -18.26490917532572,-61.59971379087867 C -20.67909327849949,-57.65917818752243 -23.042088578170958,-53.66091946463254 -25.343371050319007,-49.63291445288412 C -27.644653522467056,-45.604909441135725 -29.890739363979744,-41.52827216811719 -32.07260400821403,-37.43168372038822 C -34.25446865244832,-33.33509527265925 -36.377612199664604,-29.199257393743284 -38.43455891572473,-25.053383766510343 C -40.491505631784854,-20.907510139277402 -42.48671079052888,-16.732005918075703 -44.414284304574785,-12.556441956990572 C -46.341857818620696,-8.380877995905442 -48.20518986827108,-4.185480652329837 -50.00000000000017,4.4099664382036475E-13 C -51.794810131729264,4.185480652330719 -53.52341177092628,8.380877995906028 -55.18314509494933,12.556441956991097 C -56.84287841897238,16.73200591807617 -58.434977116401434,20.90751013927792 -59.95839994413846,25.053383766510862 C -61.48182277187548,29.199257393743803 -62.93672938311875,33.33509527265979 -64.32368206137149,37.43168372038875 C -65.71063473962423,41.5282721681177 -67.02873342139736,45.60490944113614 -68.28011601365488,49.63291445288462 C -69.53149860591238,53.6609194646331 -70.71422812904062,57.65917818752333 -71.83197761491655,61.59971379087958 C -72.94972710079249,65.54024939423584 -73.999553732484,69.44142278528113 -74.98661292891052,73.27612807302214 C -75.97367212533703,77.11083336076314 -76.89405431911189,80.89679731402842 -77.75433279347564,84.60794551732563 C -78.6146112678394,88.31909372062285 -79.40995646532728,91.97241420490248 -80.148283775093,95.54301729280547 C -80.88661108485873,99.11362038070847 -81.56222499706243,102.61765597116319 -82.18429665206995,106.03156404474356 C -82.80636830707746,109.44547211832393 -83.3683971030922,112.7844709449926 -83.88071370513813,116.02646573428777 C -84.39303030718406,119.26846052358296 -84.84839619529032,122.42765096360436 -85.25819626434557,125.48353278051464 C -85.66799633340082,128.53941459742492 -86.02432707244152,131.50508908554409 -86.33951411946965,134.36175663574943 C -86.65470116649779,137.21842418595477 -86.92025409409187,139.97801557036152 -87.14931854651437,142.6235380817468 C -87.37838299893689,145.26906059313208 -87.56196420697347,147.81121052048564 -87.71390083400469,150.23489170406117 C -87.86583746103592,152.6585728876367 -87.97671678768513,154.97319176178016 -88.06093830870164,157.16562518319998 C -88.14515982971814,159.35805860461983 -88.19298237057659,161.4363767275573 -88.21922996010366,163.38949223258018 C -88.24547754963073,165.34260773760306 -88.24017241831696,167.1772173082444 -88.21842384586411,168.8843182133372 C -88.19667527341126,170.59141911842997 -88.1483623637265,172.17630683391826 -88.08873852538655,173.63209766313688 C -88.0291146870466,175.08788849235552 -87.94801020453188,176.41845856790474 -87.86068081582431,177.6190631886489 C -87.77335142711674,178.8196678093931 -87.66967296735253,179.89275530493327 -87.56476219314115,180.8357253876019 C -87.45985141892974,181.77869547027058 -87.34372337316073,182.59256988526008 -87.23121617055594,183.27688368466067 C -87.11870896795114,183.96119748406133 -87.00006903354232,184.51555665498714 -86.8897189775124,184.94160818400576 C -86.77936892148249,185.36765971302432 -86.66787648536554,185.66361412082526 -86.56911583437652,185.8331928587722 C -86.47035518338748,186.00277159671916 -86.37530233109634,186.04281926303693 -86.29715507157822,185.95908061168743 C -86.2190078120601,185.8753419603379 -86.14923369331832,185.66333418158487 -86.1002322772678,185.33076095067506 C -86.05123086121728,184.99818771976524 -86.01504011550465,184.53928595593982 -86.00314657527511,183.96364122622856 C -85.99125303504557,183.3879964965173 -85.99633894734393,182.6886207969683 -86.02887103589056,181.87689257240757 C -86.06140312443718,181.0651643478469 -86.11477614272678,180.13293375827786 -86.1983391065549,179.09327187886424 C -86.28190207038301,178.05360999945063 -86.38982427272008,176.89727545289074 -86.53024881885923,175.63892129592588 C -86.67067336499838,174.38056713896103 -86.83859941552326,173.00993738773704 -87.04088638338978,171.54314693707505 C -87.2431733512563,170.076356486413 -87.4756984316358,168.50221768194993 -87.74397062605843,166.8381785919538 C -88.01224282048106,165.17413950195768 -88.31305796651829,163.4081690740926 -88.65051954992549,161.55891239709834 C -88.9879811333327,159.7096557201041 -89.35983634622646,157.76433124721234 -89.76874012650163,155.74263852998845 C -90.17764390677682,153.7209458127646 -90.62231934528138,151.609449608041 -91.10394223157662,149.42875609375508 C -91.58556511787185,147.24806257946918 -92.10385061189238,144.9841827469414 -92.65847744427302,142.65847744427302 C -93.21310427665367,140.33277214160466 -93.80478733515487,137.93080087765932 -94.43170322586042,135.47452427774488 C -95.05861911656596,133.01824767783043 -95.72248153360563,130.49287761006116 -96.41997278850624,127.9208178447862 C -97.11746404340686,125.34875807951124 -97.85128713620308,122.7149774444119 -98.61665075526408,120.04216568609509 C -99.38201437432508,117.36935392777828 -100.18259281707134,114.64234139218149 -101.01215450287219,111.88394729488522 C -101.84171618867305,109.12555319758894 -102.70488033591566,106.3205731257445 -103.59402087006922,103.49180110231747 C -104.48316140422276,100.66302907889042 -105.40380792855605,97.7953280377517 -106.34699770779339,94.9113151543229 C -107.29018748703074,92.02730227089411 -108.26231808821346,89.11200755062504 -109.25315954549333,86.18772380174467 C -110.24400100277323,83.26344005286431 -111.26076887967366,80.31546095791724 -112.2920464514727,77.36561266104073 C -113.32332402327175,74.41576436416422 -114.37708773682289,71.44969700273313 -115.44082497628752,68.48863402048556 C -116.50456221575216,65.527571038238 -117.58694651087562,62.557607304660365 -118.67446988826055,59.59923476755531 C -119.76199326564547,56.640862230450246 -120.86395636334517,53.680703636530886 -121.96596524059709,50.73839879785523 C -123.067974117849,47.796093959179565 -124.17988093586011,44.85887092674557 -125.28652315177202,41.94540573550135 C -126.39316536768392,39.03194054425715 -127.5048660796045,36.13013772289032 -128.6058185360685,33.257607650389986 C -129.7067709925325,30.38507757788965 -130.8076842916578,27.530465699140624 -131.89223789055603,24.710225300499367 C -132.97679148945426,21.889984901858114 -134.05599188493375,19.093559624735096 -135.11314012945786,16.336165258542458 C -136.17028837398198,13.578770892349821 -137.2165968137323,10.850699034982128 -138.23512735770083,8.16585910334355 C -139.25365790166936,5.481019171704969 -140.25573498897563,2.8305926612937973 -141.224323393269,0.2271256687109755 C -142.19291179756237,-2.3763413238718463 -143.1393528467061,-4.940743515884203 -144.04665778346114,-7.45494285215338 C -144.95396272021623,-9.969142188422557 -145.8333938809541,-12.44008392604703 -146.66815301379947,-14.858070348904086 C -147.50291214664483,-17.27605677176114 -148.30408681805818,-19.6470663174277 -149.05521258053332,-21.962861389295714 C -149.80633834300846,-24.27865646116373 -150.51823309421832,-26.544239659433813 -151.17490758865029,-28.75284078011216 C -151.83158208308225,-30.9614419007905 -152.443491301612,-33.117086989530726 -152.99525954712516,-35.21446811336576 C -153.54702779263832,-37.311849237200796 -154.048656290774,-39.35402336180791 -154.48551706172933,-41.33712752312238 C -154.92237783268467,-43.32023168443686 -155.30393065795676,-45.246369258620255 -155.61642417285722,-47.113093081252615 C -155.92891768775766,-48.97981690388499 -156.18118640552495,-50.78830002695238 -156.36047815113207,-52.53747045891655 C -156.53976989673922,-54.28664089088073 -156.6542146406134,-55.97677209588207 -156.6921746465,-57.608115673037645 C -156.73013465238662,-59.23945925019322 -156.69896127168252,-60.81142691913097 -156.5882381864518,-62.32553192185001 C -156.4775151012211,-63.83963692456905 -156.29374677347178,-65.29447376570803 -156.02783613511576,-66.69274568935188 C -155.76192549675974,-68.09101761299573 -155.41946821729675,-69.43055265059186 -154.99277435631575,-70.71516346371311 C -154.56608049533472,-71.99977427683436 -154.0597819046419,-73.22657885494185 -153.46767296922965,-74.4004105680794 C -152.87556403381743,-75.57424228121694 -152.20126509643163,-76.69157063019294 -151.44012074384221,-77.75815374253837 C -150.6789763912528,-78.82473685488381 -149.83355549698263,-79.83646181142257 -148.90080685369318,-80.79990924215203 C -147.9680582104037,-81.7633566728815 -146.94946732910742,-82.67390118154175 -145.8436288841056,-83.53883832691517 C -144.7377904391038,-84.40377547228859 -143.54508302372153,-85.21804052823325 -142.26577618368242,-85.98953211439255 C -140.9864693436433,-86.76102370055185 -139.6198197421161,-87.48431341934713 -138.1677878438709,-88.16778784387097 C -136.71575594562572,-88.85126226839479 -135.17647015020745,-89.48920678901918 -133.5535847942113,-90.09037866153547 C -131.93069943821516,-90.69155053405177 -130.22121706996663,-91.25002747557892 -128.43047570789406,-91.7748190789688 C -126.63973434582151,-92.2996106823587 -124.76362184219819,-92.78466588301042 -122.80913662177593,-93.23912828187486 C -120.85465140135369,-93.69359068073929 -118.81658644519744,-94.11135895008003 -116.70356438536055,-94.50159347215532 C -114.59054232552366,-94.89182799423061 -112.39628962388726,-95.24845460520886 -110.13100426275457,-95.58053541432656 C -107.86571890162189,-95.91261622344426 -105.52209749211534,-96.2141798608028 -103.11185221856441,-96.49407832686151 C -100.70160694501347,-96.77397679292018 -98.21644927521682,-97.02641465830662 -95.66953262144898,-97.25992621067866 C -93.12261596768114,-97.4934377630507 -90.504719059072,-97.70247351509425 -87.83035229595734,-97.89514764109376 C -85.15598553284265,-98.08782176709326 -82.41505460409753,-98.258896946972 -79.62333204276095,-98.41597096667572 C -76.83160948142437,-98.57304498637943 -73.97819446638162,-98.7112545462165 -71.08001692793779,-98.83759175931613 C -68.18183938949396,-98.96392897241576 -65.22726484200184,-99.07396148549982 -62.23426681209791,-99.17399424527343 C -59.24126878219397,-99.27402700504706 -56.197557713071966,-99.36011009369257 -53.122028748514126,-99.43778831795785 C -50.04649978395628,-99.51546654222317 -46.92629202393777,-99.58131801143391 -43.7810930247509,-99.64006359086522 C -40.635894025564035,-99.69880917029654 -37.452359751962994,-99.74759428367334 -34.25083475339294,-99.79026179454564 C -31.049309754822882,-99.83292930541795 -27.816058858445725,-99.86722458438909 -24.57194303333056,-99.89606865609906 C -21.3278272082154,-99.92491272780904 -18.05881521038369,-99.94667659672406 -14.786139802701962,-99.96332622480546 C -11.513464395020236,-99.97997585288687 -8.222895652230592,-99.99052639129043 -4.935890587240201,-99.99596642458744 C -1.648885522249808,-100.00140645788444 1.6488855222500067,-100.00140645788444 4.935890587240394,-99.99596642458744 C 8.22289565223078,-99.99052639129043 11.51346439502037,-99.97997585288682 14.78613980270212,-99.96332622480543 C 18.05881521038387,-99.94667659672403 21.32782720821574,-99.924912727809 24.5719430333309,-99.89606865609903 C 27.81605885844606,-99.86722458438906 31.049309754823053,-99.83292930541789 34.25083475339308,-99.79026179454559 C 37.45235975196311,-99.74759428367328 40.63589402556422,-99.69880917029649 43.78109302475109,-99.6400635908652 C 46.92629202393795,-99.5813180114339 50.04649978395645,-99.51546654222312 53.12202874851427,-99.43778831795782 C 56.197557713072094,-99.36011009369253 59.24126878219408,-99.27402700504702 62.23426681209804,-99.1739942452734 C 65.227264842002,-99.07396148549977 68.18183938949414,-98.96392897241573 71.08001692793798,-98.8375917593161 C 73.97819446638181,-98.71125454621648 76.83160948142448,-98.57304498637934 79.62333204276106,-98.41597096667564 C 82.41505460409765,-98.25889694697192 85.15598553284276,-98.08782176709325 87.83035229595744,-97.89514764109373 C 90.50471905907212,-97.70247351509421 93.12261596768126,-97.49343776305062 95.6695326214491,-97.2599262106786 C 98.21644927521693,-97.02641465830656 100.70160694501361,-96.77397679292017 103.11185221856454,-96.49407832686151 C 105.52209749211546,-96.21417986080284 107.86571890162203,-95.91261622344427 110.13100426275471,-95.58053541432656 C 112.39628962388741,-95.24845460520885 114.59054232552374,-94.89182799423055 116.70356438536064,-94.50159347215526 C 118.81658644519752,-94.11135895007997 120.8546514013538,-93.6935906807392 122.80913662177605,-93.23912828187478 C 124.7636218421983,-92.78466588301035 126.63973434582162,-92.2996106823586 128.43047570789417,-91.77481907896872 C 130.22121706996674,-91.2500274755788 131.9306994382152,-90.69155053405167 133.55358479421136,-90.0903786615354 C 135.1764701502075,-89.4892067890191 136.71575594562577,-88.85126226839479 138.16778784387097,-88.16778784387097 C 139.61981974211616,-87.48431341934713 140.98646934364336,-86.7610237005518 142.26577618368248,-85.98953211439249 C 143.5450830237216,-85.21804052823317 144.73779043910386,-84.40377547228854 145.84362888410567,-83.5388383269151 C 146.94946732910748,-82.67390118154167 147.96805821040383,-81.76335667288134 148.90080685369327,-80.79990924215188 C 149.8335554969827,-79.83646181142241 150.67897639125283,-78.82473685488368 151.44012074384224,-77.75815374253827 C 152.20126509643163,-76.69157063019283 152.87556403381743,-75.57424228121684 153.46767296922968,-74.40041056807931 C 154.05978190464194,-73.22657885494178 154.56608049533477,-71.99977427683429 154.99277435631578,-70.71516346371304 C 155.4194682172968,-69.43055265059179 155.76192549675974,-68.0910176129957 156.02783613511576,-66.69274568935184 C 156.29374677347178,-65.29447376570796 156.47751510122114,-63.8396369245689 156.58823818645186,-62.325531921849844 C 156.69896127168258,-60.81142691913078 156.73013465238665,-59.23945925019304 156.6921746465,-57.60811567303749 C 156.65421464061336,-55.97677209588193 156.53976989673922,-54.286640890880676 156.36047815113207,-52.5374704589165 C 156.18118640552495,-50.78830002695232 155.92891768775766,-48.979816903884775 155.6164241728572,-47.1130930812524 C 155.30393065795673,-45.24636925862003 154.9223778326846,-43.32023168443671 154.48551706172927,-41.33712752312224 C 154.04865629077392,-39.35402336180777 153.54702779263832,-37.311849237200605 152.99525954712516,-35.21446811336557 C 152.443491301612,-33.117086989530534 151.83158208308228,-30.961441900790337 151.17490758865029,-28.752840780112017 C 150.5182330942183,-26.54423965943369 149.80633834300843,-24.278656461163646 149.0552125805333,-21.962861389295615 C 148.30408681805815,-19.647066317427587 147.50291214664477,-17.276056771760913 146.6681530137994,-14.858070348903858 C 145.83339388095405,-12.440083926046803 144.95396272021614,-9.969142188422445 144.0466577834611,-7.45494285215328 C 143.139352846706,-4.940743515884115 142.19291179756237,-2.3763413238717006 141.22432339326897,0.22712566871113182 C 140.2557349889756,2.8305926612939643 139.25365790166936,5.481019171705129 138.23512735770083,8.165859103343713 C 137.2165968137323,10.850699034982298 136.17028837398195,13.578770892349974 135.11314012945778,16.336165258542636 C 134.05599188493363,19.093559624735295 132.97679148945414,21.88998490185841 131.89223789055592,24.710225300499665 C 130.8076842916577,27.53046569914092 129.7067709925324,30.385077577889845 128.6058185360684,33.25760765039015 C 127.50486607960441,36.130137722890446 126.39316536768389,39.031940544257274 125.28652315177202,41.94540573550148 C 124.17988093586013,44.85887092674569 123.067974117849,47.79609395917972 121.96596524059706,50.73839879785539 C 120.86395636334514,53.680703636531064 119.7619932656454,56.64086223045041 118.67446988826048,59.59923476755549 C 117.58694651087553,62.557607304660564 116.50456221575205,65.52757103823825 115.44082497628742,68.48863402048582 C 114.37708773682277,71.44969700273339 113.3233240232717,74.41576436416445 112.29204645147266,77.36561266104093 C 111.26076887967365,80.31546095791741 110.24400100277323,83.26344005286441 109.25315954549336,86.18772380174477 C 108.26231808821349,89.11200755062514 107.29018748703072,92.02730227089431 106.34699770779338,94.91131515432308 C 105.40380792855603,97.79532803775187 104.4831614042228,100.66302907889043 103.59402087006924,103.49180110231748 C 102.70488033591569,106.32057312574453 101.841716188673,109.12555319758913 101.01215450287214,111.88394729488543 C 100.18259281707127,114.64234139218172 99.38201437432502,117.36935392777848 98.61665075526403,120.04216568609529 C 97.85128713620306,122.7149774444121 97.11746404340681,125.34875807951136 96.41997278850621,127.92081784478631 C 95.7224815336056,130.49287761006127 95.05861911656591,133.0182476778305 94.43170322586036,135.47452427774496 C 93.80478733515481,137.9308008776594 93.21310427665367,140.33277214160466 92.65847744427302,142.65847744427305 C 92.10385061189238,144.98418274694143 91.5855651178718,147.2480625794694 91.10394223157655,149.4287560937553 C 90.62231934528133,151.60944960804122 90.17764390677682,153.72094581276474 89.76874012650163,155.74263852998857 C 89.35983634622646,157.76433124721243 88.98798113333267,159.70965572010414 88.65051954992548,161.55891239709837 C 88.31305796651827,163.4081690740926 88.01224282048103,165.17413950195774 87.74397062605841,166.83817859195386 C 87.47569843163579,168.50221768195 87.24317335125623,170.0763564864131 87.0408863833897,171.5431469370751 C 86.83859941552318,173.0099373877371 86.67067336499838,174.38056713896108 86.53024881885925,175.638921295926 C 86.3898242727201,176.89727545289088 86.28190207038301,178.0536099994508 86.1983391065549,179.0932718788644 C 86.11477614272678,180.132933758278 86.0614031244372,181.0651643478469 86.02887103589057,181.87689257240757 C 85.99633894734393,182.68862079696828 85.99125303504552,183.3879964965173 86.00314657527505,183.96364122622856 C 86.01504011550458,184.53928595593982 86.05123086121723,184.99818771976516 86.10023227726776,185.33076095067503 C 86.1492336933183,185.66333418158482 86.21900781206007,185.87534196033792 86.29715507157822,185.95908061168745 C 86.37530233109635,186.042819263037 86.47035518338758,186.0027715967192 86.5691158343766,185.83319285877224 C 86.66787648536564,185.6636141208253 86.77936892148249,185.36765971302427 86.88971897751237,184.94160818400564 C 87.00006903354227,184.51555665498702 87.11870896795114,183.96119748406127 87.23121617055592,183.27688368466062 C 87.34372337316074,182.59256988526 87.45985141892983,181.7786954702705 87.5647621931412,180.83572538760188 C 87.66967296735261,179.89275530493327 87.77335142711672,178.81966780939297 87.8606808158243,177.6190631886488 C 87.94801020453185,176.4184585679046 88.02911468704657,175.08788849235552 88.08873852538656,173.63209766313685 C 88.1483623637265,172.17630683391818 88.19667527341123,170.5914191184298 88.21842384586407,168.884318213337 C 88.24017241831689,167.1772173082442 88.2454775496307,165.34260773760292 88.21922996010363,163.38949223258007 C 88.19298237057656,161.43637672755722 88.14515982971812,159.35805860461977 88.06093830870164,157.16562518319992 C 87.97671678768513,154.97319176178004 87.86583746103588,152.65857288763647 87.71390083400466,150.23489170406094 C 87.56196420697343,147.8112105204854 87.37838299893684,145.26906059313194 87.14931854651434,142.62353808174666 C 86.92025409409183,139.97801557036135 86.65470116649773,137.2184241859546 86.3395141194696,134.36175663574923 C 86.02432707244147,131.50508908554386 85.66799633340077,128.53941459742478 85.25819626434551,125.48353278051448 C 84.84839619529026,122.4276509636042 84.39303030718402,119.26846052358263 83.88071370513808,116.02646573428743 C 83.36839710309214,112.78447094499224 82.80636830707742,109.44547211832365 82.18429665206989,106.03156404474329 C 81.56222499706236,102.61765597116295 80.88661108485867,99.11362038070827 80.14828377509295,95.54301729280529 C 79.40995646532723,91.9724142049023 78.61461126783932,88.31909372062258 77.75433279347558,84.60794551732535 C 76.89405431911185,80.89679731402812 75.97367212533699,77.11083336076298 74.98661292891047,73.27612807302195 C 73.99955373248396,69.44142278528092 72.9497271007924,65.54024939423546 71.83197761491645,61.59971379087918 C 70.7142281290405,57.659178187522905 69.5314986059123,53.66091946463274 68.28011601365479,49.63291445288429 C 67.02873342139729,45.60490944113585 65.71063473962413,41.528272168117475 64.3236820613714,37.43168372038852 C 62.93672938311866,33.335095272659565 61.48182277187541,29.199257393743498 59.95839994413838,25.053383766510564 C 58.43497711640136,20.90751013927763 55.97902090314745,14.639265591910847 55.183145094949275,12.556441956990904 Z"></path></g></svg>