<svg width="367.72169188701037" height="107.13065021785413" viewBox="-183.86084594350518 -54.630650217854125 367.72169188701037 107.13065021785413" style=""><g><defs></defs><g><g><circle transform="matrix(1.0,0.0,0.0,-1.0,-131.36084594350518,0.0)" style="stroke-width: 5.0px; stroke: hsla(-60.0, 47.28682170542637%, 74.70588235294117%, 1.0); stroke-linecap: butt; stroke-linejoin: miter;  fill: none;" r="12.0"></circle><circle transform="matrix(1.0,0.0,0.0,-1.0,-131.36084594350518,0.0)" style="stroke-width: 5.0px; stroke: hsla(240.0, 63.503649635036496%, 26.862745098039216%, 1.0); stroke-linecap: butt; stroke-linejoin: miter;  fill: none;" r="30.0"></circle></g><g><g><path transform="matrix(1.0,0.0,0.0,-1.0,-64.23019572565104,0.0)" style="stroke-width: 5.0px; stroke: hsla(225.0, 72.72727272727272%, 56.86274509803921%, 1.0); stroke-linecap: butt; stroke-linejoin: miter;  fill: none;" d="M 0,0 M 0,0 M 8.485281374238571,8.48528137423857 L 1.0950412552816164,6.913818384165964 L -5.447885996874561,10.692078290260415 L -6.237045669318574,3.177933498176828 L -11.852260087141653,-1.8772135804827688 L -4.949747468305834,-4.949747468305832 L -1.8772135804827723,-11.852260087141651 L 3.1779334981768264,-6.237045669318576 L 10.692078290260413,-5.447885996874564 L 6.913818384165964,1.0950412552816142 L 8.485281374238571,8.485281374238568 Z"></path><path transform="matrix(1.0,0.0,0.0,-1.0,-64.23019572565104,0.0)" style="stroke-width: 5.0px; stroke: hsla(180.0, 100.0%, 25.098039215686274%, 1.0); stroke-linecap: butt; stroke-linejoin: miter;  fill: none;" d="M 0,0 M 0,0 M 21.213203435596427,21.213203435596423 L 2.346516975603464,14.815325108927066 L -13.619714992186402,26.730195725651036 L -13.365097862825516,6.809857496093203 L -29.630650217854132,-4.693033951206922 L -10.606601717798215,-10.606601717798211 L -4.693033951206931,-29.63065021785413 L 6.8098574960931995,-13.36509786282552 L 26.730195725651033,-13.61971499218641 L 14.815325108927066,2.346516975603459 L 21.21320343559643,21.21320343559642 Z"></path></g><g><g><circle transform="matrix(1.0,0.0,0.0,-1.0,0.0,0.0)" style="stroke-width: 5.0px; stroke: hsla(-60.0, 47.28682170542637%, 74.70588235294117%, 1.0); stroke-linecap: butt; stroke-linejoin: miter;  fill: none;" r="12.0"></circle><circle transform="matrix(1.0,0.0,0.0,-1.0,0.0,0.0)" style="stroke-width: 5.0px; stroke: hsla(240.0, 63.503649635036496%, 26.862745098039216%, 1.0); stroke-linecap: butt; stroke-linejoin: miter;  fill: none;" r="30.0"></circle></g><g><g><path transform="matrix(1.0,0.0,0.0,-1.0,67.13065021785414,0.0)" style="stroke-width: 5.0px; stroke: hsla(225.0, 72.72727272727272%, 56.86274509803921%, 1.0); stroke-linecap: butt; stroke-linejoin: miter;  fill: none;" d="M 0,0 M 0,0 M 8.485281374238571,8.48528137423857 L 1.0950412552816164,6.913818384165964 L -5.447885996874561,10.692078290260415 L -6.237045669318574,3.177933498176828 L -11.852260087141653,-1.8772135804827688 L -4.949747468305834,-4.949747468305832 L -1.8772135804827723,-11.852260087141651 L 3.1779334981768264,-6.237045669318576 L 10.692078290260413,-5.447885996874564 L 6.913818384165964,1.0950412552816142 L 8.485281374238571,8.485281374238568 Z"></path><path transform="matrix(1.0,0.0,0.0,-1.0,67.13065021785414,0.0)" style="stroke-width: 5.0px; stroke: hsla(180.0, 100.0%, 25.098039215686274%, 1.0); stroke-linecap: butt; stroke-linejoin: miter;  fill: none;" d="M 0,0 M 0,0 M 21.213203435596427,21.213203435596423 L 2.346516975603464,14.815325108927066 L -13.619714992186402,26.730195725651036 L -13.365097862825516,6.809857496093203 L -29.630650217854132,-4.693033951206922 L -10.606601717798215,-10.606601717798211 L -4.693033951206931,-29.63065021785413 L 6.8098574960931995,-13.36509786282552 L 26.730195725651033,-13.61971499218641 L 14.815325108927066,2.346516975603459 L 21.21320343559643,21.21320343559642 Z"></path></g><g><g><circle transform="matrix(1.0,0.0,0.0,-1.0,131.36084594350518,0.0)" style="stroke-width: 5.0px; stroke: hsla(-60.0, 47.28682170542637%, 74.70588235294117%, 1.0); stroke-linecap: butt; stroke-linejoin: miter;  fill: none;" r="12.0"></circle><circle transform="matrix(1.0,0.0,0.0,-1.0,131.36084594350518,0.0)" style="stroke-width: 5.0px; stroke: hsla(240.0, 63.503649635036496%, 26.862745098039216%, 1.0); stroke-linecap: butt; stroke-linejoin: miter;  fill: none;" r="30.0"></circle></g><g></g></g></g></g></g></g></g></svg>