<?xml version="1.0" encoding="UTF-8" standalone="no"?>
<!DOCTYPE svg PUBLIC "-//W3C//DTD SVG 1.1//EN" "http://www.w3.org/Graphics/SVG/1.1/DTD/svg11.dtd">
<svg xmlns:xlink="http://www.w3.org/1999/xlink" height="101.2472222222222mm" version="1.1" viewBox="0 0 736 287" width="259.64444444444445mm" x="0mm" y="0mm" xmlns="http://www.w3.org/2000/svg">
  <g transform="matrix(1 0 0 -1 368 143.5)">
    <path d="M-327.5,20.0 C-316.46169951012,20.0 -307.5,11.03830048988 -307.5,0.0 C-307.5,-11.03830048988 -316.46169951012,-20.0 -327.5,-20.0 C-338.53830048988,-20.0 -347.5,-11.03830048988 -347.5,0.0 C-347.5,11.03830048988 -338.53830048988,20.0 -327.5,20.0 Z" style="fill:none;stroke:rgb(0,0,0);stroke-miterlimit:10;"/>
    <path d="M-266.5,20.0 C-255.46169951012,20.0 -246.5,11.03830048988 -246.5,0.0 C-246.5,-11.03830048988 -255.46169951012,-20.0 -266.5,-20.0 C-277.53830048988,-20.0 -286.5,-11.03830048988 -286.5,0.0 C-286.5,11.03830048988 -277.53830048988,20.0 -266.5,20.0 Z" style="fill:none;stroke:rgb(0,0,0);stroke-miterlimit:10;"/>
    <path d="M-225.5,61.0 C-214.46169951012,61.0 -205.5,52.03830048988 -205.5,41.0 C-205.5,29.96169951012 -214.46169951012,21.0 -225.5,21.0 C-236.53830048988,21.0 -245.5,29.96169951012 -245.5,41.0 C-245.5,52.03830048988 -236.53830048988,61.0 -225.5,61.0 Z" style="fill:none;stroke:rgb(0,0,0);stroke-miterlimit:10;"/>
    <path d="M-225.5,20.0 C-214.46169951012,20.0 -205.5,11.03830048988 -205.5,0.0 C-205.5,-11.03830048988 -214.46169951012,-20.0 -225.5,-20.0 C-236.53830048988,-20.0 -245.5,-11.03830048988 -245.5,0.0 C-245.5,11.03830048988 -236.53830048988,20.0 -225.5,20.0 Z" style="fill:none;stroke:rgb(0,0,0);stroke-miterlimit:10;"/>
    <path d="M-225.5,-21.0 C-214.46169951012,-21.0 -205.5,-29.96169951012 -205.5,-41.0 C-205.5,-52.03830048988 -214.46169951012,-61.0 -225.5,-61.0 C-236.53830048988,-61.0 -245.5,-52.03830048988 -245.5,-41.0 C-245.5,-29.96169951012 -236.53830048988,-21.0 -225.5,-21.0 Z" style="fill:none;stroke:rgb(0,0,0);stroke-miterlimit:10;"/>
    <path d="M-184.5,20.0 C-173.46169951012,20.0 -164.5,11.03830048988 -164.5,0.0 C-164.5,-11.03830048988 -173.46169951012,-20.0 -184.5,-20.0 C-195.53830048988,-20.0 -204.5,-11.03830048988 -204.5,0.0 C-204.5,11.03830048988 -195.53830048988,20.0 -184.5,20.0 Z" style="fill:none;stroke:rgb(0,0,0);stroke-miterlimit:10;"/>
    <path d="M-123.5,20.0 C-112.46169951012,20.0 -103.5,11.03830048988 -103.5,0.0 C-103.5,-11.03830048988 -112.46169951012,-20.0 -123.5,-20.0 C-134.53830048988,-20.0 -143.5,-11.03830048988 -143.5,0.0 C-143.5,11.03830048988 -134.53830048988,20.0 -123.5,20.0 Z" style="fill:none;stroke:rgb(0,0,0);stroke-miterlimit:10;"/>
    <path d="M-41.5,102.0 C-30.46169951012,102.0 -21.5,93.03830048988 -21.5,82.0 C-21.5,70.96169951012 -30.46169951012,62.0 -41.5,62.0 C-52.53830048988,62.0 -61.5,70.96169951012 -61.5,82.0 C-61.5,93.03830048988 -52.53830048988,102.0 -41.5,102.0 Z" style="fill:none;stroke:rgb(0,0,0);stroke-miterlimit:10;"/>
    <path d="M-82.5,20.0 C-71.46169951012,20.0 -62.5,11.03830048988 -62.5,0.0 C-62.5,-11.03830048988 -71.46169951012,-20.0 -82.5,-20.0 C-93.53830048988,-20.0 -102.5,-11.03830048988 -102.5,0.0 C-102.5,11.03830048988 -93.53830048988,20.0 -82.5,20.0 Z" style="fill:none;stroke:rgb(0,0,0);stroke-miterlimit:10;"/>
    <path d="M-41.5,61.0 C-30.46169951012,61.0 -21.5,52.03830048988 -21.5,41.0 C-21.5,29.96169951012 -30.46169951012,21.0 -41.5,21.0 C-52.53830048988,21.0 -61.5,29.96169951012 -61.5,41.0 C-61.5,52.03830048988 -52.53830048988,61.0 -41.5,61.0 Z" style="fill:none;stroke:rgb(0,0,0);stroke-miterlimit:10;"/>
    <path d="M-41.5,20.0 C-30.46169951012,20.0 -21.5,11.03830048988 -21.5,0.0 C-21.5,-11.03830048988 -30.46169951012,-20.0 -41.5,-20.0 C-52.53830048988,-20.0 -61.5,-11.03830048988 -61.5,0.0 C-61.5,11.03830048988 -52.53830048988,20.0 -41.5,20.0 Z" style="fill:none;stroke:rgb(0,0,0);stroke-miterlimit:10;"/>
    <path d="M-41.5,-21.0 C-30.46169951012,-21.0 -21.5,-29.96169951012 -21.5,-41.0 C-21.5,-52.03830048988 -30.46169951012,-61.0 -41.5,-61.0 C-52.53830048988,-61.0 -61.5,-52.03830048988 -61.5,-41.0 C-61.5,-29.96169951012 -52.53830048988,-21.0 -41.5,-21.0 Z" style="fill:none;stroke:rgb(0,0,0);stroke-miterlimit:10;"/>
    <path d="M-0.5,20.0 C10.53830048988,20.0 19.5,11.03830048988 19.5,0.0 C19.5,-11.03830048988 10.53830048988,-20.0 -0.5,-20.0 C-11.53830048988,-20.0 -20.5,-11.03830048988 -20.5,0.0 C-20.5,11.03830048988 -11.53830048988,20.0 -0.5,20.0 Z" style="fill:none;stroke:rgb(0,0,0);stroke-miterlimit:10;"/>
    <path d="M-41.5,-62.0 C-30.46169951012,-62.0 -21.5,-70.96169951012 -21.5,-82.0 C-21.5,-93.03830048988 -30.46169951012,-102.0 -41.5,-102.0 C-52.53830048988,-102.0 -61.5,-93.03830048988 -61.5,-82.0 C-61.5,-70.96169951012 -52.53830048988,-62.0 -41.5,-62.0 Z" style="fill:none;stroke:rgb(0,0,0);stroke-miterlimit:10;"/>
    <path d="M40.5,20.0 C51.53830048988,20.0 60.5,11.03830048988 60.5,0.0 C60.5,-11.03830048988 51.53830048988,-20.0 40.5,-20.0 C29.46169951012,-20.0 20.5,-11.03830048988 20.5,0.0 C20.5,11.03830048988 29.46169951012,20.0 40.5,20.0 Z" style="fill:none;stroke:rgb(0,0,0);stroke-miterlimit:10;"/>
    <path d="M101.5,20.0 C112.53830048988,20.0 121.5,11.03830048988 121.5,0.0 C121.5,-11.03830048988 112.53830048988,-20.0 101.5,-20.0 C90.46169951012,-20.0 81.5,-11.03830048988 81.5,0.0 C81.5,11.03830048988 90.46169951012,20.0 101.5,20.0 Z" style="fill:none;stroke:rgb(0,0,0);stroke-miterlimit:10;"/>
    <path d="M224.5,143.0 C235.53830048988,143.0 244.5,134.03830048988 244.5,123.0 C244.5,111.96169951012 235.53830048988,103.0 224.5,103.0 C213.46169951012,103.0 204.5,111.96169951012 204.5,123.0 C204.5,134.03830048988 213.46169951012,143.0 224.5,143.0 Z" style="fill:none;stroke:rgb(0,0,0);stroke-miterlimit:10;"/>
    <path d="M142.5,20.0 C153.53830048988,20.0 162.5,11.03830048988 162.5,0.0 C162.5,-11.03830048988 153.53830048988,-20.0 142.5,-20.0 C131.46169951012,-20.0 122.5,-11.03830048988 122.5,0.0 C122.5,11.03830048988 131.46169951012,20.0 142.5,20.0 Z" style="fill:none;stroke:rgb(0,0,0);stroke-miterlimit:10;"/>
    <path d="M224.5,102.0 C235.53830048988,102.0 244.5,93.03830048988 244.5,82.0 C244.5,70.96169951012 235.53830048988,62.0 224.5,62.0 C213.46169951012,62.0 204.5,70.96169951012 204.5,82.0 C204.5,93.03830048988 213.46169951012,102.0 224.5,102.0 Z" style="fill:none;stroke:rgb(0,0,0);stroke-miterlimit:10;"/>
    <path d="M183.5,20.0 C194.53830048988,20.0 203.5,11.03830048988 203.5,0.0 C203.5,-11.03830048988 194.53830048988,-20.0 183.5,-20.0 C172.46169951012,-20.0 163.5,-11.03830048988 163.5,0.0 C163.5,11.03830048988 172.46169951012,20.0 183.5,20.0 Z" style="fill:none;stroke:rgb(0,0,0);stroke-miterlimit:10;"/>
    <path d="M224.5,61.0 C235.53830048988,61.0 244.5,52.03830048988 244.5,41.0 C244.5,29.96169951012 235.53830048988,21.0 224.5,21.0 C213.46169951012,21.0 204.5,29.96169951012 204.5,41.0 C204.5,52.03830048988 213.46169951012,61.0 224.5,61.0 Z" style="fill:none;stroke:rgb(0,0,0);stroke-miterlimit:10;"/>
    <path d="M224.5,20.0 C235.53830048988,20.0 244.5,11.03830048988 244.5,0.0 C244.5,-11.03830048988 235.53830048988,-20.0 224.5,-20.0 C213.46169951012,-20.0 204.5,-11.03830048988 204.5,0.0 C204.5,11.03830048988 213.46169951012,20.0 224.5,20.0 Z" style="fill:none;stroke:rgb(0,0,0);stroke-miterlimit:10;"/>
    <path d="M224.5,-21.0 C235.53830048988,-21.0 244.5,-29.96169951012 244.5,-41.0 C244.5,-52.03830048988 235.53830048988,-61.0 224.5,-61.0 C213.46169951012,-61.0 204.5,-52.03830048988 204.5,-41.0 C204.5,-29.96169951012 213.46169951012,-21.0 224.5,-21.0 Z" style="fill:none;stroke:rgb(0,0,0);stroke-miterlimit:10;"/>
    <path d="M265.5,20.0 C276.53830048988,20.0 285.5,11.03830048988 285.5,0.0 C285.5,-11.03830048988 276.53830048988,-20.0 265.5,-20.0 C254.46169951012,-20.0 245.5,-11.03830048988 245.5,0.0 C245.5,11.03830048988 254.46169951012,20.0 265.5,20.0 Z" style="fill:none;stroke:rgb(0,0,0);stroke-miterlimit:10;"/>
    <path d="M224.5,-62.0 C235.53830048988,-62.0 244.5,-70.96169951012 244.5,-82.0 C244.5,-93.03830048988 235.53830048988,-102.0 224.5,-102.0 C213.46169951012,-102.0 204.5,-93.03830048988 204.5,-82.0 C204.5,-70.96169951012 213.46169951012,-62.0 224.5,-62.0 Z" style="fill:none;stroke:rgb(0,0,0);stroke-miterlimit:10;"/>
    <path d="M306.5,20.0 C317.53830048988,20.0 326.5,11.03830048988 326.5,0.0 C326.5,-11.03830048988 317.53830048988,-20.0 306.5,-20.0 C295.46169951012,-20.0 286.5,-11.03830048988 286.5,0.0 C286.5,11.03830048988 295.46169951012,20.0 306.5,20.0 Z" style="fill:none;stroke:rgb(0,0,0);stroke-miterlimit:10;"/>
    <path d="M224.5,-103.0 C235.53830048988,-103.0 244.5,-111.96169951012 244.5,-123.0 C244.5,-134.03830048988 235.53830048988,-143.0 224.5,-143.0 C213.46169951012,-143.0 204.5,-134.03830048988 204.5,-123.0 C204.5,-111.96169951012 213.46169951012,-103.0 224.5,-103.0 Z" style="fill:none;stroke:rgb(0,0,0);stroke-miterlimit:10;"/>
    <path d="M347.5,20.0 C358.53830048988,20.0 367.5,11.03830048988 367.5,0.0 C367.5,-11.03830048988 358.53830048988,-20.0 347.5,-20.0 C336.46169951012,-20.0 327.5,-11.03830048988 327.5,0.0 C327.5,11.03830048988 336.46169951012,20.0 347.5,20.0 Z" style="fill:none;stroke:rgb(0,0,0);stroke-miterlimit:10;"/>
  </g>
</svg>
