<svg width="550.0" height="217.3205080756888" viewBox="-275.0 -108.6602540378444 550.0 217.3205080756888" style=""><g><defs></defs><g><g><g><g><g><g><path transform="matrix(1.0,0.0,0.0,-1.0,-240.0,0.0)" style="stroke-width: 5.0px; stroke: hsla(15.058823529411756, 100.0%, 50.0%, 1.0); stroke-linecap: butt; stroke-linejoin: miter;  fill: none;" d="M 0,0 M 0,0 M 10,0 L 5.000000000000001,8.660254037844386 L -4.999999999999998,8.660254037844387 L -10,1.2246467991473533E-15 L -5.000000000000004,-8.660254037844384 L 4.999999999999993,-8.66025403784439 L 10,-2.4492935982947065E-15 Z"></path><rect transform="matrix(1.0,0.0,0.0,-1.0,-210.0,0.0)" style="stroke: none; fill: none;" x="-15.0" y="-15.0" width="30.0" height="30.0"></rect></g><g><g><g><circle transform="matrix(1.0,0.0,0.0,-1.0,-182.5,0.0)" style="stroke-width: 5.0px; stroke: hsla(165.05882352941177, 100.0%, 50.0%, 1.0); stroke-linecap: butt; stroke-linejoin: miter;  fill: none;" r="5.0"></circle><g><circle transform="matrix(1.0,0.0,0.0,-1.0,-182.5,0.0)" style="stroke-width: 5.0px; stroke: hsla(180.05882352941177, 100.0%, 50.0%, 1.0); stroke-linecap: butt; stroke-linejoin: miter;  fill: none;" r="7.5"></circle><circle transform="matrix(1.0,0.0,0.0,-1.0,-182.5,0.0)" style="stroke-width: 5.0px; stroke: hsla(195.05882352941174, 100.0%, 50.0%, 1.0); stroke-linecap: butt; stroke-linejoin: miter;  fill: none;" r="10.0"></circle></g></g><g><g><g><circle transform="matrix(1.0,0.0,0.0,-1.0,-155.0,-26.16025403784439)" style="stroke-width: 5.0px; stroke: hsla(165.05882352941177, 100.0%, 50.0%, 1.0); stroke-linecap: butt; stroke-linejoin: miter;  fill: none;" r="5.0"></circle><g><circle transform="matrix(1.0,0.0,0.0,-1.0,-155.0,-26.16025403784439)" style="stroke-width: 5.0px; stroke: hsla(180.05882352941177, 100.0%, 50.0%, 1.0); stroke-linecap: butt; stroke-linejoin: miter;  fill: none;" r="7.5"></circle><circle transform="matrix(1.0,0.0,0.0,-1.0,-155.0,-26.16025403784439)" style="stroke-width: 5.0px; stroke: hsla(195.05882352941174, 100.0%, 50.0%, 1.0); stroke-linecap: butt; stroke-linejoin: miter;  fill: none;" r="10.0"></circle></g></g><path transform="matrix(1.0,0.0,0.0,-1.0,-155.0,-1.7763568394002505E-15)" style="stroke-width: 5.0px; stroke: hsla(15.058823529411756, 100.0%, 50.0%, 1.0); stroke-linecap: butt; stroke-linejoin: miter;  fill: none;" d="M 0,0 M 0,0 M 10,0 L 5.000000000000001,8.660254037844386 L -4.999999999999998,8.660254037844387 L -10,1.2246467991473533E-15 L -5.000000000000004,-8.660254037844384 L 4.999999999999993,-8.66025403784439 L 10,-2.4492935982947065E-15 Z"></path></g><g><circle transform="matrix(1.0,0.0,0.0,-1.0,-155.0,26.16025403784439)" style="stroke-width: 5.0px; stroke: hsla(165.05882352941177, 100.0%, 50.0%, 1.0); stroke-linecap: butt; stroke-linejoin: miter;  fill: none;" r="5.0"></circle><g><circle transform="matrix(1.0,0.0,0.0,-1.0,-155.0,26.16025403784439)" style="stroke-width: 5.0px; stroke: hsla(180.05882352941177, 100.0%, 50.0%, 1.0); stroke-linecap: butt; stroke-linejoin: miter;  fill: none;" r="7.5"></circle><circle transform="matrix(1.0,0.0,0.0,-1.0,-155.0,26.16025403784439)" style="stroke-width: 5.0px; stroke: hsla(195.05882352941174, 100.0%, 50.0%, 1.0); stroke-linecap: butt; stroke-linejoin: miter;  fill: none;" r="10.0"></circle></g></g></g></g><g><circle transform="matrix(1.0,0.0,0.0,-1.0,-127.5,0.0)" style="stroke-width: 5.0px; stroke: hsla(165.05882352941177, 100.0%, 50.0%, 1.0); stroke-linecap: butt; stroke-linejoin: miter;  fill: none;" r="5.0"></circle><g><circle transform="matrix(1.0,0.0,0.0,-1.0,-127.5,0.0)" style="stroke-width: 5.0px; stroke: hsla(180.05882352941177, 100.0%, 50.0%, 1.0); stroke-linecap: butt; stroke-linejoin: miter;  fill: none;" r="7.5"></circle><circle transform="matrix(1.0,0.0,0.0,-1.0,-127.5,0.0)" style="stroke-width: 5.0px; stroke: hsla(195.05882352941174, 100.0%, 50.0%, 1.0); stroke-linecap: butt; stroke-linejoin: miter;  fill: none;" r="10.0"></circle></g></g></g></g><rect transform="matrix(1.0,0.0,0.0,-1.0,-100.0,0.0)" style="stroke: none; fill: none;" x="-15.0" y="-15.0" width="30.0" height="30.0"></rect></g><g><g><g><circle transform="matrix(1.0,0.0,0.0,-1.0,-72.5,0.0)" style="stroke-width: 5.0px; stroke: hsla(165.05882352941177, 100.0%, 50.0%, 1.0); stroke-linecap: butt; stroke-linejoin: miter;  fill: none;" r="5.0"></circle><g><circle transform="matrix(1.0,0.0,0.0,-1.0,-72.5,0.0)" style="stroke-width: 5.0px; stroke: hsla(180.05882352941177, 100.0%, 50.0%, 1.0); stroke-linecap: butt; stroke-linejoin: miter;  fill: none;" r="7.5"></circle><circle transform="matrix(1.0,0.0,0.0,-1.0,-72.5,0.0)" style="stroke-width: 5.0px; stroke: hsla(195.05882352941174, 100.0%, 50.0%, 1.0); stroke-linecap: butt; stroke-linejoin: miter;  fill: none;" r="10.0"></circle></g></g><g><g><g><circle transform="matrix(1.0,0.0,0.0,-1.0,-20.0,-51.16025403784439)" style="stroke-width: 5.0px; stroke: hsla(165.05882352941177, 100.0%, 50.0%, 1.0); stroke-linecap: butt; stroke-linejoin: miter;  fill: none;" r="5.0"></circle><g><circle transform="matrix(1.0,0.0,0.0,-1.0,-20.0,-51.16025403784439)" style="stroke-width: 5.0px; stroke: hsla(180.05882352941177, 100.0%, 50.0%, 1.0); stroke-linecap: butt; stroke-linejoin: miter;  fill: none;" r="7.5"></circle><circle transform="matrix(1.0,0.0,0.0,-1.0,-20.0,-51.16025403784439)" style="stroke-width: 5.0px; stroke: hsla(195.05882352941174, 100.0%, 50.0%, 1.0); stroke-linecap: butt; stroke-linejoin: miter;  fill: none;" r="10.0"></circle></g></g><g><g><g><circle transform="matrix(1.0,0.0,0.0,-1.0,-47.5,0.0)" style="stroke-width: 5.0px; stroke: hsla(165.05882352941177, 100.0%, 50.0%, 1.0); stroke-linecap: butt; stroke-linejoin: miter;  fill: none;" r="5.0"></circle><g><circle transform="matrix(1.0,0.0,0.0,-1.0,-47.5,0.0)" style="stroke-width: 5.0px; stroke: hsla(180.05882352941177, 100.0%, 50.0%, 1.0); stroke-linecap: butt; stroke-linejoin: miter;  fill: none;" r="7.5"></circle><circle transform="matrix(1.0,0.0,0.0,-1.0,-47.5,0.0)" style="stroke-width: 5.0px; stroke: hsla(195.05882352941174, 100.0%, 50.0%, 1.0); stroke-linecap: butt; stroke-linejoin: miter;  fill: none;" r="10.0"></circle></g></g><g><g><g><circle transform="matrix(1.0,0.0,0.0,-1.0,-20.0,-26.16025403784439)" style="stroke-width: 5.0px; stroke: hsla(165.05882352941177, 100.0%, 50.0%, 1.0); stroke-linecap: butt; stroke-linejoin: miter;  fill: none;" r="5.0"></circle><g><circle transform="matrix(1.0,0.0,0.0,-1.0,-20.0,-26.16025403784439)" style="stroke-width: 5.0px; stroke: hsla(180.05882352941177, 100.0%, 50.0%, 1.0); stroke-linecap: butt; stroke-linejoin: miter;  fill: none;" r="7.5"></circle><circle transform="matrix(1.0,0.0,0.0,-1.0,-20.0,-26.16025403784439)" style="stroke-width: 5.0px; stroke: hsla(195.05882352941174, 100.0%, 50.0%, 1.0); stroke-linecap: butt; stroke-linejoin: miter;  fill: none;" r="10.0"></circle></g></g><path transform="matrix(1.0,0.0,0.0,-1.0,-20.0,-1.7763568394002505E-15)" style="stroke-width: 5.0px; stroke: hsla(15.058823529411756, 100.0%, 50.0%, 1.0); stroke-linecap: butt; stroke-linejoin: miter;  fill: none;" d="M 0,0 M 0,0 M 10,0 L 5.000000000000001,8.660254037844386 L -4.999999999999998,8.660254037844387 L -10,1.2246467991473533E-15 L -5.000000000000004,-8.660254037844384 L 4.999999999999993,-8.66025403784439 L 10,-2.4492935982947065E-15 Z"></path></g><g><circle transform="matrix(1.0,0.0,0.0,-1.0,-20.0,26.16025403784439)" style="stroke-width: 5.0px; stroke: hsla(165.05882352941177, 100.0%, 50.0%, 1.0); stroke-linecap: butt; stroke-linejoin: miter;  fill: none;" r="5.0"></circle><g><circle transform="matrix(1.0,0.0,0.0,-1.0,-20.0,26.16025403784439)" style="stroke-width: 5.0px; stroke: hsla(180.05882352941177, 100.0%, 50.0%, 1.0); stroke-linecap: butt; stroke-linejoin: miter;  fill: none;" r="7.5"></circle><circle transform="matrix(1.0,0.0,0.0,-1.0,-20.0,26.16025403784439)" style="stroke-width: 5.0px; stroke: hsla(195.05882352941174, 100.0%, 50.0%, 1.0); stroke-linecap: butt; stroke-linejoin: miter;  fill: none;" r="10.0"></circle></g></g></g></g><g><circle transform="matrix(1.0,0.0,0.0,-1.0,7.5,0.0)" style="stroke-width: 5.0px; stroke: hsla(165.05882352941177, 100.0%, 50.0%, 1.0); stroke-linecap: butt; stroke-linejoin: miter;  fill: none;" r="5.0"></circle><g><circle transform="matrix(1.0,0.0,0.0,-1.0,7.5,0.0)" style="stroke-width: 5.0px; stroke: hsla(180.05882352941177, 100.0%, 50.0%, 1.0); stroke-linecap: butt; stroke-linejoin: miter;  fill: none;" r="7.5"></circle><circle transform="matrix(1.0,0.0,0.0,-1.0,7.5,0.0)" style="stroke-width: 5.0px; stroke: hsla(195.05882352941174, 100.0%, 50.0%, 1.0); stroke-linecap: butt; stroke-linejoin: miter;  fill: none;" r="10.0"></circle></g></g></g></g><g><circle transform="matrix(1.0,0.0,0.0,-1.0,-20.0,51.16025403784439)" style="stroke-width: 5.0px; stroke: hsla(165.05882352941177, 100.0%, 50.0%, 1.0); stroke-linecap: butt; stroke-linejoin: miter;  fill: none;" r="5.0"></circle><g><circle transform="matrix(1.0,0.0,0.0,-1.0,-20.0,51.16025403784439)" style="stroke-width: 5.0px; stroke: hsla(180.05882352941177, 100.0%, 50.0%, 1.0); stroke-linecap: butt; stroke-linejoin: miter;  fill: none;" r="7.5"></circle><circle transform="matrix(1.0,0.0,0.0,-1.0,-20.0,51.16025403784439)" style="stroke-width: 5.0px; stroke: hsla(195.05882352941174, 100.0%, 50.0%, 1.0); stroke-linecap: butt; stroke-linejoin: miter;  fill: none;" r="10.0"></circle></g></g></g></g><g><circle transform="matrix(1.0,0.0,0.0,-1.0,32.5,0.0)" style="stroke-width: 5.0px; stroke: hsla(165.05882352941177, 100.0%, 50.0%, 1.0); stroke-linecap: butt; stroke-linejoin: miter;  fill: none;" r="5.0"></circle><g><circle transform="matrix(1.0,0.0,0.0,-1.0,32.5,0.0)" style="stroke-width: 5.0px; stroke: hsla(180.05882352941177, 100.0%, 50.0%, 1.0); stroke-linecap: butt; stroke-linejoin: miter;  fill: none;" r="7.5"></circle><circle transform="matrix(1.0,0.0,0.0,-1.0,32.5,0.0)" style="stroke-width: 5.0px; stroke: hsla(195.05882352941174, 100.0%, 50.0%, 1.0); stroke-linecap: butt; stroke-linejoin: miter;  fill: none;" r="10.0"></circle></g></g></g></g><rect transform="matrix(1.0,0.0,0.0,-1.0,60.0,0.0)" style="stroke: none; fill: none;" x="-15.0" y="-15.0" width="30.0" height="30.0"></rect></g><g><g><g><circle transform="matrix(1.0,0.0,0.0,-1.0,87.5,0.0)" style="stroke-width: 5.0px; stroke: hsla(165.05882352941177, 100.0%, 50.0%, 1.0); stroke-linecap: butt; stroke-linejoin: miter;  fill: none;" r="5.0"></circle><g><circle transform="matrix(1.0,0.0,0.0,-1.0,87.5,0.0)" style="stroke-width: 5.0px; stroke: hsla(180.05882352941177, 100.0%, 50.0%, 1.0); stroke-linecap: butt; stroke-linejoin: miter;  fill: none;" r="7.5"></circle><circle transform="matrix(1.0,0.0,0.0,-1.0,87.5,0.0)" style="stroke-width: 5.0px; stroke: hsla(195.05882352941174, 100.0%, 50.0%, 1.0); stroke-linecap: butt; stroke-linejoin: miter;  fill: none;" r="10.0"></circle></g></g><g><g><g><circle transform="matrix(1.0,0.0,0.0,-1.0,165.0,-76.1602540378444)" style="stroke-width: 5.0px; stroke: hsla(165.05882352941177, 100.0%, 50.0%, 1.0); stroke-linecap: butt; stroke-linejoin: miter;  fill: none;" r="5.0"></circle><g><circle transform="matrix(1.0,0.0,0.0,-1.0,165.0,-76.1602540378444)" style="stroke-width: 5.0px; stroke: hsla(180.05882352941177, 100.0%, 50.0%, 1.0); stroke-linecap: butt; stroke-linejoin: miter;  fill: none;" r="7.5"></circle><circle transform="matrix(1.0,0.0,0.0,-1.0,165.0,-76.1602540378444)" style="stroke-width: 5.0px; stroke: hsla(195.05882352941174, 100.0%, 50.0%, 1.0); stroke-linecap: butt; stroke-linejoin: miter;  fill: none;" r="10.0"></circle></g></g><g><g><g><circle transform="matrix(1.0,0.0,0.0,-1.0,112.5,7.105427357601002E-15)" style="stroke-width: 5.0px; stroke: hsla(165.05882352941177, 100.0%, 50.0%, 1.0); stroke-linecap: butt; stroke-linejoin: miter;  fill: none;" r="5.0"></circle><g><circle transform="matrix(1.0,0.0,0.0,-1.0,112.5,7.105427357601002E-15)" style="stroke-width: 5.0px; stroke: hsla(180.05882352941177, 100.0%, 50.0%, 1.0); stroke-linecap: butt; stroke-linejoin: miter;  fill: none;" r="7.5"></circle><circle transform="matrix(1.0,0.0,0.0,-1.0,112.5,7.105427357601002E-15)" style="stroke-width: 5.0px; stroke: hsla(195.05882352941174, 100.0%, 50.0%, 1.0); stroke-linecap: butt; stroke-linejoin: miter;  fill: none;" r="10.0"></circle></g></g><g><g><g><circle transform="matrix(1.0,0.0,0.0,-1.0,165.0,-51.16025403784438)" style="stroke-width: 5.0px; stroke: hsla(165.05882352941177, 100.0%, 50.0%, 1.0); stroke-linecap: butt; stroke-linejoin: miter;  fill: none;" r="5.0"></circle><g><circle transform="matrix(1.0,0.0,0.0,-1.0,165.0,-51.16025403784438)" style="stroke-width: 5.0px; stroke: hsla(180.05882352941177, 100.0%, 50.0%, 1.0); stroke-linecap: butt; stroke-linejoin: miter;  fill: none;" r="7.5"></circle><circle transform="matrix(1.0,0.0,0.0,-1.0,165.0,-51.16025403784438)" style="stroke-width: 5.0px; stroke: hsla(195.05882352941174, 100.0%, 50.0%, 1.0); stroke-linecap: butt; stroke-linejoin: miter;  fill: none;" r="10.0"></circle></g></g><g><g><g><circle transform="matrix(1.0,0.0,0.0,-1.0,137.5,7.105427357601002E-15)" style="stroke-width: 5.0px; stroke: hsla(165.05882352941177, 100.0%, 50.0%, 1.0); stroke-linecap: butt; stroke-linejoin: miter;  fill: none;" r="5.0"></circle><g><circle transform="matrix(1.0,0.0,0.0,-1.0,137.5,7.105427357601002E-15)" style="stroke-width: 5.0px; stroke: hsla(180.05882352941177, 100.0%, 50.0%, 1.0); stroke-linecap: butt; stroke-linejoin: miter;  fill: none;" r="7.5"></circle><circle transform="matrix(1.0,0.0,0.0,-1.0,137.5,7.105427357601002E-15)" style="stroke-width: 5.0px; stroke: hsla(195.05882352941174, 100.0%, 50.0%, 1.0); stroke-linecap: butt; stroke-linejoin: miter;  fill: none;" r="10.0"></circle></g></g><g><g><g><circle transform="matrix(1.0,0.0,0.0,-1.0,165.0,-26.160254037844382)" style="stroke-width: 5.0px; stroke: hsla(165.05882352941177, 100.0%, 50.0%, 1.0); stroke-linecap: butt; stroke-linejoin: miter;  fill: none;" r="5.0"></circle><g><circle transform="matrix(1.0,0.0,0.0,-1.0,165.0,-26.160254037844382)" style="stroke-width: 5.0px; stroke: hsla(180.05882352941177, 100.0%, 50.0%, 1.0); stroke-linecap: butt; stroke-linejoin: miter;  fill: none;" r="7.5"></circle><circle transform="matrix(1.0,0.0,0.0,-1.0,165.0,-26.160254037844382)" style="stroke-width: 5.0px; stroke: hsla(195.05882352941174, 100.0%, 50.0%, 1.0); stroke-linecap: butt; stroke-linejoin: miter;  fill: none;" r="10.0"></circle></g></g><path transform="matrix(1.0,0.0,0.0,-1.0,165.0,5.329070518200751E-15)" style="stroke-width: 5.0px; stroke: hsla(15.058823529411756, 100.0%, 50.0%, 1.0); stroke-linecap: butt; stroke-linejoin: miter;  fill: none;" d="M 0,0 M 0,0 M 10,0 L 5.000000000000001,8.660254037844386 L -4.999999999999998,8.660254037844387 L -10,1.2246467991473533E-15 L -5.000000000000004,-8.660254037844384 L 4.999999999999993,-8.66025403784439 L 10,-2.4492935982947065E-15 Z"></path></g><g><circle transform="matrix(1.0,0.0,0.0,-1.0,165.0,26.160254037844396)" style="stroke-width: 5.0px; stroke: hsla(165.05882352941177, 100.0%, 50.0%, 1.0); stroke-linecap: butt; stroke-linejoin: miter;  fill: none;" r="5.0"></circle><g><circle transform="matrix(1.0,0.0,0.0,-1.0,165.0,26.160254037844396)" style="stroke-width: 5.0px; stroke: hsla(180.05882352941177, 100.0%, 50.0%, 1.0); stroke-linecap: butt; stroke-linejoin: miter;  fill: none;" r="7.5"></circle><circle transform="matrix(1.0,0.0,0.0,-1.0,165.0,26.160254037844396)" style="stroke-width: 5.0px; stroke: hsla(195.05882352941174, 100.0%, 50.0%, 1.0); stroke-linecap: butt; stroke-linejoin: miter;  fill: none;" r="10.0"></circle></g></g></g></g><g><circle transform="matrix(1.0,0.0,0.0,-1.0,192.5,7.105427357601002E-15)" style="stroke-width: 5.0px; stroke: hsla(165.05882352941177, 100.0%, 50.0%, 1.0); stroke-linecap: butt; stroke-linejoin: miter;  fill: none;" r="5.0"></circle><g><circle transform="matrix(1.0,0.0,0.0,-1.0,192.5,7.105427357601002E-15)" style="stroke-width: 5.0px; stroke: hsla(180.05882352941177, 100.0%, 50.0%, 1.0); stroke-linecap: butt; stroke-linejoin: miter;  fill: none;" r="7.5"></circle><circle transform="matrix(1.0,0.0,0.0,-1.0,192.5,7.105427357601002E-15)" style="stroke-width: 5.0px; stroke: hsla(195.05882352941174, 100.0%, 50.0%, 1.0); stroke-linecap: butt; stroke-linejoin: miter;  fill: none;" r="10.0"></circle></g></g></g></g><g><circle transform="matrix(1.0,0.0,0.0,-1.0,165.0,51.160254037844396)" style="stroke-width: 5.0px; stroke: hsla(165.05882352941177, 100.0%, 50.0%, 1.0); stroke-linecap: butt; stroke-linejoin: miter;  fill: none;" r="5.0"></circle><g><circle transform="matrix(1.0,0.0,0.0,-1.0,165.0,51.160254037844396)" style="stroke-width: 5.0px; stroke: hsla(180.05882352941177, 100.0%, 50.0%, 1.0); stroke-linecap: butt; stroke-linejoin: miter;  fill: none;" r="7.5"></circle><circle transform="matrix(1.0,0.0,0.0,-1.0,165.0,51.160254037844396)" style="stroke-width: 5.0px; stroke: hsla(195.05882352941174, 100.0%, 50.0%, 1.0); stroke-linecap: butt; stroke-linejoin: miter;  fill: none;" r="10.0"></circle></g></g></g></g><g><circle transform="matrix(1.0,0.0,0.0,-1.0,217.5,7.105427357601002E-15)" style="stroke-width: 5.0px; stroke: hsla(165.05882352941177, 100.0%, 50.0%, 1.0); stroke-linecap: butt; stroke-linejoin: miter;  fill: none;" r="5.0"></circle><g><circle transform="matrix(1.0,0.0,0.0,-1.0,217.5,7.105427357601002E-15)" style="stroke-width: 5.0px; stroke: hsla(180.05882352941177, 100.0%, 50.0%, 1.0); stroke-linecap: butt; stroke-linejoin: miter;  fill: none;" r="7.5"></circle><circle transform="matrix(1.0,0.0,0.0,-1.0,217.5,7.105427357601002E-15)" style="stroke-width: 5.0px; stroke: hsla(195.05882352941174, 100.0%, 50.0%, 1.0); stroke-linecap: butt; stroke-linejoin: miter;  fill: none;" r="10.0"></circle></g></g></g></g><g><circle transform="matrix(1.0,0.0,0.0,-1.0,165.0,76.1602540378444)" style="stroke-width: 5.0px; stroke: hsla(165.05882352941177, 100.0%, 50.0%, 1.0); stroke-linecap: butt; stroke-linejoin: miter;  fill: none;" r="5.0"></circle><g><circle transform="matrix(1.0,0.0,0.0,-1.0,165.0,76.1602540378444)" style="stroke-width: 5.0px; stroke: hsla(180.05882352941177, 100.0%, 50.0%, 1.0); stroke-linecap: butt; stroke-linejoin: miter;  fill: none;" r="7.5"></circle><circle transform="matrix(1.0,0.0,0.0,-1.0,165.0,76.1602540378444)" style="stroke-width: 5.0px; stroke: hsla(195.05882352941174, 100.0%, 50.0%, 1.0); stroke-linecap: butt; stroke-linejoin: miter;  fill: none;" r="10.0"></circle></g></g></g></g><g><circle transform="matrix(1.0,0.0,0.0,-1.0,242.5,0.0)" style="stroke-width: 5.0px; stroke: hsla(165.05882352941177, 100.0%, 50.0%, 1.0); stroke-linecap: butt; stroke-linejoin: miter;  fill: none;" r="5.0"></circle><g><circle transform="matrix(1.0,0.0,0.0,-1.0,242.5,0.0)" style="stroke-width: 5.0px; stroke: hsla(180.05882352941177, 100.0%, 50.0%, 1.0); stroke-linecap: butt; stroke-linejoin: miter;  fill: none;" r="7.5"></circle><circle transform="matrix(1.0,0.0,0.0,-1.0,242.5,0.0)" style="stroke-width: 5.0px; stroke: hsla(195.05882352941174, 100.0%, 50.0%, 1.0); stroke-linecap: butt; stroke-linejoin: miter;  fill: none;" r="10.0"></circle></g></g></g></g></g></svg>