<svg width="400.6393310302416" height="150.8797770100805" viewBox="-200.3196655151208 -74.19416651541837 400.6393310302416 150.8797770100805" style=""><g><defs></defs><g><path transform="matrix(1.0,0.0,0.0,-1.0,-126.12549899970242,0.0)" style="stroke-width: 7.0px; stroke: hsla(25.0, 67.9245283018868%, 41.56862745098039%, 1.0); stroke-linecap: butt; stroke-linejoin: miter;  fill: none;" d="M 0,0 M 0,0 M 35.35533905932738,35.35533905932737 L 11.55976716843085,33.03591656079286 L -5.59822380516539,49.68561049466213 L -18.621122678036777,29.635346972989947 L -42.336209961414205,26.601603825766833 L -34.77992734626349,3.9187566636157793 L -47.19416651541838,-16.513953097758346 L -24.748737341529168,-24.74873734152916 L -16.513953097758364,-47.194166515418374 L 3.9187566636157687,-34.77992734626349 L 26.601603825766816,-42.33620996141421 L 29.63534697298994,-18.621122678036787 L 49.68561049466213,-5.5982238051654045 L 33.03591656079287,11.559767168430838 L 35.355339059327385,35.35533905932737 Z"></path><g><path transform="matrix(1.0,0.0,0.0,-1.0,-24.68455529270554,0.0)" style="stroke-width: 7.0px; stroke: hsla(20.0, 67.9245283018868%, 41.56862745098039%, 1.0); stroke-linecap: butt; stroke-linejoin: miter;  fill: none;" d="M 0,0 M 0,0 M 28.284271247461902,28.2842712474619 L 9.24781373474468,26.42873324863429 L -4.478579044132312,39.7484883957297 L -14.896898142429421,23.708277578391957 L -33.86896796913136,21.281283060613468 L -27.823941877010792,3.1350053308926236 L -37.755333212334705,-13.211162478206678 L -19.798989873223334,-19.798989873223327 L -13.21116247820669,-37.7553332123347 L 3.135005330892615,-27.823941877010792 L 21.281283060613454,-33.86896796913137 L 23.708277578391954,-14.89689814242943 L 39.7484883957297,-4.478579044132323 L 26.428733248634295,9.247813734744671 L 28.28427124746191,28.284271247461895 Z"></path><g><path transform="matrix(1.0,0.0,0.0,-1.0,57.3804330122752,0.0)" style="stroke-width: 7.0px; stroke: hsla(15.0, 67.9245283018868%, 41.56862745098039%, 1.0); stroke-linecap: butt; stroke-linejoin: miter;  fill: none;" d="M 0,0 M 0,0 M 21.213203435596427,21.213203435596423 L 6.9358603010585105,19.82154993647572 L -3.358934283099234,29.811366296797278 L -11.172673606822066,17.781208183793968 L -25.401725976848525,15.960962295460101 L -20.867956407758093,2.351253998169468 L -28.31649990925103,-9.908371858655007 L -14.8492424049175,-14.849242404917497 L -9.908371858655018,-28.316499909251025 L 2.351253998169461,-20.867956407758093 L 15.96096229546009,-25.401725976848528 L 17.781208183793964,-11.172673606822073 L 29.811366296797278,-3.358934283099243 L 19.821549936475723,6.935860301058503 L 21.21320343559643,21.21320343559642 Z"></path><g><path transform="matrix(1.0,0.0,0.0,-1.0,120.06946591523982,0.0)" style="stroke-width: 7.0px; stroke: hsla(10.0, 67.9245283018868%, 41.56862745098039%, 1.0); stroke-linecap: butt; stroke-linejoin: miter;  fill: none;" d="M 0,0 M 0,0 M 14.142135623730951,14.14213562373095 L 4.62390686737234,13.214366624317146 L -2.239289522066156,19.87424419786485 L -7.448449071214711,11.854138789195979 L -16.93448398456568,10.640641530306734 L -13.911970938505396,1.5675026654463118 L -18.877666606167352,-6.605581239103339 L -9.899494936611667,-9.899494936611664 L -6.605581239103345,-18.87766660616735 L 1.5675026654463076,-13.911970938505396 L 10.640641530306727,-16.934483984565684 L 11.854138789195977,-7.448449071214715 L 19.87424419786485,-2.2392895220661617 L 13.214366624317147,4.623906867372336 L 14.142135623730955,14.142135623730947 Z"></path><g><path transform="matrix(1.0,0.0,0.0,-1.0,163.38254341618835,0.0)" style="stroke-width: 7.0px; stroke: hsla(5.0, 67.9245283018868%, 41.56862745098039%, 1.0); stroke-linecap: butt; stroke-linejoin: miter;  fill: none;" d="M 0,0 M 0,0 M 7.0710678118654755,7.071067811865475 L 2.31195343368617,6.607183312158573 L -1.119644761033078,9.937122098932425 L -3.7242245356073553,5.927069394597989 L -8.46724199228284,5.320320765153367 L -6.955985469252698,0.7837513327231559 L -9.438833303083676,-3.3027906195516694 L -4.949747468305834,-4.949747468305832 L -3.3027906195516725,-9.438833303083674 L 0.7837513327231538,-6.955985469252698 L 5.3203207651533635,-8.467241992282842 L 5.927069394597988,-3.7242245356073576 L 9.937122098932425,-1.1196447610330809 L 6.607183312158574,2.311953433686168 L 7.071067811865477,7.071067811865474 Z"></path><g></g></g></g></g></g></g></g></svg>